<svg width="809" height="694" viewBox="0 0 809 694" fill="none" xmlns="http://www.w3.org/2000/svg">
<g clip-path="url(#clip0_2_2)">
<path d="M168.019 389.31C131.427 353.288 115.973 315.708 124.501 283.494C135.445 242.154 184.066 213.57 257.895 205.073L258.168 207.444C185.366 215.823 137.487 243.765 126.808 284.104C118.508 315.455 133.739 352.214 169.694 387.61L168.019 389.31Z" fill="#F0F0F0"/>
<path d="M521.067 517.177C475.399 517.177 425.771 510.39 376.478 497.34C315.519 481.202 259.627 456.843 214.843 426.897L216.169 424.913C260.737 454.715 316.382 478.962 377.088 495.033C431.948 509.557 487.218 516.286 536.905 514.51L536.991 516.895C531.744 517.083 526.436 517.177 521.067 517.177Z" fill="#F0F0F0"/>
<path d="M625.837 502.169L625.073 499.908C665.917 486.099 691.464 463.853 698.951 435.573C708.467 399.624 687.792 357.907 640.732 318.106C593.432 278.104 525.224 244.912 448.67 224.646L449.281 222.338C526.169 242.694 594.709 276.058 642.272 316.284C690.076 356.713 711.024 399.294 701.258 436.184C693.556 465.274 667.476 488.091 625.837 502.169Z" fill="#F0F0F0"/>
<path d="M250.79 518.174C161.054 478.375 91.9049 426.741 56.0829 372.781L58.0709 371.461C93.6453 425.047 162.431 476.375 251.757 515.993L250.79 518.174Z" fill="#F0F0F0"/>
<path d="M566.296 587.123C557.04 587.123 547.626 586.916 538.054 586.503L538.156 584.119C609.589 587.212 672.616 578.663 720.435 559.393L721.328 561.607C679.614 578.415 626.446 587.123 566.296 587.123Z" fill="#F0F0F0"/>
<path d="M514.229 207.213C499.398 202.384 484.142 197.888 468.886 193.849C381.094 170.607 294.793 162.355 219.311 169.99L219.071 167.615C294.835 159.955 381.431 168.227 469.497 191.542C484.796 195.592 500.095 200.101 514.968 204.944L514.229 207.213Z" fill="#F0F0F0"/>
<path d="M111.936 392.89C75.3444 356.868 59.8898 319.288 68.418 287.074C79.3623 245.733 127.983 217.15 201.812 208.653L202.085 211.024C129.283 219.403 81.4045 247.344 70.7253 287.684C62.4255 319.035 77.6558 355.794 113.611 391.19L111.936 392.89Z" fill="#F0F0F0"/>
<path d="M464.985 520.756C419.316 520.756 369.689 513.97 320.395 500.92C259.436 484.782 203.544 460.423 158.76 430.477L160.086 428.493C204.654 458.295 260.299 482.542 321.005 498.612C375.865 513.137 431.135 519.866 480.822 518.09L480.908 520.474C475.661 520.663 470.353 520.757 464.985 520.756Z" fill="#F0F0F0"/>
<path d="M569.754 505.749L568.99 503.488C609.834 489.678 635.381 467.432 642.868 439.153C652.385 403.204 631.709 361.486 584.649 321.686C537.349 281.684 469.141 248.492 392.588 228.225L393.198 225.918C470.086 246.273 538.626 279.637 586.189 319.864C633.993 360.293 654.941 402.874 645.175 439.764C637.474 468.854 611.393 491.671 569.754 505.749Z" fill="#F0F0F0"/>
<path d="M194.707 521.754C104.971 481.955 35.822 430.32 0 376.361L1.98799 375.041C37.5624 428.627 106.348 479.955 195.674 519.573L194.707 521.754Z" fill="#F0F0F0"/>
<path d="M510.213 590.703C500.957 590.703 491.543 590.496 481.971 590.083L482.073 587.699C553.507 590.791 616.533 582.243 664.352 562.972L665.245 565.186C623.531 581.995 570.364 590.703 510.213 590.703Z" fill="#F0F0F0"/>
<path d="M458.147 210.793C443.315 205.964 428.059 201.468 412.803 197.429C325.011 174.187 238.71 165.935 163.228 173.57L162.988 171.195C238.752 163.535 325.348 171.807 413.414 195.121C428.713 199.172 444.012 203.681 458.885 208.524L458.147 210.793Z" fill="#F0F0F0"/>
<path d="M40.6767 328.969C57.8265 309.74 85.1832 298.021 109.975 305.037C87.1035 321.222 70.6946 344.975 63.651 372.094C60.9724 382.563 59.0833 394.485 50.3772 400.886C44.9601 404.869 37.7823 405.82 31.1203 404.913C24.4581 404.006 18.1588 401.415 11.9445 398.848L10.2722 398.993C15.08 373.68 23.527 348.197 40.6767 328.969Z" fill="#F2F2F2"/>
<path d="M109.899 305.572C89.1716 310.59 70.5525 322.012 56.6863 338.215C53.6393 341.65 51.1528 345.544 49.3184 349.754C47.6639 353.912 47.1532 358.437 47.8392 362.86C48.3959 366.996 49.4445 371.163 48.9861 375.362C48.7195 377.509 48.0023 379.574 46.8814 381.424C45.7606 383.273 44.2614 384.865 42.4822 386.095C38.1288 389.274 32.8926 390.699 27.7237 391.914C21.9846 393.264 16.0021 394.575 11.3238 398.39C10.757 398.852 10.0731 397.945 10.6391 397.484C18.7785 390.848 30.0904 391.7 39.0959 386.88C43.298 384.631 46.8478 381.102 47.7109 376.259C48.4656 372.025 47.388 367.727 46.7881 363.544C46.0556 359.24 46.3883 354.821 47.757 350.675C49.3712 346.386 51.7036 342.403 54.6542 338.896C61.171 330.895 68.9052 323.969 77.5736 318.371C87.4313 311.927 98.3187 307.217 109.765 304.444C110.473 304.273 110.603 305.402 109.899 305.572Z" fill="white"/>
<path d="M60.8441 332.735C58.4414 330.04 57.0752 326.578 56.9892 322.968C56.9033 319.358 58.1034 315.835 60.3751 313.029C60.8367 312.462 61.7385 313.153 61.2762 313.72C59.156 316.33 58.0384 319.611 58.1253 322.973C58.2122 326.334 59.4977 329.554 61.7499 332.05C62.2387 332.594 61.3301 333.275 60.8441 332.735Z" fill="white"/>
<path d="M47.2806 360.8C54.6458 361.289 61.9247 358.984 67.666 354.345C68.2345 353.885 68.9185 354.791 68.3508 355.251C62.3672 360.067 54.7875 362.45 47.1243 361.925C46.3939 361.874 46.5542 360.749 47.2806 360.8Z" fill="white"/>
<path d="M87.6866 313.411C88.3989 314.648 89.4073 315.688 90.621 316.439C91.8348 317.189 93.216 317.627 94.6406 317.712C95.3713 317.753 95.2102 318.877 94.4843 318.836C92.9107 318.735 91.386 318.25 90.0431 317.424C88.7002 316.597 87.5801 315.455 86.7808 314.096C86.6947 313.974 86.6582 313.824 86.6787 313.676C86.6993 313.528 86.7752 313.394 86.8913 313.3C87.0117 313.21 87.1628 313.171 87.3117 313.192C87.4606 313.213 87.5953 313.291 87.6866 313.411Z" fill="white"/>
<path d="M145.166 384.859C144.709 384.846 144.252 384.833 143.79 384.828C137.645 384.687 131.499 385.045 125.413 385.9C124.941 385.958 124.464 386.025 123.995 386.097C109.353 388.312 95.25 393.226 82.4021 400.589C77.2923 403.524 72.4132 406.843 67.807 410.518C61.446 415.594 54.9528 421.603 47.5057 424.205C46.7318 424.485 45.9413 424.717 45.1387 424.899L10.5787 401.021C10.5274 400.928 10.4703 400.842 10.4186 400.748L8.99512 399.857C9.21944 399.651 9.45653 399.442 9.68085 399.236C9.81048 399.116 9.94784 399.001 10.0774 398.881C10.1663 398.803 10.2555 398.725 10.3312 398.649C10.3607 398.622 10.3906 398.597 10.4147 398.578C10.4904 398.502 10.5687 398.44 10.639 398.372C11.961 397.2 13.2936 396.036 14.6367 394.879C14.6421 394.871 14.6422 394.871 14.6553 394.868C24.9117 386.077 35.992 378.065 47.9363 371.989C48.2957 371.806 48.6602 371.615 49.0354 371.444C54.4345 368.735 60.046 366.472 65.8138 364.677C68.9752 363.705 72.1838 362.893 75.4273 362.245C83.8113 360.586 92.404 360.257 100.89 361.269C117.807 363.288 133.89 370.696 144.375 383.846C144.643 384.183 144.904 384.514 145.166 384.859Z" fill="#F2F2F2"/>
<path d="M144.786 385.244C125.215 376.771 103.471 374.681 82.6448 379.27C78.1438 380.178 73.8141 381.79 69.815 384.047C65.9905 386.371 62.858 389.676 60.7431 393.621C58.6974 397.258 57.026 401.216 54.1316 404.294C52.6266 405.847 50.8102 407.064 48.8017 407.866C46.7932 408.668 44.6378 409.036 42.477 408.947C37.087 408.864 32.0482 406.85 27.1892 404.708C21.7942 402.331 16.2281 399.776 10.1964 400.004C9.4656 400.032 9.46534 398.896 10.1951 398.869C20.6891 398.471 29.2081 405.962 39.3004 407.535C44.0096 408.269 48.9687 407.589 52.5733 404.242C55.7254 401.315 57.4524 397.235 59.492 393.534C61.4987 389.656 64.4244 386.329 68.0135 383.842C71.8848 381.39 76.1452 379.613 80.6124 378.59C90.6327 376.125 100.978 375.252 111.27 376.001C123.02 376.791 134.549 379.585 145.358 384.262C146.026 384.552 145.45 385.531 144.786 385.244Z" fill="white"/>
<path d="M89.264 377.398C88.9684 373.799 89.9618 370.212 92.0666 367.278C94.1714 364.344 97.2506 362.254 100.754 361.381C101.464 361.206 101.768 362.301 101.057 362.475C97.7933 363.282 94.9252 365.23 92.9708 367.966C91.0164 370.702 90.1045 374.047 90.3995 377.396C90.4628 378.124 89.3269 378.121 89.264 377.398Z" fill="white"/>
<path d="M61.5375 391.639C67.1237 396.464 74.3231 399.006 81.7003 398.759C82.4312 398.734 82.4317 399.869 81.7017 399.895C74.0243 400.138 66.5375 397.477 60.7355 392.443C60.1828 391.963 60.9878 391.162 61.5375 391.639Z" fill="white"/>
<path d="M122.331 378.129C122.155 379.545 122.334 380.983 122.851 382.313C123.368 383.643 124.207 384.824 125.294 385.75C125.852 386.223 125.047 387.024 124.492 386.554C123.296 385.526 122.371 384.22 121.796 382.752C121.222 381.284 121.015 379.697 121.195 378.131C121.2 377.981 121.261 377.84 121.366 377.734C121.472 377.629 121.613 377.567 121.762 377.562C121.913 377.563 122.057 377.623 122.163 377.729C122.27 377.835 122.33 377.979 122.331 378.129Z" fill="white"/>
<path d="M712.665 486.593C702.975 462.719 681.149 442.487 655.442 440.762C671.543 463.692 679.013 491.579 676.533 519.488C675.537 530.248 673.309 542.111 679.357 551.066C683.121 556.638 689.561 559.946 696.141 561.331C702.72 562.716 709.524 562.393 716.239 562.063L717.766 562.762C721.745 537.306 722.354 510.466 712.665 486.593Z" fill="#F2F2F2"/>
<path d="M655.333 441.291C673.168 452.984 686.865 470 694.479 489.921C696.194 494.18 697.227 498.683 697.54 503.264C697.701 507.737 696.661 512.17 694.528 516.105C692.614 519.813 690.226 523.385 689.246 527.495C688.776 529.606 688.757 531.792 689.191 533.911C689.625 536.03 690.502 538.033 691.764 539.789C694.796 544.246 699.249 547.348 703.708 550.23C708.66 553.43 713.854 556.676 716.978 561.841C717.356 562.466 718.305 561.842 717.927 561.217C712.492 552.232 701.551 549.232 694.69 541.666C691.488 538.136 689.331 533.619 690.146 528.768C690.858 524.526 693.317 520.841 695.288 517.103C697.425 513.295 698.597 509.022 698.701 504.657C698.622 500.075 697.764 495.539 696.164 491.245C692.715 481.519 687.759 472.396 681.476 464.21C674.358 454.828 665.687 446.733 655.839 440.274C655.229 439.875 654.728 440.895 655.333 441.291Z" fill="white"/>
<path d="M692.405 483.362C695.574 481.631 698.024 478.829 699.318 475.458C700.612 472.087 700.666 468.366 699.47 464.959C699.225 464.271 698.144 464.618 698.389 465.308C699.509 468.478 699.458 471.944 698.247 475.081C697.035 478.218 694.742 480.818 691.782 482.412C691.139 482.76 691.766 483.707 692.405 483.362Z" fill="white"/>
<path d="M695.747 514.352C688.646 512.338 682.565 507.721 678.717 501.422C678.336 500.797 677.387 501.421 677.767 502.045C681.784 508.592 688.122 513.384 695.516 515.464C696.221 515.662 696.448 514.549 695.747 514.352Z" fill="white"/>
<path d="M673.619 456.14C672.532 457.065 671.233 457.706 669.837 458.005C668.442 458.304 666.994 458.252 665.624 457.853C664.922 457.647 664.696 458.76 665.393 458.965C666.909 459.399 668.508 459.454 670.051 459.127C671.593 458.8 673.032 458.101 674.242 457.089C674.364 457.004 674.449 456.874 674.479 456.728C674.509 456.582 674.483 456.43 674.405 456.303C674.322 456.178 674.193 456.09 674.045 456.06C673.898 456.029 673.745 456.058 673.619 456.14Z" fill="white"/>
<path d="M595.469 504.112C595.904 504.254 596.339 504.395 596.776 504.546C602.611 506.478 608.278 508.882 613.724 511.732C614.148 511.946 614.575 512.169 614.993 512.394C628.038 519.401 639.67 528.77 649.295 540.023C653.121 544.504 656.601 549.27 659.704 554.28C663.989 561.198 668.085 569.04 674.224 573.993C674.859 574.517 675.526 575.001 676.22 575.443L716.795 564.57C716.875 564.499 716.958 564.437 717.038 564.366L718.678 564.006C718.536 563.736 718.383 563.46 718.241 563.19C718.159 563.033 718.068 562.879 717.987 562.722C717.929 562.619 717.871 562.515 717.826 562.418C717.807 562.384 717.787 562.349 717.771 562.324C717.725 562.227 717.672 562.142 717.629 562.054C716.777 560.506 715.914 558.962 715.038 557.42C715.035 557.411 715.035 557.411 715.024 557.404C708.319 545.677 700.576 534.407 691.369 524.67C691.092 524.377 690.812 524.075 690.517 523.787C686.342 519.421 681.818 515.404 676.989 511.775C674.338 509.797 671.589 507.954 668.752 506.253C661.413 501.873 653.431 498.675 645.098 496.776C628.487 492.992 610.85 494.563 596.555 503.425C596.189 503.651 595.832 503.876 595.469 504.112Z" fill="#F2F2F2"/>
<path d="M595.698 504.603C616.979 503.201 638.159 508.54 656.232 519.862C660.166 522.23 663.702 525.204 666.71 528.673C669.531 532.147 671.37 536.314 672.036 540.739C672.74 544.853 672.984 549.142 674.676 553.013C675.572 554.982 676.873 556.739 678.495 558.17C680.117 559.6 682.023 560.671 684.089 561.313C689.193 563.047 694.616 562.843 699.912 562.459C705.792 562.033 711.893 561.498 717.497 563.74C718.176 564.012 718.558 562.942 717.88 562.671C708.13 558.769 697.589 562.961 687.555 561.051C682.873 560.16 678.431 557.852 676.161 553.489C674.176 549.673 673.921 545.25 673.244 541.078C672.657 536.751 671.02 532.634 668.475 529.086C665.654 525.475 662.238 522.37 658.375 519.905C649.766 514.216 640.316 509.916 630.371 507.162C619.038 503.957 607.241 502.714 595.49 503.486C594.762 503.535 594.976 504.651 595.698 504.603Z" fill="white"/>
<path d="M650.627 515.874C652.115 512.584 652.385 508.872 651.389 505.401C650.392 501.931 648.195 498.927 645.189 496.927C644.579 496.524 643.925 497.453 644.535 497.856C647.338 499.713 649.385 502.511 650.306 505.745C651.227 508.979 650.962 512.436 649.558 515.491C649.254 516.155 650.325 516.535 650.627 515.874Z" fill="white"/>
<path d="M671.954 538.606C665.071 541.273 657.436 541.247 650.571 538.535C649.891 538.266 649.509 539.335 650.188 539.604C657.337 542.413 665.283 542.424 672.439 539.633C673.121 539.366 672.632 538.341 671.954 538.606Z" fill="white"/>
<path d="M619.238 505.449C618.928 506.842 618.276 508.136 617.342 509.215C616.408 510.294 615.22 511.124 613.886 511.631C613.201 511.889 613.691 512.914 614.371 512.658C615.843 512.091 617.153 511.173 618.188 509.983C619.223 508.793 619.95 507.368 620.307 505.832C620.353 505.69 620.343 505.536 620.279 505.401C620.215 505.267 620.103 505.161 619.964 505.106C619.822 505.056 619.666 505.064 619.53 505.129C619.395 505.193 619.289 505.308 619.238 505.449Z" fill="white"/>
<path d="M524.682 567.886C529.955 567.886 534.229 563.612 534.229 558.34C534.229 553.068 529.955 548.794 524.682 548.794C519.41 548.794 515.136 553.068 515.136 558.34C515.136 563.612 519.41 567.886 524.682 567.886Z" fill="#FD6584"/>
<path d="M558.496 405.296C563.768 405.296 568.042 401.022 568.042 395.75C568.042 390.478 563.768 386.204 558.496 386.204C553.224 386.204 548.95 390.478 548.95 395.75C548.95 401.022 553.224 405.296 558.496 405.296Z" fill="#E6E6E6"/>
<path d="M380.867 140.508C386.14 140.508 390.413 136.234 390.413 130.962C390.413 125.69 386.14 121.416 380.867 121.416C375.595 121.416 371.321 125.69 371.321 130.962C371.321 136.234 375.595 140.508 380.867 140.508Z" fill="#E6E6E6"/>
<path d="M180.825 497.146C180.825 499.576 180.905 502.006 181.075 504.416C181.255 507.296 181.566 510.156 181.986 512.996C183.397 522.558 186.095 531.886 190.005 540.726C190.205 541.166 190.405 541.606 190.605 542.046L190.905 542.706C191.005 542.926 191.115 543.146 191.215 543.356C191.355 543.646 191.485 543.926 191.625 544.206C191.795 544.556 191.965 544.906 192.145 545.256C192.165 545.296 192.185 545.346 192.215 545.396C192.365 545.696 192.505 545.986 192.665 546.286C192.695 546.351 192.728 546.414 192.766 546.476C192.936 546.816 193.116 547.166 193.296 547.506C193.496 547.866 193.685 548.236 193.885 548.596C194.365 549.486 194.865 550.366 195.375 551.246C195.525 551.506 195.675 551.766 195.835 552.026C195.975 552.266 196.116 552.506 196.266 552.746C196.366 552.906 196.465 553.076 196.565 553.236C196.725 553.506 196.885 553.766 197.055 554.036C197.425 554.626 197.805 555.216 198.175 555.806H198.185C198.355 556.076 198.535 556.346 198.715 556.606V556.616C199.245 557.416 199.795 558.216 200.345 559.006H200.349L200.353 559.008L200.355 559.012V559.016C200.795 559.656 201.255 560.276 201.705 560.896V560.906C202.005 561.296 202.295 561.696 202.595 562.086C202.835 562.406 203.085 562.736 203.335 563.056C203.385 563.126 203.445 563.186 203.495 563.256V563.266C203.565 563.356 203.635 563.436 203.705 563.526C204.765 564.886 205.859 566.216 206.986 567.516L207.165 567.726C207.225 567.796 207.295 567.866 207.355 567.946C207.455 568.056 207.545 568.166 207.645 568.276C207.735 568.386 207.835 568.496 207.935 568.606C213.809 575.221 220.468 581.095 227.766 586.096C228.736 586.766 229.725 587.416 230.715 588.046C230.965 588.206 231.215 588.366 231.465 588.516C231.535 588.566 231.615 588.616 231.685 588.666C231.825 588.746 231.955 588.826 232.095 588.916C232.225 588.996 232.355 589.076 232.495 589.156C233.025 589.486 233.565 589.806 234.105 590.126C234.235 590.206 234.376 590.286 234.516 590.366C234.646 590.436 234.785 590.516 234.925 590.596C234.925 590.606 234.925 590.606 234.935 590.606H234.945V590.616H234.955C235.626 591.006 236.306 591.386 236.995 591.756C237.365 591.956 237.745 592.166 238.125 592.356C238.985 592.826 239.855 593.276 240.725 593.706C241.035 593.856 241.355 594.006 241.665 594.166C241.925 594.286 242.185 594.416 242.445 594.536C242.525 594.576 242.595 594.606 242.665 594.646C242.885 594.746 243.095 594.846 243.315 594.946C243.555 595.056 243.795 595.166 244.025 595.276C244.295 595.396 244.556 595.516 244.826 595.626C245.826 596.076 246.835 596.506 247.845 596.916C251.465 598.399 255.164 599.681 258.925 600.756C259.095 600.806 259.275 600.856 259.455 600.906C261.066 601.356 262.686 601.766 264.316 602.136C267.166 602.796 270.042 603.336 272.946 603.756H272.966C273.316 603.806 273.656 603.856 274.006 603.906C274.036 603.906 274.066 603.916 274.106 603.916C274.106 603.926 274.106 603.926 274.116 603.916C274.496 603.966 274.886 604.016 275.266 604.066C275.291 604.073 275.319 604.077 275.346 604.076C275.706 604.126 276.076 604.166 276.436 604.206C276.826 604.246 277.215 604.286 277.606 604.326C277.906 604.356 278.206 604.386 278.506 604.416C278.531 604.425 278.558 604.428 278.586 604.426C278.856 604.446 279.126 604.476 279.396 604.496H279.436C279.666 604.516 279.906 604.536 280.136 604.556C282.926 604.776 285.726 604.876 288.566 604.876C291.636 604.876 294.686 604.756 297.696 604.496H297.726C298.376 604.436 299.016 604.376 299.656 604.316C299.826 604.296 299.986 604.286 300.156 604.266C300.186 604.266 300.226 604.256 300.256 604.256C300.306 604.246 300.356 604.246 300.416 604.236C300.443 604.237 300.47 604.233 300.496 604.226C300.716 604.206 300.936 604.176 301.166 604.156L301.916 604.066C302.166 604.036 302.416 603.996 302.666 603.966C302.726 603.956 302.776 603.956 302.836 603.946C303.016 603.926 303.196 603.896 303.376 603.866C303.466 603.856 303.556 603.846 303.636 603.836C303.816 603.806 303.986 603.786 304.166 603.756H304.176C309.663 602.966 315.08 601.745 320.376 600.106C320.656 600.016 320.936 599.936 321.216 599.846C321.226 599.846 321.236 599.836 321.246 599.836C321.326 599.806 321.416 599.786 321.496 599.756C322.246 599.516 322.986 599.266 323.726 599.006C324.746 598.666 325.756 598.296 326.766 597.916C327.036 597.806 327.306 597.706 327.576 597.596C328.126 597.386 328.666 597.166 329.206 596.946C330.126 596.576 331.046 596.186 331.956 595.786C332.806 595.406 333.646 595.026 334.486 594.626C334.506 594.616 334.536 594.616 334.556 594.596C334.746 594.506 334.936 594.416 335.116 594.326H335.126C339.731 592.116 344.172 589.579 348.416 586.736C349.776 585.826 351.116 584.886 352.436 583.916C353.496 583.126 354.536 582.326 355.576 581.506C360.706 577.425 365.456 572.886 369.766 567.946V567.936C370.076 567.596 370.366 567.246 370.666 566.896C370.716 566.846 370.756 566.796 370.796 566.756C370.986 566.526 371.166 566.306 371.356 566.086V566.076C371.606 565.786 371.856 565.486 372.096 565.186C372.156 565.116 372.206 565.056 372.256 564.996V564.986C372.456 564.746 372.646 564.506 372.846 564.256C372.946 564.136 373.036 564.016 373.136 563.896V563.886C373.726 563.146 374.296 562.406 374.866 561.646C375.016 561.446 375.166 561.236 375.326 561.026C376.046 560.056 376.746 559.066 377.426 558.076V558.066C377.686 557.696 377.936 557.316 378.196 556.946C378.446 556.566 378.696 556.186 378.946 555.806C379.196 555.406 379.456 555.016 379.706 554.616L379.736 554.556C379.986 554.176 380.236 553.776 380.476 553.386C380.666 553.066 380.856 552.756 381.046 552.446C381.166 552.236 381.296 552.026 381.416 551.806C381.462 551.738 381.506 551.668 381.546 551.596C381.826 551.106 382.106 550.616 382.386 550.126C382.716 549.556 383.036 548.976 383.356 548.396C383.476 548.156 383.606 547.916 383.736 547.676C383.786 547.596 383.826 547.516 383.866 547.436C384.016 547.156 384.166 546.866 384.306 546.576C384.456 546.296 384.606 546.006 384.756 545.716C384.895 545.436 385.046 545.146 385.186 544.856C385.296 544.636 385.396 544.416 385.506 544.196C385.513 544.178 385.523 544.161 385.536 544.146C385.586 544.036 385.636 543.936 385.676 543.836C385.688 543.821 385.698 543.804 385.706 543.786C385.816 543.566 385.916 543.336 386.026 543.116C386.166 542.826 386.296 542.526 386.436 542.236C386.526 542.036 386.626 541.826 386.716 541.616C386.846 541.326 386.986 541.036 387.106 540.736C387.246 540.436 387.376 540.136 387.506 539.826C387.543 539.751 387.576 539.674 387.606 539.596C387.676 539.456 387.726 539.316 387.786 539.176C387.946 538.806 388.106 538.426 388.256 538.056C388.436 537.636 388.606 537.206 388.766 536.786C388.926 536.396 389.076 535.996 389.226 535.596L389.286 535.456C391.616 529.319 393.383 522.983 394.566 516.526V516.516C395.233 512.829 395.71 509.111 395.996 505.376C396.006 505.166 396.026 504.966 396.036 504.766C396.216 502.236 396.296 499.696 396.296 497.146C396.296 496.016 396.276 494.896 396.246 493.776C395.547 470.352 387.195 447.802 372.466 429.576C372.146 429.176 371.826 428.776 371.496 428.376C371.166 427.976 370.826 427.586 370.496 427.196C359.533 414.358 345.708 404.275 330.134 397.761C314.56 391.247 297.673 388.483 280.835 389.693C263.997 390.902 247.679 396.051 233.196 404.725C218.713 413.398 206.47 425.353 197.456 439.626C196.966 440.406 196.476 441.196 196.006 441.986C195.526 442.786 195.066 443.586 194.606 444.396C185.546 460.499 180.8 478.669 180.825 497.146Z" fill="#F2F2F2"/>
<path d="M284.283 426.679C301.999 431.225 320.154 433.845 338.432 434.495C341.196 434.645 343.966 434.626 346.728 434.438C352.797 433.928 357.995 432.02 363.785 430.978C366.568 430.478 369.669 430.113 372.471 429.573C371.823 428.769 371.164 427.976 370.493 427.192C364.451 427.703 358.315 429.374 352.2 430.15C341.806 431.472 330.16 429.997 322.28 426.36C318.457 424.594 315.528 422.391 311.719 420.618C311.201 420.352 310.639 420.18 310.061 420.111C308.963 420.078 307.878 420.359 306.934 420.922C300.543 424.148 291.263 426.771 282.65 425.328C282.008 425.83 283.228 426.403 284.283 426.679Z" fill="white"/>
<path d="M246.169 438.034C246.09 438.02 246.011 438.009 245.932 437.995C246.263 437.79 246.575 437.555 246.863 437.294L246.169 438.034Z" fill="white"/>
<path d="M194.608 444.4C198.205 444.687 201.821 444.901 205.456 445.042C208.22 445.191 210.991 445.172 213.752 444.986C219.821 444.473 225.02 442.568 230.809 441.525C236.115 440.572 242.563 440.112 245.932 437.995C237.225 436.488 228.203 439.556 219.225 440.698C211.962 441.591 204.6 441.227 197.461 439.623C196.467 441.187 195.516 442.779 194.608 444.4Z" fill="white"/>
<path d="M238.126 592.356C238.986 592.826 239.856 593.276 240.726 593.706C241.036 593.856 241.356 594.006 241.666 594.166C241.926 594.286 242.186 594.416 242.446 594.536C242.526 594.576 242.596 594.606 242.666 594.646C242.886 594.746 243.096 594.846 243.316 594.946C243.556 595.056 243.796 595.166 244.026 595.276C244.296 595.396 244.556 595.516 244.826 595.626C245.826 596.076 246.836 596.506 247.846 596.916C251.465 598.399 255.164 599.681 258.926 600.756C259.096 600.806 259.276 600.856 259.456 600.906C261.066 601.356 262.686 601.766 264.316 602.136C267.166 602.796 270.042 603.336 272.946 603.756H272.966C273.316 603.806 273.656 603.856 274.006 603.906C274.036 603.906 274.066 603.916 274.106 603.916C274.106 603.926 274.106 603.926 274.116 603.916C274.496 603.966 274.886 604.016 275.266 604.066C275.291 604.073 275.319 604.077 275.346 604.076C275.706 604.126 276.076 604.166 276.436 604.206C276.826 604.246 277.216 604.286 277.606 604.326C277.906 604.356 278.206 604.386 278.506 604.416C278.531 604.425 278.558 604.428 278.586 604.426C278.856 604.446 279.126 604.476 279.396 604.496H279.436C279.666 604.516 279.906 604.536 280.136 604.556C282.926 604.776 285.726 604.876 288.566 604.876C291.636 604.876 294.686 604.756 297.696 604.496H297.726C298.376 604.436 299.016 604.376 299.656 604.316C299.826 604.296 299.986 604.286 300.156 604.266C300.186 604.266 300.226 604.256 300.256 604.256C300.306 604.246 300.356 604.246 300.416 604.236C300.443 604.237 300.47 604.233 300.496 604.226C300.716 604.206 300.936 604.176 301.166 604.156L301.916 604.066C302.166 604.036 302.416 603.996 302.666 603.966C302.726 603.956 302.776 603.956 302.836 603.946C303.016 603.926 303.196 603.896 303.376 603.866C303.466 603.856 303.556 603.846 303.636 603.836C303.816 603.806 303.986 603.786 304.166 603.756H304.176C309.663 602.966 315.08 601.745 320.376 600.106C320.656 600.016 320.936 599.936 321.216 599.846C319.924 593.824 317.266 588.18 313.446 583.349C309.626 578.518 304.747 574.631 299.186 571.986C300.561 570.675 301.512 568.982 301.916 567.126C302.175 565.929 302.196 564.693 301.976 563.488C301.756 562.283 301.301 561.134 300.636 560.106C299.338 558.113 297.302 556.718 294.976 556.226L280.156 553.126C277.77 552.661 275.297 553.156 273.275 554.504C271.252 555.853 269.844 557.945 269.356 560.326C269.204 561.056 269.137 561.801 269.156 562.546C254.886 572.046 244.615 581.896 238.126 592.356Z" fill="#E5A8FF"/>
<path d="M281.884 547.272C298.937 547.272 312.76 533.449 312.76 516.397C312.76 499.345 298.937 485.521 281.884 485.521C264.832 485.521 251.009 499.345 251.009 516.397C251.009 533.449 264.832 547.272 281.884 547.272Z" fill="#FFB8B8"/>
<path d="M262.639 543.016C259.347 540.767 255.984 536.445 253.74 533.206C250.765 528.948 248.719 524.113 247.733 519.014C246.746 513.914 246.843 508.665 248.015 503.605C248.389 501.582 249.308 499.699 250.673 498.16C252.127 496.721 254.502 496.039 256.277 497.056C255.793 495.759 255.579 494.377 255.65 492.994C255.721 491.611 256.074 490.257 256.689 489.017C257.936 486.539 259.744 484.386 261.968 482.729C266.222 479.453 271.283 477.39 276.615 476.759C281.947 476.128 287.35 476.952 292.251 479.143C294.18 480.037 291.012 473.135 293.031 473.801C295.036 474.577 297.266 474.538 299.243 473.691C301.141 472.736 307.434 478.414 306.706 476.417C308.147 477.071 309.399 478.079 310.345 479.348C311.291 480.616 311.901 482.103 312.118 483.671C312.335 485.238 312.152 486.835 311.585 488.312C311.018 489.79 310.087 491.1 308.878 492.121C307.284 493.466 305.295 494.24 303.55 495.382C300.493 497.533 298.329 500.728 297.467 504.365C296.605 508.002 297.105 511.829 298.871 515.123C297.036 513.943 295.021 513.068 292.907 512.531C291.846 512.272 290.738 512.27 289.676 512.525C288.615 512.781 287.629 513.286 286.802 513.999C286.111 514.79 285.589 515.714 285.267 516.714C284.946 517.714 284.833 518.769 284.935 519.815C285.004 521.91 285.502 523.974 285.558 526.07C285.722 532.219 289.016 543.91 284.248 547.178C280.486 549.758 267.135 546.087 262.639 543.016Z" fill="#2F2E41"/>
<path d="M626.712 126C626.296 125.999 625.885 125.916 625.502 125.754C624.929 125.523 624.44 125.124 624.097 124.609C623.755 124.094 623.575 123.487 623.582 122.868V119.729C623.581 119.071 623.32 118.44 622.857 117.974C622.394 117.509 621.766 117.247 621.111 117.246C620.286 117.245 619.495 116.916 618.912 116.33C618.329 115.744 618.001 114.95 618 114.121V71.1252C618.001 70.2967 618.329 69.5023 618.912 68.9165C619.495 68.3306 620.286 68.001 621.11 68H762.889C763.714 68.0009 764.505 68.3305 765.088 68.9164C765.671 69.5023 765.999 70.2966 766 71.1252V114.121C765.999 114.95 765.671 115.744 765.088 116.33C764.505 116.916 763.714 117.245 762.889 117.246H637.71C637.385 117.245 637.063 117.309 636.763 117.434C636.463 117.559 636.191 117.742 635.962 117.973L628.892 125.077C628.607 125.368 628.268 125.6 627.894 125.758C627.52 125.917 627.118 125.999 626.712 126Z" fill="white"/>
<path d="M626.396 126C625.894 125.999 625.397 125.9 624.934 125.707C624.241 125.429 623.648 124.951 623.233 124.333C622.819 123.715 622.601 122.987 622.609 122.244V119.121C622.608 118.635 622.414 118.169 622.069 117.826C621.724 117.482 621.256 117.289 620.768 117.288C619.769 117.287 618.811 116.892 618.105 116.189C617.398 115.486 617.001 114.533 617 113.539V70.7493C617.001 69.7553 617.398 68.8023 618.105 68.0994C618.811 67.3965 619.769 67.0011 620.768 67H763.232C764.231 67.0011 765.189 67.3965 765.895 68.0994C766.602 68.8023 766.999 69.7553 767 70.7493V113.539C766.999 114.533 766.602 115.486 765.895 116.189C765.189 116.892 764.231 117.287 763.232 117.288H637.447C637.205 117.287 636.966 117.335 636.742 117.427C636.519 117.519 636.316 117.654 636.145 117.825L629.041 124.894C628.695 125.243 628.284 125.521 627.83 125.711C627.376 125.901 626.889 125.999 626.396 126ZM620.768 68.2782C620.109 68.2789 619.478 68.5395 619.012 69.0028C618.547 69.4661 618.285 70.0942 618.284 70.7493V113.539C618.285 114.194 618.547 114.822 619.013 115.285C619.478 115.749 620.109 116.009 620.768 116.01C621.596 116.011 622.391 116.339 622.977 116.922C623.563 117.505 623.892 118.296 623.893 119.121V122.244C623.893 122.732 624.039 123.21 624.312 123.616C624.585 124.022 624.973 124.339 625.426 124.526C625.88 124.713 626.379 124.762 626.861 124.667C627.342 124.571 627.785 124.336 628.132 123.99L635.237 116.921C635.526 116.631 635.871 116.402 636.25 116.245C636.63 116.089 637.036 116.009 637.447 116.01H763.232C763.891 116.009 764.522 115.749 764.988 115.285C765.453 114.822 765.715 114.194 765.716 113.539V70.7493C765.715 70.0941 765.453 69.466 764.987 69.0027C764.522 68.5394 763.891 68.2789 763.232 68.2782H620.768Z" fill="#3F3D56"/>
<path d="M751.334 87H635.666C635.224 87 634.8 86.842 634.488 86.5607C634.176 86.2793 634 85.8978 634 85.5C634 85.1022 634.176 84.7206 634.488 84.4393C634.8 84.158 635.224 84 635.666 84H751.334C751.776 84 752.2 84.158 752.512 84.4393C752.824 84.7206 753 85.1022 753 85.5C753 85.8978 752.824 86.2793 752.512 86.5607C752.2 86.842 751.776 87 751.334 87Z" fill="#E5A8FF"/>
<path d="M751.331 94H635.669C635.226 94 634.802 93.842 634.489 93.5607C634.176 93.2794 634 92.8978 634 92.5C634 92.1022 634.176 91.7207 634.489 91.4393C634.802 91.158 635.226 91 635.669 91H751.331C751.774 91 752.198 91.158 752.511 91.4393C752.824 91.7207 753 92.1022 753 92.5C753 92.8978 752.824 93.2794 752.511 93.5607C752.198 93.842 751.774 94 751.331 94Z" fill="#E6E6E6"/>
<path d="M750.343 101H635.657C635.217 101 634.796 100.842 634.485 100.561C634.175 100.279 634 99.8978 634 99.5C634 99.1022 634.175 98.7206 634.485 98.4393C634.796 98.158 635.217 98 635.657 98H750.343C750.783 98 751.204 98.158 751.515 98.4393C751.826 98.7206 752 99.1022 752 99.5C752 99.8978 751.826 100.279 751.515 100.561C751.204 100.842 750.783 101 750.343 101Z" fill="#E6E6E6"/>
<path d="M252.712 621C252.296 621.001 251.885 621.084 251.502 621.246C250.929 621.477 250.44 621.876 250.097 622.391C249.755 622.906 249.575 623.513 249.582 624.132V627.271C249.581 627.929 249.32 628.56 248.857 629.026C248.394 629.491 247.766 629.753 247.111 629.754C246.286 629.755 245.495 630.084 244.912 630.67C244.329 631.256 244.001 632.05 244 632.879V675.875C244.001 676.703 244.329 677.498 244.912 678.084C245.495 678.669 246.286 678.999 247.11 679H388.889C389.714 678.999 390.505 678.67 391.088 678.084C391.671 677.498 391.999 676.703 392 675.875V632.879C391.999 632.05 391.671 631.256 391.088 630.67C390.505 630.084 389.714 629.755 388.889 629.754H263.71C263.385 629.755 263.063 629.691 262.763 629.566C262.463 629.441 262.191 629.258 261.962 629.027L254.892 621.923C254.607 621.632 254.268 621.4 253.894 621.242C253.52 621.083 253.118 621.001 252.712 621Z" fill="white"/>
<path d="M252.396 621C251.894 621.001 251.397 621.1 250.934 621.293C250.241 621.571 249.648 622.049 249.233 622.667C248.819 623.285 248.601 624.013 248.609 624.756V627.879C248.608 628.365 248.414 628.831 248.069 629.174C247.724 629.518 247.256 629.711 246.768 629.712C245.769 629.713 244.811 630.108 244.105 630.811C243.398 631.514 243.001 632.467 243 633.461V676.251C243.001 677.245 243.398 678.198 244.105 678.901C244.811 679.603 245.769 679.999 246.768 680H389.232C390.231 679.999 391.189 679.603 391.895 678.901C392.602 678.198 392.999 677.245 393 676.251V633.461C392.999 632.467 392.602 631.514 391.895 630.811C391.189 630.108 390.231 629.713 389.232 629.712H263.447C263.205 629.713 262.966 629.665 262.742 629.573C262.519 629.481 262.316 629.346 262.145 629.175L255.041 622.106C254.695 621.757 254.284 621.479 253.83 621.289C253.376 621.099 252.889 621.001 252.396 621ZM246.768 678.722C246.109 678.721 245.478 678.461 245.012 677.997C244.547 677.534 244.285 676.906 244.284 676.251V633.461C244.285 632.806 244.547 632.178 245.013 631.715C245.478 631.251 246.109 630.991 246.768 630.99C247.596 630.989 248.391 630.661 248.977 630.078C249.563 629.495 249.892 628.704 249.893 627.879V624.756C249.893 624.268 250.039 623.79 250.312 623.384C250.585 622.978 250.973 622.661 251.426 622.474C251.88 622.287 252.379 622.238 252.861 622.333C253.342 622.429 253.785 622.664 254.132 623.01L261.237 630.079C261.526 630.369 261.871 630.598 262.25 630.755C262.63 630.911 263.036 630.991 263.447 630.99H389.232C389.891 630.991 390.522 631.251 390.988 631.715C391.453 632.178 391.715 632.806 391.716 633.461V676.251C391.715 676.906 391.453 677.534 390.987 677.997C390.522 678.461 389.891 678.721 389.232 678.722H246.768Z" fill="#3F3D56"/>
<path d="M377.334 649H261.666C261.224 649 260.8 648.842 260.488 648.561C260.176 648.279 260 647.898 260 647.5C260 647.102 260.176 646.721 260.488 646.439C260.8 646.158 261.224 646 261.666 646H377.334C377.776 646 378.2 646.158 378.512 646.439C378.824 646.721 379 647.102 379 647.5C379 647.898 378.824 648.279 378.512 648.561C378.2 648.842 377.776 649 377.334 649Z" fill="#E5A8FF"/>
<path d="M377.331 656H261.669C261.226 656 260.802 655.842 260.489 655.561C260.176 655.279 260 654.898 260 654.5C260 654.102 260.176 653.721 260.489 653.439C260.802 653.158 261.226 653 261.669 653H377.331C377.774 653 378.198 653.158 378.511 653.439C378.824 653.721 379 654.102 379 654.5C379 654.898 378.824 655.279 378.511 655.561C378.198 655.842 377.774 656 377.331 656Z" fill="#E6E6E6"/>
<path d="M376.343 663H261.657C261.217 663 260.796 662.842 260.485 662.561C260.175 662.279 260 661.898 260 661.5C260 661.102 260.175 660.721 260.485 660.439C260.796 660.158 261.217 660 261.657 660H376.343C376.783 660 377.204 660.158 377.515 660.439C377.826 660.721 378 661.102 378 661.5C378 661.898 377.826 662.279 377.515 662.561C377.204 662.842 376.783 663 376.343 663Z" fill="#E6E6E6"/>
<path d="M225.288 70C225.704 69.999 226.115 69.9155 226.498 69.7542C227.071 69.5233 227.56 69.1241 227.903 68.6091C228.245 68.094 228.425 67.487 228.418 66.8676V63.7292C228.419 63.0709 228.68 62.4398 229.143 61.9743C229.606 61.5088 230.234 61.247 230.889 61.2462C231.714 61.2453 232.505 60.9157 233.088 60.3298C233.671 59.7439 233.999 58.9496 234 58.121V15.1252C233.999 14.2967 233.671 13.5023 233.088 12.9165C232.505 12.3306 231.714 12.001 230.89 12H89.1105C88.2858 12.0009 87.4952 12.3305 86.9121 12.9164C86.3289 13.5023 86.0009 14.2966 86 15.1252V58.121C86.0009 58.9496 86.3289 59.7439 86.9121 60.3298C87.4952 60.9157 88.2858 61.2453 89.1105 61.2462H214.29C214.615 61.2453 214.937 61.3091 215.237 61.4339C215.537 61.5587 215.809 61.7421 216.038 61.9733L223.108 69.0769C223.393 69.3681 223.732 69.5997 224.106 69.7581C224.48 69.9166 224.882 69.9988 225.288 70Z" fill="white"/>
<path d="M225.604 70C226.106 69.9994 226.603 69.8997 227.066 69.7067C227.759 69.4295 228.352 68.9505 228.767 68.3326C229.181 67.7147 229.399 66.9866 229.391 66.2435V63.1205C229.392 62.6348 229.586 62.1691 229.931 61.8256C230.276 61.482 230.744 61.2888 231.232 61.2882C232.231 61.287 233.189 60.8916 233.895 60.1886C234.602 59.4857 234.999 58.5326 235 57.5386V14.7493C234.999 13.7553 234.602 12.8023 233.895 12.0994C233.189 11.3965 232.231 11.0011 231.232 11H88.7678C87.7689 11.0011 86.8112 11.3965 86.1048 12.0994C85.3985 12.8023 85.0011 13.7553 85 14.7493V57.5386C85.0011 58.5326 85.3983 59.4857 86.1047 60.1886C86.8111 60.8916 87.7688 61.287 88.7678 61.2882H214.553C214.795 61.2875 215.034 61.3346 215.258 61.4267C215.481 61.5188 215.684 61.6542 215.855 61.8249L222.959 68.8941C223.305 69.2433 223.716 69.5209 224.17 69.7108C224.624 69.9006 225.111 69.9989 225.604 70ZM231.232 12.2782C231.891 12.2789 232.522 12.5395 232.988 13.0028C233.453 13.4661 233.715 14.0942 233.716 14.7493V57.5386C233.715 58.1938 233.453 58.822 232.987 59.2854C232.522 59.7487 231.891 60.0093 231.232 60.01C230.404 60.0111 229.609 60.3392 229.023 60.9223C228.437 61.5054 228.108 62.296 228.107 63.1206V66.2436C228.107 66.7322 227.961 67.2099 227.688 67.6162C227.415 68.0224 227.027 68.3391 226.574 68.526C226.12 68.713 225.621 68.7619 225.139 68.6666C224.658 68.5712 224.215 68.3359 223.868 67.9904L216.763 60.9212C216.474 60.6314 216.129 60.4017 215.75 60.2452C215.37 60.0888 214.964 60.0089 214.553 60.01H88.7678C88.1093 60.0093 87.478 59.7487 87.0125 59.2854C86.5469 58.822 86.2851 58.1938 86.2845 57.5386V14.7493C86.2852 14.0941 86.547 13.466 87.0126 13.0027C87.4782 12.5394 88.1094 12.2789 88.7678 12.2782H231.232Z" fill="#3F3D56"/>
<path d="M100.666 31H216.334C216.776 31 217.2 30.842 217.512 30.5607C217.824 30.2793 218 29.8978 218 29.5C218 29.1022 217.824 28.7206 217.512 28.4393C217.2 28.158 216.776 28 216.334 28H100.666C100.224 28 99.8004 28.158 99.488 28.4393C99.1755 28.7206 99 29.1022 99 29.5C99 29.8978 99.1755 30.2793 99.488 30.5607C99.8004 30.842 100.224 31 100.666 31Z" fill="#E5A8FF"/>
<path d="M100.669 38H216.331C216.774 38 217.198 37.842 217.511 37.5607C217.824 37.2794 218 36.8978 218 36.5C218 36.1022 217.824 35.7207 217.511 35.4393C217.198 35.158 216.774 35 216.331 35H100.669C100.226 35 99.8018 35.158 99.4888 35.4393C99.1758 35.7207 99 36.1022 99 36.5C99 36.8978 99.1758 37.2794 99.4888 37.5607C99.8018 37.842 100.226 38 100.669 38Z" fill="#E6E6E6"/>
<path d="M101.657 45H216.343C216.783 45 217.204 44.842 217.515 44.5607C217.825 44.2793 218 43.8978 218 43.5C218 43.1022 217.825 42.7206 217.515 42.4393C217.204 42.158 216.783 42 216.343 42H101.657C101.217 42 100.796 42.158 100.485 42.4393C100.174 42.7206 100 43.1022 100 43.5C100 43.8978 100.174 44.2793 100.485 44.5607C100.796 44.842 101.217 45 101.657 45Z" fill="#E6E6E6"/>
<path d="M780.385 261.146C780.385 263.576 780.305 266.006 780.135 268.416C779.955 271.296 779.646 274.156 779.226 276.996C777.814 286.558 775.116 295.886 771.206 304.726C771.006 305.166 770.806 305.606 770.606 306.046L770.305 306.706C770.205 306.926 770.095 307.146 769.995 307.356C769.855 307.646 769.726 307.926 769.586 308.206C769.416 308.556 769.245 308.906 769.065 309.256C769.045 309.296 769.025 309.346 768.995 309.396C768.845 309.696 768.706 309.986 768.546 310.286C768.516 310.351 768.483 310.414 768.445 310.476C768.275 310.816 768.096 311.166 767.916 311.506C767.716 311.866 767.526 312.236 767.326 312.596C766.846 313.486 766.346 314.366 765.836 315.246C765.686 315.506 765.535 315.766 765.375 316.026C765.235 316.266 765.095 316.506 764.945 316.746C764.845 316.906 764.745 317.076 764.645 317.236C764.485 317.506 764.325 317.766 764.155 318.036C763.785 318.626 763.405 319.216 763.035 319.806H763.025C762.855 320.076 762.675 320.346 762.495 320.606V320.616C761.965 321.416 761.415 322.216 760.865 323.006H760.862C760.86 323.007 760.858 323.008 760.858 323.008C760.858 323.008 760.857 323.01 760.856 323.012C760.856 323.012 760.855 323.014 760.855 323.016C760.415 323.656 759.955 324.276 759.505 324.896V324.906C759.205 325.296 758.915 325.696 758.615 326.086C758.375 326.406 758.125 326.736 757.875 327.056C757.825 327.126 757.765 327.186 757.715 327.256V327.266C757.645 327.356 757.575 327.436 757.505 327.526C756.445 328.886 755.352 330.216 754.225 331.516L754.045 331.726C753.985 331.796 753.915 331.866 753.855 331.946C753.755 332.056 753.665 332.166 753.565 332.276C753.475 332.386 753.375 332.496 753.275 332.606C747.402 339.221 740.743 345.095 733.445 350.096C732.475 350.766 731.485 351.416 730.495 352.046C730.245 352.206 729.995 352.366 729.745 352.516C729.675 352.566 729.595 352.616 729.525 352.666C729.385 352.746 729.255 352.826 729.115 352.916C728.985 352.996 728.855 353.076 728.715 353.156C728.185 353.486 727.645 353.806 727.105 354.126C726.975 354.206 726.835 354.286 726.695 354.366C726.565 354.436 726.425 354.516 726.285 354.596C726.285 354.606 726.285 354.606 726.275 354.606H726.265V354.616H726.255C725.585 355.006 724.905 355.386 724.215 355.756C723.845 355.956 723.465 356.166 723.085 356.356C722.225 356.826 721.355 357.276 720.485 357.706C720.175 357.856 719.855 358.006 719.545 358.166C719.285 358.286 719.025 358.416 718.765 358.536C718.685 358.576 718.615 358.606 718.545 358.646C718.325 358.746 718.115 358.846 717.895 358.946C717.655 359.056 717.415 359.166 717.185 359.276C716.915 359.396 716.655 359.516 716.385 359.626C715.385 360.076 714.375 360.506 713.365 360.916C709.746 362.399 706.047 363.681 702.285 364.756C702.115 364.806 701.935 364.856 701.755 364.906C700.145 365.356 698.525 365.766 696.895 366.136C694.045 366.796 691.169 367.336 688.265 367.756H688.245C687.895 367.806 687.555 367.856 687.205 367.906C687.175 367.906 687.145 367.916 687.105 367.916C687.105 367.926 687.105 367.926 687.095 367.916C686.715 367.966 686.325 368.016 685.945 368.066C685.919 368.073 685.892 368.077 685.865 368.076C685.505 368.126 685.135 368.166 684.775 368.206C684.385 368.246 683.995 368.286 683.605 368.326C683.305 368.356 683.005 368.386 682.705 368.416C682.68 368.424 682.652 368.428 682.625 368.426C682.355 368.446 682.085 368.476 681.815 368.496H681.775C681.545 368.516 681.305 368.536 681.075 368.556C678.285 368.776 675.485 368.876 672.645 368.876C669.575 368.876 666.525 368.756 663.515 368.496H663.485C662.835 368.436 662.195 368.376 661.555 368.316C661.385 368.296 661.225 368.286 661.055 368.266C661.025 368.266 660.985 368.256 660.955 368.256C660.905 368.246 660.855 368.246 660.795 368.236C660.768 368.237 660.741 368.233 660.715 368.226C660.495 368.206 660.275 368.176 660.045 368.156L659.295 368.066C659.045 368.036 658.795 367.996 658.545 367.966C658.485 367.956 658.435 367.956 658.375 367.946C658.195 367.926 658.015 367.896 657.835 367.866C657.745 367.856 657.655 367.846 657.575 367.836C657.395 367.806 657.225 367.786 657.045 367.756H657.035C651.548 366.966 646.131 365.745 640.835 364.106C640.555 364.016 640.275 363.936 639.995 363.846C639.985 363.846 639.975 363.836 639.965 363.836C639.885 363.806 639.795 363.786 639.715 363.756C638.965 363.516 638.225 363.266 637.485 363.006C636.465 362.666 635.455 362.296 634.445 361.916C634.175 361.806 633.905 361.706 633.635 361.596C633.085 361.386 632.545 361.166 632.005 360.946C631.085 360.576 630.165 360.186 629.255 359.786C628.405 359.406 627.565 359.026 626.725 358.626C626.705 358.616 626.675 358.616 626.655 358.596C626.465 358.506 626.275 358.416 626.095 358.326H626.085C621.48 356.116 617.039 353.579 612.795 350.736C611.435 349.826 610.095 348.886 608.775 347.916C607.715 347.126 606.675 346.326 605.635 345.506C600.505 341.425 595.755 336.886 591.445 331.946V331.936C591.135 331.596 590.845 331.246 590.545 330.896C590.495 330.846 590.455 330.796 590.415 330.756C590.225 330.526 590.045 330.306 589.855 330.086V330.076C589.605 329.786 589.355 329.486 589.115 329.186C589.055 329.116 589.005 329.056 588.955 328.996V328.986C588.755 328.746 588.565 328.506 588.365 328.256C588.265 328.136 588.175 328.016 588.075 327.896V327.886C587.485 327.146 586.915 326.406 586.345 325.646C586.195 325.446 586.045 325.236 585.885 325.026C585.165 324.056 584.465 323.066 583.785 322.076V322.066C583.525 321.696 583.275 321.316 583.015 320.946C582.765 320.566 582.515 320.186 582.265 319.806C582.015 319.406 581.755 319.016 581.505 318.616L581.475 318.556C581.225 318.176 580.975 317.776 580.735 317.386C580.545 317.066 580.355 316.756 580.165 316.446C580.045 316.236 579.915 316.026 579.795 315.806C579.748 315.738 579.705 315.668 579.665 315.596C579.385 315.106 579.105 314.616 578.825 314.126C578.495 313.556 578.175 312.976 577.855 312.396C577.735 312.156 577.605 311.916 577.475 311.676C577.425 311.596 577.385 311.516 577.345 311.436C577.195 311.156 577.045 310.866 576.905 310.576C576.755 310.296 576.605 310.006 576.455 309.716C576.315 309.436 576.165 309.146 576.025 308.856C575.915 308.636 575.815 308.416 575.705 308.196C575.698 308.178 575.688 308.161 575.675 308.146C575.625 308.036 575.575 307.936 575.535 307.836C575.523 307.82 575.513 307.804 575.505 307.786C575.395 307.566 575.295 307.336 575.185 307.116C575.045 306.826 574.915 306.526 574.775 306.236C574.685 306.036 574.585 305.826 574.495 305.616C574.365 305.326 574.225 305.036 574.105 304.736C573.965 304.436 573.835 304.136 573.705 303.826C573.668 303.751 573.635 303.674 573.605 303.596C573.535 303.456 573.485 303.316 573.425 303.176C573.265 302.806 573.105 302.426 572.955 302.056C572.775 301.636 572.605 301.206 572.445 300.786C572.285 300.396 572.135 299.996 571.985 299.596L571.925 299.456C569.595 293.319 567.828 286.983 566.645 280.526V280.516C565.978 276.829 565.501 273.111 565.215 269.376C565.205 269.166 565.185 268.966 565.175 268.766C564.995 266.236 564.915 263.696 564.915 261.146C564.915 260.016 564.935 258.896 564.965 257.776C565.663 234.352 574.016 211.802 588.745 193.576C589.065 193.176 589.385 192.776 589.715 192.376C590.045 191.976 590.385 191.586 590.715 191.196C601.678 178.358 615.503 168.275 631.077 161.761C646.651 155.247 663.538 152.483 680.376 153.693C697.214 154.902 713.532 160.051 728.015 168.724C742.498 177.398 754.741 189.353 763.755 203.626C764.245 204.406 764.735 205.196 765.205 205.986C765.685 206.786 766.145 207.586 766.605 208.396C775.665 224.499 780.411 242.669 780.385 261.146Z" fill="#F2F2F2"/>
<path d="M676.928 190.679C659.212 195.225 641.057 197.845 622.779 198.495C620.015 198.645 617.245 198.626 614.483 198.438C608.414 197.928 603.216 196.02 597.426 194.978C594.643 194.478 591.542 194.113 588.74 193.573C589.388 192.769 590.047 191.976 590.718 191.192C596.76 191.703 602.896 193.374 609.011 194.15C619.405 195.472 631.051 193.997 638.931 190.36C642.754 188.594 645.683 186.391 649.492 184.618C650.01 184.352 650.572 184.18 651.15 184.111C652.248 184.078 653.333 184.359 654.277 184.922C660.668 188.148 669.948 190.771 678.561 189.328C679.203 189.83 677.983 190.403 676.928 190.679Z" fill="white"/>
<path d="M715.042 202.034C715.121 202.02 715.2 202.009 715.279 201.995C714.948 201.79 714.636 201.555 714.348 201.294L715.042 202.034Z" fill="white"/>
<path d="M766.603 208.4C763.006 208.687 759.39 208.901 755.755 209.042C752.991 209.191 750.22 209.172 747.459 208.986C741.39 208.473 736.191 206.568 730.402 205.525C725.096 204.572 718.648 204.112 715.279 201.995C723.986 200.488 733.007 203.556 741.986 204.698C749.249 205.591 756.611 205.227 763.75 203.623C764.744 205.187 765.695 206.779 766.603 208.4Z" fill="white"/>
<path d="M660.5 308.287C678.371 308.287 692.859 293.477 692.859 275.207C692.859 256.938 678.371 242.128 660.5 242.128C642.629 242.128 628.142 256.938 628.142 275.207C628.142 293.477 642.629 308.287 660.5 308.287Z" fill="#FFB6B6"/>
<path d="M723.085 356.356C722.225 356.826 721.355 357.276 720.485 357.706C720.175 357.856 719.855 358.006 719.545 358.166C719.285 358.286 719.025 358.416 718.765 358.536C718.685 358.576 718.615 358.606 718.545 358.646C718.325 358.746 718.115 358.846 717.895 358.946C717.655 359.056 717.415 359.166 717.185 359.276C716.915 359.396 716.655 359.516 716.385 359.626C715.385 360.076 714.375 360.506 713.365 360.916C709.746 362.399 706.047 363.681 702.285 364.756C702.115 364.806 701.935 364.856 701.755 364.906C700.145 365.356 698.525 365.766 696.895 366.136C694.045 366.796 691.169 367.336 688.265 367.756H688.245C687.895 367.806 687.555 367.856 687.205 367.906C687.175 367.906 687.145 367.916 687.105 367.916C687.105 367.926 687.105 367.926 687.095 367.916C686.715 367.966 686.325 368.016 685.945 368.066C685.919 368.073 685.892 368.077 685.865 368.076C685.505 368.126 685.135 368.166 684.775 368.206C684.385 368.246 683.995 368.286 683.605 368.326C683.305 368.356 683.005 368.386 682.705 368.416C682.68 368.425 682.652 368.428 682.625 368.426C682.355 368.446 682.085 368.476 681.815 368.496H681.775C681.545 368.516 681.305 368.536 681.075 368.556C678.285 368.776 675.485 368.876 672.645 368.876C669.575 368.876 666.525 368.756 663.515 368.496H663.485C662.835 368.436 662.195 368.376 661.555 368.316C661.385 368.296 661.225 368.286 661.055 368.266C661.025 368.266 660.985 368.256 660.955 368.256C660.905 368.246 660.855 368.246 660.795 368.236C660.768 368.237 660.741 368.233 660.715 368.226C660.495 368.206 660.275 368.176 660.045 368.156L659.295 368.066C659.045 368.036 658.795 367.996 658.545 367.966C658.485 367.956 658.435 367.956 658.375 367.946C658.195 367.926 658.015 367.896 657.835 367.866C657.745 367.856 657.655 367.846 657.575 367.836C657.395 367.806 657.225 367.786 657.045 367.756H657.035C651.548 366.966 646.131 365.745 640.835 364.106C640.555 364.016 640.275 363.936 639.995 363.846C641.287 357.824 643.945 352.18 647.765 347.349C651.584 342.518 656.464 338.63 662.025 335.986C660.65 334.675 659.699 332.982 659.295 331.126C659.036 329.929 659.015 328.693 659.235 327.488C659.455 326.283 659.91 325.134 660.575 324.106C661.873 322.113 663.909 320.717 666.235 320.226L681.055 317.126C683.441 316.661 685.914 317.156 687.936 318.504C689.959 319.853 691.367 321.945 691.855 324.326C692.007 325.056 692.074 325.801 692.055 326.546C706.325 336.046 716.595 345.896 723.085 356.356Z" fill="#E5A8FF"/>
<path d="M747.088 260.861C741.588 254.447 738.973 245.937 734.576 238.653C730.179 231.369 722.527 224.85 714.443 226.545C708.871 227.714 704.565 232.631 702.384 238.113C700.205 243.595 699.796 249.641 699.414 255.563C699.549 243.392 691.53 231.593 680.484 227.709C669.439 223.826 656.22 228.158 649.279 237.936C646.25 235.128 642.297 233.53 638.168 233.443C634.039 233.357 630.022 234.788 626.878 237.466C620.669 243.014 619.295 253.575 623.861 260.653C628.427 267.73 638.315 270.367 645.571 266.442L648.136 268.801C646.692 273.852 649.492 279.817 654.199 281.718C658.016 283.26 663.404 283.003 664.833 287.009C665.831 289.807 663.965 292.795 661.981 294.945C659.997 297.096 657.641 299.317 657.402 302.293C657.042 306.784 661.683 309.929 665.901 310.876C676.072 313.161 687.358 308.451 693.221 299.474C693.334 299.301 693.457 299.128 693.589 298.954C696.878 294.748 699.275 289.916 700.634 284.752C701.992 279.588 702.283 274.201 701.49 268.921C701.16 266.846 701.492 265.303 702.923 264.812C709.105 262.688 726.427 267.145 731.669 271.174C736.912 275.202 741.11 280.533 746.159 284.822C751.209 289.11 757.644 292.418 764.055 291.25C769.19 290.315 773.559 286.587 776.497 282.09C779.435 277.593 781.126 272.352 782.641 267.143C771.286 273.702 755.746 270.956 747.088 260.861Z" fill="#2F2E41"/>
<path d="M82.8255 194.146C82.8255 196.576 82.9055 199.006 83.0755 201.416C83.2555 204.296 83.5655 207.156 83.9855 209.996C85.397 219.558 88.0948 228.886 92.0055 237.726C92.2054 238.166 92.4055 238.606 92.6055 239.046L92.9055 239.706C93.0055 239.926 93.1155 240.146 93.2155 240.356C93.3555 240.646 93.4855 240.926 93.6255 241.206C93.7955 241.556 93.9655 241.906 94.1455 242.256C94.1655 242.296 94.1855 242.346 94.2155 242.396C94.3655 242.696 94.5055 242.986 94.6655 243.286C94.6949 243.351 94.7283 243.414 94.7655 243.476C94.9355 243.816 95.1155 244.166 95.2955 244.506C95.4955 244.866 95.6855 245.236 95.8855 245.596C96.3655 246.486 96.8655 247.366 97.3755 248.246C97.5255 248.506 97.6755 248.766 97.8355 249.026C97.9755 249.266 98.1155 249.506 98.2655 249.746C98.3655 249.906 98.4655 250.076 98.5655 250.236C98.7255 250.506 98.8855 250.766 99.0555 251.036C99.4255 251.626 99.8055 252.216 100.175 252.806H100.185C100.355 253.076 100.535 253.346 100.715 253.606V253.616C101.245 254.416 101.795 255.216 102.345 256.006C102.347 256.006 102.349 256.006 102.349 256.006C102.351 256.007 102.353 256.008 102.353 256.008C102.353 256.008 102.354 256.01 102.355 256.012C102.355 256.012 102.356 256.014 102.355 256.016C102.795 256.656 103.255 257.276 103.705 257.896V257.906C104.005 258.296 104.295 258.696 104.595 259.086C104.835 259.406 105.085 259.736 105.335 260.056C105.385 260.125 105.445 260.186 105.495 260.256V260.266C105.565 260.356 105.635 260.436 105.705 260.526C106.765 261.886 107.859 263.216 108.986 264.516L109.165 264.726C109.225 264.796 109.295 264.866 109.355 264.946C109.455 265.056 109.545 265.166 109.645 265.276C109.735 265.386 109.835 265.496 109.935 265.606C115.809 272.221 122.468 278.095 129.766 283.096C130.736 283.766 131.725 284.416 132.715 285.046C132.965 285.206 133.215 285.366 133.465 285.516C133.535 285.566 133.615 285.616 133.685 285.666C133.825 285.746 133.955 285.826 134.095 285.916C134.225 285.996 134.355 286.076 134.495 286.156C135.025 286.486 135.565 286.806 136.105 287.126C136.235 287.206 136.376 287.286 136.516 287.366C136.646 287.436 136.785 287.516 136.925 287.596C136.925 287.606 136.925 287.606 136.935 287.606H136.945V287.616H136.955C137.626 288.006 138.306 288.386 138.995 288.756C139.365 288.956 139.745 289.166 140.125 289.356C140.985 289.826 141.855 290.276 142.725 290.706C143.035 290.856 143.355 291.006 143.665 291.166C143.925 291.286 144.185 291.416 144.445 291.536C144.525 291.576 144.595 291.606 144.665 291.646C144.885 291.746 145.095 291.846 145.315 291.946C145.555 292.056 145.795 292.166 146.025 292.276C146.295 292.396 146.556 292.516 146.826 292.626C147.826 293.076 148.835 293.506 149.845 293.916C153.465 295.399 157.164 296.681 160.925 297.756C161.095 297.806 161.275 297.856 161.455 297.906C163.066 298.356 164.686 298.766 166.316 299.136C169.166 299.796 172.042 300.336 174.946 300.756H174.966C175.316 300.806 175.656 300.856 176.006 300.906C176.036 300.906 176.066 300.916 176.106 300.916C176.106 300.926 176.106 300.926 176.116 300.916C176.496 300.966 176.886 301.016 177.266 301.066C177.291 301.073 177.319 301.077 177.346 301.076C177.706 301.126 178.076 301.166 178.436 301.206C178.826 301.246 179.215 301.286 179.606 301.326C179.906 301.356 180.206 301.386 180.506 301.416C180.531 301.424 180.558 301.428 180.586 301.426C180.856 301.446 181.126 301.476 181.396 301.496H181.436C181.666 301.516 181.906 301.536 182.136 301.556C184.926 301.776 187.726 301.876 190.566 301.876C193.636 301.876 196.686 301.756 199.696 301.496H199.726C200.376 301.436 201.016 301.376 201.656 301.316C201.826 301.296 201.986 301.286 202.156 301.266C202.186 301.266 202.226 301.256 202.256 301.256C202.306 301.246 202.356 301.246 202.416 301.236C202.443 301.237 202.47 301.233 202.496 301.226C202.716 301.206 202.936 301.176 203.166 301.156L203.916 301.066C204.166 301.036 204.416 300.996 204.666 300.966C204.726 300.956 204.776 300.956 204.836 300.946C205.016 300.926 205.196 300.896 205.376 300.866C205.466 300.856 205.556 300.846 205.636 300.836C205.816 300.806 205.986 300.786 206.166 300.756H206.176C211.663 299.966 217.08 298.745 222.376 297.106C222.656 297.016 222.936 296.936 223.216 296.846C223.226 296.846 223.236 296.836 223.246 296.836C223.326 296.806 223.416 296.786 223.496 296.756C224.246 296.516 224.986 296.266 225.726 296.006C226.746 295.666 227.756 295.296 228.766 294.916C229.036 294.806 229.306 294.706 229.576 294.596C230.126 294.386 230.666 294.166 231.206 293.946C232.126 293.576 233.046 293.186 233.956 292.786C234.806 292.406 235.646 292.026 236.486 291.626C236.506 291.616 236.536 291.616 236.556 291.596C236.746 291.506 236.936 291.416 237.116 291.326H237.126C241.731 289.116 246.172 286.579 250.416 283.736C251.776 282.826 253.116 281.886 254.436 280.916C255.496 280.126 256.536 279.326 257.576 278.506C262.706 274.425 267.456 269.886 271.766 264.946V264.936C272.076 264.596 272.366 264.246 272.666 263.896C272.716 263.846 272.756 263.796 272.796 263.756C272.986 263.526 273.166 263.306 273.356 263.086V263.076C273.606 262.786 273.856 262.486 274.096 262.186C274.156 262.116 274.206 262.056 274.256 261.996V261.986C274.456 261.746 274.646 261.506 274.846 261.256C274.946 261.136 275.036 261.016 275.136 260.896V260.886C275.726 260.146 276.296 259.406 276.866 258.646C277.016 258.446 277.166 258.236 277.326 258.026C278.046 257.056 278.746 256.066 279.426 255.076V255.066C279.686 254.696 279.936 254.316 280.196 253.946C280.446 253.566 280.696 253.186 280.946 252.806C281.196 252.406 281.456 252.016 281.706 251.616L281.736 251.556C281.986 251.176 282.236 250.776 282.476 250.386C282.666 250.066 282.856 249.756 283.046 249.446C283.166 249.236 283.296 249.026 283.416 248.806C283.462 248.738 283.506 248.668 283.546 248.596C283.826 248.106 284.106 247.616 284.386 247.126C284.716 246.556 285.036 245.976 285.356 245.396C285.476 245.156 285.606 244.916 285.736 244.676C285.786 244.596 285.826 244.516 285.866 244.436C286.016 244.156 286.166 243.866 286.306 243.576C286.456 243.296 286.606 243.006 286.756 242.716C286.896 242.436 287.046 242.146 287.186 241.856C287.296 241.636 287.396 241.416 287.506 241.196C287.513 241.178 287.523 241.161 287.536 241.146C287.586 241.036 287.636 240.936 287.676 240.836C287.688 240.82 287.698 240.804 287.706 240.786C287.816 240.566 287.916 240.336 288.026 240.116C288.166 239.826 288.296 239.526 288.436 239.236C288.526 239.036 288.626 238.826 288.716 238.616C288.846 238.326 288.986 238.036 289.106 237.736C289.246 237.436 289.376 237.136 289.506 236.826C289.543 236.751 289.576 236.674 289.606 236.596C289.676 236.456 289.726 236.316 289.786 236.176C289.946 235.806 290.106 235.426 290.256 235.056C290.436 234.636 290.606 234.206 290.766 233.786C290.926 233.396 291.076 232.996 291.226 232.596L291.286 232.456C293.616 226.319 295.383 219.983 296.566 213.526V213.516C297.233 209.829 297.71 206.111 297.996 202.376C298.006 202.166 298.026 201.966 298.036 201.766C298.216 199.236 298.296 196.696 298.296 194.146C298.296 193.016 298.276 191.896 298.246 190.776C297.547 167.352 289.195 144.802 274.466 126.576C274.146 126.176 273.826 125.776 273.496 125.376C273.166 124.976 272.826 124.586 272.496 124.196C261.533 111.358 247.708 101.275 232.134 94.7611C216.56 88.2469 199.673 85.4831 182.835 86.6927C165.997 87.9022 149.679 93.0511 135.196 101.724C120.713 110.398 108.47 122.353 99.4555 136.626C98.9655 137.406 98.4756 138.196 98.0056 138.986C97.5256 139.786 97.0655 140.586 96.6055 141.396C87.5462 157.499 82.7995 175.669 82.8255 194.146Z" fill="#F2F2F2"/>
<path d="M186.283 123.679C203.999 128.225 222.154 130.845 240.432 131.495C243.196 131.645 245.966 131.626 248.728 131.438C254.797 130.928 259.995 129.02 265.785 127.978C268.568 127.478 271.669 127.113 274.471 126.573C273.823 125.769 273.164 124.976 272.493 124.192C266.451 124.703 260.315 126.374 254.2 127.15C243.806 128.472 232.16 126.997 224.28 123.36C220.457 121.594 217.528 119.391 213.719 117.618C213.201 117.352 212.639 117.18 212.061 117.111C210.963 117.078 209.878 117.359 208.934 117.922C202.543 121.148 193.263 123.771 184.65 122.328C184.008 122.83 185.228 123.403 186.283 123.679Z" fill="white"/>
<path d="M148.169 135.034C148.09 135.02 148.011 135.009 147.932 134.995C148.263 134.79 148.575 134.555 148.863 134.294L148.169 135.034Z" fill="white"/>
<path d="M96.6077 141.4C100.205 141.687 103.821 141.901 107.456 142.042C110.22 142.191 112.991 142.172 115.752 141.986C121.821 141.473 127.02 139.568 132.809 138.525C138.115 137.572 144.563 137.112 147.932 134.995C139.225 133.488 130.203 136.556 121.225 137.698C113.962 138.591 106.6 138.227 99.4608 136.623C98.4668 138.187 97.5157 139.779 96.6077 141.4Z" fill="white"/>
<path d="M140.126 289.356C140.986 289.826 141.856 290.276 142.726 290.706C143.036 290.856 143.356 291.006 143.666 291.166C143.926 291.286 144.186 291.416 144.446 291.536C144.526 291.576 144.596 291.606 144.666 291.646C144.886 291.746 145.096 291.846 145.316 291.946C145.556 292.056 145.796 292.166 146.026 292.276C146.296 292.396 146.556 292.516 146.826 292.626C147.826 293.076 148.836 293.506 149.846 293.916C153.465 295.399 157.164 296.681 160.926 297.756C161.096 297.806 161.276 297.856 161.456 297.906C163.066 298.356 164.686 298.766 166.316 299.136C169.166 299.796 172.042 300.336 174.946 300.756H174.966C175.316 300.806 175.656 300.856 176.006 300.906C176.036 300.906 176.066 300.916 176.106 300.916C176.106 300.926 176.106 300.926 176.116 300.916C176.496 300.966 176.886 301.016 177.266 301.066C177.291 301.073 177.319 301.077 177.346 301.076C177.706 301.126 178.076 301.166 178.436 301.206C178.826 301.246 179.216 301.286 179.606 301.326C179.906 301.356 180.206 301.386 180.506 301.416C180.531 301.425 180.558 301.428 180.586 301.426C180.856 301.446 181.126 301.476 181.396 301.496H181.436C181.666 301.516 181.906 301.536 182.136 301.556C184.926 301.776 187.726 301.876 190.566 301.876C193.636 301.876 196.686 301.756 199.696 301.496H199.726C200.376 301.436 201.016 301.376 201.656 301.316C201.826 301.296 201.986 301.286 202.156 301.266C202.186 301.266 202.226 301.256 202.256 301.256C202.306 301.246 202.356 301.246 202.416 301.236C202.443 301.237 202.47 301.233 202.496 301.226C202.716 301.206 202.936 301.176 203.166 301.156L203.916 301.066C204.166 301.036 204.416 300.996 204.666 300.966C204.726 300.956 204.776 300.956 204.836 300.946C205.016 300.926 205.196 300.896 205.376 300.866C205.466 300.856 205.556 300.846 205.636 300.836C205.816 300.806 205.986 300.786 206.166 300.756H206.176C211.663 299.966 217.08 298.745 222.376 297.106C222.656 297.016 222.936 296.936 223.216 296.846C221.924 290.824 219.266 285.18 215.446 280.349C211.626 275.518 206.747 271.63 201.186 268.986C202.561 267.675 203.512 265.982 203.916 264.126C204.175 262.929 204.196 261.693 203.976 260.488C203.756 259.283 203.301 258.134 202.636 257.106C201.338 255.113 199.302 253.718 196.976 253.226L182.156 250.126C179.77 249.661 177.297 250.156 175.275 251.504C173.252 252.853 171.844 254.945 171.356 257.326C171.204 258.056 171.137 258.801 171.156 259.546C156.886 269.046 146.615 278.896 140.126 289.356Z" fill="#E5A8FF"/>
<path d="M198.754 240.122C218.677 240.122 234.827 223.971 234.827 204.049C234.827 184.126 218.677 167.976 198.754 167.976C178.831 167.976 162.681 184.126 162.681 204.049C162.681 223.971 178.831 240.122 198.754 240.122Z" fill="#9E616A"/>
<path d="M193.628 238.194C184.597 240.633 174.641 237.39 167.593 231.239C160.545 225.088 156.137 216.372 153.596 207.369C151.736 200.776 150.854 193.456 153.79 187.266C156.726 181.076 164.627 176.9 170.723 180.027C166.962 175.645 168.841 168.399 173.233 164.651C177.625 160.903 183.656 159.828 189.4 159.241C197.736 158.388 206.346 158.293 214.278 160.994C222.211 163.694 229.418 169.598 231.9 177.602C234.436 178.782 237.291 179.089 240.02 178.473C242.748 177.857 245.195 176.353 246.977 174.198C247.437 176.673 247.068 179.231 245.927 181.476C244.786 183.72 242.938 185.527 240.667 186.615L252.821 182.675C254.911 187.099 251.249 192.575 246.565 193.991C241.882 195.408 236.826 193.86 232.381 191.813C227.937 189.766 223.63 187.178 218.802 186.38C213.975 185.581 208.304 187.133 206.071 191.486C204.901 193.767 204.84 196.438 204.161 198.909C203.482 201.38 201.762 203.942 199.207 204.145C197.593 204.272 196.012 203.413 194.403 203.588C193.415 203.783 192.505 204.261 191.785 204.965C191.065 205.669 190.566 206.567 190.348 207.55C189.948 209.523 189.943 211.555 190.334 213.53L193.421 237.128L193.628 238.194Z" fill="#2F2E41"/>
</g>
<defs>
<clipPath id="clip0_2_2">
<rect width="809" height="694" fill="white"/>
</clipPath>
</defs>
</svg>
