<svg width="809" height="555" viewBox="0 0 809 555" fill="none" xmlns="http://www.w3.org/2000/svg">
<g clip-path="url(#clip0_1_2)">
<path d="M168.019 318.31C131.427 282.288 115.973 244.708 124.501 212.494C135.445 171.154 184.066 142.57 257.895 134.073L258.168 136.444C185.366 144.823 137.487 172.765 126.808 213.104C118.508 244.455 133.739 281.214 169.694 316.61L168.019 318.31Z" fill="#F0F0F0"/>
<path d="M521.067 446.177C475.399 446.177 425.771 439.39 376.478 426.34C315.519 410.202 259.627 385.843 214.843 355.897L216.169 353.913C260.737 383.715 316.382 407.962 377.088 424.033C431.948 438.557 487.218 445.286 536.905 443.51L536.991 445.895C531.744 446.083 526.436 446.177 521.067 446.177Z" fill="#F0F0F0"/>
<path d="M625.837 431.169L625.073 428.908C665.917 415.099 691.464 392.853 698.951 364.573C708.467 328.624 687.792 286.907 640.732 247.106C593.432 207.104 525.224 173.912 448.67 153.646L449.281 151.338C526.169 171.694 594.709 205.058 642.272 245.284C690.076 285.713 711.024 328.294 701.258 365.184C693.556 394.274 667.476 417.091 625.837 431.169Z" fill="#F0F0F0"/>
<path d="M250.79 447.174C161.054 407.375 91.9049 355.741 56.0829 301.781L58.0709 300.461C93.6453 354.047 162.431 405.375 251.757 444.993L250.79 447.174Z" fill="#F0F0F0"/>
<path d="M566.296 516.123C557.04 516.123 547.626 515.916 538.054 515.503L538.156 513.119C609.589 516.212 672.616 507.663 720.435 488.393L721.328 490.607C679.614 507.415 626.446 516.123 566.296 516.123Z" fill="#F0F0F0"/>
<path d="M514.229 136.213C499.398 131.384 484.142 126.888 468.886 122.849C381.094 99.6073 294.793 91.3553 219.311 98.9897L219.071 96.6149C294.835 88.9554 381.431 97.2272 469.497 120.542C484.796 124.592 500.095 129.101 514.968 133.944L514.229 136.213Z" fill="#F0F0F0"/>
<path d="M111.936 321.89C75.3444 285.868 59.8898 248.288 68.418 216.074C79.3623 174.733 127.983 146.15 201.812 137.653L202.085 140.024C129.283 148.403 81.4045 176.344 70.7253 216.684C62.4255 248.035 77.6558 284.794 113.611 320.19L111.936 321.89Z" fill="#F0F0F0"/>
<path d="M464.985 449.756C419.316 449.756 369.689 442.97 320.395 429.92C259.436 413.782 203.544 389.423 158.76 359.477L160.086 357.493C204.654 387.295 260.299 411.542 321.005 427.612C375.865 442.137 431.135 448.866 480.822 447.09L480.908 449.474C475.661 449.663 470.353 449.757 464.985 449.756Z" fill="#F0F0F0"/>
<path d="M569.754 434.749L568.99 432.488C609.834 418.678 635.381 396.432 642.868 368.153C652.385 332.204 631.709 290.486 584.649 250.686C537.349 210.684 469.141 177.492 392.588 157.225L393.198 154.918C470.086 175.273 538.626 208.637 586.189 248.864C633.993 289.293 654.941 331.874 645.175 368.764C637.474 397.854 611.393 420.671 569.754 434.749Z" fill="#F0F0F0"/>
<path d="M194.707 450.754C104.971 410.955 35.822 359.32 -3.8147e-06 305.361L1.98799 304.041C37.5624 357.627 106.348 408.955 195.674 448.573L194.707 450.754Z" fill="#F0F0F0"/>
<path d="M510.213 519.703C500.957 519.703 491.543 519.496 481.971 519.083L482.073 516.699C553.507 519.791 616.533 511.243 664.352 491.972L665.245 494.186C623.531 510.995 570.364 519.703 510.213 519.703Z" fill="#F0F0F0"/>
<path d="M458.147 139.793C443.315 134.964 428.059 130.468 412.803 126.429C325.011 103.187 238.71 94.9351 163.228 102.57L162.988 100.195C238.752 92.5352 325.348 100.807 413.414 124.121C428.713 128.172 444.012 132.681 458.885 137.524L458.147 139.793Z" fill="#F0F0F0"/>
<path d="M40.6767 257.969C57.8265 238.74 85.1832 227.021 109.975 234.037C87.1035 250.222 70.6946 273.975 63.651 301.094C60.9724 311.563 59.0833 323.485 50.3772 329.886C44.9601 333.869 37.7823 334.82 31.1203 333.913C24.4581 333.006 18.1588 330.415 11.9445 327.848L10.2722 327.993C15.08 302.68 23.527 277.197 40.6767 257.969Z" fill="#F2F2F2"/>
<path d="M109.899 234.572C89.1716 239.59 70.5525 251.012 56.6863 267.215C53.6393 270.65 51.1528 274.544 49.3184 278.754C47.6639 282.912 47.1532 287.437 47.8392 291.86C48.3959 295.996 49.4445 300.163 48.9861 304.362C48.7195 306.509 48.0023 308.574 46.8814 310.424C45.7606 312.273 44.2614 313.865 42.4822 315.095C38.1288 318.274 32.8926 319.699 27.7237 320.914C21.9846 322.264 16.0021 323.575 11.3238 327.39C10.757 327.852 10.0731 326.945 10.6391 326.484C18.7785 319.848 30.0904 320.7 39.0959 315.88C43.298 313.631 46.8478 310.102 47.7109 305.259C48.4656 301.025 47.388 296.727 46.7881 292.544C46.0556 288.24 46.3883 283.821 47.757 279.675C49.3712 275.386 51.7036 271.403 54.6542 267.896C61.171 259.895 68.9052 252.969 77.5736 247.371C87.4313 240.927 98.3187 236.217 109.765 233.444C110.473 233.273 110.603 234.402 109.899 234.572Z" fill="white"/>
<path d="M60.8441 261.735C58.4414 259.04 57.0752 255.578 56.9892 251.968C56.9033 248.358 58.1034 244.835 60.3751 242.029C60.8367 241.462 61.7385 242.153 61.2762 242.72C59.156 245.33 58.0384 248.611 58.1253 251.973C58.2122 255.334 59.4977 258.554 61.7499 261.05C62.2387 261.594 61.3301 262.275 60.8441 261.735Z" fill="white"/>
<path d="M47.2806 289.8C54.6458 290.289 61.9247 287.984 67.666 283.345C68.2345 282.885 68.9185 283.791 68.3508 284.251C62.3672 289.067 54.7875 291.45 47.1243 290.925C46.3939 290.874 46.5542 289.749 47.2806 289.8Z" fill="white"/>
<path d="M87.6866 242.411C88.3989 243.648 89.4073 244.688 90.621 245.439C91.8348 246.189 93.216 246.627 94.6406 246.712C95.3713 246.753 95.2102 247.877 94.4843 247.836C92.9107 247.735 91.386 247.25 90.0431 246.424C88.7002 245.597 87.5801 244.455 86.7808 243.096C86.6947 242.974 86.6582 242.824 86.6787 242.676C86.6993 242.528 86.7752 242.394 86.8913 242.3C87.0117 242.21 87.1628 242.171 87.3117 242.192C87.4606 242.213 87.5953 242.291 87.6866 242.411Z" fill="white"/>
<path d="M145.166 313.859C144.709 313.846 144.252 313.833 143.79 313.828C137.645 313.687 131.499 314.045 125.413 314.9C124.941 314.958 124.464 315.025 123.995 315.097C109.353 317.312 95.25 322.226 82.4021 329.589C77.2923 332.524 72.4132 335.843 67.807 339.518C61.446 344.594 54.9528 350.603 47.5057 353.205C46.7318 353.485 45.9413 353.717 45.1387 353.899L10.5787 330.021C10.5274 329.928 10.4703 329.842 10.4186 329.748L8.9951 328.857C9.21942 328.651 9.45651 328.442 9.68083 328.236C9.81046 328.116 9.94782 328.001 10.0774 327.881C10.1663 327.803 10.2555 327.725 10.3312 327.649C10.3607 327.622 10.3906 327.597 10.4147 327.578C10.4904 327.502 10.5687 327.44 10.639 327.372C11.961 326.2 13.2936 325.036 14.6367 323.879C14.6421 323.871 14.6422 323.871 14.6553 323.868C24.9117 315.077 35.992 307.065 47.9363 300.989C48.2957 300.806 48.6602 300.615 49.0354 300.444C54.4345 297.735 60.046 295.472 65.8138 293.677C68.9752 292.705 72.1838 291.893 75.4273 291.245C83.8113 289.586 92.404 289.257 100.89 290.269C117.807 292.288 133.89 299.696 144.375 312.846C144.643 313.183 144.904 313.514 145.166 313.859Z" fill="#F2F2F2"/>
<path d="M144.786 314.244C125.215 305.771 103.471 303.681 82.6448 308.27C78.1438 309.178 73.8141 310.79 69.815 313.047C65.9905 315.371 62.858 318.676 60.7431 322.621C58.6974 326.258 57.026 330.216 54.1316 333.294C52.6266 334.847 50.8102 336.064 48.8017 336.866C46.7932 337.668 44.6378 338.036 42.477 337.947C37.087 337.864 32.0482 335.85 27.1892 333.708C21.7942 331.331 16.2281 328.776 10.1964 329.004C9.4656 329.032 9.46534 327.896 10.1951 327.869C20.6891 327.471 29.2081 334.962 39.3004 336.535C44.0096 337.269 48.9687 336.589 52.5733 333.242C55.7254 330.315 57.4524 326.235 59.492 322.534C61.4987 318.656 64.4244 315.329 68.0135 312.842C71.8848 310.39 76.1452 308.613 80.6124 307.59C90.6327 305.125 100.978 304.252 111.27 305.001C123.02 305.791 134.549 308.585 145.358 313.262C146.026 313.552 145.45 314.531 144.786 314.244Z" fill="white"/>
<path d="M89.264 306.398C88.9684 302.799 89.9618 299.212 92.0666 296.278C94.1714 293.344 97.2506 291.254 100.754 290.381C101.464 290.206 101.768 291.301 101.057 291.475C97.7933 292.282 94.9252 294.23 92.9708 296.966C91.0164 299.702 90.1045 303.047 90.3995 306.396C90.4628 307.124 89.3269 307.121 89.264 306.398Z" fill="white"/>
<path d="M61.5375 320.639C67.1237 325.464 74.3231 328.006 81.7003 327.759C82.4312 327.734 82.4317 328.869 81.7017 328.895C74.0243 329.138 66.5375 326.477 60.7355 321.443C60.1828 320.963 60.9878 320.162 61.5375 320.639Z" fill="white"/>
<path d="M122.331 307.129C122.155 308.545 122.334 309.983 122.851 311.313C123.368 312.643 124.207 313.824 125.294 314.75C125.852 315.223 125.047 316.024 124.492 315.554C123.296 314.526 122.371 313.22 121.796 311.752C121.222 310.284 121.015 308.697 121.195 307.131C121.2 306.981 121.261 306.84 121.366 306.734C121.472 306.629 121.613 306.567 121.762 306.562C121.913 306.563 122.057 306.623 122.163 306.729C122.27 306.835 122.33 306.979 122.331 307.129Z" fill="white"/>
<path d="M712.665 415.593C702.975 391.719 681.149 371.487 655.442 369.762C671.543 392.692 679.013 420.579 676.533 448.488C675.537 459.248 673.309 471.111 679.357 480.066C683.121 485.638 689.561 488.946 696.141 490.331C702.72 491.716 709.524 491.393 716.239 491.063L717.766 491.762C721.745 466.306 722.354 439.466 712.665 415.593Z" fill="#F2F2F2"/>
<path d="M655.333 370.291C673.168 381.984 686.865 399 694.479 418.921C696.194 423.18 697.227 427.683 697.54 432.264C697.701 436.737 696.661 441.17 694.528 445.105C692.614 448.813 690.226 452.385 689.246 456.495C688.776 458.606 688.757 460.792 689.191 462.911C689.625 465.03 690.502 467.033 691.764 468.789C694.796 473.246 699.249 476.348 703.708 479.23C708.66 482.43 713.854 485.676 716.978 490.841C717.356 491.466 718.305 490.842 717.927 490.217C712.492 481.232 701.551 478.232 694.69 470.666C691.488 467.136 689.331 462.619 690.146 457.768C690.858 453.526 693.317 449.841 695.288 446.103C697.425 442.295 698.597 438.022 698.701 433.657C698.622 429.075 697.764 424.539 696.164 420.245C692.715 410.519 687.759 401.396 681.476 393.21C674.358 383.828 665.687 375.733 655.839 369.274C655.229 368.875 654.728 369.895 655.333 370.291Z" fill="white"/>
<path d="M692.405 412.362C695.574 410.631 698.024 407.829 699.318 404.458C700.612 401.087 700.666 397.366 699.47 393.959C699.225 393.271 698.144 393.618 698.389 394.308C699.509 397.478 699.458 400.944 698.247 404.081C697.035 407.218 694.742 409.818 691.782 411.412C691.139 411.76 691.766 412.707 692.405 412.362Z" fill="white"/>
<path d="M695.747 443.352C688.646 441.338 682.565 436.721 678.717 430.422C678.336 429.797 677.387 430.421 677.767 431.045C681.784 437.592 688.122 442.384 695.516 444.464C696.221 444.662 696.448 443.549 695.747 443.352Z" fill="white"/>
<path d="M673.619 385.14C672.532 386.065 671.233 386.706 669.837 387.005C668.442 387.304 666.994 387.252 665.624 386.853C664.922 386.647 664.696 387.76 665.393 387.965C666.909 388.399 668.508 388.454 670.051 388.127C671.593 387.8 673.032 387.101 674.242 386.089C674.364 386.004 674.449 385.874 674.479 385.728C674.509 385.582 674.483 385.43 674.405 385.303C674.322 385.178 674.193 385.09 674.045 385.06C673.898 385.029 673.745 385.058 673.619 385.14Z" fill="white"/>
<path d="M595.469 433.112C595.904 433.254 596.339 433.395 596.776 433.546C602.611 435.478 608.278 437.882 613.724 440.732C614.148 440.946 614.575 441.169 614.993 441.394C628.038 448.401 639.67 457.77 649.295 469.023C653.121 473.504 656.601 478.27 659.704 483.28C663.989 490.198 668.085 498.04 674.224 502.993C674.859 503.517 675.526 504.001 676.22 504.443L716.795 493.57C716.875 493.499 716.958 493.437 717.038 493.366L718.678 493.006C718.536 492.736 718.383 492.46 718.241 492.19C718.159 492.033 718.068 491.879 717.987 491.722C717.929 491.619 717.871 491.515 717.826 491.418C717.807 491.384 717.787 491.349 717.771 491.324C717.725 491.227 717.672 491.142 717.629 491.054C716.777 489.506 715.914 487.962 715.038 486.42C715.035 486.411 715.035 486.411 715.024 486.404C708.319 474.677 700.576 463.407 691.369 453.67C691.092 453.377 690.812 453.075 690.517 452.787C686.342 448.421 681.818 444.404 676.989 440.775C674.338 438.797 671.589 436.954 668.752 435.253C661.413 430.873 653.431 427.675 645.098 425.776C628.487 421.992 610.85 423.563 596.555 432.425C596.189 432.651 595.832 432.876 595.469 433.112Z" fill="#F2F2F2"/>
<path d="M595.698 433.603C616.979 432.201 638.159 437.54 656.232 448.862C660.166 451.23 663.702 454.204 666.71 457.673C669.531 461.147 671.37 465.314 672.036 469.739C672.74 473.853 672.984 478.142 674.676 482.013C675.572 483.982 676.873 485.739 678.495 487.17C680.117 488.6 682.023 489.671 684.089 490.313C689.193 492.047 694.616 491.843 699.912 491.459C705.792 491.033 711.893 490.498 717.497 492.74C718.176 493.012 718.558 491.942 717.88 491.671C708.13 487.769 697.589 491.961 687.555 490.051C682.873 489.16 678.431 486.852 676.161 482.489C674.176 478.673 673.921 474.25 673.244 470.078C672.657 465.751 671.02 461.634 668.475 458.086C665.654 454.475 662.238 451.37 658.375 448.905C649.766 443.216 640.316 438.916 630.371 436.162C619.038 432.957 607.241 431.714 595.49 432.486C594.762 432.535 594.976 433.651 595.698 433.603Z" fill="white"/>
<path d="M650.627 444.874C652.115 441.584 652.385 437.872 651.389 434.401C650.392 430.931 648.195 427.927 645.189 425.927C644.579 425.524 643.925 426.453 644.535 426.856C647.338 428.713 649.385 431.511 650.306 434.745C651.227 437.979 650.962 441.436 649.558 444.491C649.254 445.155 650.325 445.535 650.627 444.874Z" fill="white"/>
<path d="M671.954 467.606C665.071 470.273 657.436 470.247 650.571 467.535C649.891 467.266 649.509 468.335 650.188 468.604C657.337 471.413 665.283 471.424 672.439 468.633C673.121 468.366 672.632 467.341 671.954 467.606Z" fill="white"/>
<path d="M619.238 434.449C618.928 435.842 618.276 437.136 617.342 438.215C616.408 439.294 615.22 440.124 613.886 440.631C613.201 440.889 613.691 441.914 614.371 441.658C615.843 441.091 617.153 440.173 618.188 438.983C619.223 437.793 619.95 436.368 620.307 434.832C620.353 434.69 620.343 434.536 620.279 434.401C620.215 434.267 620.103 434.161 619.964 434.106C619.822 434.056 619.666 434.064 619.53 434.129C619.395 434.193 619.289 434.308 619.238 434.449Z" fill="white"/>
<path d="M524.682 496.886C529.955 496.886 534.229 492.612 534.229 487.34C534.229 482.068 529.955 477.794 524.682 477.794C519.41 477.794 515.136 482.068 515.136 487.34C515.136 492.612 519.41 496.886 524.682 496.886Z" fill="#FD6584"/>
<path d="M558.496 334.296C563.768 334.296 568.042 330.022 568.042 324.75C568.042 319.478 563.768 315.204 558.496 315.204C553.224 315.204 548.95 319.478 548.95 324.75C548.95 330.022 553.224 334.296 558.496 334.296Z" fill="#E6E6E6"/>
<path d="M380.867 69.5077C386.14 69.5077 390.413 65.2338 390.413 59.9617C390.413 54.6895 386.14 50.4156 380.867 50.4156C375.595 50.4156 371.321 54.6895 371.321 59.9617C371.321 65.2338 375.595 69.5077 380.867 69.5077Z" fill="#E6E6E6"/>
<path d="M180.825 426.146C180.825 428.576 180.905 431.006 181.075 433.416C181.255 436.296 181.566 439.156 181.986 441.996C183.397 451.558 186.095 460.886 190.005 469.726C190.205 470.166 190.405 470.606 190.605 471.046L190.905 471.706C191.005 471.926 191.115 472.146 191.215 472.356C191.355 472.646 191.485 472.926 191.625 473.206C191.795 473.556 191.965 473.906 192.145 474.256C192.165 474.296 192.185 474.346 192.215 474.396C192.365 474.696 192.505 474.986 192.665 475.286C192.695 475.351 192.728 475.414 192.766 475.476C192.936 475.816 193.116 476.166 193.296 476.506C193.496 476.866 193.685 477.236 193.885 477.596C194.365 478.486 194.865 479.366 195.375 480.246C195.525 480.506 195.675 480.766 195.835 481.026C195.975 481.266 196.116 481.506 196.266 481.746C196.366 481.906 196.465 482.076 196.565 482.236C196.725 482.506 196.885 482.766 197.055 483.036C197.425 483.626 197.805 484.216 198.175 484.806H198.185C198.355 485.076 198.535 485.346 198.715 485.606V485.616C199.245 486.416 199.795 487.216 200.345 488.006L200.349 488.006L200.353 488.008L200.355 488.012L200.355 488.016C200.795 488.656 201.255 489.276 201.705 489.896V489.906C202.005 490.296 202.295 490.696 202.595 491.086C202.835 491.406 203.085 491.736 203.335 492.056C203.385 492.126 203.445 492.186 203.495 492.256V492.266C203.565 492.356 203.635 492.436 203.705 492.526C204.765 493.886 205.859 495.216 206.986 496.516L207.165 496.726C207.225 496.796 207.295 496.866 207.355 496.946C207.455 497.056 207.545 497.166 207.645 497.276C207.735 497.386 207.835 497.496 207.935 497.606C213.809 504.221 220.468 510.095 227.766 515.096C228.736 515.766 229.725 516.416 230.715 517.046C230.965 517.206 231.215 517.366 231.465 517.516C231.535 517.566 231.615 517.616 231.685 517.666C231.825 517.746 231.955 517.826 232.095 517.916C232.225 517.996 232.355 518.076 232.495 518.156C233.025 518.486 233.565 518.806 234.105 519.126C234.235 519.206 234.376 519.286 234.516 519.366C234.646 519.436 234.785 519.516 234.925 519.596C234.925 519.606 234.925 519.606 234.935 519.606H234.945V519.616H234.955C235.626 520.006 236.306 520.386 236.995 520.756C237.365 520.956 237.745 521.166 238.125 521.356C238.985 521.826 239.855 522.276 240.725 522.706C241.035 522.856 241.355 523.006 241.665 523.166C241.925 523.286 242.185 523.416 242.445 523.536C242.525 523.576 242.595 523.606 242.665 523.646C242.885 523.746 243.095 523.846 243.315 523.946C243.555 524.056 243.795 524.166 244.025 524.276C244.295 524.396 244.556 524.516 244.826 524.626C245.826 525.076 246.835 525.506 247.845 525.916C251.465 527.399 255.164 528.681 258.925 529.756C259.095 529.806 259.275 529.856 259.455 529.906C261.066 530.356 262.686 530.766 264.316 531.136C267.166 531.796 270.042 532.336 272.946 532.756H272.966C273.316 532.806 273.656 532.856 274.006 532.906C274.036 532.906 274.066 532.916 274.106 532.916C274.106 532.926 274.106 532.926 274.116 532.916C274.496 532.966 274.886 533.016 275.266 533.066C275.291 533.073 275.319 533.077 275.346 533.076C275.706 533.126 276.076 533.166 276.436 533.206C276.826 533.246 277.215 533.286 277.606 533.326C277.906 533.356 278.206 533.386 278.506 533.416C278.531 533.425 278.558 533.428 278.586 533.426C278.856 533.446 279.126 533.476 279.396 533.496H279.436C279.666 533.516 279.906 533.536 280.136 533.556C282.926 533.776 285.726 533.876 288.566 533.876C291.636 533.876 294.686 533.756 297.696 533.496H297.726C298.376 533.436 299.016 533.376 299.656 533.316C299.826 533.296 299.986 533.286 300.156 533.266C300.186 533.266 300.226 533.256 300.256 533.256C300.306 533.246 300.356 533.246 300.416 533.236C300.443 533.237 300.47 533.233 300.496 533.226C300.716 533.206 300.936 533.176 301.166 533.156L301.916 533.066C302.166 533.036 302.416 532.996 302.666 532.966C302.726 532.956 302.776 532.956 302.836 532.946C303.016 532.926 303.196 532.896 303.376 532.866C303.466 532.856 303.556 532.846 303.636 532.836C303.816 532.806 303.986 532.786 304.166 532.756H304.176C309.663 531.966 315.08 530.745 320.376 529.106C320.656 529.016 320.936 528.936 321.216 528.846C321.226 528.846 321.236 528.836 321.246 528.836C321.326 528.806 321.416 528.786 321.496 528.756C322.246 528.516 322.986 528.266 323.726 528.006C324.746 527.666 325.756 527.296 326.766 526.916C327.036 526.806 327.306 526.706 327.576 526.596C328.126 526.386 328.666 526.166 329.206 525.946C330.126 525.576 331.046 525.186 331.956 524.786C332.806 524.406 333.646 524.026 334.486 523.626C334.506 523.616 334.536 523.616 334.556 523.596C334.746 523.506 334.936 523.416 335.116 523.326H335.126C339.731 521.116 344.172 518.579 348.416 515.736C349.776 514.826 351.116 513.886 352.436 512.916C353.496 512.126 354.536 511.326 355.576 510.506C360.706 506.425 365.456 501.886 369.766 496.946V496.936C370.076 496.596 370.366 496.246 370.666 495.896C370.716 495.846 370.756 495.796 370.796 495.756C370.986 495.526 371.166 495.306 371.356 495.086V495.076C371.606 494.786 371.856 494.486 372.096 494.186C372.156 494.116 372.206 494.056 372.256 493.996V493.986C372.456 493.746 372.646 493.506 372.846 493.256C372.946 493.136 373.036 493.016 373.136 492.896V492.886C373.726 492.146 374.296 491.406 374.866 490.646C375.016 490.446 375.166 490.236 375.326 490.026C376.046 489.056 376.746 488.066 377.426 487.076V487.066C377.686 486.696 377.936 486.316 378.196 485.946C378.446 485.566 378.696 485.186 378.946 484.806C379.196 484.406 379.456 484.016 379.706 483.616L379.736 483.556C379.986 483.176 380.236 482.776 380.476 482.386C380.666 482.066 380.856 481.756 381.046 481.446C381.166 481.236 381.296 481.026 381.416 480.806C381.462 480.738 381.506 480.668 381.546 480.596C381.826 480.106 382.106 479.616 382.386 479.126C382.716 478.556 383.036 477.976 383.356 477.396C383.476 477.156 383.606 476.916 383.736 476.676C383.786 476.596 383.826 476.516 383.866 476.436C384.016 476.156 384.166 475.866 384.306 475.576C384.456 475.296 384.606 475.006 384.756 474.716C384.895 474.436 385.046 474.146 385.186 473.856C385.296 473.636 385.396 473.416 385.506 473.196C385.513 473.178 385.523 473.161 385.536 473.146C385.586 473.036 385.636 472.936 385.676 472.836C385.688 472.821 385.698 472.804 385.706 472.786C385.816 472.566 385.916 472.336 386.026 472.116C386.166 471.826 386.296 471.526 386.436 471.236C386.526 471.036 386.626 470.826 386.716 470.616C386.846 470.326 386.986 470.036 387.106 469.736C387.246 469.436 387.376 469.136 387.506 468.826C387.543 468.751 387.576 468.674 387.606 468.596C387.676 468.456 387.726 468.316 387.786 468.176C387.946 467.806 388.106 467.426 388.256 467.056C388.436 466.636 388.606 466.206 388.766 465.786C388.926 465.396 389.076 464.996 389.226 464.596L389.286 464.456C391.616 458.319 393.383 451.983 394.566 445.526V445.516C395.233 441.829 395.71 438.111 395.996 434.376C396.006 434.166 396.026 433.966 396.036 433.766C396.216 431.236 396.296 428.696 396.296 426.146C396.296 425.016 396.276 423.896 396.246 422.776C395.547 399.352 387.195 376.802 372.466 358.576C372.146 358.176 371.826 357.776 371.496 357.376C371.166 356.976 370.826 356.586 370.496 356.196C359.533 343.358 345.708 333.275 330.134 326.761C314.56 320.247 297.673 317.483 280.835 318.693C263.997 319.902 247.679 325.051 233.196 333.725C218.713 342.398 206.47 354.353 197.456 368.626C196.966 369.406 196.476 370.196 196.006 370.986C195.526 371.786 195.066 372.586 194.606 373.396C185.546 389.499 180.8 407.669 180.825 426.146Z" fill="#F2F2F2"/>
<path d="M284.283 355.679C301.999 360.225 320.154 362.845 338.432 363.495C341.196 363.645 343.966 363.626 346.728 363.438C352.797 362.928 357.995 361.02 363.785 359.978C366.568 359.478 369.669 359.113 372.471 358.573C371.823 357.769 371.164 356.976 370.493 356.192C364.451 356.703 358.315 358.374 352.2 359.15C341.806 360.472 330.16 358.997 322.28 355.36C318.457 353.594 315.528 351.391 311.719 349.618C311.201 349.352 310.639 349.18 310.061 349.111C308.963 349.078 307.878 349.359 306.934 349.922C300.543 353.148 291.263 355.771 282.65 354.328C282.008 354.83 283.228 355.403 284.283 355.679Z" fill="white"/>
<path d="M246.169 367.034C246.09 367.02 246.011 367.009 245.932 366.995C246.263 366.79 246.575 366.555 246.863 366.294L246.169 367.034Z" fill="white"/>
<path d="M194.608 373.4C198.205 373.687 201.821 373.901 205.456 374.042C208.22 374.191 210.991 374.172 213.752 373.986C219.821 373.473 225.02 371.568 230.809 370.525C236.115 369.572 242.563 369.112 245.932 366.995C237.225 365.488 228.203 368.556 219.225 369.698C211.962 370.591 204.6 370.227 197.461 368.623C196.467 370.187 195.516 371.779 194.608 373.4Z" fill="white"/>
<path d="M238.126 521.356C238.986 521.826 239.856 522.276 240.726 522.706C241.036 522.856 241.356 523.006 241.666 523.166C241.926 523.286 242.186 523.416 242.446 523.536C242.526 523.576 242.596 523.606 242.666 523.646C242.886 523.746 243.096 523.846 243.316 523.946C243.556 524.056 243.796 524.166 244.026 524.276C244.296 524.396 244.556 524.516 244.826 524.626C245.826 525.076 246.836 525.506 247.846 525.916C251.465 527.399 255.164 528.681 258.926 529.756C259.096 529.806 259.276 529.856 259.456 529.906C261.066 530.356 262.686 530.766 264.316 531.136C267.166 531.796 270.042 532.336 272.946 532.756H272.966C273.316 532.806 273.656 532.856 274.006 532.906C274.036 532.906 274.066 532.916 274.106 532.916C274.106 532.926 274.106 532.926 274.116 532.916C274.496 532.966 274.886 533.016 275.266 533.066C275.291 533.073 275.319 533.077 275.346 533.076C275.706 533.126 276.076 533.166 276.436 533.206C276.826 533.246 277.216 533.286 277.606 533.326C277.906 533.356 278.206 533.386 278.506 533.416C278.531 533.425 278.558 533.428 278.586 533.426C278.856 533.446 279.126 533.476 279.396 533.496H279.436C279.666 533.516 279.906 533.536 280.136 533.556C282.926 533.776 285.726 533.876 288.566 533.876C291.636 533.876 294.686 533.756 297.696 533.496H297.726C298.376 533.436 299.016 533.376 299.656 533.316C299.826 533.296 299.986 533.286 300.156 533.266C300.186 533.266 300.226 533.256 300.256 533.256C300.306 533.246 300.356 533.246 300.416 533.236C300.443 533.237 300.47 533.233 300.496 533.226C300.716 533.206 300.936 533.176 301.166 533.156L301.916 533.066C302.166 533.036 302.416 532.996 302.666 532.966C302.726 532.956 302.776 532.956 302.836 532.946C303.016 532.926 303.196 532.896 303.376 532.866C303.466 532.856 303.556 532.846 303.636 532.836C303.816 532.806 303.986 532.786 304.166 532.756H304.176C309.663 531.966 315.08 530.745 320.376 529.106C320.656 529.016 320.936 528.936 321.216 528.846C319.924 522.824 317.266 517.18 313.446 512.349C309.626 507.518 304.747 503.631 299.186 500.986C300.561 499.675 301.512 497.982 301.916 496.126C302.175 494.929 302.196 493.693 301.976 492.488C301.756 491.283 301.301 490.134 300.636 489.106C299.338 487.113 297.302 485.718 294.976 485.226L280.156 482.126C277.77 481.661 275.297 482.156 273.275 483.504C271.252 484.853 269.844 486.945 269.356 489.326C269.204 490.056 269.137 490.801 269.156 491.546C254.886 501.046 244.615 510.896 238.126 521.356Z" fill="#E5A8FF"/>
<path d="M281.884 476.272C298.937 476.272 312.76 462.449 312.76 445.397C312.76 428.345 298.937 414.521 281.884 414.521C264.832 414.521 251.009 428.345 251.009 445.397C251.009 462.449 264.832 476.272 281.884 476.272Z" fill="#FFB8B8"/>
<path d="M262.639 472.016C259.347 469.767 255.984 465.445 253.74 462.206C250.765 457.948 248.719 453.113 247.733 448.014C246.746 442.914 246.843 437.665 248.015 432.605C248.389 430.582 249.308 428.699 250.673 427.16C252.127 425.721 254.502 425.039 256.277 426.056C255.793 424.759 255.579 423.377 255.65 421.994C255.721 420.611 256.074 419.257 256.689 418.017C257.936 415.539 259.744 413.386 261.968 411.729C266.222 408.453 271.283 406.39 276.615 405.759C281.947 405.128 287.35 405.952 292.251 408.143C294.18 409.037 291.012 402.135 293.031 402.801C295.036 403.577 297.266 403.538 299.243 402.691C301.141 401.736 307.434 407.414 306.706 405.417C308.147 406.071 309.399 407.079 310.345 408.348C311.291 409.616 311.901 411.103 312.118 412.671C312.335 414.238 312.152 415.835 311.585 417.312C311.018 418.79 310.087 420.1 308.878 421.121C307.284 422.466 305.295 423.24 303.55 424.382C300.493 426.533 298.329 429.728 297.467 433.365C296.605 437.002 297.105 440.829 298.871 444.123C297.036 442.943 295.021 442.068 292.907 441.531C291.846 441.272 290.738 441.27 289.676 441.525C288.615 441.781 287.629 442.286 286.802 442.999C286.111 443.79 285.589 444.714 285.267 445.714C284.946 446.714 284.833 447.769 284.935 448.815C285.004 450.91 285.502 452.974 285.558 455.07C285.722 461.219 289.016 472.91 284.248 476.178C280.486 478.758 267.135 475.087 262.639 472.016Z" fill="#2F2E41"/>
<path d="M780.385 190.146C780.385 192.576 780.305 195.006 780.135 197.416C779.955 200.296 779.646 203.156 779.226 205.996C777.814 215.558 775.116 224.886 771.206 233.726C771.006 234.166 770.806 234.606 770.606 235.046L770.305 235.706C770.205 235.926 770.095 236.146 769.995 236.356C769.855 236.646 769.726 236.926 769.586 237.206C769.416 237.556 769.245 237.906 769.065 238.256C769.045 238.296 769.025 238.346 768.995 238.396C768.845 238.696 768.706 238.986 768.546 239.286C768.516 239.351 768.483 239.414 768.445 239.476C768.275 239.816 768.096 240.166 767.916 240.506C767.716 240.866 767.526 241.236 767.326 241.596C766.846 242.486 766.346 243.366 765.836 244.246C765.686 244.506 765.535 244.766 765.375 245.026C765.235 245.266 765.095 245.506 764.945 245.746C764.845 245.906 764.745 246.076 764.645 246.236C764.485 246.506 764.325 246.766 764.155 247.036C763.785 247.626 763.405 248.216 763.035 248.806H763.025C762.855 249.076 762.675 249.346 762.495 249.606V249.616C761.965 250.416 761.415 251.216 760.865 252.006C760.864 252.006 760.863 252.006 760.862 252.006C760.86 252.007 760.859 252.008 760.858 252.008C760.857 252.009 760.857 252.01 760.856 252.012C760.856 252.013 760.855 252.014 760.855 252.016C760.415 252.656 759.955 253.276 759.505 253.896V253.906C759.205 254.296 758.915 254.696 758.615 255.086C758.375 255.406 758.125 255.736 757.875 256.056C757.825 256.126 757.765 256.186 757.715 256.256V256.266C757.645 256.356 757.575 256.436 757.505 256.526C756.445 257.886 755.352 259.216 754.225 260.516L754.045 260.726C753.985 260.796 753.915 260.866 753.855 260.946C753.755 261.056 753.665 261.166 753.565 261.276C753.475 261.386 753.375 261.496 753.275 261.606C747.402 268.221 740.743 274.095 733.445 279.096C732.475 279.766 731.485 280.416 730.495 281.046C730.245 281.206 729.995 281.366 729.745 281.516C729.675 281.566 729.595 281.616 729.525 281.666C729.385 281.746 729.255 281.826 729.115 281.916C728.985 281.996 728.855 282.076 728.715 282.156C728.185 282.486 727.645 282.806 727.105 283.126C726.975 283.206 726.835 283.286 726.695 283.366C726.565 283.436 726.425 283.516 726.285 283.596C726.285 283.606 726.285 283.606 726.275 283.606H726.265V283.616H726.255C725.585 284.006 724.905 284.386 724.215 284.756C723.845 284.956 723.465 285.166 723.085 285.356C722.225 285.826 721.355 286.276 720.485 286.706C720.175 286.856 719.855 287.006 719.545 287.166C719.285 287.286 719.025 287.416 718.765 287.536C718.685 287.576 718.615 287.606 718.545 287.646C718.325 287.746 718.115 287.846 717.895 287.946C717.655 288.056 717.415 288.166 717.185 288.276C716.915 288.396 716.655 288.516 716.385 288.626C715.385 289.076 714.375 289.506 713.365 289.916C709.746 291.399 706.047 292.681 702.285 293.756C702.115 293.806 701.935 293.856 701.755 293.906C700.145 294.356 698.525 294.766 696.895 295.136C694.045 295.796 691.169 296.336 688.265 296.756H688.245C687.895 296.806 687.555 296.856 687.205 296.906C687.175 296.906 687.145 296.916 687.105 296.916C687.105 296.926 687.105 296.926 687.095 296.916C686.715 296.966 686.325 297.016 685.945 297.066C685.919 297.073 685.892 297.077 685.865 297.076C685.505 297.126 685.135 297.166 684.775 297.206C684.385 297.246 683.995 297.286 683.605 297.326C683.305 297.356 683.005 297.386 682.705 297.416C682.68 297.424 682.652 297.428 682.625 297.426C682.355 297.446 682.085 297.476 681.815 297.496H681.775C681.545 297.516 681.305 297.536 681.075 297.556C678.285 297.776 675.485 297.876 672.645 297.876C669.575 297.876 666.525 297.756 663.515 297.496H663.485C662.835 297.436 662.195 297.376 661.555 297.316C661.385 297.296 661.225 297.286 661.055 297.266C661.025 297.266 660.985 297.256 660.955 297.256C660.905 297.246 660.855 297.246 660.795 297.236C660.768 297.237 660.741 297.233 660.715 297.226C660.495 297.206 660.275 297.176 660.045 297.156L659.295 297.066C659.045 297.036 658.795 296.996 658.545 296.966C658.485 296.956 658.435 296.956 658.375 296.946C658.195 296.926 658.015 296.896 657.835 296.866C657.745 296.856 657.655 296.846 657.575 296.836C657.395 296.806 657.225 296.786 657.045 296.756H657.035C651.548 295.966 646.131 294.745 640.835 293.106C640.555 293.016 640.275 292.936 639.995 292.846C639.985 292.846 639.975 292.836 639.965 292.836C639.885 292.806 639.795 292.786 639.715 292.756C638.965 292.516 638.225 292.266 637.485 292.006C636.465 291.666 635.455 291.296 634.445 290.916C634.175 290.806 633.905 290.706 633.635 290.596C633.085 290.386 632.545 290.166 632.005 289.946C631.085 289.576 630.165 289.186 629.255 288.786C628.405 288.406 627.565 288.026 626.725 287.626C626.705 287.616 626.675 287.616 626.655 287.596C626.465 287.506 626.275 287.416 626.095 287.326H626.085C621.48 285.116 617.039 282.579 612.795 279.736C611.435 278.826 610.095 277.886 608.775 276.916C607.715 276.126 606.675 275.326 605.635 274.506C600.505 270.425 595.755 265.886 591.445 260.946V260.936C591.135 260.596 590.845 260.246 590.545 259.896C590.495 259.846 590.455 259.796 590.415 259.756C590.225 259.526 590.045 259.306 589.855 259.086V259.076C589.605 258.786 589.355 258.486 589.115 258.186C589.055 258.116 589.005 258.056 588.955 257.996V257.986C588.755 257.746 588.565 257.506 588.365 257.256C588.265 257.136 588.175 257.016 588.075 256.896V256.886C587.485 256.146 586.915 255.406 586.345 254.646C586.195 254.446 586.045 254.236 585.885 254.026C585.165 253.056 584.465 252.066 583.785 251.076V251.066C583.525 250.696 583.275 250.316 583.015 249.946C582.765 249.566 582.515 249.186 582.265 248.806C582.015 248.406 581.755 248.016 581.505 247.616L581.475 247.556C581.225 247.176 580.975 246.776 580.735 246.386C580.545 246.066 580.355 245.756 580.165 245.446C580.045 245.236 579.915 245.026 579.795 244.806C579.748 244.738 579.705 244.668 579.665 244.596C579.385 244.106 579.105 243.616 578.825 243.126C578.495 242.556 578.175 241.976 577.855 241.396C577.735 241.156 577.605 240.916 577.475 240.676C577.425 240.596 577.385 240.516 577.345 240.436C577.195 240.156 577.045 239.866 576.905 239.576C576.755 239.296 576.605 239.006 576.455 238.716C576.315 238.436 576.165 238.146 576.025 237.856C575.915 237.636 575.815 237.416 575.705 237.196C575.698 237.178 575.688 237.161 575.675 237.146C575.625 237.036 575.575 236.936 575.535 236.836C575.523 236.82 575.513 236.804 575.505 236.786C575.395 236.566 575.295 236.336 575.185 236.116C575.045 235.826 574.915 235.526 574.775 235.236C574.685 235.036 574.585 234.826 574.495 234.616C574.365 234.326 574.225 234.036 574.105 233.736C573.965 233.436 573.835 233.136 573.705 232.826C573.668 232.751 573.635 232.674 573.605 232.596C573.535 232.456 573.485 232.316 573.425 232.176C573.265 231.806 573.105 231.426 572.955 231.056C572.775 230.636 572.605 230.206 572.445 229.786C572.285 229.396 572.135 228.996 571.985 228.596L571.925 228.456C569.595 222.319 567.828 215.983 566.645 209.526V209.516C565.978 205.829 565.501 202.111 565.215 198.376C565.205 198.166 565.185 197.966 565.175 197.766C564.995 195.236 564.915 192.696 564.915 190.146C564.915 189.016 564.935 187.896 564.965 186.776C565.663 163.352 574.016 140.802 588.745 122.576C589.065 122.176 589.385 121.776 589.715 121.376C590.045 120.976 590.385 120.586 590.715 120.196C601.678 107.358 615.503 97.2754 631.077 90.7611C646.651 84.2469 663.538 81.4831 680.376 82.6927C697.214 83.9022 713.532 89.0512 728.015 97.7245C742.498 106.398 754.741 118.353 763.755 132.626C764.245 133.406 764.735 134.196 765.205 134.986C765.685 135.786 766.145 136.586 766.605 137.396C775.665 153.499 780.411 171.669 780.385 190.146Z" fill="#F2F2F2"/>
<path d="M676.928 119.679C659.212 124.225 641.057 126.845 622.779 127.495C620.015 127.645 617.245 127.626 614.483 127.438C608.414 126.928 603.216 125.02 597.426 123.978C594.643 123.478 591.542 123.113 588.74 122.573C589.388 121.769 590.047 120.976 590.718 120.192C596.76 120.703 602.896 122.374 609.011 123.15C619.405 124.472 631.051 122.997 638.931 119.36C642.754 117.594 645.683 115.391 649.492 113.618C650.01 113.352 650.572 113.18 651.15 113.111C652.248 113.078 653.333 113.359 654.277 113.922C660.668 117.148 669.948 119.771 678.561 118.328C679.203 118.83 677.983 119.403 676.928 119.679Z" fill="white"/>
<path d="M715.042 131.034C715.121 131.02 715.2 131.009 715.279 130.995C714.948 130.79 714.636 130.555 714.348 130.294L715.042 131.034Z" fill="white"/>
<path d="M766.603 137.4C763.006 137.687 759.39 137.901 755.755 138.042C752.991 138.191 750.22 138.172 747.459 137.986C741.39 137.473 736.191 135.568 730.402 134.525C725.096 133.572 718.648 133.112 715.279 130.995C723.986 129.488 733.007 132.556 741.986 133.698C749.249 134.591 756.611 134.227 763.75 132.623C764.744 134.187 765.695 135.779 766.603 137.4Z" fill="white"/>
<path d="M660.5 237.287C678.371 237.287 692.859 222.477 692.859 204.207C692.859 185.938 678.371 171.128 660.5 171.128C642.629 171.128 628.142 185.938 628.142 204.207C628.142 222.477 642.629 237.287 660.5 237.287Z" fill="#FFB6B6"/>
<path d="M723.085 285.356C722.225 285.826 721.355 286.276 720.485 286.706C720.175 286.856 719.855 287.006 719.545 287.166C719.285 287.286 719.025 287.416 718.765 287.536C718.685 287.576 718.615 287.606 718.545 287.646C718.325 287.746 718.115 287.846 717.895 287.946C717.655 288.056 717.415 288.166 717.185 288.276C716.915 288.396 716.655 288.516 716.385 288.626C715.385 289.076 714.375 289.506 713.365 289.916C709.746 291.399 706.047 292.681 702.285 293.756C702.115 293.806 701.935 293.856 701.755 293.906C700.145 294.356 698.525 294.766 696.895 295.136C694.045 295.796 691.169 296.336 688.265 296.756H688.245C687.895 296.806 687.555 296.856 687.205 296.906C687.175 296.906 687.145 296.916 687.105 296.916C687.105 296.926 687.105 296.926 687.095 296.916C686.715 296.966 686.325 297.016 685.945 297.066C685.919 297.073 685.892 297.077 685.865 297.076C685.505 297.126 685.135 297.166 684.775 297.206C684.385 297.246 683.995 297.286 683.605 297.326C683.305 297.356 683.005 297.386 682.705 297.416C682.68 297.425 682.652 297.428 682.625 297.426C682.355 297.446 682.085 297.476 681.815 297.496H681.775C681.545 297.516 681.305 297.536 681.075 297.556C678.285 297.776 675.485 297.876 672.645 297.876C669.575 297.876 666.525 297.756 663.515 297.496H663.485C662.835 297.436 662.195 297.376 661.555 297.316C661.385 297.296 661.225 297.286 661.055 297.266C661.025 297.266 660.985 297.256 660.955 297.256C660.905 297.246 660.855 297.246 660.795 297.236C660.768 297.237 660.741 297.233 660.715 297.226C660.495 297.206 660.275 297.176 660.045 297.156L659.295 297.066C659.045 297.036 658.795 296.996 658.545 296.966C658.485 296.956 658.435 296.956 658.375 296.946C658.195 296.926 658.015 296.896 657.835 296.866C657.745 296.856 657.655 296.846 657.575 296.836C657.395 296.806 657.225 296.786 657.045 296.756H657.035C651.548 295.966 646.131 294.745 640.835 293.106C640.555 293.016 640.275 292.936 639.995 292.846C641.287 286.824 643.945 281.18 647.765 276.349C651.584 271.518 656.464 267.63 662.025 264.986C660.65 263.675 659.699 261.982 659.295 260.126C659.036 258.929 659.015 257.693 659.235 256.488C659.455 255.283 659.91 254.134 660.575 253.106C661.873 251.113 663.909 249.717 666.235 249.226L681.055 246.126C683.441 245.661 685.914 246.156 687.936 247.504C689.959 248.853 691.367 250.945 691.855 253.326C692.007 254.056 692.074 254.801 692.055 255.546C706.325 265.046 716.595 274.896 723.085 285.356Z" fill="#E5A8FF"/>
<path d="M747.088 189.861C741.588 183.447 738.973 174.937 734.576 167.653C730.179 160.369 722.527 153.85 714.443 155.545C708.871 156.714 704.565 161.631 702.384 167.113C700.205 172.595 699.796 178.641 699.414 184.563C699.549 172.392 691.53 160.593 680.484 156.709C669.439 152.826 656.22 157.158 649.279 166.936C646.25 164.128 642.297 162.53 638.168 162.443C634.039 162.357 630.022 163.788 626.878 166.466C620.669 172.014 619.295 182.575 623.861 189.653C628.427 196.73 638.315 199.367 645.571 195.442L648.136 197.801C646.692 202.852 649.492 208.817 654.199 210.718C658.016 212.26 663.404 212.003 664.833 216.009C665.831 218.807 663.965 221.795 661.981 223.945C659.997 226.096 657.641 228.317 657.402 231.293C657.042 235.784 661.683 238.929 665.901 239.876C676.072 242.161 687.358 237.451 693.221 228.474C693.334 228.301 693.457 228.128 693.589 227.954C696.878 223.748 699.275 218.916 700.634 213.752C701.992 208.588 702.283 203.201 701.49 197.921C701.16 195.846 701.492 194.303 702.923 193.812C709.105 191.688 726.427 196.145 731.669 200.174C736.912 204.202 741.11 209.533 746.159 213.822C751.209 218.11 757.644 221.418 764.055 220.25C769.19 219.315 773.559 215.587 776.497 211.09C779.435 206.593 781.126 201.352 782.641 196.143C771.286 202.702 755.746 199.956 747.088 189.861Z" fill="#2F2E41"/>
<path d="M82.8255 123.146C82.8255 125.576 82.9055 128.006 83.0755 130.416C83.2555 133.296 83.5655 136.156 83.9855 138.996C85.397 148.558 88.0948 157.886 92.0055 166.726C92.2054 167.166 92.4055 167.606 92.6055 168.046L92.9055 168.706C93.0055 168.926 93.1155 169.146 93.2155 169.356C93.3555 169.646 93.4855 169.926 93.6255 170.206C93.7955 170.556 93.9655 170.906 94.1455 171.256C94.1655 171.296 94.1855 171.346 94.2155 171.396C94.3655 171.696 94.5055 171.986 94.6655 172.286C94.6949 172.351 94.7283 172.414 94.7655 172.476C94.9355 172.816 95.1155 173.166 95.2955 173.506C95.4955 173.866 95.6855 174.236 95.8855 174.596C96.3655 175.486 96.8655 176.366 97.3755 177.246C97.5255 177.506 97.6755 177.766 97.8355 178.026C97.9755 178.266 98.1155 178.506 98.2655 178.746C98.3655 178.906 98.4655 179.076 98.5655 179.236C98.7255 179.506 98.8855 179.766 99.0555 180.036C99.4255 180.626 99.8055 181.216 100.175 181.806H100.185C100.355 182.076 100.535 182.346 100.715 182.606V182.616C101.245 183.416 101.795 184.216 102.345 185.006C102.347 185.006 102.348 185.006 102.349 185.006C102.351 185.007 102.352 185.008 102.353 185.008C102.354 185.009 102.354 185.01 102.355 185.012C102.355 185.013 102.356 185.014 102.355 185.016C102.795 185.656 103.255 186.276 103.705 186.896V186.906C104.005 187.296 104.295 187.696 104.595 188.086C104.835 188.406 105.085 188.736 105.335 189.056C105.385 189.125 105.445 189.186 105.495 189.256V189.266C105.565 189.356 105.635 189.436 105.705 189.526C106.765 190.886 107.859 192.216 108.986 193.516L109.165 193.726C109.225 193.796 109.295 193.866 109.355 193.946C109.455 194.056 109.545 194.166 109.645 194.276C109.735 194.386 109.835 194.496 109.935 194.606C115.809 201.221 122.468 207.095 129.766 212.096C130.736 212.766 131.725 213.416 132.715 214.046C132.965 214.206 133.215 214.366 133.465 214.516C133.535 214.566 133.615 214.616 133.685 214.666C133.825 214.746 133.955 214.826 134.095 214.916C134.225 214.996 134.355 215.076 134.495 215.156C135.025 215.486 135.565 215.806 136.105 216.126C136.235 216.206 136.376 216.286 136.516 216.366C136.646 216.436 136.785 216.516 136.925 216.596C136.925 216.606 136.925 216.606 136.935 216.606H136.945V216.616H136.955C137.626 217.006 138.306 217.386 138.995 217.756C139.365 217.956 139.745 218.166 140.125 218.356C140.985 218.826 141.855 219.276 142.725 219.706C143.035 219.856 143.355 220.006 143.665 220.166C143.925 220.286 144.185 220.416 144.445 220.536C144.525 220.576 144.595 220.606 144.665 220.646C144.885 220.746 145.095 220.846 145.315 220.946C145.555 221.056 145.795 221.166 146.025 221.276C146.295 221.396 146.556 221.516 146.826 221.626C147.826 222.076 148.835 222.506 149.845 222.916C153.465 224.399 157.164 225.681 160.925 226.756C161.095 226.806 161.275 226.856 161.455 226.906C163.066 227.356 164.686 227.766 166.316 228.136C169.166 228.796 172.042 229.336 174.946 229.756H174.966C175.316 229.806 175.656 229.856 176.006 229.906C176.036 229.906 176.066 229.916 176.106 229.916C176.106 229.926 176.106 229.926 176.116 229.916C176.496 229.966 176.886 230.016 177.266 230.066C177.291 230.073 177.319 230.077 177.346 230.076C177.706 230.126 178.076 230.166 178.436 230.206C178.826 230.246 179.215 230.286 179.606 230.326C179.906 230.356 180.206 230.386 180.506 230.416C180.531 230.424 180.558 230.428 180.586 230.426C180.856 230.446 181.126 230.476 181.396 230.496H181.436C181.666 230.516 181.906 230.536 182.136 230.556C184.926 230.776 187.726 230.876 190.566 230.876C193.636 230.876 196.686 230.756 199.696 230.496H199.726C200.376 230.436 201.016 230.376 201.656 230.316C201.826 230.296 201.986 230.286 202.156 230.266C202.186 230.266 202.226 230.256 202.256 230.256C202.306 230.246 202.356 230.246 202.416 230.236C202.443 230.237 202.47 230.233 202.496 230.226C202.716 230.206 202.936 230.176 203.166 230.156L203.916 230.066C204.166 230.036 204.416 229.996 204.666 229.966C204.726 229.956 204.776 229.956 204.836 229.946C205.016 229.926 205.196 229.896 205.376 229.866C205.466 229.856 205.556 229.846 205.636 229.836C205.816 229.806 205.986 229.786 206.166 229.756H206.176C211.663 228.966 217.08 227.745 222.376 226.106C222.656 226.016 222.936 225.936 223.216 225.846C223.226 225.846 223.236 225.836 223.246 225.836C223.326 225.806 223.416 225.786 223.496 225.756C224.246 225.516 224.986 225.266 225.726 225.006C226.746 224.666 227.756 224.296 228.766 223.916C229.036 223.806 229.306 223.706 229.576 223.596C230.126 223.386 230.666 223.166 231.206 222.946C232.126 222.576 233.046 222.186 233.956 221.786C234.806 221.406 235.646 221.026 236.486 220.626C236.506 220.616 236.536 220.616 236.556 220.596C236.746 220.506 236.936 220.416 237.116 220.326H237.126C241.731 218.116 246.172 215.579 250.416 212.736C251.776 211.826 253.116 210.886 254.436 209.916C255.496 209.126 256.536 208.326 257.576 207.506C262.706 203.425 267.456 198.886 271.766 193.946V193.936C272.076 193.596 272.366 193.246 272.666 192.896C272.716 192.846 272.756 192.796 272.796 192.756C272.986 192.526 273.166 192.306 273.356 192.086V192.076C273.606 191.786 273.856 191.486 274.096 191.186C274.156 191.116 274.206 191.056 274.256 190.996V190.986C274.456 190.746 274.646 190.506 274.846 190.256C274.946 190.136 275.036 190.016 275.136 189.896V189.886C275.726 189.146 276.296 188.406 276.866 187.646C277.016 187.446 277.166 187.236 277.326 187.026C278.046 186.056 278.746 185.066 279.426 184.076V184.066C279.686 183.696 279.936 183.316 280.196 182.946C280.446 182.566 280.696 182.186 280.946 181.806C281.196 181.406 281.456 181.016 281.706 180.616L281.736 180.556C281.986 180.176 282.236 179.776 282.476 179.386C282.666 179.066 282.856 178.756 283.046 178.446C283.166 178.236 283.296 178.026 283.416 177.806C283.462 177.738 283.506 177.668 283.546 177.596C283.826 177.106 284.106 176.616 284.386 176.126C284.716 175.556 285.036 174.976 285.356 174.396C285.476 174.156 285.606 173.916 285.736 173.676C285.786 173.596 285.826 173.516 285.866 173.436C286.016 173.156 286.166 172.866 286.306 172.576C286.456 172.296 286.606 172.006 286.756 171.716C286.896 171.436 287.046 171.146 287.186 170.856C287.296 170.636 287.396 170.416 287.506 170.196C287.513 170.178 287.523 170.161 287.536 170.146C287.586 170.036 287.636 169.936 287.676 169.836C287.688 169.82 287.698 169.804 287.706 169.786C287.816 169.566 287.916 169.336 288.026 169.116C288.166 168.826 288.296 168.526 288.436 168.236C288.526 168.036 288.626 167.826 288.716 167.616C288.846 167.326 288.986 167.036 289.106 166.736C289.246 166.436 289.376 166.136 289.506 165.826C289.543 165.751 289.576 165.674 289.606 165.596C289.676 165.456 289.726 165.316 289.786 165.176C289.946 164.806 290.106 164.426 290.256 164.056C290.436 163.636 290.606 163.206 290.766 162.786C290.926 162.396 291.076 161.996 291.226 161.596L291.286 161.456C293.616 155.319 295.383 148.983 296.566 142.526V142.516C297.233 138.829 297.71 135.111 297.996 131.376C298.006 131.166 298.026 130.966 298.036 130.766C298.216 128.236 298.296 125.696 298.296 123.146C298.296 122.016 298.276 120.896 298.246 119.776C297.547 96.352 289.195 73.802 274.466 55.5757C274.146 55.1757 273.826 54.7756 273.496 54.3756C273.166 53.9756 272.826 53.5857 272.496 53.1957C261.533 40.3578 247.708 30.2754 232.134 23.7611C216.56 17.2469 199.673 14.4831 182.835 15.6927C165.997 16.9022 149.679 22.0511 135.196 30.7245C120.713 39.3978 108.47 51.3528 99.4555 65.6256C98.9655 66.4056 98.4756 67.1957 98.0056 67.9857C97.5256 68.7857 97.0655 69.5857 96.6055 70.3957C87.5462 86.4989 82.7995 104.669 82.8255 123.146Z" fill="#F2F2F2"/>
<path d="M186.283 52.6793C203.999 57.225 222.154 59.8453 240.432 60.4946C243.196 60.6451 245.966 60.6263 248.728 60.4381C254.797 59.9277 259.995 58.0202 265.785 56.9778C268.568 56.4781 271.669 56.1127 274.471 55.5727C273.823 54.7694 273.164 53.976 272.493 53.1924C266.451 53.7029 260.315 55.3739 254.2 56.1504C243.806 57.4722 232.16 55.9972 224.28 52.3596C220.457 50.5945 217.528 48.3915 213.719 46.6183C213.201 46.3523 212.639 46.1804 212.061 46.1106C210.963 46.0776 209.878 46.3591 208.934 46.9219C202.543 50.1485 193.263 52.7706 184.65 51.3279C184.008 51.8303 185.228 52.4025 186.283 52.6793Z" fill="white"/>
<path d="M148.169 64.0342C148.09 64.0198 148.011 64.0086 147.932 63.995C148.263 63.7899 148.575 63.5552 148.863 63.2937L148.169 64.0342Z" fill="white"/>
<path d="M96.6077 70.4C100.205 70.6875 103.821 70.9015 107.456 71.0421C110.22 71.1913 112.991 71.1725 115.752 70.9857C121.821 70.4726 127.02 68.5677 132.809 67.5253C138.115 66.5716 144.563 66.1122 147.932 63.9952C139.225 62.488 130.203 65.5561 121.225 66.6979C113.962 67.5909 106.6 67.2274 99.4608 65.6232C98.4668 67.1868 97.5157 68.7791 96.6077 70.4Z" fill="white"/>
<path d="M140.126 218.356C140.986 218.826 141.856 219.276 142.726 219.706C143.036 219.856 143.356 220.006 143.666 220.166C143.926 220.286 144.186 220.416 144.446 220.536C144.526 220.576 144.596 220.606 144.666 220.646C144.886 220.746 145.096 220.846 145.316 220.946C145.556 221.056 145.796 221.166 146.026 221.276C146.296 221.396 146.556 221.516 146.826 221.626C147.826 222.076 148.836 222.506 149.846 222.916C153.465 224.399 157.164 225.681 160.926 226.756C161.096 226.806 161.276 226.856 161.456 226.906C163.066 227.356 164.686 227.766 166.316 228.136C169.166 228.796 172.042 229.336 174.946 229.756H174.966C175.316 229.806 175.656 229.856 176.006 229.906C176.036 229.906 176.066 229.916 176.106 229.916C176.106 229.926 176.106 229.926 176.116 229.916C176.496 229.966 176.886 230.016 177.266 230.066C177.291 230.073 177.319 230.077 177.346 230.076C177.706 230.126 178.076 230.166 178.436 230.206C178.826 230.246 179.216 230.286 179.606 230.326C179.906 230.356 180.206 230.386 180.506 230.416C180.531 230.425 180.558 230.428 180.586 230.426C180.856 230.446 181.126 230.476 181.396 230.496H181.436C181.666 230.516 181.906 230.536 182.136 230.556C184.926 230.776 187.726 230.876 190.566 230.876C193.636 230.876 196.686 230.756 199.696 230.496H199.726C200.376 230.436 201.016 230.376 201.656 230.316C201.826 230.296 201.986 230.286 202.156 230.266C202.186 230.266 202.226 230.256 202.256 230.256C202.306 230.246 202.356 230.246 202.416 230.236C202.443 230.237 202.47 230.233 202.496 230.226C202.716 230.206 202.936 230.176 203.166 230.156L203.916 230.066C204.166 230.036 204.416 229.996 204.666 229.966C204.726 229.956 204.776 229.956 204.836 229.946C205.016 229.926 205.196 229.896 205.376 229.866C205.466 229.856 205.556 229.846 205.636 229.836C205.816 229.806 205.986 229.786 206.166 229.756H206.176C211.663 228.966 217.08 227.745 222.376 226.106C222.656 226.016 222.936 225.936 223.216 225.846C221.924 219.824 219.266 214.18 215.446 209.349C211.626 204.518 206.747 200.63 201.186 197.986C202.561 196.675 203.512 194.982 203.916 193.126C204.175 191.929 204.196 190.693 203.976 189.488C203.756 188.283 203.301 187.134 202.636 186.106C201.338 184.113 199.302 182.718 196.976 182.226L182.156 179.126C179.77 178.661 177.297 179.156 175.275 180.504C173.252 181.853 171.844 183.945 171.356 186.326C171.204 187.056 171.137 187.801 171.156 188.546C156.886 198.046 146.615 207.896 140.126 218.356Z" fill="#E5A8FF"/>
<path d="M198.754 169.122C218.677 169.122 234.827 152.971 234.827 133.049C234.827 113.126 218.677 96.9756 198.754 96.9756C178.831 96.9756 162.681 113.126 162.681 133.049C162.681 152.971 178.831 169.122 198.754 169.122Z" fill="#9E616A"/>
<path d="M193.628 167.194C184.597 169.633 174.641 166.39 167.593 160.239C160.545 154.088 156.137 145.372 153.596 136.369C151.736 129.776 150.854 122.456 153.79 116.266C156.726 110.076 164.627 105.9 170.723 109.027C166.962 104.645 168.841 97.399 173.233 93.6509C177.625 89.9029 183.656 88.8283 189.4 88.2409C197.736 87.3885 206.346 87.293 214.278 89.9936C222.211 92.6942 229.418 98.5985 231.9 106.602C234.436 107.782 237.291 108.089 240.02 107.473C242.748 106.857 245.195 105.353 246.977 103.198C247.437 105.673 247.068 108.231 245.927 110.476C244.786 112.72 242.938 114.527 240.667 115.615L252.821 111.675C254.911 116.099 251.249 121.575 246.565 122.991C241.882 124.408 236.826 122.86 232.381 120.813C227.937 118.766 223.63 116.178 218.802 115.38C213.975 114.581 208.304 116.133 206.071 120.486C204.901 122.767 204.84 125.438 204.161 127.909C203.482 130.38 201.762 132.942 199.207 133.145C197.593 133.272 196.012 132.413 194.403 132.588C193.415 132.783 192.505 133.261 191.785 133.965C191.065 134.669 190.566 135.567 190.348 136.55C189.948 138.523 189.943 140.555 190.334 142.53L193.421 166.128L193.628 167.194Z" fill="#2F2E41"/>
</g>
<defs>
<clipPath id="clip0_1_2">
<rect width="809" height="555" fill="white"/>
</clipPath>
</defs>
</svg>
