<svg width="447" height="177" viewBox="0 0 447 177" fill="none" xmlns="http://www.w3.org/2000/svg">
<path d="M59.8112 100.396C59.8112 100.86 59.6912 101.3 59.4512 101.716C59.2192 102.132 58.8552 102.472 58.3592 102.736C57.8712 102.992 57.2352 103.12 56.4512 103.12C56.0592 103.12 55.7152 103.1 55.4192 103.06C55.1312 103.028 54.8592 102.972 54.6032 102.892C54.3472 102.812 54.0832 102.708 53.8112 102.58V100.516C54.2752 100.748 54.7432 100.928 55.2152 101.056C55.6872 101.176 56.1152 101.236 56.4992 101.236C56.7312 101.236 56.9192 101.208 57.0632 101.152C57.2072 101.096 57.3152 101.02 57.3872 100.924C57.4592 100.828 57.4952 100.72 57.4952 100.6C57.4952 100.448 57.4432 100.32 57.3392 100.216C57.2352 100.112 57.0712 100.004 56.8472 99.892C56.6232 99.78 56.3232 99.64 55.9472 99.472C55.6272 99.328 55.3392 99.176 55.0832 99.016C54.8272 98.856 54.6072 98.676 54.4232 98.476C54.2472 98.276 54.1112 98.044 54.0152 97.78C53.9192 97.508 53.8712 97.188 53.8712 96.82C53.8712 96.268 54.0072 95.808 54.2792 95.44C54.5512 95.064 54.9272 94.784 55.4072 94.6C55.8952 94.408 56.4592 94.312 57.0992 94.312C57.6592 94.312 58.1632 94.376 58.6112 94.504C59.0592 94.624 59.4592 94.764 59.8112 94.924L59.1032 96.712C58.7352 96.544 58.3712 96.412 58.0112 96.316C57.6592 96.212 57.3312 96.16 57.0272 96.16C56.8272 96.16 56.6632 96.184 56.5352 96.232C56.4072 96.28 56.3112 96.348 56.2472 96.436C56.1912 96.516 56.1632 96.608 56.1632 96.712C56.1632 96.848 56.2152 96.968 56.3192 97.072C56.4232 97.176 56.5952 97.292 56.8352 97.42C57.0832 97.54 57.4192 97.696 57.8432 97.888C58.2592 98.072 58.6112 98.276 58.8992 98.5C59.1952 98.716 59.4192 98.976 59.5712 99.28C59.7312 99.576 59.8112 99.948 59.8112 100.396ZM67.457 96.364V103H65.729L65.441 102.172H65.309C65.173 102.396 64.997 102.58 64.781 102.724C64.573 102.86 64.341 102.96 64.085 103.024C63.837 103.088 63.577 103.12 63.305 103.12C62.873 103.12 62.481 103.036 62.129 102.868C61.777 102.7 61.497 102.436 61.289 102.076C61.089 101.716 60.989 101.252 60.989 100.684V96.364H63.281V99.988C63.281 100.42 63.341 100.748 63.461 100.972C63.589 101.196 63.793 101.308 64.073 101.308C64.361 101.308 64.585 101.232 64.745 101.08C64.905 100.92 65.013 100.688 65.069 100.384C65.133 100.08 65.165 99.708 65.165 99.268V96.364H67.457ZM73.048 96.244C73.176 96.244 73.308 96.252 73.444 96.268C73.58 96.284 73.68 96.3 73.744 96.316L73.54 98.476C73.46 98.46 73.36 98.444 73.24 98.428C73.128 98.412 72.968 98.404 72.76 98.404C72.616 98.404 72.46 98.42 72.292 98.452C72.132 98.476 71.976 98.532 71.824 98.62C71.68 98.708 71.56 98.84 71.464 99.016C71.376 99.192 71.332 99.432 71.332 99.736V103H69.04V96.364H70.744L71.104 97.42H71.212C71.332 97.204 71.488 97.008 71.68 96.832C71.872 96.648 72.084 96.504 72.316 96.4C72.556 96.296 72.8 96.244 73.048 96.244ZM76.405 103L73.873 96.364H76.261L77.389 100.288C77.397 100.312 77.409 100.364 77.425 100.444C77.441 100.516 77.457 100.6 77.473 100.696C77.489 100.784 77.497 100.872 77.497 100.96H77.533C77.533 100.872 77.537 100.788 77.545 100.708C77.561 100.62 77.577 100.54 77.593 100.468C77.617 100.396 77.633 100.34 77.641 100.3L78.817 96.364H81.205L78.673 103H76.405ZM84.989 96.244C85.637 96.244 86.193 96.356 86.657 96.58C87.129 96.804 87.489 97.14 87.737 97.588C87.993 98.036 88.121 98.6 88.121 99.28V100.3H84.029C84.045 100.644 84.173 100.928 84.413 101.152C84.661 101.376 85.017 101.488 85.481 101.488C85.897 101.488 86.277 101.448 86.621 101.368C86.965 101.288 87.321 101.16 87.689 100.984V102.628C87.369 102.796 87.017 102.92 86.633 103C86.257 103.08 85.781 103.12 85.205 103.12C84.533 103.12 83.933 103.004 83.405 102.772C82.885 102.532 82.473 102.16 82.169 101.656C81.865 101.152 81.713 100.508 81.713 99.724C81.713 98.924 81.849 98.268 82.121 97.756C82.401 97.244 82.785 96.864 83.273 96.616C83.769 96.368 84.341 96.244 84.989 96.244ZM85.073 97.804C84.801 97.804 84.573 97.888 84.389 98.056C84.213 98.224 84.109 98.492 84.077 98.86H86.045C86.045 98.66 86.005 98.484 85.925 98.332C85.853 98.172 85.745 98.044 85.601 97.948C85.457 97.852 85.281 97.804 85.073 97.804ZM88.3806 96.364H90.7926L91.9206 100.168C91.9366 100.224 91.9526 100.292 91.9686 100.372C91.9846 100.452 91.9966 100.536 92.0046 100.624C92.0206 100.712 92.0286 100.8 92.0286 100.888H92.0766C92.0926 100.728 92.1126 100.592 92.1366 100.48C92.1686 100.36 92.1966 100.26 92.2206 100.18L93.3726 96.364H95.7126L93.0846 103.42C92.8846 103.956 92.6486 104.408 92.3766 104.776C92.1126 105.144 91.7846 105.42 91.3926 105.604C91.0006 105.788 90.5126 105.88 89.9286 105.88C89.7206 105.88 89.5406 105.868 89.3886 105.844C89.2366 105.828 89.1046 105.808 88.9926 105.784V103.984C89.0806 104 89.1846 104.016 89.3046 104.032C89.4326 104.048 89.5646 104.056 89.7006 104.056C89.9566 104.056 90.1606 104.004 90.3126 103.9C90.4726 103.796 90.6046 103.66 90.7086 103.492C90.8126 103.332 90.9006 103.156 90.9726 102.964L90.9966 102.904L88.3806 96.364Z" fill="grey"/>
<path d="M198.495 98.536C198.495 99.528 198.307 100.356 197.931 101.02C197.563 101.684 197.043 102.18 196.371 102.508C195.699 102.836 194.907 103 193.995 103H191.223V94.432H194.187C195.107 94.432 195.887 94.592 196.527 94.912C197.167 95.224 197.655 95.684 197.991 96.292C198.327 96.9 198.495 97.648 198.495 98.536ZM196.095 98.62C196.095 98.1 196.023 97.668 195.879 97.324C195.743 96.98 195.535 96.724 195.255 96.556C194.983 96.388 194.635 96.304 194.211 96.304H193.539V101.104H194.055C194.759 101.104 195.275 100.9 195.603 100.492C195.931 100.084 196.095 99.46 196.095 98.62ZM202.207 96.364V103H199.915V96.364H202.207ZM201.067 93.688C201.395 93.688 201.679 93.756 201.919 93.892C202.167 94.028 202.291 94.3 202.291 94.708C202.291 95.1 202.167 95.368 201.919 95.512C201.679 95.648 201.395 95.716 201.067 95.716C200.731 95.716 200.443 95.648 200.203 95.512C199.971 95.368 199.855 95.1 199.855 94.708C199.855 94.3 199.971 94.028 200.203 93.892C200.443 93.756 200.731 93.688 201.067 93.688ZM208.738 100.96C208.738 101.376 208.642 101.748 208.45 102.076C208.266 102.404 207.966 102.66 207.55 102.844C207.142 103.028 206.602 103.12 205.93 103.12C205.458 103.12 205.034 103.092 204.658 103.036C204.29 102.988 203.914 102.892 203.53 102.748V100.912C203.954 101.104 204.382 101.244 204.814 101.332C205.246 101.412 205.586 101.452 205.834 101.452C206.09 101.452 206.278 101.424 206.398 101.368C206.518 101.312 206.578 101.228 206.578 101.116C206.578 101.02 206.538 100.936 206.458 100.864C206.378 100.792 206.234 100.712 206.026 100.624C205.826 100.536 205.538 100.416 205.162 100.264C204.794 100.112 204.486 99.948 204.238 99.772C203.998 99.588 203.818 99.372 203.698 99.124C203.578 98.868 203.518 98.56 203.518 98.2C203.518 97.552 203.766 97.064 204.262 96.736C204.766 96.408 205.43 96.244 206.254 96.244C206.694 96.244 207.106 96.292 207.49 96.388C207.874 96.484 208.274 96.624 208.69 96.808L208.066 98.284C207.85 98.18 207.626 98.092 207.394 98.02C207.17 97.948 206.958 97.892 206.758 97.852C206.566 97.812 206.402 97.792 206.266 97.792C206.09 97.792 205.95 97.816 205.846 97.864C205.75 97.912 205.702 97.98 205.702 98.068C205.702 98.148 205.734 98.22 205.798 98.284C205.87 98.348 206.002 98.42 206.194 98.5C206.386 98.58 206.666 98.696 207.034 98.848C207.418 99 207.734 99.168 207.982 99.352C208.238 99.528 208.426 99.744 208.546 100C208.674 100.248 208.738 100.568 208.738 100.96ZM213.029 103.12C212.357 103.12 211.773 103 211.277 102.76C210.781 102.52 210.397 102.148 210.125 101.644C209.853 101.14 209.717 100.496 209.717 99.712C209.717 98.904 209.869 98.248 210.173 97.744C210.477 97.232 210.889 96.856 211.409 96.616C211.937 96.368 212.537 96.244 213.209 96.244C213.617 96.244 214.001 96.288 214.361 96.376C214.729 96.464 215.069 96.588 215.381 96.748L214.709 98.44C214.437 98.32 214.181 98.224 213.941 98.152C213.709 98.08 213.465 98.044 213.209 98.044C212.977 98.044 212.773 98.104 212.597 98.224C212.421 98.344 212.285 98.528 212.189 98.776C212.093 99.016 212.045 99.324 212.045 99.7C212.045 100.084 212.093 100.392 212.189 100.624C212.293 100.856 212.433 101.028 212.609 101.14C212.785 101.244 212.989 101.296 213.221 101.296C213.549 101.296 213.877 101.244 214.205 101.14C214.541 101.036 214.857 100.892 215.153 100.708V102.532C214.881 102.708 214.573 102.852 214.229 102.964C213.885 103.068 213.485 103.12 213.029 103.12ZM222.93 96.364V103H221.202L220.914 102.172H220.782C220.646 102.396 220.47 102.58 220.254 102.724C220.046 102.86 219.814 102.96 219.558 103.024C219.31 103.088 219.05 103.12 218.778 103.12C218.346 103.12 217.954 103.036 217.602 102.868C217.25 102.7 216.97 102.436 216.762 102.076C216.562 101.716 216.462 101.252 216.462 100.684V96.364H218.754V99.988C218.754 100.42 218.814 100.748 218.934 100.972C219.062 101.196 219.266 101.308 219.546 101.308C219.834 101.308 220.058 101.232 220.218 101.08C220.378 100.92 220.486 100.688 220.542 100.384C220.606 100.08 220.638 99.708 220.638 99.268V96.364H222.93ZM229.445 100.96C229.445 101.376 229.349 101.748 229.157 102.076C228.973 102.404 228.673 102.66 228.257 102.844C227.849 103.028 227.309 103.12 226.637 103.12C226.165 103.12 225.741 103.092 225.365 103.036C224.997 102.988 224.621 102.892 224.237 102.748V100.912C224.661 101.104 225.089 101.244 225.521 101.332C225.953 101.412 226.293 101.452 226.541 101.452C226.797 101.452 226.985 101.424 227.105 101.368C227.225 101.312 227.285 101.228 227.285 101.116C227.285 101.02 227.245 100.936 227.165 100.864C227.085 100.792 226.941 100.712 226.733 100.624C226.533 100.536 226.245 100.416 225.869 100.264C225.501 100.112 225.193 99.948 224.945 99.772C224.705 99.588 224.525 99.372 224.405 99.124C224.285 98.868 224.225 98.56 224.225 98.2C224.225 97.552 224.473 97.064 224.969 96.736C225.473 96.408 226.137 96.244 226.961 96.244C227.401 96.244 227.813 96.292 228.197 96.388C228.581 96.484 228.981 96.624 229.397 96.808L228.773 98.284C228.557 98.18 228.333 98.092 228.101 98.02C227.877 97.948 227.665 97.892 227.465 97.852C227.273 97.812 227.109 97.792 226.973 97.792C226.797 97.792 226.657 97.816 226.553 97.864C226.457 97.912 226.409 97.98 226.409 98.068C226.409 98.148 226.441 98.22 226.505 98.284C226.577 98.348 226.709 98.42 226.901 98.5C227.093 98.58 227.373 98.696 227.741 98.848C228.125 99 228.441 99.168 228.689 99.352C228.945 99.528 229.133 99.744 229.253 100C229.381 100.248 229.445 100.568 229.445 100.96ZM235.644 100.96C235.644 101.376 235.548 101.748 235.356 102.076C235.172 102.404 234.872 102.66 234.456 102.844C234.048 103.028 233.508 103.12 232.836 103.12C232.364 103.12 231.94 103.092 231.564 103.036C231.196 102.988 230.82 102.892 230.436 102.748V100.912C230.86 101.104 231.288 101.244 231.72 101.332C232.152 101.412 232.492 101.452 232.74 101.452C232.996 101.452 233.184 101.424 233.304 101.368C233.424 101.312 233.484 101.228 233.484 101.116C233.484 101.02 233.444 100.936 233.364 100.864C233.284 100.792 233.14 100.712 232.932 100.624C232.732 100.536 232.444 100.416 232.068 100.264C231.7 100.112 231.392 99.948 231.144 99.772C230.904 99.588 230.724 99.372 230.604 99.124C230.484 98.868 230.424 98.56 230.424 98.2C230.424 97.552 230.672 97.064 231.168 96.736C231.672 96.408 232.336 96.244 233.16 96.244C233.6 96.244 234.012 96.292 234.396 96.388C234.78 96.484 235.18 96.624 235.596 96.808L234.972 98.284C234.756 98.18 234.532 98.092 234.3 98.02C234.076 97.948 233.864 97.892 233.664 97.852C233.472 97.812 233.308 97.792 233.172 97.792C232.996 97.792 232.856 97.816 232.752 97.864C232.656 97.912 232.608 97.98 232.608 98.068C232.608 98.148 232.64 98.22 232.704 98.284C232.776 98.348 232.908 98.42 233.1 98.5C233.292 98.58 233.572 98.696 233.94 98.848C234.324 99 234.64 99.168 234.888 99.352C235.144 99.528 235.332 99.744 235.452 100C235.58 100.248 235.644 100.568 235.644 100.96ZM239.215 96.364V103H236.923V96.364H239.215ZM238.075 93.688C238.403 93.688 238.687 93.756 238.927 93.892C239.175 94.028 239.299 94.3 239.299 94.708C239.299 95.1 239.175 95.368 238.927 95.512C238.687 95.648 238.403 95.716 238.075 95.716C237.739 95.716 237.451 95.648 237.211 95.512C236.979 95.368 236.863 95.1 236.863 94.708C236.863 94.3 236.979 94.028 237.211 93.892C237.451 93.756 237.739 93.688 238.075 93.688ZM247.149 99.664C247.149 100.216 247.073 100.708 246.921 101.14C246.769 101.572 246.549 101.936 246.261 102.232C245.973 102.52 245.625 102.74 245.217 102.892C244.809 103.044 244.345 103.12 243.825 103.12C243.345 103.12 242.901 103.044 242.493 102.892C242.093 102.74 241.745 102.52 241.449 102.232C241.161 101.936 240.933 101.572 240.765 101.14C240.605 100.708 240.525 100.216 240.525 99.664C240.525 98.928 240.657 98.308 240.921 97.804C241.193 97.292 241.577 96.904 242.073 96.64C242.569 96.376 243.165 96.244 243.861 96.244C244.501 96.244 245.065 96.376 245.553 96.64C246.049 96.904 246.437 97.292 246.717 97.804C247.005 98.308 247.149 98.928 247.149 99.664ZM242.853 99.664C242.853 100.04 242.885 100.36 242.949 100.624C243.013 100.888 243.117 101.088 243.261 101.224C243.413 101.352 243.609 101.416 243.849 101.416C244.089 101.416 244.277 101.352 244.413 101.224C244.557 101.088 244.661 100.888 244.725 100.624C244.789 100.36 244.821 100.04 244.821 99.664C244.821 99.288 244.789 98.972 244.725 98.716C244.661 98.46 244.557 98.268 244.413 98.14C244.269 98.012 244.077 97.948 243.837 97.948C243.493 97.948 243.241 98.092 243.081 98.38C242.929 98.668 242.853 99.096 242.853 99.664ZM252.606 96.244C253.294 96.244 253.854 96.436 254.286 96.82C254.718 97.204 254.934 97.824 254.934 98.68V103H252.642V99.376C252.642 98.936 252.578 98.604 252.45 98.38C252.322 98.156 252.118 98.044 251.838 98.044C251.406 98.044 251.114 98.22 250.962 98.572C250.818 98.924 250.746 99.432 250.746 100.096V103H248.454V96.364H250.182L250.494 97.24H250.578C250.722 97.032 250.89 96.856 251.082 96.712C251.282 96.56 251.506 96.444 251.754 96.364C252.01 96.284 252.294 96.244 252.606 96.244Z" fill="black"/>
<path d="M349.833 100.396C349.833 100.86 349.713 101.3 349.473 101.716C349.241 102.132 348.877 102.472 348.381 102.736C347.893 102.992 347.257 103.12 346.473 103.12C346.081 103.12 345.737 103.1 345.441 103.06C345.153 103.028 344.881 102.972 344.625 102.892C344.369 102.812 344.105 102.708 343.833 102.58V100.516C344.297 100.748 344.765 100.928 345.237 101.056C345.709 101.176 346.137 101.236 346.521 101.236C346.753 101.236 346.941 101.208 347.085 101.152C347.229 101.096 347.337 101.02 347.409 100.924C347.481 100.828 347.517 100.72 347.517 100.6C347.517 100.448 347.465 100.32 347.361 100.216C347.257 100.112 347.093 100.004 346.869 99.892C346.645 99.78 346.345 99.64 345.969 99.472C345.649 99.328 345.361 99.176 345.105 99.016C344.849 98.856 344.629 98.676 344.445 98.476C344.269 98.276 344.133 98.044 344.037 97.78C343.941 97.508 343.893 97.188 343.893 96.82C343.893 96.268 344.029 95.808 344.301 95.44C344.573 95.064 344.949 94.784 345.429 94.6C345.917 94.408 346.481 94.312 347.121 94.312C347.681 94.312 348.185 94.376 348.633 94.504C349.081 94.624 349.481 94.764 349.833 94.924L349.125 96.712C348.757 96.544 348.393 96.412 348.033 96.316C347.681 96.212 347.353 96.16 347.049 96.16C346.849 96.16 346.685 96.184 346.557 96.232C346.429 96.28 346.333 96.348 346.269 96.436C346.213 96.516 346.185 96.608 346.185 96.712C346.185 96.848 346.237 96.968 346.341 97.072C346.445 97.176 346.617 97.292 346.857 97.42C347.105 97.54 347.441 97.696 347.865 97.888C348.281 98.072 348.633 98.276 348.921 98.5C349.217 98.716 349.441 98.976 349.593 99.28C349.753 99.576 349.833 99.948 349.833 100.396ZM357.478 96.364V103H355.75L355.462 102.172H355.33C355.194 102.396 355.018 102.58 354.802 102.724C354.594 102.86 354.362 102.96 354.106 103.024C353.858 103.088 353.598 103.12 353.326 103.12C352.894 103.12 352.502 103.036 352.15 102.868C351.798 102.7 351.518 102.436 351.31 102.076C351.11 101.716 351.01 101.252 351.01 100.684V96.364H353.302V99.988C353.302 100.42 353.362 100.748 353.482 100.972C353.61 101.196 353.814 101.308 354.094 101.308C354.382 101.308 354.606 101.232 354.766 101.08C354.926 100.92 355.034 100.688 355.09 100.384C355.154 100.08 355.186 99.708 355.186 99.268V96.364H357.478ZM367.162 96.244C367.922 96.244 368.502 96.436 368.902 96.82C369.302 97.204 369.502 97.824 369.502 98.68V103H367.21V99.388C367.21 98.884 367.142 98.536 367.006 98.344C366.87 98.144 366.67 98.044 366.406 98.044C366.038 98.044 365.782 98.208 365.638 98.536C365.494 98.856 365.422 99.312 365.422 99.904V103H363.13V99.388C363.13 99.068 363.102 98.812 363.046 98.62C362.99 98.42 362.906 98.276 362.794 98.188C362.682 98.092 362.538 98.044 362.362 98.044C362.098 98.044 361.89 98.124 361.738 98.284C361.594 98.444 361.494 98.676 361.438 98.98C361.382 99.284 361.354 99.656 361.354 100.096V103H359.062V96.364H360.79L361.126 97.18H361.186C361.306 96.996 361.458 96.836 361.642 96.7C361.826 96.556 362.046 96.444 362.302 96.364C362.558 96.284 362.85 96.244 363.178 96.244C363.666 96.244 364.066 96.328 364.378 96.496C364.698 96.656 364.958 96.88 365.158 97.168H365.23C365.438 96.872 365.706 96.644 366.034 96.484C366.37 96.324 366.746 96.244 367.162 96.244ZM379.162 96.244C379.922 96.244 380.502 96.436 380.902 96.82C381.302 97.204 381.502 97.824 381.502 98.68V103H379.21V99.388C379.21 98.884 379.142 98.536 379.006 98.344C378.87 98.144 378.67 98.044 378.406 98.044C378.038 98.044 377.782 98.208 377.638 98.536C377.494 98.856 377.422 99.312 377.422 99.904V103H375.13V99.388C375.13 99.068 375.102 98.812 375.046 98.62C374.99 98.42 374.906 98.276 374.794 98.188C374.682 98.092 374.538 98.044 374.362 98.044C374.098 98.044 373.89 98.124 373.738 98.284C373.594 98.444 373.494 98.676 373.438 98.98C373.382 99.284 373.354 99.656 373.354 100.096V103H371.062V96.364H372.79L373.126 97.18H373.186C373.306 96.996 373.458 96.836 373.642 96.7C373.826 96.556 374.046 96.444 374.302 96.364C374.558 96.284 374.85 96.244 375.178 96.244C375.666 96.244 376.066 96.328 376.378 96.496C376.698 96.656 376.958 96.88 377.158 97.168H377.23C377.438 96.872 377.706 96.644 378.034 96.484C378.37 96.324 378.746 96.244 379.162 96.244ZM386.302 96.244C387.142 96.244 387.798 96.452 388.27 96.868C388.742 97.284 388.978 97.876 388.978 98.644V103H387.394L386.95 102.124H386.902C386.718 102.356 386.526 102.548 386.326 102.7C386.134 102.844 385.91 102.948 385.654 103.012C385.398 103.084 385.086 103.12 384.718 103.12C384.334 103.12 383.99 103.044 383.686 102.892C383.382 102.732 383.142 102.496 382.966 102.184C382.79 101.864 382.702 101.46 382.702 100.972C382.702 100.26 382.946 99.732 383.434 99.388C383.93 99.044 384.646 98.852 385.582 98.812L386.686 98.776V98.68C386.686 98.384 386.614 98.176 386.47 98.056C386.326 97.928 386.13 97.864 385.882 97.864C385.618 97.864 385.326 97.912 385.006 98.008C384.686 98.096 384.362 98.212 384.034 98.356L383.374 96.844C383.758 96.644 384.19 96.496 384.67 96.4C385.158 96.296 385.702 96.244 386.302 96.244ZM386.17 100.06C385.754 100.076 385.458 100.152 385.282 100.288C385.114 100.416 385.03 100.6 385.03 100.84C385.03 101.064 385.09 101.232 385.21 101.344C385.33 101.448 385.49 101.5 385.69 101.5C385.97 101.5 386.206 101.412 386.398 101.236C386.598 101.06 386.698 100.832 386.698 100.552V100.036L386.17 100.06ZM394.546 96.244C394.674 96.244 394.806 96.252 394.942 96.268C395.078 96.284 395.178 96.3 395.242 96.316L395.038 98.476C394.958 98.46 394.858 98.444 394.738 98.428C394.626 98.412 394.466 98.404 394.258 98.404C394.114 98.404 393.958 98.42 393.79 98.452C393.63 98.476 393.474 98.532 393.322 98.62C393.178 98.708 393.058 98.84 392.962 99.016C392.874 99.192 392.83 99.432 392.83 99.736V103H390.538V96.364H392.242L392.602 97.42H392.71C392.83 97.204 392.986 97.008 393.178 96.832C393.37 96.648 393.582 96.504 393.814 96.4C394.054 96.296 394.298 96.244 394.546 96.244ZM395.359 96.364H397.771L398.899 100.168C398.915 100.224 398.931 100.292 398.947 100.372C398.963 100.452 398.975 100.536 398.983 100.624C398.999 100.712 399.007 100.8 399.007 100.888H399.055C399.071 100.728 399.091 100.592 399.115 100.48C399.147 100.36 399.175 100.26 399.199 100.18L400.351 96.364H402.691L400.063 103.42C399.863 103.956 399.627 104.408 399.355 104.776C399.091 105.144 398.763 105.42 398.371 105.604C397.979 105.788 397.491 105.88 396.907 105.88C396.699 105.88 396.519 105.868 396.367 105.844C396.215 105.828 396.083 105.808 395.971 105.784V103.984C396.059 104 396.163 104.016 396.283 104.032C396.411 104.048 396.543 104.056 396.679 104.056C396.935 104.056 397.139 104.004 397.291 103.9C397.451 103.796 397.583 103.66 397.687 103.492C397.791 103.332 397.879 103.156 397.951 102.964L397.975 102.904L395.359 96.364Z" fill="grey"/>
<path d="M60.8889 82.6C59.8194 82.6 58.9039 82.2475 58.1424 81.5425C57.3808 80.8375 57 79.99 57 79V48.2C57 47.21 57.3808 46.3625 58.1424 45.6575C58.9039 44.9525 59.8194 44.6 60.8889 44.6H69.0069C69.3634 43.55 70.0602 42.6875 71.0972 42.0125C72.1343 41.3375 73.2685 41 74.5 41C75.7963 41 76.9549 41.3375 77.9757 42.0125C78.9965 42.6875 79.6852 43.55 80.0417 44.6H88.1111C89.1806 44.6 90.0961 44.9525 90.8576 45.6575C91.6192 46.3625 92 47.21 92 48.2V79C92 79.99 91.6192 80.8375 90.8576 81.5425C90.0961 82.2475 89.1806 82.6 88.1111 82.6H60.8889ZM60.8889 79H88.1111V48.2H84.2222V53.6H64.7778V48.2H60.8889V79ZM74.5 48.2C75.0509 48.2 75.5127 48.0275 75.8854 47.6825C76.2581 47.3375 76.4444 46.91 76.4444 46.4C76.4444 45.89 76.2581 45.4625 75.8854 45.1175C75.5127 44.7725 75.0509 44.6 74.5 44.6C73.9491 44.6 73.4873 44.7725 73.1146 45.1175C72.7419 45.4625 72.5556 45.89 72.5556 46.4C72.5556 46.91 72.7419 47.3375 73.1146 47.6825C73.4873 48.0275 73.9491 48.2 74.5 48.2Z" fill="grey"/>
<path d="M206 83V80.6375C206 79.5625 206.55 78.6875 207.65 78.0125C208.75 77.3375 210.2 77 212 77C212.325 77 212.638 77.0063 212.938 77.0188C213.238 77.0313 213.525 77.0625 213.8 77.1125C213.45 77.6375 213.188 78.1875 213.013 78.7625C212.838 79.3375 212.75 79.9375 212.75 80.5625V83H206ZM215 83V80.5625C215 79.7625 215.219 79.0313 215.656 78.3688C216.094 77.7063 216.713 77.125 217.513 76.625C218.313 76.125 219.269 75.75 220.381 75.5C221.494 75.25 222.7 75.125 224 75.125C225.325 75.125 226.544 75.25 227.656 75.5C228.769 75.75 229.725 76.125 230.525 76.625C231.325 77.125 231.938 77.7063 232.363 78.3688C232.788 79.0313 233 79.7625 233 80.5625V83H215ZM235.25 83V80.5625C235.25 79.9125 235.169 79.3 235.006 78.725C234.844 78.15 234.6 77.6125 234.275 77.1125C234.55 77.0625 234.831 77.0313 235.119 77.0188C235.406 77.0063 235.7 77 236 77C237.8 77 239.25 77.3313 240.35 77.9938C241.45 78.6563 242 79.5375 242 80.6375V83H235.25ZM218.188 80H229.85C229.6 79.5 228.906 79.0625 227.769 78.6875C226.631 78.3125 225.375 78.125 224 78.125C222.625 78.125 221.369 78.3125 220.231 78.6875C219.094 79.0625 218.413 79.5 218.188 80ZM212 75.5C211.175 75.5 210.469 75.2063 209.881 74.6188C209.294 74.0312 209 73.325 209 72.5C209 71.65 209.294 70.9375 209.881 70.3625C210.469 69.7875 211.175 69.5 212 69.5C212.85 69.5 213.563 69.7875 214.138 70.3625C214.713 70.9375 215 71.65 215 72.5C215 73.325 214.713 74.0312 214.138 74.6188C213.563 75.2063 212.85 75.5 212 75.5ZM236 75.5C235.175 75.5 234.469 75.2063 233.881 74.6188C233.294 74.0312 233 73.325 233 72.5C233 71.65 233.294 70.9375 233.881 70.3625C234.469 69.7875 235.175 69.5 236 69.5C236.85 69.5 237.563 69.7875 238.138 70.3625C238.713 70.9375 239 71.65 239 72.5C239 73.325 238.713 74.0312 238.138 74.6188C237.563 75.2063 236.85 75.5 236 75.5ZM224 74C222.75 74 221.688 73.5625 220.813 72.6875C219.938 71.8125 219.5 70.75 219.5 69.5C219.5 68.225 219.938 67.1562 220.813 66.2938C221.688 65.4313 222.75 65 224 65C225.275 65 226.344 65.4313 227.206 66.2938C228.069 67.1562 228.5 68.225 228.5 69.5C228.5 70.75 228.069 71.8125 227.206 72.6875C226.344 73.5625 225.275 74 224 74ZM224 71C224.425 71 224.781 70.8563 225.069 70.5688C225.356 70.2812 225.5 69.925 225.5 69.5C225.5 69.075 225.356 68.7188 225.069 68.4313C224.781 68.1438 224.425 68 224 68C223.575 68 223.219 68.1438 222.931 68.4313C222.644 68.7188 222.5 69.075 222.5 69.5C222.5 69.925 222.644 70.2812 222.931 70.5688C223.219 70.8563 223.575 71 224 71Z" fill="black"/>
<path d="M220 49C220.283 49 220.521 48.9042 220.713 48.7125C220.904 48.5208 221 48.2833 221 48C221 47.7167 220.904 47.4792 220.713 47.2875C220.521 47.0958 220.283 47 220 47C219.717 47 219.479 47.0958 219.287 47.2875C219.096 47.4792 219 47.7167 219 48C219 48.2833 219.096 48.5208 219.287 48.7125C219.479 48.9042 219.717 49 220 49ZM224 49C224.283 49 224.521 48.9042 224.713 48.7125C224.904 48.5208 225 48.2833 225 48C225 47.7167 224.904 47.4792 224.713 47.2875C224.521 47.0958 224.283 47 224 47C223.717 47 223.479 47.0958 223.288 47.2875C223.096 47.4792 223 47.7167 223 48C223 48.2833 223.096 48.5208 223.288 48.7125C223.479 48.9042 223.717 49 224 49ZM228 49C228.283 49 228.521 48.9042 228.713 48.7125C228.904 48.5208 229 48.2833 229 48C229 47.7167 228.904 47.4792 228.713 47.2875C228.521 47.0958 228.283 47 228 47C227.717 47 227.479 47.0958 227.288 47.2875C227.096 47.4792 227 47.7167 227 48C227 48.2833 227.096 48.5208 227.288 48.7125C227.479 48.9042 227.717 49 228 49ZM214 60V42C214 41.45 214.196 40.9792 214.588 40.5875C214.979 40.1958 215.45 40 216 40H232C232.55 40 233.021 40.1958 233.413 40.5875C233.804 40.9792 234 41.45 234 42V54C234 54.55 233.804 55.0208 233.413 55.4125C233.021 55.8042 232.55 56 232 56H218L214 60ZM217.15 54H232V42H216V55.125L217.15 54Z" fill="black"/>
<path d="M365.4 56.3V52.5H382.5V56.3H365.4ZM365.4 62V58.2H382.5V62H365.4ZM371.1 81H359.7C358.117 81 356.771 80.4458 355.663 79.3375C354.554 78.2292 354 76.8833 354 75.3V69.6H359.7V43H388.2V60.1475C387.567 60.0842 386.925 60.1079 386.276 60.2188C385.627 60.3296 385.002 60.5275 384.4 60.8125V46.8H363.5V69.6H374.9L371.1 73.4H357.8V75.3C357.8 75.8383 357.982 76.2896 358.346 76.6538C358.71 77.0179 359.162 77.2 359.7 77.2H371.1V81ZM374.9 81V75.1575L385.397 64.7075C385.682 64.4225 385.999 64.2167 386.347 64.09C386.696 63.9633 387.044 63.9 387.392 63.9C387.772 63.9 388.137 63.9713 388.485 64.1138C388.833 64.2563 389.15 64.47 389.435 64.755L391.193 66.5125C391.446 66.7975 391.644 67.1142 391.786 67.4625C391.929 67.8108 392 68.1592 392 68.5075C392 68.8558 391.937 69.2121 391.81 69.5763C391.683 69.9404 391.478 70.265 391.193 70.55L380.743 81H374.9ZM377.75 78.15H379.555L385.302 72.355L384.448 71.4525L383.545 70.5975L377.75 76.345V78.15ZM384.448 71.4525L383.545 70.5975L385.302 72.355L384.448 71.4525Z" fill="grey"/>
<rect x="70" y="58" width="14" height="3" fill="grey"/>
<rect x="70" y="65" width="14" height="3" fill="grey"/>
<rect x="70" y="72" width="14" height="3" fill="grey"/>
<path d="M64 60L65 61L68.5 58" stroke="grey"/>
<path d="M64 67L65 68L68.5 65" stroke="grey"/>
<path d="M64 74L65 75L68.5 72" stroke="grey"/>
<circle cx="74.5" cy="73.5" r="58.5" stroke="grey" stroke-width="4"/>
<circle cx="223.5" cy="73.5" r="58.5" stroke="black" stroke-width="4"/>
<circle cx="372.5" cy="71.5" r="58.5" stroke="grey" stroke-width="4"/>
<path d="M158.061 73.0607C158.646 72.4749 158.646 71.5251 158.061 70.9393L148.515 61.3934C147.929 60.8076 146.979 60.8076 146.393 61.3934C145.808 61.9792 145.808 62.9289 146.393 63.5147L154.879 72L146.393 80.4853C145.808 81.0711 145.808 82.0208 146.393 82.6066C146.979 83.1924 147.929 83.1924 148.515 82.6066L158.061 73.0607ZM141 73.5H157V70.5H141V73.5Z" fill="grey"/>
<path d="M307.061 73.0607C307.646 72.4749 307.646 71.5251 307.061 70.9393L297.515 61.3934C296.929 60.8076 295.979 60.8076 295.393 61.3934C294.808 61.9792 294.808 62.9289 295.393 63.5147L303.879 72L295.393 80.4853C294.808 81.0711 294.808 82.0208 295.393 82.6066C295.979 83.1924 296.929 83.1924 297.515 82.6066L307.061 73.0607ZM290 73.5H306V70.5H290V73.5Z" fill="grey"/>
<path d="M62.6667 158.396C62.6667 158.86 62.5467 159.3 62.3067 159.716C62.0747 160.132 61.7107 160.472 61.2147 160.736C60.7267 160.992 60.0907 161.12 59.3067 161.12C58.9147 161.12 58.5707 161.1 58.2747 161.06C57.9867 161.028 57.7147 160.972 57.4587 160.892C57.2027 160.812 56.9387 160.708 56.6667 160.58V158.516C57.1307 158.748 57.5987 158.928 58.0707 159.056C58.5427 159.176 58.9707 159.236 59.3547 159.236C59.5867 159.236 59.7747 159.208 59.9187 159.152C60.0627 159.096 60.1707 159.02 60.2427 158.924C60.3147 158.828 60.3507 158.72 60.3507 158.6C60.3507 158.448 60.2987 158.32 60.1947 158.216C60.0907 158.112 59.9267 158.004 59.7027 157.892C59.4787 157.78 59.1787 157.64 58.8027 157.472C58.4827 157.328 58.1947 157.176 57.9387 157.016C57.6827 156.856 57.4627 156.676 57.2787 156.476C57.1027 156.276 56.9667 156.044 56.8707 155.78C56.7747 155.508 56.7267 155.188 56.7267 154.82C56.7267 154.268 56.8627 153.808 57.1347 153.44C57.4067 153.064 57.7827 152.784 58.2627 152.6C58.7507 152.408 59.3147 152.312 59.9547 152.312C60.5147 152.312 61.0187 152.376 61.4667 152.504C61.9147 152.624 62.3147 152.764 62.6667 152.924L61.9587 154.712C61.5907 154.544 61.2267 154.412 60.8667 154.316C60.5147 154.212 60.1867 154.16 59.8827 154.16C59.6827 154.16 59.5187 154.184 59.3907 154.232C59.2627 154.28 59.1667 154.348 59.1027 154.436C59.0467 154.516 59.0187 154.608 59.0187 154.712C59.0187 154.848 59.0707 154.968 59.1747 155.072C59.2787 155.176 59.4507 155.292 59.6907 155.42C59.9387 155.54 60.2747 155.696 60.6987 155.888C61.1147 156.072 61.4667 156.276 61.7547 156.5C62.0507 156.716 62.2747 156.976 62.4267 157.28C62.5867 157.576 62.6667 157.948 62.6667 158.396ZM67.1085 159.308C67.3165 159.308 67.5045 159.288 67.6725 159.248C67.8485 159.2 68.0285 159.144 68.2125 159.08V160.748C67.9645 160.852 67.7005 160.94 67.4205 161.012C67.1405 161.084 66.7845 161.12 66.3525 161.12C65.9205 161.12 65.5405 161.052 65.2125 160.916C64.8925 160.78 64.6405 160.548 64.4565 160.22C64.2725 159.884 64.1805 159.416 64.1805 158.816V156.08H63.3765V155.144L64.3965 154.424L64.9845 153.032H66.4845V154.364H68.1165V156.08H66.4845V158.66C66.4845 158.876 66.5365 159.04 66.6405 159.152C66.7525 159.256 66.9085 159.308 67.1085 159.308ZM72.364 154.244C73.012 154.244 73.568 154.356 74.032 154.58C74.504 154.804 74.864 155.14 75.112 155.588C75.368 156.036 75.496 156.6 75.496 157.28V158.3H71.404C71.42 158.644 71.548 158.928 71.788 159.152C72.036 159.376 72.392 159.488 72.856 159.488C73.272 159.488 73.652 159.448 73.996 159.368C74.34 159.288 74.696 159.16 75.064 158.984V160.628C74.744 160.796 74.392 160.92 74.008 161C73.632 161.08 73.156 161.12 72.58 161.12C71.908 161.12 71.308 161.004 70.78 160.772C70.26 160.532 69.848 160.16 69.544 159.656C69.24 159.152 69.088 158.508 69.088 157.724C69.088 156.924 69.224 156.268 69.496 155.756C69.776 155.244 70.16 154.864 70.648 154.616C71.144 154.368 71.716 154.244 72.364 154.244ZM72.448 155.804C72.176 155.804 71.948 155.888 71.764 156.056C71.588 156.224 71.484 156.492 71.452 156.86H73.42C73.42 156.66 73.38 156.484 73.3 156.332C73.228 156.172 73.12 156.044 72.976 155.948C72.832 155.852 72.656 155.804 72.448 155.804ZM80.85 154.244C81.586 154.244 82.162 154.54 82.578 155.132C82.994 155.716 83.202 156.56 83.202 157.664C83.202 158.416 83.094 159.052 82.878 159.572C82.67 160.084 82.382 160.472 82.014 160.736C81.654 160.992 81.242 161.12 80.778 161.12C80.466 161.12 80.202 161.08 79.986 161C79.77 160.92 79.59 160.824 79.446 160.712C79.302 160.592 79.182 160.472 79.086 160.352H79.014C79.03 160.504 79.046 160.668 79.062 160.844C79.078 161.02 79.086 161.224 79.086 161.456V163.88H76.794V154.364H78.654L78.978 155.204H79.086C79.198 155.028 79.33 154.868 79.482 154.724C79.642 154.58 79.834 154.464 80.058 154.376C80.282 154.288 80.546 154.244 80.85 154.244ZM79.986 156.044C79.762 156.044 79.586 156.1 79.458 156.212C79.33 156.316 79.238 156.472 79.182 156.68C79.126 156.888 79.094 157.152 79.086 157.472V157.652C79.086 158.004 79.11 158.3 79.158 158.54C79.214 158.78 79.31 158.964 79.446 159.092C79.582 159.212 79.766 159.272 79.998 159.272C80.19 159.272 80.35 159.22 80.478 159.116C80.614 159.004 80.714 158.828 80.778 158.588C80.842 158.348 80.874 158.032 80.874 157.64C80.874 157.056 80.798 156.644 80.646 156.404C80.494 156.164 80.274 156.044 79.986 156.044ZM92.3501 161H89.9981V156.764C89.9981 156.684 89.9981 156.54 89.9981 156.332C89.9981 156.124 90.0021 155.892 90.0101 155.636C90.0181 155.38 90.0261 155.152 90.0341 154.952C89.9301 155.072 89.8341 155.176 89.7461 155.264C89.6661 155.352 89.5821 155.432 89.4941 155.504L88.5221 156.308L87.3221 154.832L90.2621 152.432H92.3501V161Z" fill="grey"/>
<path d="M211.667 158.396C211.667 158.86 211.547 159.3 211.307 159.716C211.075 160.132 210.711 160.472 210.215 160.736C209.727 160.992 209.091 161.12 208.307 161.12C207.915 161.12 207.571 161.1 207.275 161.06C206.987 161.028 206.715 160.972 206.459 160.892C206.203 160.812 205.939 160.708 205.667 160.58V158.516C206.131 158.748 206.599 158.928 207.071 159.056C207.543 159.176 207.971 159.236 208.355 159.236C208.587 159.236 208.775 159.208 208.919 159.152C209.063 159.096 209.171 159.02 209.243 158.924C209.315 158.828 209.351 158.72 209.351 158.6C209.351 158.448 209.299 158.32 209.195 158.216C209.091 158.112 208.927 158.004 208.703 157.892C208.479 157.78 208.179 157.64 207.803 157.472C207.483 157.328 207.195 157.176 206.939 157.016C206.683 156.856 206.463 156.676 206.279 156.476C206.103 156.276 205.967 156.044 205.871 155.78C205.775 155.508 205.727 155.188 205.727 154.82C205.727 154.268 205.863 153.808 206.135 153.44C206.407 153.064 206.783 152.784 207.263 152.6C207.751 152.408 208.315 152.312 208.955 152.312C209.515 152.312 210.019 152.376 210.467 152.504C210.915 152.624 211.315 152.764 211.667 152.924L210.959 154.712C210.591 154.544 210.227 154.412 209.867 154.316C209.515 154.212 209.187 154.16 208.883 154.16C208.683 154.16 208.519 154.184 208.391 154.232C208.263 154.28 208.167 154.348 208.103 154.436C208.047 154.516 208.019 154.608 208.019 154.712C208.019 154.848 208.071 154.968 208.175 155.072C208.279 155.176 208.451 155.292 208.691 155.42C208.939 155.54 209.275 155.696 209.699 155.888C210.115 156.072 210.467 156.276 210.755 156.5C211.051 156.716 211.275 156.976 211.427 157.28C211.587 157.576 211.667 157.948 211.667 158.396ZM216.108 159.308C216.316 159.308 216.504 159.288 216.672 159.248C216.848 159.2 217.028 159.144 217.212 159.08V160.748C216.964 160.852 216.7 160.94 216.42 161.012C216.14 161.084 215.784 161.12 215.352 161.12C214.92 161.12 214.54 161.052 214.212 160.916C213.892 160.78 213.64 160.548 213.456 160.22C213.272 159.884 213.18 159.416 213.18 158.816V156.08H212.376V155.144L213.396 154.424L213.984 153.032H215.484V154.364H217.116V156.08H215.484V158.66C215.484 158.876 215.536 159.04 215.64 159.152C215.752 159.256 215.908 159.308 216.108 159.308ZM221.364 154.244C222.012 154.244 222.568 154.356 223.032 154.58C223.504 154.804 223.864 155.14 224.112 155.588C224.368 156.036 224.496 156.6 224.496 157.28V158.3H220.404C220.42 158.644 220.548 158.928 220.788 159.152C221.036 159.376 221.392 159.488 221.856 159.488C222.272 159.488 222.652 159.448 222.996 159.368C223.34 159.288 223.696 159.16 224.064 158.984V160.628C223.744 160.796 223.392 160.92 223.008 161C222.632 161.08 222.156 161.12 221.58 161.12C220.908 161.12 220.308 161.004 219.78 160.772C219.26 160.532 218.848 160.16 218.544 159.656C218.24 159.152 218.088 158.508 218.088 157.724C218.088 156.924 218.224 156.268 218.496 155.756C218.776 155.244 219.16 154.864 219.648 154.616C220.144 154.368 220.716 154.244 221.364 154.244ZM221.448 155.804C221.176 155.804 220.948 155.888 220.764 156.056C220.588 156.224 220.484 156.492 220.452 156.86H222.42C222.42 156.66 222.38 156.484 222.3 156.332C222.228 156.172 222.12 156.044 221.976 155.948C221.832 155.852 221.656 155.804 221.448 155.804ZM229.85 154.244C230.586 154.244 231.162 154.54 231.578 155.132C231.994 155.716 232.202 156.56 232.202 157.664C232.202 158.416 232.094 159.052 231.878 159.572C231.67 160.084 231.382 160.472 231.014 160.736C230.654 160.992 230.242 161.12 229.778 161.12C229.466 161.12 229.202 161.08 228.986 161C228.77 160.92 228.59 160.824 228.446 160.712C228.302 160.592 228.182 160.472 228.086 160.352H228.014C228.03 160.504 228.046 160.668 228.062 160.844C228.078 161.02 228.086 161.224 228.086 161.456V163.88H225.794V154.364H227.654L227.978 155.204H228.086C228.198 155.028 228.33 154.868 228.482 154.724C228.642 154.58 228.834 154.464 229.058 154.376C229.282 154.288 229.546 154.244 229.85 154.244ZM228.986 156.044C228.762 156.044 228.586 156.1 228.458 156.212C228.33 156.316 228.238 156.472 228.182 156.68C228.126 156.888 228.094 157.152 228.086 157.472V157.652C228.086 158.004 228.11 158.3 228.158 158.54C228.214 158.78 228.31 158.964 228.446 159.092C228.582 159.212 228.766 159.272 228.998 159.272C229.19 159.272 229.35 159.22 229.478 159.116C229.614 159.004 229.714 158.828 229.778 158.588C229.842 158.348 229.874 158.032 229.874 157.64C229.874 157.056 229.798 156.644 229.646 156.404C229.494 156.164 229.274 156.044 228.986 156.044ZM242.406 161H236.19V159.476L238.278 157.364C238.71 156.908 239.046 156.544 239.286 156.272C239.534 156 239.706 155.768 239.802 155.576C239.898 155.384 239.946 155.184 239.946 154.976C239.946 154.72 239.862 154.536 239.694 154.424C239.534 154.312 239.342 154.256 239.118 154.256C238.846 154.256 238.574 154.332 238.302 154.484C238.03 154.636 237.718 154.864 237.366 155.168L236.094 153.68C236.35 153.448 236.622 153.228 236.91 153.02C237.206 152.812 237.55 152.644 237.942 152.516C238.334 152.38 238.814 152.312 239.382 152.312C239.966 152.312 240.47 152.416 240.894 152.624C241.318 152.824 241.646 153.1 241.878 153.452C242.118 153.804 242.238 154.204 242.238 154.652C242.238 155.02 242.186 155.36 242.082 155.672C241.986 155.976 241.834 156.272 241.626 156.56C241.426 156.848 241.17 157.148 240.858 157.46C240.554 157.764 240.198 158.1 239.79 158.468L239.166 159.032V159.092H242.406V161Z" fill="black"/>
<path d="M360.667 158.396C360.667 158.86 360.547 159.3 360.307 159.716C360.075 160.132 359.711 160.472 359.215 160.736C358.727 160.992 358.091 161.12 357.307 161.12C356.915 161.12 356.571 161.1 356.275 161.06C355.987 161.028 355.715 160.972 355.459 160.892C355.203 160.812 354.939 160.708 354.667 160.58V158.516C355.131 158.748 355.599 158.928 356.071 159.056C356.543 159.176 356.971 159.236 357.355 159.236C357.587 159.236 357.775 159.208 357.919 159.152C358.063 159.096 358.171 159.02 358.243 158.924C358.315 158.828 358.351 158.72 358.351 158.6C358.351 158.448 358.299 158.32 358.195 158.216C358.091 158.112 357.927 158.004 357.703 157.892C357.479 157.78 357.179 157.64 356.803 157.472C356.483 157.328 356.195 157.176 355.939 157.016C355.683 156.856 355.463 156.676 355.279 156.476C355.103 156.276 354.967 156.044 354.871 155.78C354.775 155.508 354.727 155.188 354.727 154.82C354.727 154.268 354.863 153.808 355.135 153.44C355.407 153.064 355.783 152.784 356.263 152.6C356.751 152.408 357.315 152.312 357.955 152.312C358.515 152.312 359.019 152.376 359.467 152.504C359.915 152.624 360.315 152.764 360.667 152.924L359.959 154.712C359.591 154.544 359.227 154.412 358.867 154.316C358.515 154.212 358.187 154.16 357.883 154.16C357.683 154.16 357.519 154.184 357.391 154.232C357.263 154.28 357.167 154.348 357.103 154.436C357.047 154.516 357.019 154.608 357.019 154.712C357.019 154.848 357.071 154.968 357.175 155.072C357.279 155.176 357.451 155.292 357.691 155.42C357.939 155.54 358.275 155.696 358.699 155.888C359.115 156.072 359.467 156.276 359.755 156.5C360.051 156.716 360.275 156.976 360.427 157.28C360.587 157.576 360.667 157.948 360.667 158.396ZM365.108 159.308C365.316 159.308 365.504 159.288 365.672 159.248C365.848 159.2 366.028 159.144 366.212 159.08V160.748C365.964 160.852 365.7 160.94 365.42 161.012C365.14 161.084 364.784 161.12 364.352 161.12C363.92 161.12 363.54 161.052 363.212 160.916C362.892 160.78 362.64 160.548 362.456 160.22C362.272 159.884 362.18 159.416 362.18 158.816V156.08H361.376V155.144L362.396 154.424L362.984 153.032H364.484V154.364H366.116V156.08H364.484V158.66C364.484 158.876 364.536 159.04 364.64 159.152C364.752 159.256 364.908 159.308 365.108 159.308ZM370.364 154.244C371.012 154.244 371.568 154.356 372.032 154.58C372.504 154.804 372.864 155.14 373.112 155.588C373.368 156.036 373.496 156.6 373.496 157.28V158.3H369.404C369.42 158.644 369.548 158.928 369.788 159.152C370.036 159.376 370.392 159.488 370.856 159.488C371.272 159.488 371.652 159.448 371.996 159.368C372.34 159.288 372.696 159.16 373.064 158.984V160.628C372.744 160.796 372.392 160.92 372.008 161C371.632 161.08 371.156 161.12 370.58 161.12C369.908 161.12 369.308 161.004 368.78 160.772C368.26 160.532 367.848 160.16 367.544 159.656C367.24 159.152 367.088 158.508 367.088 157.724C367.088 156.924 367.224 156.268 367.496 155.756C367.776 155.244 368.16 154.864 368.648 154.616C369.144 154.368 369.716 154.244 370.364 154.244ZM370.448 155.804C370.176 155.804 369.948 155.888 369.764 156.056C369.588 156.224 369.484 156.492 369.452 156.86H371.42C371.42 156.66 371.38 156.484 371.3 156.332C371.228 156.172 371.12 156.044 370.976 155.948C370.832 155.852 370.656 155.804 370.448 155.804ZM378.85 154.244C379.586 154.244 380.162 154.54 380.578 155.132C380.994 155.716 381.202 156.56 381.202 157.664C381.202 158.416 381.094 159.052 380.878 159.572C380.67 160.084 380.382 160.472 380.014 160.736C379.654 160.992 379.242 161.12 378.778 161.12C378.466 161.12 378.202 161.08 377.986 161C377.77 160.92 377.59 160.824 377.446 160.712C377.302 160.592 377.182 160.472 377.086 160.352H377.014C377.03 160.504 377.046 160.668 377.062 160.844C377.078 161.02 377.086 161.224 377.086 161.456V163.88H374.794V154.364H376.654L376.978 155.204H377.086C377.198 155.028 377.33 154.868 377.482 154.724C377.642 154.58 377.834 154.464 378.058 154.376C378.282 154.288 378.546 154.244 378.85 154.244ZM377.986 156.044C377.762 156.044 377.586 156.1 377.458 156.212C377.33 156.316 377.238 156.472 377.182 156.68C377.126 156.888 377.094 157.152 377.086 157.472V157.652C377.086 158.004 377.11 158.3 377.158 158.54C377.214 158.78 377.31 158.964 377.446 159.092C377.582 159.212 377.766 159.272 377.998 159.272C378.19 159.272 378.35 159.22 378.478 159.116C378.614 159.004 378.714 158.828 378.778 158.588C378.842 158.348 378.874 158.032 378.874 157.64C378.874 157.056 378.798 156.644 378.646 156.404C378.494 156.164 378.274 156.044 377.986 156.044ZM391.118 154.292C391.118 154.7 391.03 155.052 390.854 155.348C390.678 155.636 390.446 155.876 390.158 156.068C389.878 156.252 389.566 156.392 389.222 156.488V156.524C389.91 156.604 390.438 156.812 390.806 157.148C391.182 157.476 391.37 157.944 391.37 158.552C391.37 159.016 391.242 159.444 390.986 159.836C390.738 160.228 390.35 160.54 389.822 160.772C389.302 161.004 388.626 161.12 387.794 161.12C387.242 161.12 386.77 161.08 386.378 161C385.986 160.912 385.606 160.796 385.238 160.652V158.732C385.614 158.924 385.998 159.068 386.39 159.164C386.782 159.252 387.138 159.296 387.458 159.296C388.026 159.296 388.41 159.216 388.61 159.056C388.818 158.896 388.922 158.68 388.922 158.408C388.922 158.216 388.87 158.052 388.766 157.916C388.67 157.772 388.49 157.664 388.226 157.592C387.97 157.52 387.594 157.484 387.098 157.484H386.57V155.744H387.11C387.55 155.744 387.898 155.708 388.154 155.636C388.41 155.556 388.594 155.448 388.706 155.312C388.818 155.176 388.874 155.02 388.874 154.844C388.874 154.612 388.786 154.444 388.61 154.34C388.434 154.228 388.202 154.172 387.914 154.172C387.658 154.172 387.414 154.208 387.182 154.28C386.958 154.352 386.762 154.432 386.594 154.52C386.426 154.6 386.298 154.668 386.21 154.724L385.25 153.176C385.49 153.016 385.746 152.872 386.018 152.744C386.298 152.608 386.618 152.504 386.978 152.432C387.346 152.352 387.778 152.312 388.274 152.312C389.154 152.312 389.846 152.488 390.35 152.84C390.862 153.192 391.118 153.676 391.118 154.292Z" fill="grey"/>
</svg>