<svg width="323" height="323" viewBox="0 0 323 323" fill="none" xmlns="http://www.w3.org/2000/svg">
<path d="M106.042 239.5C104.047 239.5 102.374 238.825 101.024 237.476C99.6748 236.126 99 234.453 99 232.458V228.409C99 223.363 101.582 219.255 106.746 216.086C111.91 212.918 118.717 211.333 127.167 211.333C128.692 211.333 130.159 211.363 131.568 211.421C132.976 211.48 134.326 211.627 135.617 211.861C133.974 214.326 132.741 216.908 131.92 219.607C131.098 222.307 130.687 225.123 130.687 228.057V239.5H106.042ZM148.292 239.5C146.297 239.5 144.624 238.825 143.274 237.476C141.925 236.126 141.25 234.453 141.25 232.458V228.057C141.25 224.302 142.277 220.869 144.331 217.759C146.385 214.649 149.289 211.92 153.045 209.573C156.8 207.226 161.289 205.465 166.512 204.292C171.735 203.118 177.397 202.531 183.5 202.531C189.72 202.531 195.441 203.118 200.664 204.292C205.887 205.465 210.376 207.226 214.131 209.573C217.887 211.92 220.762 214.649 222.757 217.759C224.752 220.869 225.75 224.302 225.75 228.057V232.458C225.75 234.453 225.075 236.126 223.726 237.476C222.376 238.825 220.703 239.5 218.708 239.5H148.292ZM236.312 239.5V228.057C236.312 225.006 235.931 222.131 235.168 219.431C234.405 216.732 233.261 214.209 231.735 211.861C233.026 211.627 234.347 211.48 235.696 211.421C237.046 211.363 238.425 211.333 239.833 211.333C248.283 211.333 255.09 212.888 260.254 215.998C265.418 219.109 268 223.245 268 228.409V232.458C268 234.453 267.325 236.126 265.976 237.476C264.626 238.825 262.953 239.5 260.958 239.5H236.312ZM127.167 204.292C123.294 204.292 119.978 202.913 117.22 200.155C114.462 197.397 113.083 194.081 113.083 190.208C113.083 186.218 114.462 182.873 117.22 180.174C119.978 177.475 123.294 176.125 127.167 176.125C131.157 176.125 134.502 177.475 137.201 180.174C139.9 182.873 141.25 186.218 141.25 190.208C141.25 194.081 139.9 197.397 137.201 200.155C134.502 202.913 131.157 204.292 127.167 204.292ZM239.833 204.292C235.96 204.292 232.645 202.913 229.887 200.155C227.129 197.397 225.75 194.081 225.75 190.208C225.75 186.218 227.129 182.873 229.887 180.174C232.645 177.475 235.96 176.125 239.833 176.125C243.824 176.125 247.168 177.475 249.868 180.174C252.567 182.873 253.917 186.218 253.917 190.208C253.917 194.081 252.567 197.397 249.868 200.155C247.168 202.913 243.824 204.292 239.833 204.292ZM183.5 197.25C177.632 197.25 172.644 195.196 168.536 191.089C164.429 186.981 162.375 181.993 162.375 176.125C162.375 170.14 164.429 165.122 168.536 161.073C172.644 157.024 177.632 155 183.5 155C189.485 155 194.503 157.024 198.552 161.073C202.601 165.122 204.625 170.14 204.625 176.125C204.625 181.993 202.601 186.981 198.552 191.089C194.503 195.196 189.485 197.25 183.5 197.25Z" fill="black"/>
<path d="M170.25 105.875C171.159 105.875 171.921 105.568 172.536 104.953C173.151 104.338 173.458 103.576 173.458 102.667C173.458 101.758 173.151 100.996 172.536 100.381C171.921 99.7658 171.159 99.4583 170.25 99.4583C169.341 99.4583 168.579 99.7658 167.964 100.381C167.349 100.996 167.042 101.758 167.042 102.667C167.042 103.576 167.349 104.338 167.964 104.953C168.579 105.568 169.341 105.875 170.25 105.875ZM183.083 105.875C183.992 105.875 184.754 105.568 185.369 104.953C185.984 104.338 186.292 103.576 186.292 102.667C186.292 101.758 185.984 100.996 185.369 100.381C184.754 99.7658 183.992 99.4583 183.083 99.4583C182.174 99.4583 181.412 99.7658 180.797 100.381C180.182 100.996 179.875 101.758 179.875 102.667C179.875 103.576 180.182 104.338 180.797 104.953C181.412 105.568 182.174 105.875 183.083 105.875ZM195.917 105.875C196.826 105.875 197.588 105.568 198.203 104.953C198.818 104.338 199.125 103.576 199.125 102.667C199.125 101.758 198.818 100.996 198.203 100.381C197.588 99.7658 196.826 99.4583 195.917 99.4583C195.008 99.4583 194.246 99.7658 193.631 100.381C193.016 100.996 192.708 101.758 192.708 102.667C192.708 103.576 193.016 104.338 193.631 104.953C194.246 105.568 195.008 105.875 195.917 105.875ZM151 141.167V83.4167C151 81.6521 151.628 80.1415 152.885 78.8849C154.141 77.6283 155.652 77 157.417 77H208.75C210.515 77 212.025 77.6283 213.282 78.8849C214.538 80.1415 215.167 81.6521 215.167 83.4167V121.917C215.167 123.681 214.538 125.192 213.282 126.448C212.025 127.705 210.515 128.333 208.75 128.333H163.833L151 141.167ZM161.106 121.917H208.75V83.4167H157.417V125.526L161.106 121.917Z" fill="black"/>
</svg>