<svg width="1115" height="451" viewBox="0 0 1115 451" fill="none" xmlns="http://www.w3.org/2000/svg">
<path d="M518.404 141.417V179.917V183.526V183.556L518.425 183.535L522.111 179.929H569.75H569.762V179.917V141.417V141.404H569.75H518.417H518.404V141.417ZM512.013 199.136V141.417C512.013 139.655 512.639 138.148 513.894 136.894C515.148 135.639 516.655 135.013 518.417 135.013H569.75C571.511 135.013 573.019 135.639 574.273 136.894C575.527 138.148 576.154 139.655 576.154 141.417V179.917C576.154 181.678 575.527 183.185 574.273 184.44C573.019 185.694 571.511 186.321 569.75 186.321H524.833V186.316L524.824 186.324L512.013 199.136ZM533.527 162.944C532.915 163.556 532.156 163.862 531.25 163.862C530.344 163.862 529.585 163.556 528.973 162.944C528.36 162.331 528.054 161.573 528.054 160.667C528.054 159.761 528.36 159.002 528.973 158.39C529.585 157.777 530.344 157.471 531.25 157.471C532.156 157.471 532.915 157.777 533.527 158.39C534.14 159.002 534.446 159.761 534.446 160.667C534.446 161.573 534.14 162.331 533.527 162.944ZM546.36 162.944C545.748 163.556 544.989 163.862 544.083 163.862C543.177 163.862 542.419 163.556 541.806 162.944C541.194 162.331 540.887 161.573 540.887 160.667C540.887 159.761 541.194 159.002 541.806 158.39C542.419 157.777 543.177 157.471 544.083 157.471C544.989 157.471 545.748 157.777 546.36 158.39C546.973 159.002 547.279 159.761 547.279 160.667C547.279 161.573 546.973 162.331 546.36 162.944ZM559.194 162.944C558.581 163.556 557.823 163.862 556.917 163.862C556.011 163.862 555.252 163.556 554.64 162.944C554.027 162.331 553.721 161.573 553.721 160.667C553.721 159.761 554.027 159.002 554.64 158.39C555.252 157.777 556.011 157.471 556.917 157.471C557.823 157.471 558.581 157.777 559.194 158.39C559.806 159.002 560.112 159.761 560.112 160.667C560.112 161.573 559.806 162.331 559.194 162.944Z" fill="black" stroke="black" stroke-width="0.025"/>
<rect x="390" y="25" width="308" height="261" rx="29" stroke="black" stroke-width="10"/>
<path d="M914.5 135.487C908.66 135.487 903.66 133.408 899.501 129.249C895.342 125.09 893.263 120.09 893.263 114.25C893.263 108.41 895.342 103.41 899.501 99.251C903.66 95.0919 908.66 93.0125 914.5 93.0125C920.34 93.0125 925.34 95.0919 929.499 99.251C933.658 103.41 935.737 108.41 935.737 114.25C935.737 120.09 933.658 125.09 929.499 129.249C925.34 133.408 920.34 135.487 914.5 135.487ZM872.013 167.375V163.125C872.013 160.117 872.787 157.352 874.335 154.831C875.883 152.309 877.94 150.385 880.506 149.058C885.994 146.314 891.572 144.255 897.237 142.883C902.903 141.511 908.657 140.825 914.5 140.825C920.343 140.825 926.097 141.511 931.763 142.883C937.428 144.255 943.006 146.314 948.494 149.058C951.06 150.385 953.117 152.309 954.665 154.831C956.213 157.352 956.988 160.117 956.988 163.125V167.375C956.988 170.294 955.948 172.792 953.87 174.87C951.792 176.948 949.294 177.988 946.375 177.988H882.625C879.706 177.988 877.208 176.948 875.13 174.87C873.052 172.792 872.013 170.294 872.013 167.375Z" fill="black" stroke="black" stroke-width="0.025"/>
<rect x="761" y="25" width="308" height="261" rx="29" stroke="black" stroke-width="10"/>
<path d="M174.404 141.417V179.917V183.526V183.556L174.425 183.535L178.111 179.929H225.75H225.762V179.917V141.417V141.404H225.75H174.417H174.404V141.417ZM168.013 199.136V141.417C168.013 139.655 168.639 138.148 169.894 136.894C171.148 135.639 172.655 135.013 174.417 135.013H225.75C227.511 135.013 229.019 135.639 230.273 136.894C231.527 138.148 232.154 139.655 232.154 141.417V179.917C232.154 181.678 231.527 183.185 230.273 184.44C229.019 185.694 227.511 186.321 225.75 186.321H180.833V186.316L180.824 186.324L168.013 199.136ZM189.527 162.944C188.915 163.556 188.156 163.862 187.25 163.862C186.344 163.862 185.585 163.556 184.973 162.944C184.36 162.331 184.054 161.573 184.054 160.667C184.054 159.761 184.36 159.002 184.973 158.39C185.585 157.777 186.344 157.471 187.25 157.471C188.156 157.471 188.915 157.777 189.527 158.39C190.14 159.002 190.446 159.761 190.446 160.667C190.446 161.573 190.14 162.331 189.527 162.944ZM202.36 162.944C201.748 163.556 200.989 163.862 200.083 163.862C199.177 163.862 198.419 163.556 197.806 162.944C197.194 162.331 196.887 161.573 196.887 160.667C196.887 159.761 197.194 159.002 197.806 158.39C198.419 157.777 199.177 157.471 200.083 157.471C200.989 157.471 201.748 157.777 202.36 158.39C202.973 159.002 203.279 159.761 203.279 160.667C203.279 161.573 202.973 162.331 202.36 162.944ZM215.194 162.944C214.581 163.556 213.823 163.862 212.917 163.862C212.011 163.862 211.252 163.556 210.64 162.944C210.027 162.331 209.721 161.573 209.721 160.667C209.721 159.761 210.027 159.002 210.64 158.39C211.252 157.777 212.011 157.471 212.917 157.471C213.823 157.471 214.581 157.777 215.194 158.39C215.806 159.002 216.112 159.761 216.112 160.667C216.112 161.573 215.806 162.331 215.194 162.944Z" fill="black" stroke="black" stroke-width="0.025"/>
<path d="M83.5 380.487C77.6596 380.487 72.6602 378.408 68.501 374.249C64.3419 370.09 62.2625 365.09 62.2625 359.25C62.2625 353.41 64.3419 348.41 68.501 344.251C72.6602 340.092 77.6596 338.013 83.5 338.013C89.3404 338.013 94.3398 340.092 98.499 344.251C102.658 348.41 104.737 353.41 104.737 359.25C104.737 365.09 102.658 370.09 98.499 374.249C94.3398 378.408 89.3404 380.487 83.5 380.487ZM41.0125 412.375V408.125C41.0125 405.117 41.7866 402.352 43.3349 399.831C44.8832 397.309 46.9401 395.385 49.5057 394.058C54.9945 391.314 60.5717 389.255 66.2373 387.883C71.903 386.511 77.6572 385.825 83.5 385.825C89.3428 385.825 95.097 386.511 100.763 387.883C106.428 389.255 112.006 391.314 117.494 394.058C120.06 395.385 122.117 397.309 123.665 399.831C125.213 402.352 125.988 405.117 125.988 408.125V412.375C125.988 415.294 124.948 417.792 122.87 419.87C120.792 421.948 118.294 422.988 115.375 422.988H51.625C48.7065 422.988 46.2083 421.948 44.1299 419.87C42.0515 417.792 41.0125 415.294 41.0125 412.375Z" fill="black" stroke="black" stroke-width="0.025"/>
<rect x="46" y="25" width="308" height="261" rx="29" stroke="black" stroke-width="10"/>
<line x1="182" y1="409.5" x2="919" y2="409.5" stroke="black" stroke-width="9"/>
<path d="M214.182 334.818C212.425 333.061 209.575 333.061 207.818 334.818L179.18 363.456C177.423 365.213 177.423 368.062 179.18 369.82C180.938 371.577 183.787 371.577 185.544 369.82L211 344.364L236.456 369.82C238.213 371.577 241.062 371.577 242.82 369.82C244.577 368.062 244.577 365.213 242.82 363.456L214.182 334.818ZM215.5 413L215.5 338L206.5 338L206.5 413L215.5 413Z" fill="black"/>
<path d="M547.182 334.818C545.425 333.061 542.575 333.061 540.818 334.818L512.18 363.456C510.423 365.213 510.423 368.062 512.18 369.82C513.938 371.577 516.787 371.577 518.544 369.82L544 344.364L569.456 369.82C571.213 371.577 574.062 371.577 575.82 369.82C577.577 368.062 577.577 365.213 575.82 363.456L547.182 334.818ZM548.5 413L548.5 338L539.5 338L539.5 413L548.5 413Z" fill="black"/>
<path d="M918.182 335.818C916.425 334.061 913.575 334.061 911.818 335.818L883.18 364.456C881.423 366.213 881.423 369.062 883.18 370.82C884.938 372.577 887.787 372.577 889.544 370.82L915 345.364L940.456 370.82C942.213 372.577 945.062 372.577 946.82 370.82C948.577 369.062 948.577 366.213 946.82 364.456L918.182 335.818ZM919.5 414L919.5 339L910.5 339L910.5 414L919.5 414Z" fill="black"/>
<path d="M914.5 246.182L899.802 255.036C899.153 255.45 898.474 255.627 897.766 255.568C897.057 255.509 896.438 255.273 895.906 254.859C895.375 254.446 894.962 253.93 894.667 253.31C894.372 252.69 894.313 251.997 894.49 251.229L898.385 234.495L885.37 223.25C884.78 222.719 884.411 222.114 884.263 221.435C884.115 220.756 884.16 220.092 884.396 219.443C884.632 218.793 884.986 218.262 885.458 217.849C885.931 217.436 886.58 217.17 887.406 217.052L904.583 215.547L911.224 199.786C911.519 199.078 911.977 198.547 912.596 198.193C913.216 197.839 913.851 197.661 914.5 197.661C915.149 197.661 915.784 197.839 916.404 198.193C917.023 198.547 917.481 199.078 917.776 199.786L924.417 215.547L941.594 217.052C942.42 217.17 943.069 217.436 943.542 217.849C944.014 218.262 944.368 218.793 944.604 219.443C944.84 220.092 944.885 220.756 944.737 221.435C944.589 222.114 944.22 222.719 943.63 223.25L930.615 234.495L934.51 251.229C934.688 251.997 934.628 252.69 934.333 253.31C934.038 253.93 933.625 254.446 933.094 254.859C932.563 255.273 931.943 255.509 931.234 255.568C930.526 255.627 929.847 255.45 929.198 255.036L914.5 246.182Z" fill="#FFD16D"/>
</svg>
