<svg width="360" height="311" viewBox="0 0 360 311" fill="none" xmlns="http://www.w3.org/2000/svg">
<path d="M148.013 135.136V77.4167C148.013 75.6554 148.639 74.148 149.894 72.8937C151.148 71.6395 152.655 71.0125 154.417 71.0125H205.75C207.511 71.0125 209.019 71.6395 210.273 72.8937C211.527 74.148 212.154 75.6554 212.154 77.4167V115.917C212.154 117.678 211.527 119.185 210.273 120.44C209.019 121.694 207.511 122.321 205.75 122.321H160.833V122.316L160.824 122.324L148.013 135.136ZM205.75 115.929H205.763V115.917V77.4167V77.4042H205.75H154.417H154.404V77.4167V119.526V119.556L154.425 119.535L158.111 115.929H205.75ZM169.527 98.9438C168.915 99.5562 168.156 99.8625 167.25 99.8625C166.344 99.8625 165.585 99.5562 164.973 98.9438C164.36 98.3313 164.054 97.5725 164.054 96.6667C164.054 95.7608 164.36 95.002 164.973 94.3896C165.585 93.7771 166.344 93.4708 167.25 93.4708C168.156 93.4708 168.915 93.7771 169.527 94.3896C170.14 95.002 170.446 95.7608 170.446 96.6667C170.446 97.5725 170.14 98.3313 169.527 98.9438ZM182.36 98.9438C181.748 99.5562 180.989 99.8625 180.083 99.8625C179.177 99.8625 178.419 99.5562 177.806 98.9438C177.194 98.3313 176.888 97.5725 176.888 96.6667C176.888 95.7608 177.194 95.002 177.806 94.3896C178.419 93.7771 179.177 93.4708 180.083 93.4708C180.989 93.4708 181.748 93.7771 182.36 94.3896C182.973 95.002 183.279 95.7608 183.279 96.6667C183.279 97.5725 182.973 98.3313 182.36 98.9438ZM195.194 98.9438C194.581 99.5562 193.823 99.8625 192.917 99.8625C192.011 99.8625 191.252 99.5562 190.64 98.9438C190.027 98.3313 189.721 97.5725 189.721 96.6667C189.721 95.7608 190.027 95.002 190.64 94.3896C191.252 93.7771 192.011 93.4708 192.917 93.4708C193.823 93.4708 194.581 93.7771 195.194 94.3896C195.806 95.002 196.112 95.7608 196.112 96.6667C196.112 97.5725 195.806 98.3313 195.194 98.9438Z" fill="black" stroke="black" stroke-width="0.025"/>
<path d="M179.5 186.487C173.66 186.487 168.66 184.408 164.501 180.249C160.342 176.09 158.263 171.09 158.263 165.25C158.263 159.41 160.342 154.41 164.501 150.251C168.66 146.092 173.66 144.013 179.5 144.013C185.34 144.013 190.34 146.092 194.499 150.251C198.658 154.41 200.737 159.41 200.737 165.25C200.737 171.09 198.658 176.09 194.499 180.249C190.34 184.408 185.34 186.487 179.5 186.487ZM137.013 218.375V214.125C137.013 211.117 137.787 208.352 139.335 205.831C140.883 203.309 142.94 201.385 145.506 200.058C150.994 197.314 156.572 195.255 162.237 193.883C167.903 192.511 173.657 191.825 179.5 191.825C185.343 191.825 191.097 192.511 196.763 193.883C202.428 195.255 208.006 197.314 213.494 200.058C216.06 201.385 218.117 203.309 219.665 205.831C221.213 208.352 221.988 211.117 221.988 214.125V218.375C221.988 221.294 220.948 223.792 218.87 225.87C216.792 227.948 214.294 228.988 211.375 228.988H147.625C144.706 228.988 142.208 227.948 140.13 225.87C138.052 223.792 137.013 221.294 137.013 218.375Z" fill="black" stroke="black" stroke-width="0.025"/>
<rect x="26" y="25" width="308" height="261" rx="29" stroke="black" stroke-width="10"/>
<path d="M179.82 254.112C179.82 256.104 179.58 257.916 179.1 259.548C178.62 261.156 177.876 262.548 176.868 263.724C175.86 264.9 174.564 265.8 172.98 266.424C171.42 267.048 169.536 267.36 167.328 267.36C165.168 267.36 163.296 267.048 161.712 266.424C160.152 265.8 158.856 264.9 157.824 263.724C156.816 262.548 156.06 261.156 155.556 259.548C155.076 257.916 154.836 256.092 154.836 254.076C154.836 251.412 155.28 249.096 156.168 247.128C157.056 245.136 158.424 243.6 160.272 242.52C162.12 241.44 164.484 240.9 167.364 240.9C170.292 240.9 172.668 241.452 174.492 242.556C176.34 243.636 177.684 245.172 178.524 247.164C179.388 249.132 179.82 251.448 179.82 254.112ZM162.144 254.112C162.144 255.648 162.312 256.98 162.648 258.108C163.008 259.212 163.572 260.064 164.34 260.664C165.108 261.264 166.104 261.564 167.328 261.564C168.6 261.564 169.608 261.264 170.352 260.664C171.12 260.064 171.672 259.212 172.008 258.108C172.344 256.98 172.512 255.648 172.512 254.112C172.512 251.784 172.128 249.948 171.36 248.604C170.592 247.26 169.26 246.588 167.364 246.588C166.116 246.588 165.108 246.9 164.34 247.524C163.572 248.124 163.008 248.988 162.648 250.116C162.312 251.22 162.144 252.552 162.144 254.112ZM206.42 267H198.572L193.496 257.172L191.444 258.396V267H184.46V241.296H191.444V252.456C191.732 251.904 192.068 251.352 192.452 250.8C192.836 250.224 193.208 249.684 193.568 249.18L198.968 241.296H206.564L198.464 252.816L206.42 267Z" fill="black"/>
</svg>
