<svg width="133" height="134" viewBox="0 0 133 134" fill="none" xmlns="http://www.w3.org/2000/svg">
<rect width="133" height="134" fill="white"/>
<path d="M59.4 50.3V46.5H76.5V50.3H59.4ZM59.4 56V52.2H76.5V56H59.4ZM65.1 75H53.7C52.1167 75 50.7708 74.4458 49.6625 73.3375C48.5542 72.2292 48 70.8833 48 69.3V63.6H53.7V37H82.2V54.1475C81.5667 54.0842 80.9254 54.1079 80.2762 54.2187C79.6271 54.3296 79.0017 54.5275 78.4 54.8125V40.8H57.5V63.6H68.9L65.1 67.4H51.8V69.3C51.8 69.8383 51.9821 70.2896 52.3462 70.6537C52.7104 71.0179 53.1617 71.2 53.7 71.2H65.1V75ZM68.9 75V69.1575L79.3975 58.7075C79.6825 58.4225 79.9992 58.2167 80.3475 58.09C80.6958 57.9633 81.0442 57.9 81.3925 57.9C81.7725 57.9 82.1367 57.9712 82.485 58.1137C82.8333 58.2562 83.15 58.47 83.435 58.755L85.1925 60.5125C85.4458 60.7975 85.6437 61.1142 85.7862 61.4625C85.9287 61.8108 86 62.1592 86 62.5075C86 62.8558 85.9367 63.2121 85.81 63.5762C85.6833 63.9404 85.4775 64.265 85.1925 64.55L74.7425 75H68.9ZM71.75 72.15H73.555L79.3025 66.355L78.4475 65.4525L77.545 64.5975L71.75 70.345V72.15ZM78.4475 65.4525L77.545 64.5975L79.3025 66.355L78.4475 65.4525Z" fill="black"/>
<circle cx="66.5" cy="65.5" r="58.5" stroke="black" stroke-width="4"/>
<circle cx="105.5" cy="109.5" r="19.5" fill="white"/>
<path d="M43.8327 94.396C43.8327 94.86 43.7127 95.3 43.4727 95.716C43.2407 96.132 42.8767 96.472 42.3807 96.736C41.8927 96.992 41.2567 97.12 40.4727 97.12C40.0807 97.12 39.7367 97.1 39.4407 97.06C39.1527 97.028 38.8807 96.972 38.6247 96.892C38.3687 96.812 38.1047 96.708 37.8327 96.58V94.516C38.2967 94.748 38.7647 94.928 39.2367 95.056C39.7087 95.176 40.1367 95.236 40.5207 95.236C40.7527 95.236 40.9407 95.208 41.0847 95.152C41.2287 95.096 41.3367 95.02 41.4087 94.924C41.4807 94.828 41.5167 94.72 41.5167 94.6C41.5167 94.448 41.4647 94.32 41.3607 94.216C41.2567 94.112 41.0927 94.004 40.8687 93.892C40.6447 93.78 40.3447 93.64 39.9687 93.472C39.6487 93.328 39.3607 93.176 39.1047 93.016C38.8487 92.856 38.6287 92.676 38.4447 92.476C38.2687 92.276 38.1327 92.044 38.0367 91.78C37.9407 91.508 37.8927 91.188 37.8927 90.82C37.8927 90.268 38.0287 89.808 38.3007 89.44C38.5727 89.064 38.9487 88.784 39.4287 88.6C39.9167 88.408 40.4807 88.312 41.1207 88.312C41.6807 88.312 42.1847 88.376 42.6327 88.504C43.0807 88.624 43.4807 88.764 43.8327 88.924L43.1247 90.712C42.7567 90.544 42.3927 90.412 42.0327 90.316C41.6807 90.212 41.3527 90.16 41.0487 90.16C40.8487 90.16 40.6847 90.184 40.5567 90.232C40.4287 90.28 40.3327 90.348 40.2687 90.436C40.2127 90.516 40.1847 90.608 40.1847 90.712C40.1847 90.848 40.2367 90.968 40.3407 91.072C40.4447 91.176 40.6167 91.292 40.8567 91.42C41.1047 91.54 41.4407 91.696 41.8647 91.888C42.2807 92.072 42.6327 92.276 42.9207 92.5C43.2167 92.716 43.4407 92.976 43.5927 93.28C43.7527 93.576 43.8327 93.948 43.8327 94.396ZM51.4785 90.364V97H49.7505L49.4625 96.172H49.3305C49.1945 96.396 49.0185 96.58 48.8025 96.724C48.5945 96.86 48.3625 96.96 48.1065 97.024C47.8585 97.088 47.5985 97.12 47.3265 97.12C46.8945 97.12 46.5025 97.036 46.1505 96.868C45.7985 96.7 45.5185 96.436 45.3105 96.076C45.1105 95.716 45.0105 95.252 45.0105 94.684V90.364H47.3025V93.988C47.3025 94.42 47.3625 94.748 47.4825 94.972C47.6105 95.196 47.8145 95.308 48.0945 95.308C48.3825 95.308 48.6065 95.232 48.7665 95.08C48.9265 94.92 49.0345 94.688 49.0905 94.384C49.1545 94.08 49.1865 93.708 49.1865 93.268V90.364H51.4785ZM61.1615 90.244C61.9215 90.244 62.5015 90.436 62.9015 90.82C63.3015 91.204 63.5015 91.824 63.5015 92.68V97H61.2095V93.388C61.2095 92.884 61.1415 92.536 61.0055 92.344C60.8695 92.144 60.6695 92.044 60.4055 92.044C60.0375 92.044 59.7815 92.208 59.6375 92.536C59.4935 92.856 59.4215 93.312 59.4215 93.904V97H57.1295V93.388C57.1295 93.068 57.1015 92.812 57.0455 92.62C56.9895 92.42 56.9055 92.276 56.7935 92.188C56.6815 92.092 56.5375 92.044 56.3615 92.044C56.0975 92.044 55.8895 92.124 55.7375 92.284C55.5935 92.444 55.4935 92.676 55.4375 92.98C55.3815 93.284 55.3535 93.656 55.3535 94.096V97H53.0615V90.364H54.7895L55.1255 91.18H55.1855C55.3055 90.996 55.4575 90.836 55.6415 90.7C55.8255 90.556 56.0455 90.444 56.3015 90.364C56.5575 90.284 56.8495 90.244 57.1775 90.244C57.6655 90.244 58.0655 90.328 58.3775 90.496C58.6975 90.656 58.9575 90.88 59.1575 91.168H59.2295C59.4375 90.872 59.7055 90.644 60.0335 90.484C60.3695 90.324 60.7455 90.244 61.1615 90.244ZM73.1615 90.244C73.9215 90.244 74.5015 90.436 74.9015 90.82C75.3015 91.204 75.5015 91.824 75.5015 92.68V97H73.2095V93.388C73.2095 92.884 73.1415 92.536 73.0055 92.344C72.8695 92.144 72.6695 92.044 72.4055 92.044C72.0375 92.044 71.7815 92.208 71.6375 92.536C71.4935 92.856 71.4215 93.312 71.4215 93.904V97H69.1295V93.388C69.1295 93.068 69.1015 92.812 69.0455 92.62C68.9895 92.42 68.9055 92.276 68.7935 92.188C68.6815 92.092 68.5375 92.044 68.3615 92.044C68.0975 92.044 67.8895 92.124 67.7375 92.284C67.5935 92.444 67.4935 92.676 67.4375 92.98C67.3815 93.284 67.3535 93.656 67.3535 94.096V97H65.0615V90.364H66.7895L67.1255 91.18H67.1855C67.3055 90.996 67.4575 90.836 67.6415 90.7C67.8255 90.556 68.0455 90.444 68.3015 90.364C68.5575 90.284 68.8495 90.244 69.1775 90.244C69.6655 90.244 70.0655 90.328 70.3775 90.496C70.6975 90.656 70.9575 90.88 71.1575 91.168H71.2295C71.4375 90.872 71.7055 90.644 72.0335 90.484C72.3695 90.324 72.7455 90.244 73.1615 90.244ZM80.3015 90.244C81.1415 90.244 81.7975 90.452 82.2695 90.868C82.7415 91.284 82.9775 91.876 82.9775 92.644V97H81.3935L80.9495 96.124H80.9015C80.7175 96.356 80.5255 96.548 80.3255 96.7C80.1335 96.844 79.9095 96.948 79.6535 97.012C79.3975 97.084 79.0855 97.12 78.7175 97.12C78.3335 97.12 77.9895 97.044 77.6855 96.892C77.3815 96.732 77.1415 96.496 76.9655 96.184C76.7895 95.864 76.7015 95.46 76.7015 94.972C76.7015 94.26 76.9455 93.732 77.4335 93.388C77.9295 93.044 78.6455 92.852 79.5815 92.812L80.6855 92.776V92.68C80.6855 92.384 80.6135 92.176 80.4695 92.056C80.3255 91.928 80.1295 91.864 79.8815 91.864C79.6175 91.864 79.3255 91.912 79.0055 92.008C78.6855 92.096 78.3615 92.212 78.0335 92.356L77.3735 90.844C77.7575 90.644 78.1895 90.496 78.6695 90.4C79.1575 90.296 79.7015 90.244 80.3015 90.244ZM80.1695 94.06C79.7535 94.076 79.4575 94.152 79.2815 94.288C79.1135 94.416 79.0295 94.6 79.0295 94.84C79.0295 95.064 79.0895 95.232 79.2095 95.344C79.3295 95.448 79.4895 95.5 79.6895 95.5C79.9695 95.5 80.2055 95.412 80.3975 95.236C80.5975 95.06 80.6975 94.832 80.6975 94.552V94.036L80.1695 94.06ZM88.5461 90.244C88.6741 90.244 88.8061 90.252 88.9421 90.268C89.0781 90.284 89.1781 90.3 89.2421 90.316L89.0381 92.476C88.9581 92.46 88.8581 92.444 88.7381 92.428C88.6261 92.412 88.4661 92.404 88.2581 92.404C88.1141 92.404 87.9581 92.42 87.7901 92.452C87.6301 92.476 87.4741 92.532 87.3221 92.62C87.1781 92.708 87.0581 92.84 86.9621 93.016C86.8741 93.192 86.8301 93.432 86.8301 93.736V97H84.5381V90.364H86.2421L86.6021 91.42H86.7101C86.8301 91.204 86.9861 91.008 87.1781 90.832C87.3701 90.648 87.5821 90.504 87.8141 90.4C88.0541 90.296 88.2981 90.244 88.5461 90.244ZM89.3591 90.364H91.7711L92.8991 94.168C92.9151 94.224 92.9311 94.292 92.9471 94.372C92.9631 94.452 92.9751 94.536 92.9831 94.624C92.9991 94.712 93.0071 94.8 93.0071 94.888H93.0551C93.0711 94.728 93.0911 94.592 93.1151 94.48C93.1471 94.36 93.1751 94.26 93.1991 94.18L94.3511 90.364H96.6911L94.0631 97.42C93.8631 97.956 93.6271 98.408 93.3551 98.776C93.0911 99.144 92.7631 99.42 92.3711 99.604C91.9791 99.788 91.4911 99.88 90.9071 99.88C90.6991 99.88 90.5191 99.868 90.3671 99.844C90.2151 99.828 90.0831 99.808 89.9711 99.784V97.984C90.0591 98 90.1631 98.016 90.2831 98.032C90.4111 98.048 90.5431 98.056 90.6791 98.056C90.9351 98.056 91.1391 98.004 91.2911 97.9C91.4511 97.796 91.5831 97.66 91.6871 97.492C91.7911 97.332 91.8791 97.156 91.9511 96.964L91.9751 96.904L89.3591 90.364Z" fill="black"/>
<path d="M108.591 113.936H103.439L102.639 99.152H109.391L108.591 113.936ZM102.703 119.408C102.703 118.299 103.023 117.52 103.663 117.072C104.325 116.624 105.103 116.4 105.999 116.4C106.874 116.4 107.631 116.624 108.271 117.072C108.911 117.52 109.231 118.299 109.231 119.408C109.231 120.453 108.911 121.211 108.271 121.68C107.631 122.149 106.874 122.384 105.999 122.384C105.103 122.384 104.325 122.149 103.663 121.68C103.023 121.211 102.703 120.453 102.703 119.408Z" fill="#C51414"/>
</svg>
