<svg width="844" height="323" viewBox="0 0 844 323" fill="none" xmlns="http://www.w3.org/2000/svg">
<path d="M106.042 239.5C104.047 239.5 102.374 238.825 101.024 237.476C99.6748 236.126 99 234.453 99 232.458V228.409C99 223.363 101.582 219.255 106.746 216.086C111.91 212.918 118.717 211.333 127.167 211.333C128.692 211.333 130.159 211.363 131.568 211.421C132.976 211.48 134.326 211.627 135.617 211.861C133.974 214.326 132.741 216.908 131.92 219.607C131.098 222.307 130.687 225.123 130.687 228.057V239.5H106.042ZM148.292 239.5C146.297 239.5 144.624 238.825 143.274 237.476C141.925 236.126 141.25 234.453 141.25 232.458V228.057C141.25 224.302 142.277 220.869 144.331 217.759C146.385 214.649 149.289 211.92 153.045 209.573C156.8 207.226 161.289 205.465 166.512 204.292C171.735 203.118 177.397 202.531 183.5 202.531C189.72 202.531 195.441 203.118 200.664 204.292C205.887 205.465 210.376 207.226 214.131 209.573C217.887 211.92 220.762 214.649 222.757 217.759C224.752 220.869 225.75 224.302 225.75 228.057V232.458C225.75 234.453 225.075 236.126 223.726 237.476C222.376 238.825 220.703 239.5 218.708 239.5H148.292ZM236.312 239.5V228.057C236.312 225.006 235.931 222.131 235.168 219.431C234.405 216.732 233.261 214.209 231.735 211.861C233.026 211.627 234.347 211.48 235.696 211.421C237.046 211.363 238.425 211.333 239.833 211.333C248.283 211.333 255.09 212.888 260.254 215.998C265.418 219.109 268 223.245 268 228.409V232.458C268 234.453 267.325 236.126 265.976 237.476C264.626 238.825 262.953 239.5 260.958 239.5H236.312ZM127.167 204.292C123.294 204.292 119.978 202.913 117.22 200.155C114.462 197.397 113.083 194.081 113.083 190.208C113.083 186.218 114.462 182.873 117.22 180.174C119.978 177.475 123.294 176.125 127.167 176.125C131.157 176.125 134.502 177.475 137.201 180.174C139.9 182.873 141.25 186.218 141.25 190.208C141.25 194.081 139.9 197.397 137.201 200.155C134.502 202.913 131.157 204.292 127.167 204.292ZM239.833 204.292C235.96 204.292 232.645 202.913 229.887 200.155C227.129 197.397 225.75 194.081 225.75 190.208C225.75 186.218 227.129 182.873 229.887 180.174C232.645 177.475 235.96 176.125 239.833 176.125C243.824 176.125 247.168 177.475 249.868 180.174C252.567 182.873 253.917 186.218 253.917 190.208C253.917 194.081 252.567 197.397 249.868 200.155C247.168 202.913 243.824 204.292 239.833 204.292ZM183.5 197.25C177.632 197.25 172.644 195.196 168.536 191.089C164.429 186.981 162.375 181.993 162.375 176.125C162.375 170.14 164.429 165.122 168.536 161.073C172.644 157.024 177.632 155 183.5 155C189.485 155 194.503 157.024 198.552 161.073C202.601 165.122 204.625 170.14 204.625 176.125C204.625 181.993 202.601 186.981 198.552 191.089C194.503 195.196 189.485 197.25 183.5 197.25Z" fill="black"/>
<path d="M170.25 105.875C171.159 105.875 171.921 105.568 172.536 104.953C173.151 104.338 173.458 103.576 173.458 102.667C173.458 101.758 173.151 100.996 172.536 100.381C171.921 99.7658 171.159 99.4583 170.25 99.4583C169.341 99.4583 168.579 99.7658 167.964 100.381C167.349 100.996 167.042 101.758 167.042 102.667C167.042 103.576 167.349 104.338 167.964 104.953C168.579 105.568 169.341 105.875 170.25 105.875ZM183.083 105.875C183.992 105.875 184.754 105.568 185.369 104.953C185.984 104.338 186.292 103.576 186.292 102.667C186.292 101.758 185.984 100.996 185.369 100.381C184.754 99.7658 183.992 99.4583 183.083 99.4583C182.174 99.4583 181.412 99.7658 180.797 100.381C180.182 100.996 179.875 101.758 179.875 102.667C179.875 103.576 180.182 104.338 180.797 104.953C181.412 105.568 182.174 105.875 183.083 105.875ZM195.917 105.875C196.826 105.875 197.588 105.568 198.203 104.953C198.818 104.338 199.125 103.576 199.125 102.667C199.125 101.758 198.818 100.996 198.203 100.381C197.588 99.7658 196.826 99.4583 195.917 99.4583C195.008 99.4583 194.246 99.7658 193.631 100.381C193.016 100.996 192.708 101.758 192.708 102.667C192.708 103.576 193.016 104.338 193.631 104.953C194.246 105.568 195.008 105.875 195.917 105.875ZM151 141.167V83.4167C151 81.6521 151.628 80.1415 152.885 78.8849C154.141 77.6283 155.652 77 157.417 77H208.75C210.515 77 212.025 77.6283 213.282 78.8849C214.538 80.1415 215.167 81.6521 215.167 83.4167V121.917C215.167 123.681 214.538 125.192 213.282 126.448C212.025 127.705 210.515 128.333 208.75 128.333H163.833L151 141.167ZM161.106 121.917H208.75V83.4167H157.417V125.526L161.106 121.917Z" fill="black"/>
<path d="M644.25 105.875C645.159 105.875 645.921 105.568 646.536 104.953C647.151 104.338 647.458 103.576 647.458 102.667C647.458 101.758 647.151 100.996 646.536 100.381C645.921 99.7658 645.159 99.4583 644.25 99.4583C643.341 99.4583 642.579 99.7658 641.964 100.381C641.349 100.996 641.042 101.758 641.042 102.667C641.042 103.576 641.349 104.338 641.964 104.953C642.579 105.568 643.341 105.875 644.25 105.875ZM657.083 105.875C657.992 105.875 658.754 105.568 659.369 104.953C659.984 104.338 660.292 103.576 660.292 102.667C660.292 101.758 659.984 100.996 659.369 100.381C658.754 99.7658 657.992 99.4583 657.083 99.4583C656.174 99.4583 655.412 99.7658 654.797 100.381C654.182 100.996 653.875 101.758 653.875 102.667C653.875 103.576 654.182 104.338 654.797 104.953C655.412 105.568 656.174 105.875 657.083 105.875ZM669.917 105.875C670.826 105.875 671.588 105.568 672.203 104.953C672.818 104.338 673.125 103.576 673.125 102.667C673.125 101.758 672.818 100.996 672.203 100.381C671.588 99.7658 670.826 99.4583 669.917 99.4583C669.008 99.4583 668.246 99.7658 667.631 100.381C667.016 100.996 666.708 101.758 666.708 102.667C666.708 103.576 667.016 104.338 667.631 104.953C668.246 105.568 669.008 105.875 669.917 105.875ZM625 141.167V83.4167C625 81.6521 625.628 80.1415 626.885 78.8849C628.141 77.6283 629.652 77 631.417 77H682.75C684.515 77 686.025 77.6283 687.282 78.8849C688.538 80.1415 689.167 81.6521 689.167 83.4167V121.917C689.167 123.681 688.538 125.192 687.282 126.448C686.025 127.705 684.515 128.333 682.75 128.333H637.833L625 141.167ZM635.106 121.917H682.75V83.4167H631.417V125.526L635.106 121.917Z" fill="black" fill-opacity="0.34"/>
<path d="M631.404 83.4167V121.917V125.526V125.556L631.425 125.535L635.111 121.929H682.75H682.762V121.917V83.4167V83.4042H682.75H631.417H631.404V83.4167ZM625.013 141.136V83.4167C625.013 81.6554 625.639 80.148 626.894 78.8937C628.148 77.6395 629.655 77.0125 631.417 77.0125H682.75C684.511 77.0125 686.019 77.6395 687.273 78.8937C688.527 80.148 689.154 81.6554 689.154 83.4167V121.917C689.154 123.678 688.527 125.185 687.273 126.44C686.019 127.694 684.511 128.321 682.75 128.321H637.833V128.316L637.824 128.324L625.013 141.136ZM646.527 104.944C645.915 105.556 645.156 105.862 644.25 105.862C643.344 105.862 642.585 105.556 641.973 104.944C641.36 104.331 641.054 103.573 641.054 102.667C641.054 101.761 641.36 101.002 641.973 100.39C642.585 99.7771 643.344 99.4708 644.25 99.4708C645.156 99.4708 645.915 99.7771 646.527 100.39C647.14 101.002 647.446 101.761 647.446 102.667C647.446 103.573 647.14 104.331 646.527 104.944ZM659.36 104.944C658.748 105.556 657.989 105.862 657.083 105.862C656.177 105.862 655.419 105.556 654.806 104.944C654.194 104.331 653.887 103.573 653.887 102.667C653.887 101.761 654.194 101.002 654.806 100.39C655.419 99.7771 656.177 99.4708 657.083 99.4708C657.989 99.4708 658.748 99.7771 659.36 100.39C659.973 101.002 660.279 101.761 660.279 102.667C660.279 103.573 659.973 104.331 659.36 104.944ZM672.194 104.944C671.581 105.556 670.823 105.862 669.917 105.862C669.011 105.862 668.252 105.556 667.64 104.944C667.027 104.331 666.721 103.573 666.721 102.667C666.721 101.761 667.027 101.002 667.64 100.39C668.252 99.7771 669.011 99.4708 669.917 99.4708C670.823 99.4708 671.581 99.7771 672.194 100.39C672.806 101.002 673.112 101.761 673.112 102.667C673.112 103.573 672.806 104.331 672.194 104.944Z" stroke="black" stroke-opacity="0.34" stroke-width="0.025"/>
<path d="M656.5 203.5C650.656 203.5 645.654 201.419 641.492 197.258C637.331 193.096 635.25 188.094 635.25 182.25C635.25 176.406 637.331 171.404 641.492 167.242C645.654 163.081 650.656 161 656.5 161C662.344 161 667.346 163.081 671.508 167.242C675.669 171.404 677.75 176.406 677.75 182.25C677.75 188.094 675.669 193.096 671.508 197.258C667.346 201.419 662.344 203.5 656.5 203.5ZM614 235.375V231.125C614 228.115 614.775 225.348 616.324 222.824C617.874 220.301 619.932 218.375 622.5 217.047C627.99 214.302 633.568 212.243 639.234 210.871C644.901 209.499 650.656 208.812 656.5 208.812C662.344 208.812 668.099 209.499 673.766 210.871C679.432 212.243 685.01 214.302 690.5 217.047C693.068 218.375 695.126 220.301 696.676 222.824C698.225 225.348 699 228.115 699 231.125V235.375C699 238.297 697.96 240.798 695.879 242.879C693.798 244.96 691.297 246 688.375 246H624.625C621.703 246 619.202 244.96 617.121 242.879C615.04 240.798 614 238.297 614 235.375Z" fill="black" fill-opacity="0.34"/>
<path d="M656.5 203.487C650.66 203.487 645.66 201.408 641.501 197.249C637.342 193.09 635.263 188.09 635.263 182.25C635.263 176.41 637.342 171.41 641.501 167.251C645.66 163.092 650.66 161.013 656.5 161.013C662.34 161.013 667.34 163.092 671.499 167.251C675.658 171.41 677.737 176.41 677.737 182.25C677.737 188.09 675.658 193.09 671.499 197.249C667.34 201.408 662.34 203.487 656.5 203.487ZM614.013 235.375V231.125C614.013 228.117 614.787 225.352 616.335 222.831C617.883 220.309 619.94 218.385 622.506 217.058C627.994 214.314 633.572 212.255 639.237 210.883C644.903 209.511 650.657 208.825 656.5 208.825C662.343 208.825 668.097 209.511 673.763 210.883C679.428 212.255 685.006 214.314 690.494 217.058C693.06 218.385 695.117 220.309 696.665 222.831C698.213 225.352 698.988 228.117 698.988 231.125V235.375C698.988 238.294 697.948 240.792 695.87 242.87C693.792 244.948 691.294 245.988 688.375 245.988H624.625C621.706 245.988 619.208 244.948 617.13 242.87C615.052 240.792 614.013 238.294 614.013 235.375Z" stroke="black" stroke-opacity="0.34" stroke-width="0.025"/>
<rect x="33" y="31" width="308" height="261" rx="29" stroke="black" stroke-width="10"/>
<rect x="503" y="31" width="308" height="261" rx="29" stroke="black" stroke-opacity="0.34" stroke-width="10"/>
<path d="M405 203.5L438.5 162L405 120" stroke="black" stroke-width="11"/>
</svg>
