<svg width="553" height="136" viewBox="0 0 553 136" fill="none" xmlns="http://www.w3.org/2000/svg">
<path d="M33.8501 61.72C35.2234 61.72 36.3301 61.86 37.1701 62.14C38.0101 62.4067 38.6234 62.8067 39.0101 63.34C39.3967 63.86 39.5901 64.5067 39.5901 65.28C39.5901 65.9067 39.4767 66.44 39.2501 66.88C39.0234 67.3067 38.7367 67.6467 38.3901 67.9C38.0567 68.1533 37.7101 68.3267 37.3501 68.42V68.52C37.7367 68.6133 38.1234 68.7733 38.5101 69C38.8967 69.2267 39.2167 69.5667 39.4701 70.02C39.7367 70.46 39.8701 71.06 39.8701 71.82C39.8701 72.6867 39.6501 73.4333 39.2101 74.06C38.7701 74.6867 38.1434 75.1667 37.3301 75.5C36.5167 75.8333 35.5501 76 34.4301 76H28.8701V61.72H33.8501ZM33.8901 67.2C34.5301 67.2 34.9767 67.0667 35.2301 66.8C35.4967 66.5333 35.6301 66.2133 35.6301 65.84C35.6301 65.4533 35.4834 65.16 35.1901 64.96C34.8967 64.7467 34.4367 64.64 33.8101 64.64H32.7301V67.2H33.8901ZM32.7301 70.02V73.02H34.0901C34.7567 73.02 35.2234 72.88 35.4901 72.6C35.7567 72.3067 35.8901 71.94 35.8901 71.5C35.8901 71.2467 35.8301 71.0067 35.7101 70.78C35.6034 70.5533 35.4101 70.3733 35.1301 70.24C34.8634 70.0933 34.4901 70.02 34.0101 70.02H32.7301ZM52.6866 70.44C52.6866 71.36 52.56 72.18 52.3066 72.9C52.0533 73.62 51.6866 74.2267 51.2066 74.72C50.7266 75.2 50.1466 75.5667 49.4666 75.82C48.7866 76.0733 48.0133 76.2 47.1466 76.2C46.3466 76.2 45.6066 76.0733 44.9266 75.82C44.26 75.5667 43.68 75.2 43.1866 74.72C42.7066 74.2267 42.3266 73.62 42.0466 72.9C41.78 72.18 41.6466 71.36 41.6466 70.44C41.6466 69.2133 41.8666 68.18 42.3066 67.34C42.76 66.4867 43.4 65.84 44.2266 65.4C45.0533 64.96 46.0466 64.74 47.2066 64.74C48.2733 64.74 49.2133 64.96 50.0266 65.4C50.8533 65.84 51.5 66.4867 51.9666 67.34C52.4466 68.18 52.6866 69.2133 52.6866 70.44ZM45.5266 70.44C45.5266 71.0667 45.58 71.6 45.6866 72.04C45.7933 72.48 45.9666 72.8133 46.2066 73.04C46.46 73.2533 46.7866 73.36 47.1866 73.36C47.5866 73.36 47.9 73.2533 48.1266 73.04C48.3666 72.8133 48.54 72.48 48.6466 72.04C48.7533 71.6 48.8066 71.0667 48.8066 70.44C48.8066 69.8133 48.7533 69.2867 48.6466 68.86C48.54 68.4333 48.3666 68.1133 48.1266 67.9C47.8866 67.6867 47.5666 67.58 47.1666 67.58C46.5933 67.58 46.1733 67.82 45.9066 68.3C45.6533 68.78 45.5266 69.4933 45.5266 70.44ZM61.781 64.74C62.9277 64.74 63.861 65.06 64.581 65.7C65.301 66.34 65.661 67.3733 65.661 68.8V76H61.841V69.96C61.841 69.2267 61.7343 68.6733 61.521 68.3C61.3077 67.9267 60.9677 67.74 60.501 67.74C59.781 67.74 59.2943 68.0333 59.041 68.62C58.801 69.2067 58.681 70.0533 58.681 71.16V76H54.861V64.94H57.741L58.261 66.4H58.401C58.641 66.0533 58.921 65.76 59.241 65.52C59.5743 65.2667 59.9477 65.0733 60.361 64.94C60.7877 64.8067 61.261 64.74 61.781 64.74ZM79.0195 64.94V76H76.1395L75.6595 74.62H75.4395C75.2128 74.9933 74.9195 75.3 74.5595 75.54C74.2128 75.7667 73.8261 75.9333 73.3995 76.04C72.9861 76.1467 72.5528 76.2 72.0995 76.2C71.3795 76.2 70.7261 76.06 70.1395 75.78C69.5528 75.5 69.0861 75.06 68.7395 74.46C68.4061 73.86 68.2395 73.0867 68.2395 72.14V64.94H72.0595V70.98C72.0595 71.7 72.1595 72.2467 72.3595 72.62C72.5728 72.9933 72.9128 73.18 73.3795 73.18C73.8595 73.18 74.2328 73.0533 74.4995 72.8C74.7661 72.5333 74.9461 72.1467 75.0395 71.64C75.1461 71.1333 75.1995 70.5133 75.1995 69.78V64.94H79.0195ZM89.8779 72.6C89.8779 73.2933 89.7179 73.9133 89.3979 74.46C89.0912 75.0067 88.5912 75.4333 87.8979 75.74C87.2179 76.0467 86.3179 76.2 85.1979 76.2C84.4112 76.2 83.7046 76.1533 83.0779 76.06C82.4646 75.98 81.8379 75.82 81.1979 75.58V72.52C81.9046 72.84 82.6179 73.0733 83.3379 73.22C84.0579 73.3533 84.6246 73.42 85.0379 73.42C85.4646 73.42 85.7779 73.3733 85.9779 73.28C86.1779 73.1867 86.2779 73.0467 86.2779 72.86C86.2779 72.7 86.2112 72.56 86.0779 72.44C85.9446 72.32 85.7046 72.1867 85.3579 72.04C85.0246 71.8933 84.5446 71.6933 83.9179 71.44C83.3046 71.1867 82.7912 70.9133 82.3779 70.62C81.9779 70.3133 81.6779 69.9533 81.4779 69.54C81.2779 69.1133 81.1779 68.6 81.1779 68C81.1779 66.92 81.5912 66.1067 82.4179 65.56C83.2579 65.0133 84.3646 64.74 85.7379 64.74C86.4712 64.74 87.1579 64.82 87.7979 64.98C88.4379 65.14 89.1046 65.3733 89.7979 65.68L88.7579 68.14C88.3979 67.9667 88.0246 67.82 87.6379 67.7C87.2646 67.58 86.9112 67.4867 86.5779 67.42C86.2579 67.3533 85.9846 67.32 85.7579 67.32C85.4646 67.32 85.2312 67.36 85.0579 67.44C84.8979 67.52 84.8179 67.6333 84.8179 67.78C84.8179 67.9133 84.8712 68.0333 84.9779 68.14C85.0979 68.2467 85.3179 68.3667 85.6379 68.5C85.9579 68.6333 86.4246 68.8267 87.0379 69.08C87.6779 69.3333 88.2046 69.6133 88.6179 69.92C89.0446 70.2133 89.3579 70.5733 89.5579 71C89.7712 71.4133 89.8779 71.9467 89.8779 72.6Z" fill="black"/>
<path d="M106.041 68.04V65.42H115.961V68.04H106.041ZM106.041 72.5V69.86H115.961V72.5H106.041Z" fill="black"/>
<path d="M139.135 79.296C137.769 79.2533 136.585 79.1253 135.583 78.912C134.58 78.6773 133.631 78.368 132.735 77.984V73.088C133.737 73.536 134.804 73.8987 135.935 74.176C137.087 74.432 138.153 74.6027 139.135 74.688V70.752C138.153 70.4533 137.236 70.1227 136.383 69.76C135.551 69.3973 134.815 68.96 134.175 68.448C133.556 67.936 133.076 67.3173 132.735 66.592C132.393 65.8453 132.223 64.96 132.223 63.936C132.223 62.6347 132.511 61.5573 133.087 60.704C133.663 59.8507 134.463 59.1893 135.487 58.72C136.532 58.2507 137.748 57.9733 139.135 57.888V55.68H142.079V57.856C143.38 57.92 144.564 58.0907 145.631 58.368C146.697 58.6453 147.657 58.9653 148.511 59.328L147.135 63.616C146.345 63.2747 145.513 63.008 144.639 62.816C143.785 62.6027 142.932 62.4533 142.079 62.368V66.24C143.572 66.688 144.841 67.168 145.887 67.68C146.932 68.1707 147.732 68.8107 148.287 69.6C148.841 70.368 149.119 71.3813 149.119 72.64C149.119 74.368 148.553 75.84 147.423 77.056C146.292 78.2507 144.511 78.976 142.079 79.232V81.856H139.135V79.296ZM142.079 74.624C142.697 74.5173 143.156 74.3467 143.455 74.112C143.753 73.8773 143.903 73.5573 143.903 73.152C143.903 72.8747 143.849 72.64 143.743 72.448C143.636 72.256 143.444 72.0853 143.167 71.936C142.911 71.7867 142.548 71.6373 142.079 71.488V74.624ZM139.135 62.4C138.751 62.4213 138.431 62.496 138.175 62.624C137.919 62.7307 137.716 62.88 137.567 63.072C137.439 63.2427 137.375 63.456 137.375 63.712C137.375 63.968 137.428 64.2027 137.535 64.416C137.663 64.608 137.855 64.7787 138.111 64.928C138.367 65.0773 138.708 65.2267 139.135 65.376V62.4ZM164.579 80H158.307V68.704C158.307 68.4907 158.307 68.1067 158.307 67.552C158.307 66.9973 158.318 66.3787 158.339 65.696C158.361 65.0133 158.382 64.4053 158.403 63.872C158.126 64.192 157.87 64.4693 157.635 64.704C157.422 64.9387 157.198 65.152 156.963 65.344L154.371 67.488L151.171 63.552L159.011 57.152H164.579V80Z" fill="black"/>
<path d="M350.76 79.296C349.394 79.2533 348.21 79.1253 347.208 78.912C346.205 78.6773 345.256 78.368 344.36 77.984V73.088C345.362 73.536 346.429 73.8987 347.56 74.176C348.712 74.432 349.778 74.6027 350.76 74.688V70.752C349.778 70.4533 348.861 70.1227 348.008 69.76C347.176 69.3973 346.44 68.96 345.8 68.448C345.181 67.936 344.701 67.3173 344.36 66.592C344.018 65.8453 343.848 64.96 343.848 63.936C343.848 62.6347 344.136 61.5573 344.712 60.704C345.288 59.8507 346.088 59.1893 347.112 58.72C348.157 58.2507 349.373 57.9733 350.76 57.888V55.68H353.704V57.856C355.005 57.92 356.189 58.0907 357.256 58.368C358.322 58.6453 359.282 58.9653 360.136 59.328L358.76 63.616C357.97 63.2747 357.138 63.008 356.264 62.816C355.41 62.6027 354.557 62.4533 353.704 62.368V66.24C355.197 66.688 356.466 67.168 357.512 67.68C358.557 68.1707 359.357 68.8107 359.912 69.6C360.466 70.368 360.744 71.3813 360.744 72.64C360.744 74.368 360.178 75.84 359.048 77.056C357.917 78.2507 356.136 78.976 353.704 79.232V81.856H350.76V79.296ZM353.704 74.624C354.322 74.5173 354.781 74.3467 355.08 74.112C355.378 73.8773 355.528 73.5573 355.528 73.152C355.528 72.8747 355.474 72.64 355.368 72.448C355.261 72.256 355.069 72.0853 354.792 71.936C354.536 71.7867 354.173 71.6373 353.704 71.488V74.624ZM350.76 62.4C350.376 62.4213 350.056 62.496 349.8 62.624C349.544 62.7307 349.341 62.88 349.192 63.072C349.064 63.2427 349 63.456 349 63.712C349 63.968 349.053 64.2027 349.16 64.416C349.288 64.608 349.48 64.7787 349.736 64.928C349.992 65.0773 350.333 65.2267 350.76 65.376V62.4ZM379.116 68.608C379.116 70.4427 378.967 72.0853 378.668 73.536C378.391 74.9653 377.922 76.192 377.26 77.216C376.62 78.2187 375.778 78.9867 374.732 79.52C373.687 80.0533 372.396 80.32 370.86 80.32C368.962 80.32 367.394 79.8507 366.156 78.912C364.94 77.9733 364.044 76.6293 363.468 74.88C362.892 73.1307 362.604 71.04 362.604 68.608C362.604 66.1333 362.86 64.0213 363.372 62.272C363.906 60.5227 364.78 59.1787 365.996 58.24C367.212 57.3013 368.834 56.832 370.86 56.832C372.759 56.832 374.316 57.3013 375.532 58.24C376.748 59.1573 377.644 60.5013 378.22 62.272C378.818 64.0213 379.116 66.1333 379.116 68.608ZM368.748 68.608C368.748 70.1013 368.802 71.3493 368.908 72.352C369.036 73.3547 369.25 74.112 369.548 74.624C369.847 75.136 370.284 75.392 370.86 75.392C371.436 75.392 371.874 75.1467 372.172 74.656C372.471 74.144 372.674 73.3867 372.78 72.384C372.908 71.36 372.972 70.1013 372.972 68.608C372.972 67.0933 372.908 65.8347 372.78 64.832C372.674 63.808 372.471 63.04 372.172 62.528C371.874 62.016 371.436 61.76 370.86 61.76C370.284 61.76 369.847 62.016 369.548 62.528C369.25 63.04 369.036 63.808 368.908 64.832C368.802 65.8347 368.748 67.0933 368.748 68.608ZM381.578 77.408C381.578 76.2987 381.898 75.52 382.538 75.072C383.2 74.624 383.989 74.4 384.906 74.4C385.781 74.4 386.528 74.624 387.146 75.072C387.786 75.52 388.106 76.2987 388.106 77.408C388.106 78.4533 387.786 79.2107 387.146 79.68C386.528 80.1493 385.781 80.384 384.906 80.384C383.989 80.384 383.2 80.1493 382.538 79.68C381.898 79.2107 381.578 78.4533 381.578 77.408ZM399.852 65.024C401.132 65.024 402.295 65.312 403.34 65.888C404.386 66.464 405.218 67.296 405.836 68.384C406.455 69.472 406.764 70.8053 406.764 72.384C406.764 74.0907 406.423 75.5413 405.74 76.736C405.058 77.9093 404.034 78.8053 402.668 79.424C401.303 80.0213 399.575 80.32 397.484 80.32C396.162 80.32 394.956 80.2133 393.868 80C392.78 79.7867 391.81 79.4773 390.956 79.072V74.016C391.767 74.3787 392.738 74.7093 393.868 75.008C394.999 75.3067 396.034 75.456 396.972 75.456C397.74 75.456 398.38 75.3493 398.892 75.136C399.426 74.9227 399.831 74.6027 400.108 74.176C400.386 73.728 400.524 73.1947 400.524 72.576C400.524 71.7013 400.204 71.0187 399.564 70.528C398.946 70.0373 398.007 69.792 396.748 69.792C396.172 69.792 395.607 69.856 395.052 69.984C394.519 70.0907 394.039 70.208 393.612 70.336L391.34 69.216L392.204 57.152H405.228V62.304H397.452L397.164 65.312C397.506 65.248 397.847 65.184 398.188 65.12C398.551 65.056 399.106 65.024 399.852 65.024ZM425.866 68.608C425.866 70.4427 425.717 72.0853 425.418 73.536C425.141 74.9653 424.672 76.192 424.01 77.216C423.37 78.2187 422.528 78.9867 421.482 79.52C420.437 80.0533 419.146 80.32 417.61 80.32C415.712 80.32 414.144 79.8507 412.906 78.912C411.69 77.9733 410.794 76.6293 410.218 74.88C409.642 73.1307 409.354 71.04 409.354 68.608C409.354 66.1333 409.61 64.0213 410.122 62.272C410.656 60.5227 411.53 59.1787 412.746 58.24C413.962 57.3013 415.584 56.832 417.61 56.832C419.509 56.832 421.066 57.3013 422.282 58.24C423.498 59.1573 424.394 60.5013 424.97 62.272C425.568 64.0213 425.866 66.1333 425.866 68.608ZM415.498 68.608C415.498 70.1013 415.552 71.3493 415.658 72.352C415.786 73.3547 416 74.112 416.298 74.624C416.597 75.136 417.034 75.392 417.61 75.392C418.186 75.392 418.624 75.1467 418.922 74.656C419.221 74.144 419.424 73.3867 419.53 72.384C419.658 71.36 419.722 70.1013 419.722 68.608C419.722 67.0933 419.658 65.8347 419.53 64.832C419.424 63.808 419.221 63.04 418.922 62.528C418.624 62.016 418.186 61.76 417.61 61.76C417.034 61.76 416.597 62.016 416.298 62.528C416 63.04 415.786 63.808 415.658 64.832C415.552 65.8347 415.498 67.0933 415.498 68.608Z" fill="black"/>
<path d="M197.37 56.59C197.543 56.59 197.7 56.5733 197.84 56.54C197.987 56.5 198.137 56.4533 198.29 56.4V57.79C198.083 57.8767 197.863 57.95 197.63 58.01C197.397 58.07 197.1 58.1 196.74 58.1C196.38 58.1 196.063 58.0433 195.79 57.93C195.523 57.8167 195.313 57.6233 195.16 57.35C195.007 57.07 194.93 56.68 194.93 56.18V53.9H194.26V53.12L195.11 52.52L195.6 51.36H196.85V52.47H198.21V53.9H196.85V56.05C196.85 56.23 196.893 56.3667 196.98 56.46C197.073 56.5467 197.203 56.59 197.37 56.59ZM201.17 51.48C201.17 51.8867 201.16 52.23 201.14 52.51C201.12 52.79 201.103 53.0033 201.09 53.15H201.18C201.3 52.9567 201.433 52.8033 201.58 52.69C201.733 52.5767 201.903 52.4967 202.09 52.45C202.276 52.3967 202.48 52.37 202.7 52.37C203.066 52.37 203.396 52.44 203.69 52.58C203.983 52.72 204.216 52.94 204.39 53.24C204.57 53.5333 204.66 53.92 204.66 54.4V58H202.74V54.98C202.74 54.6133 202.686 54.3367 202.58 54.15C202.473 53.9633 202.306 53.87 202.08 53.87C201.853 53.87 201.673 53.9367 201.54 54.07C201.406 54.2033 201.31 54.3967 201.25 54.65C201.196 54.8967 201.17 55.2033 201.17 55.57V58H199.26V50.4H201.17V51.48ZM208.449 52.37C208.989 52.37 209.452 52.4633 209.839 52.65C210.232 52.8367 210.532 53.1167 210.739 53.49C210.952 53.8633 211.059 54.3333 211.059 54.9V55.75H207.649C207.662 56.0367 207.769 56.2733 207.969 56.46C208.175 56.6467 208.472 56.74 208.859 56.74C209.205 56.74 209.522 56.7067 209.809 56.64C210.095 56.5733 210.392 56.4667 210.699 56.32V57.69C210.432 57.83 210.139 57.9333 209.819 58C209.505 58.0667 209.109 58.1 208.629 58.1C208.069 58.1 207.569 58.0033 207.129 57.81C206.695 57.61 206.352 57.3 206.099 56.88C205.845 56.46 205.719 55.9233 205.719 55.27C205.719 54.6033 205.832 54.0567 206.059 53.63C206.292 53.2033 206.612 52.8867 207.019 52.68C207.432 52.4733 207.909 52.37 208.449 52.37ZM208.519 53.67C208.292 53.67 208.102 53.74 207.949 53.88C207.802 54.02 207.715 54.2433 207.689 54.55H209.329C209.329 54.3833 209.295 54.2367 209.229 54.11C209.169 53.9767 209.079 53.87 208.959 53.79C208.839 53.71 208.692 53.67 208.519 53.67ZM218.198 52.37C218.771 52.37 219.238 52.53 219.598 52.85C219.958 53.17 220.138 53.6867 220.138 54.4V58H218.228V54.98C218.228 54.6133 218.175 54.3367 218.068 54.15C217.961 53.9633 217.791 53.87 217.558 53.87C217.198 53.87 216.955 54.0167 216.828 54.31C216.708 54.6033 216.648 55.0267 216.648 55.58V58H214.738V52.47H216.178L216.438 53.2H216.508C216.628 53.0267 216.768 52.88 216.928 52.76C217.095 52.6333 217.281 52.5367 217.488 52.47C217.701 52.4033 217.938 52.37 218.198 52.37ZM226.817 52.47V58H225.377L225.137 57.31H225.027C224.914 57.4967 224.767 57.65 224.587 57.77C224.414 57.8833 224.221 57.9667 224.007 58.02C223.801 58.0733 223.584 58.1 223.357 58.1C222.997 58.1 222.671 58.03 222.377 57.89C222.084 57.75 221.851 57.53 221.677 57.23C221.511 56.93 221.427 56.5433 221.427 56.07V52.47H223.337V55.49C223.337 55.85 223.387 56.1233 223.487 56.31C223.594 56.4967 223.764 56.59 223.997 56.59C224.237 56.59 224.424 56.5267 224.557 56.4C224.691 56.2667 224.781 56.0733 224.827 55.82C224.881 55.5667 224.907 55.2567 224.907 54.89V52.47H226.817ZM234.887 52.37C235.52 52.37 236.003 52.53 236.337 52.85C236.67 53.17 236.837 53.6867 236.837 54.4V58H234.927V54.99C234.927 54.57 234.87 54.28 234.757 54.12C234.643 53.9533 234.477 53.87 234.257 53.87C233.95 53.87 233.737 54.0067 233.617 54.28C233.497 54.5467 233.437 54.9267 233.437 55.42V58H231.527V54.99C231.527 54.7233 231.503 54.51 231.457 54.35C231.41 54.1833 231.34 54.0633 231.247 53.99C231.153 53.91 231.033 53.87 230.887 53.87C230.667 53.87 230.493 53.9367 230.367 54.07C230.247 54.2033 230.163 54.3967 230.117 54.65C230.07 54.9033 230.047 55.2133 230.047 55.58V58H228.137V52.47H229.577L229.857 53.15H229.907C230.007 52.9967 230.133 52.8633 230.287 52.75C230.44 52.63 230.623 52.5367 230.837 52.47C231.05 52.4033 231.293 52.37 231.567 52.37C231.973 52.37 232.307 52.44 232.567 52.58C232.833 52.7133 233.05 52.9 233.217 53.14H233.277C233.45 52.8933 233.673 52.7033 233.947 52.57C234.227 52.4367 234.54 52.37 234.887 52.37ZM240.047 52.12C240.047 52.3133 240.04 52.5 240.027 52.68C240.013 52.86 239.997 53.0267 239.977 53.18H240.047C240.187 52.9533 240.373 52.7633 240.607 52.61C240.84 52.45 241.143 52.37 241.517 52.37C242.09 52.37 242.56 52.6133 242.927 53.1C243.293 53.5867 243.477 54.2933 243.477 55.22C243.477 55.8467 243.39 56.3767 243.217 56.81C243.05 57.2367 242.813 57.56 242.507 57.78C242.207 57.9933 241.857 58.1 241.457 58.1C241.07 58.1 240.773 58.0333 240.567 57.9C240.36 57.76 240.187 57.6133 240.047 57.46H239.927L239.627 58H238.137V50.4H240.047V52.12ZM240.817 53.87C240.643 53.87 240.497 53.9133 240.377 54C240.263 54.08 240.18 54.2033 240.127 54.37C240.073 54.5367 240.047 54.7533 240.047 55.02V55.29C240.047 55.7167 240.103 56.0367 240.217 56.25C240.337 56.4567 240.543 56.56 240.837 56.56C241.063 56.56 241.237 56.4467 241.357 56.22C241.477 55.9867 241.537 55.6467 241.537 55.2C241.537 54.76 241.477 54.43 241.357 54.21C241.243 53.9833 241.063 53.87 240.817 53.87ZM247.052 52.37C247.592 52.37 248.056 52.4633 248.442 52.65C248.836 52.8367 249.136 53.1167 249.342 53.49C249.556 53.8633 249.662 54.3333 249.662 54.9V55.75H246.252C246.266 56.0367 246.372 56.2733 246.572 56.46C246.779 56.6467 247.076 56.74 247.462 56.74C247.809 56.74 248.126 56.7067 248.412 56.64C248.699 56.5733 248.996 56.4667 249.302 56.32V57.69C249.036 57.83 248.742 57.9333 248.422 58C248.109 58.0667 247.712 58.1 247.232 58.1C246.672 58.1 246.172 58.0033 245.732 57.81C245.299 57.61 244.956 57.3 244.702 56.88C244.449 56.46 244.322 55.9233 244.322 55.27C244.322 54.6033 244.436 54.0567 244.662 53.63C244.896 53.2033 245.216 52.8867 245.622 52.68C246.036 52.4733 246.512 52.37 247.052 52.37ZM247.122 53.67C246.896 53.67 246.706 53.74 246.552 53.88C246.406 54.02 246.319 54.2433 246.292 54.55H247.932C247.932 54.3833 247.899 54.2367 247.832 54.11C247.772 53.9767 247.682 53.87 247.562 53.79C247.442 53.71 247.296 53.67 247.122 53.67ZM254.084 52.37C254.191 52.37 254.301 52.3767 254.414 52.39C254.527 52.4033 254.611 52.4167 254.664 52.43L254.494 54.23C254.427 54.2167 254.344 54.2033 254.244 54.19C254.151 54.1767 254.017 54.17 253.844 54.17C253.724 54.17 253.594 54.1833 253.454 54.21C253.321 54.23 253.191 54.2767 253.064 54.35C252.944 54.4233 252.844 54.5333 252.764 54.68C252.691 54.8267 252.654 55.0267 252.654 55.28V58H250.744V52.47H252.164L252.464 53.35H252.554C252.654 53.17 252.784 53.0067 252.944 52.86C253.104 52.7067 253.281 52.5867 253.474 52.5C253.674 52.4133 253.877 52.37 254.084 52.37ZM263.309 55.22C263.309 55.68 263.246 56.09 263.119 56.45C262.992 56.81 262.809 57.1133 262.569 57.36C262.329 57.6 262.039 57.7833 261.699 57.91C261.359 58.0367 260.972 58.1 260.539 58.1C260.139 58.1 259.769 58.0367 259.429 57.91C259.096 57.7833 258.806 57.6 258.559 57.36C258.319 57.1133 258.129 56.81 257.989 56.45C257.856 56.09 257.789 55.68 257.789 55.22C257.789 54.6067 257.899 54.09 258.119 53.67C258.346 53.2433 258.666 52.92 259.079 52.7C259.492 52.48 259.989 52.37 260.569 52.37C261.102 52.37 261.572 52.48 261.979 52.7C262.392 52.92 262.716 53.2433 262.949 53.67C263.189 54.09 263.309 54.6067 263.309 55.22ZM259.729 55.22C259.729 55.5333 259.756 55.8 259.809 56.02C259.862 56.24 259.949 56.4067 260.069 56.52C260.196 56.6267 260.359 56.68 260.559 56.68C260.759 56.68 260.916 56.6267 261.029 56.52C261.149 56.4067 261.236 56.24 261.289 56.02C261.342 55.8 261.369 55.5333 261.369 55.22C261.369 54.9067 261.342 54.6433 261.289 54.43C261.236 54.2167 261.149 54.0567 261.029 53.95C260.909 53.8433 260.749 53.79 260.549 53.79C260.262 53.79 260.052 53.91 259.919 54.15C259.792 54.39 259.729 54.7467 259.729 55.22ZM267.776 53.9H266.596V58H264.686V53.9H263.956V52.96L264.726 52.49V52.4C264.726 51.92 264.79 51.53 264.916 51.23C265.043 50.93 265.243 50.71 265.516 50.57C265.796 50.4233 266.16 50.35 266.606 50.35C266.893 50.35 267.153 50.3733 267.386 50.42C267.62 50.46 267.863 50.5233 268.116 50.61L267.706 51.85C267.613 51.8233 267.506 51.8 267.386 51.78C267.273 51.76 267.15 51.75 267.016 51.75C266.87 51.75 266.763 51.7967 266.696 51.89C266.63 51.9767 266.596 52.12 266.596 52.32V52.47H267.776V53.9ZM197.36 66.37C198.06 66.37 198.607 66.5433 199 66.89C199.393 67.2367 199.59 67.73 199.59 68.37V72H198.27L197.9 71.27H197.86C197.707 71.4633 197.547 71.6233 197.38 71.75C197.22 71.87 197.033 71.9567 196.82 72.01C196.607 72.07 196.347 72.1 196.04 72.1C195.72 72.1 195.433 72.0367 195.18 71.91C194.927 71.7767 194.727 71.58 194.58 71.32C194.433 71.0533 194.36 70.7167 194.36 70.31C194.36 69.7167 194.563 69.2767 194.97 68.99C195.383 68.7033 195.98 68.5433 196.76 68.51L197.68 68.48V68.4C197.68 68.1533 197.62 67.98 197.5 67.88C197.38 67.7733 197.217 67.72 197.01 67.72C196.79 67.72 196.547 67.76 196.28 67.84C196.013 67.9133 195.743 68.01 195.47 68.13L194.92 66.87C195.24 66.7033 195.6 66.58 196 66.5C196.407 66.4133 196.86 66.37 197.36 66.37ZM197.25 69.55C196.903 69.5633 196.657 69.6267 196.51 69.74C196.37 69.8467 196.3 70 196.3 70.2C196.3 70.3867 196.35 70.5267 196.45 70.62C196.55 70.7067 196.683 70.75 196.85 70.75C197.083 70.75 197.28 70.6767 197.44 70.53C197.607 70.3833 197.69 70.1933 197.69 69.96V69.53L197.25 69.55ZM203.41 72.1C202.85 72.1 202.364 72 201.95 71.8C201.537 71.6 201.217 71.29 200.99 70.87C200.764 70.45 200.65 69.9133 200.65 69.26C200.65 68.5867 200.777 68.04 201.03 67.62C201.284 67.1933 201.627 66.88 202.06 66.68C202.5 66.4733 203 66.37 203.56 66.37C203.9 66.37 204.22 66.4067 204.52 66.48C204.827 66.5533 205.11 66.6567 205.37 66.79L204.81 68.2C204.584 68.1 204.37 68.02 204.17 67.96C203.977 67.9 203.774 67.87 203.56 67.87C203.367 67.87 203.197 67.92 203.05 68.02C202.904 68.12 202.79 68.2733 202.71 68.48C202.63 68.68 202.59 68.9367 202.59 69.25C202.59 69.57 202.63 69.8267 202.71 70.02C202.797 70.2133 202.914 70.3567 203.06 70.45C203.207 70.5367 203.377 70.58 203.57 70.58C203.844 70.58 204.117 70.5367 204.39 70.45C204.67 70.3633 204.934 70.2433 205.18 70.09V71.61C204.954 71.7567 204.697 71.8767 204.41 71.97C204.124 72.0567 203.79 72.1 203.41 72.1ZM208.801 72.1C208.241 72.1 207.754 72 207.341 71.8C206.928 71.6 206.608 71.29 206.381 70.87C206.154 70.45 206.041 69.9133 206.041 69.26C206.041 68.5867 206.168 68.04 206.421 67.62C206.674 67.1933 207.018 66.88 207.451 66.68C207.891 66.4733 208.391 66.37 208.951 66.37C209.291 66.37 209.611 66.4067 209.911 66.48C210.218 66.5533 210.501 66.6567 210.761 66.79L210.201 68.2C209.974 68.1 209.761 68.02 209.561 67.96C209.368 67.9 209.164 67.87 208.951 67.87C208.758 67.87 208.588 67.92 208.441 68.02C208.294 68.12 208.181 68.2733 208.101 68.48C208.021 68.68 207.981 68.9367 207.981 69.25C207.981 69.57 208.021 69.8267 208.101 70.02C208.188 70.2133 208.304 70.3567 208.451 70.45C208.598 70.5367 208.768 70.58 208.961 70.58C209.234 70.58 209.508 70.5367 209.781 70.45C210.061 70.3633 210.324 70.2433 210.571 70.09V71.61C210.344 71.7567 210.088 71.8767 209.801 71.97C209.514 72.0567 209.181 72.1 208.801 72.1ZM217.052 66.47V72H215.612L215.372 71.31H215.262C215.148 71.4967 215.002 71.65 214.822 71.77C214.648 71.8833 214.455 71.9667 214.242 72.02C214.035 72.0733 213.818 72.1 213.592 72.1C213.232 72.1 212.905 72.03 212.612 71.89C212.318 71.75 212.085 71.53 211.912 71.23C211.745 70.93 211.662 70.5433 211.662 70.07V66.47H213.572V69.49C213.572 69.85 213.622 70.1233 213.722 70.31C213.828 70.4967 213.998 70.59 214.232 70.59C214.472 70.59 214.658 70.5267 214.792 70.4C214.925 70.2667 215.015 70.0733 215.062 69.82C215.115 69.5667 215.142 69.2567 215.142 68.89V66.47H217.052ZM221.711 66.37C221.818 66.37 221.928 66.3767 222.041 66.39C222.154 66.4033 222.238 66.4167 222.291 66.43L222.121 68.23C222.054 68.2167 221.971 68.2033 221.871 68.19C221.778 68.1767 221.644 68.17 221.471 68.17C221.351 68.17 221.221 68.1833 221.081 68.21C220.948 68.23 220.818 68.2767 220.691 68.35C220.571 68.4233 220.471 68.5333 220.391 68.68C220.318 68.8267 220.281 69.0267 220.281 69.28V72H218.371V66.47H219.791L220.091 67.35H220.181C220.281 67.17 220.411 67.0067 220.571 66.86C220.731 66.7067 220.908 66.5867 221.101 66.5C221.301 66.4133 221.504 66.37 221.711 66.37ZM225.563 66.37C226.263 66.37 226.81 66.5433 227.203 66.89C227.596 67.2367 227.793 67.73 227.793 68.37V72H226.473L226.103 71.27H226.063C225.91 71.4633 225.75 71.6233 225.583 71.75C225.423 71.87 225.236 71.9567 225.023 72.01C224.81 72.07 224.55 72.1 224.243 72.1C223.923 72.1 223.636 72.0367 223.383 71.91C223.13 71.7767 222.93 71.58 222.783 71.32C222.636 71.0533 222.563 70.7167 222.563 70.31C222.563 69.7167 222.766 69.2767 223.173 68.99C223.586 68.7033 224.183 68.5433 224.963 68.51L225.883 68.48V68.4C225.883 68.1533 225.823 67.98 225.703 67.88C225.583 67.7733 225.42 67.72 225.213 67.72C224.993 67.72 224.75 67.76 224.483 67.84C224.216 67.9133 223.946 68.01 223.673 68.13L223.123 66.87C223.443 66.7033 223.803 66.58 224.203 66.5C224.61 66.4133 225.063 66.37 225.563 66.37ZM225.453 69.55C225.106 69.5633 224.86 69.6267 224.713 69.74C224.573 69.8467 224.503 70 224.503 70.2C224.503 70.3867 224.553 70.5267 224.653 70.62C224.753 70.7067 224.886 70.75 225.053 70.75C225.286 70.75 225.483 70.6767 225.643 70.53C225.81 70.3833 225.893 70.1933 225.893 69.96V69.53L225.453 69.55ZM231.804 70.59C231.977 70.59 232.134 70.5733 232.274 70.54C232.42 70.5 232.57 70.4533 232.724 70.4V71.79C232.517 71.8767 232.297 71.95 232.064 72.01C231.83 72.07 231.534 72.1 231.174 72.1C230.814 72.1 230.497 72.0433 230.224 71.93C229.957 71.8167 229.747 71.6233 229.594 71.35C229.44 71.07 229.364 70.68 229.364 70.18V67.9H228.694V67.12L229.544 66.52L230.034 65.36H231.284V66.47H232.644V67.9H231.284V70.05C231.284 70.23 231.327 70.3667 231.414 70.46C231.507 70.5467 231.637 70.59 231.804 70.59ZM236.183 66.37C236.723 66.37 237.187 66.4633 237.573 66.65C237.967 66.8367 238.267 67.1167 238.473 67.49C238.687 67.8633 238.793 68.3333 238.793 68.9V69.75H235.383C235.397 70.0367 235.503 70.2733 235.703 70.46C235.91 70.6467 236.207 70.74 236.593 70.74C236.94 70.74 237.257 70.7067 237.543 70.64C237.83 70.5733 238.127 70.4667 238.433 70.32V71.69C238.167 71.83 237.873 71.9333 237.553 72C237.24 72.0667 236.843 72.1 236.363 72.1C235.803 72.1 235.303 72.0033 234.863 71.81C234.43 71.61 234.087 71.3 233.833 70.88C233.58 70.46 233.453 69.9233 233.453 69.27C233.453 68.6033 233.567 68.0567 233.793 67.63C234.027 67.2033 234.347 66.8867 234.753 66.68C235.167 66.4733 235.643 66.37 236.183 66.37ZM236.253 67.67C236.027 67.67 235.837 67.74 235.683 67.88C235.537 68.02 235.45 68.2433 235.423 68.55H237.063C237.063 68.3833 237.03 68.2367 236.963 68.11C236.903 67.9767 236.813 67.87 236.693 67.79C236.573 67.71 236.427 67.67 236.253 67.67ZM246.583 70.3C246.583 70.6467 246.503 70.9567 246.343 71.23C246.189 71.5033 245.939 71.7167 245.593 71.87C245.253 72.0233 244.803 72.1 244.243 72.1C243.849 72.1 243.496 72.0767 243.183 72.03C242.876 71.99 242.563 71.91 242.243 71.79V70.26C242.596 70.42 242.953 70.5367 243.313 70.61C243.673 70.6767 243.956 70.71 244.163 70.71C244.376 70.71 244.533 70.6867 244.633 70.64C244.733 70.5933 244.783 70.5233 244.783 70.43C244.783 70.35 244.749 70.28 244.683 70.22C244.616 70.16 244.496 70.0933 244.323 70.02C244.156 69.9467 243.916 69.8467 243.603 69.72C243.296 69.5933 243.039 69.4567 242.833 69.31C242.633 69.1567 242.483 68.9767 242.383 68.77C242.283 68.5567 242.233 68.3 242.233 68C242.233 67.46 242.439 67.0533 242.853 66.78C243.273 66.5067 243.826 66.37 244.513 66.37C244.879 66.37 245.223 66.41 245.543 66.49C245.863 66.57 246.196 66.6867 246.543 66.84L246.023 68.07C245.843 67.9833 245.656 67.91 245.463 67.85C245.276 67.79 245.099 67.7433 244.933 67.71C244.773 67.6767 244.636 67.66 244.523 67.66C244.376 67.66 244.259 67.68 244.173 67.72C244.093 67.76 244.053 67.8167 244.053 67.89C244.053 67.9567 244.079 68.0167 244.133 68.07C244.193 68.1233 244.303 68.1833 244.463 68.25C244.623 68.3167 244.856 68.4133 245.163 68.54C245.483 68.6667 245.746 68.8067 245.953 68.96C246.166 69.1067 246.323 69.2867 246.423 69.5C246.529 69.7067 246.583 69.9733 246.583 70.3ZM253.019 66.47V72H251.579L251.339 71.31H251.229C251.115 71.4967 250.969 71.65 250.789 71.77C250.615 71.8833 250.422 71.9667 250.209 72.02C250.002 72.0733 249.785 72.1 249.559 72.1C249.199 72.1 248.872 72.03 248.579 71.89C248.285 71.75 248.052 71.53 247.879 71.23C247.712 70.93 247.629 70.5433 247.629 70.07V66.47H249.539V69.49C249.539 69.85 249.589 70.1233 249.689 70.31C249.795 70.4967 249.965 70.59 250.199 70.59C250.439 70.59 250.625 70.5267 250.759 70.4C250.892 70.2667 250.982 70.0733 251.029 69.82C251.082 69.5667 251.109 69.2567 251.109 68.89V66.47H253.019ZM261.088 66.37C261.721 66.37 262.204 66.53 262.538 66.85C262.871 67.17 263.038 67.6867 263.038 68.4V72H261.128V68.99C261.128 68.57 261.071 68.28 260.958 68.12C260.844 67.9533 260.678 67.87 260.458 67.87C260.151 67.87 259.938 68.0067 259.818 68.28C259.698 68.5467 259.638 68.9267 259.638 69.42V72H257.728V68.99C257.728 68.7233 257.704 68.51 257.658 68.35C257.611 68.1833 257.541 68.0633 257.448 67.99C257.354 67.91 257.234 67.87 257.088 67.87C256.868 67.87 256.694 67.9367 256.568 68.07C256.448 68.2033 256.364 68.3967 256.318 68.65C256.271 68.9033 256.248 69.2133 256.248 69.58V72H254.338V66.47H255.778L256.058 67.15H256.108C256.208 66.9967 256.334 66.8633 256.488 66.75C256.641 66.63 256.824 66.5367 257.038 66.47C257.251 66.4033 257.494 66.37 257.768 66.37C258.174 66.37 258.508 66.44 258.768 66.58C259.034 66.7133 259.251 66.9 259.418 67.14H259.478C259.651 66.8933 259.874 66.7033 260.148 66.57C260.428 66.4367 260.741 66.37 261.088 66.37ZM271.088 66.37C271.721 66.37 272.204 66.53 272.538 66.85C272.871 67.17 273.038 67.6867 273.038 68.4V72H271.128V68.99C271.128 68.57 271.071 68.28 270.958 68.12C270.844 67.9533 270.678 67.87 270.458 67.87C270.151 67.87 269.938 68.0067 269.818 68.28C269.698 68.5467 269.638 68.9267 269.638 69.42V72H267.728V68.99C267.728 68.7233 267.704 68.51 267.658 68.35C267.611 68.1833 267.541 68.0633 267.448 67.99C267.354 67.91 267.234 67.87 267.088 67.87C266.868 67.87 266.694 67.9367 266.568 68.07C266.448 68.2033 266.364 68.3967 266.318 68.65C266.271 68.9033 266.248 69.2133 266.248 69.58V72H264.338V66.47H265.778L266.058 67.15H266.108C266.208 66.9967 266.334 66.8633 266.488 66.75C266.641 66.63 266.824 66.5367 267.038 66.47C267.251 66.4033 267.494 66.37 267.768 66.37C268.174 66.37 268.508 66.44 268.768 66.58C269.034 66.7133 269.251 66.9 269.418 67.14H269.478C269.651 66.8933 269.874 66.7033 270.148 66.57C270.428 66.4367 270.741 66.37 271.088 66.37ZM277.038 66.37C277.738 66.37 278.284 66.5433 278.678 66.89C279.071 67.2367 279.268 67.73 279.268 68.37V72H277.948L277.578 71.27H277.538C277.384 71.4633 277.224 71.6233 277.058 71.75C276.898 71.87 276.711 71.9567 276.498 72.01C276.284 72.07 276.024 72.1 275.718 72.1C275.398 72.1 275.111 72.0367 274.858 71.91C274.604 71.7767 274.404 71.58 274.258 71.32C274.111 71.0533 274.038 70.7167 274.038 70.31C274.038 69.7167 274.241 69.2767 274.648 68.99C275.061 68.7033 275.658 68.5433 276.438 68.51L277.358 68.48V68.4C277.358 68.1533 277.298 67.98 277.178 67.88C277.058 67.7733 276.894 67.72 276.688 67.72C276.468 67.72 276.224 67.76 275.958 67.84C275.691 67.9133 275.421 68.01 275.148 68.13L274.598 66.87C274.918 66.7033 275.278 66.58 275.678 66.5C276.084 66.4133 276.538 66.37 277.038 66.37ZM276.928 69.55C276.581 69.5633 276.334 69.6267 276.188 69.74C276.048 69.8467 275.978 70 275.978 70.2C275.978 70.3867 276.028 70.5267 276.128 70.62C276.228 70.7067 276.361 70.75 276.528 70.75C276.761 70.75 276.958 70.6767 277.118 70.53C277.284 70.3833 277.368 70.1933 277.368 69.96V69.53L276.928 69.55ZM283.908 66.37C284.015 66.37 284.125 66.3767 284.238 66.39C284.352 66.4033 284.435 66.4167 284.488 66.43L284.318 68.23C284.252 68.2167 284.168 68.2033 284.068 68.19C283.975 68.1767 283.842 68.17 283.668 68.17C283.548 68.17 283.418 68.1833 283.278 68.21C283.145 68.23 283.015 68.2767 282.888 68.35C282.768 68.4233 282.668 68.5333 282.588 68.68C282.515 68.8267 282.478 69.0267 282.478 69.28V72H280.568V66.47H281.988L282.288 67.35H282.378C282.478 67.17 282.608 67.0067 282.768 66.86C282.928 66.7067 283.105 66.5867 283.298 66.5C283.498 66.4133 283.702 66.37 283.908 66.37ZM287.176 66.47V72H285.266V66.47H287.176ZM286.226 64.24C286.499 64.24 286.736 64.2967 286.936 64.41C287.142 64.5233 287.246 64.75 287.246 65.09C287.246 65.4167 287.142 65.64 286.936 65.76C286.736 65.8733 286.499 65.93 286.226 65.93C285.946 65.93 285.706 65.8733 285.506 65.76C285.312 65.64 285.216 65.4167 285.216 65.09C285.216 64.75 285.312 64.5233 285.506 64.41C285.706 64.2967 285.946 64.24 286.226 64.24ZM290.998 66.37C291.538 66.37 292.001 66.4633 292.388 66.65C292.781 66.8367 293.081 67.1167 293.288 67.49C293.501 67.8633 293.608 68.3333 293.608 68.9V69.75H290.198C290.211 70.0367 290.318 70.2733 290.518 70.46C290.724 70.6467 291.021 70.74 291.408 70.74C291.754 70.74 292.071 70.7067 292.358 70.64C292.644 70.5733 292.941 70.4667 293.248 70.32V71.69C292.981 71.83 292.688 71.9333 292.368 72C292.054 72.0667 291.658 72.1 291.178 72.1C290.618 72.1 290.118 72.0033 289.678 71.81C289.244 71.61 288.901 71.3 288.648 70.88C288.394 70.46 288.268 69.9233 288.268 69.27C288.268 68.6033 288.381 68.0567 288.608 67.63C288.841 67.2033 289.161 66.8867 289.568 66.68C289.981 66.4733 290.458 66.37 290.998 66.37ZM291.068 67.67C290.841 67.67 290.651 67.74 290.498 67.88C290.351 68.02 290.264 68.2433 290.238 68.55H291.878C291.878 68.3833 291.844 68.2367 291.778 68.11C291.718 67.9767 291.628 67.87 291.508 67.79C291.388 67.71 291.241 67.67 291.068 67.67ZM298.799 70.3C298.799 70.6467 298.719 70.9567 298.559 71.23C298.406 71.5033 298.156 71.7167 297.809 71.87C297.469 72.0233 297.019 72.1 296.459 72.1C296.066 72.1 295.713 72.0767 295.399 72.03C295.093 71.99 294.779 71.91 294.459 71.79V70.26C294.813 70.42 295.169 70.5367 295.529 70.61C295.889 70.6767 296.173 70.71 296.379 70.71C296.593 70.71 296.749 70.6867 296.849 70.64C296.949 70.5933 296.999 70.5233 296.999 70.43C296.999 70.35 296.966 70.28 296.899 70.22C296.833 70.16 296.713 70.0933 296.539 70.02C296.373 69.9467 296.133 69.8467 295.819 69.72C295.513 69.5933 295.256 69.4567 295.049 69.31C294.849 69.1567 294.699 68.9767 294.599 68.77C294.499 68.5567 294.449 68.3 294.449 68C294.449 67.46 294.656 67.0533 295.069 66.78C295.489 66.5067 296.043 66.37 296.729 66.37C297.096 66.37 297.439 66.41 297.759 66.49C298.079 66.57 298.413 66.6867 298.759 66.84L298.239 68.07C298.059 67.9833 297.873 67.91 297.679 67.85C297.493 67.79 297.316 67.7433 297.149 67.71C296.989 67.6767 296.853 67.66 296.739 67.66C296.593 67.66 296.476 67.68 296.389 67.72C296.309 67.76 296.269 67.8167 296.269 67.89C296.269 67.9567 296.296 68.0167 296.349 68.07C296.409 68.1233 296.519 68.1833 296.679 68.25C296.839 68.3167 297.073 68.4133 297.379 68.54C297.699 68.6667 297.963 68.8067 298.169 68.96C298.383 69.1067 298.539 69.2867 298.639 69.5C298.746 69.7067 298.799 69.9733 298.799 70.3ZM198.04 80.37C198.653 80.37 199.133 80.6167 199.48 81.11C199.827 81.5967 200 82.3 200 83.22C200 83.8467 199.91 84.3767 199.73 84.81C199.557 85.2367 199.317 85.56 199.01 85.78C198.71 85.9933 198.367 86.1 197.98 86.1C197.72 86.1 197.5 86.0667 197.32 86C197.14 85.9333 196.99 85.8533 196.87 85.76C196.75 85.66 196.65 85.56 196.57 85.46H196.51C196.523 85.5867 196.537 85.7233 196.55 85.87C196.563 86.0167 196.57 86.1867 196.57 86.38V88.4H194.66V80.47H196.21L196.48 81.17H196.57C196.663 81.0233 196.773 80.89 196.9 80.77C197.033 80.65 197.193 80.5533 197.38 80.48C197.567 80.4067 197.787 80.37 198.04 80.37ZM197.32 81.87C197.133 81.87 196.987 81.9167 196.88 82.01C196.773 82.0967 196.697 82.2267 196.65 82.4C196.603 82.5733 196.577 82.7933 196.57 83.06V83.21C196.57 83.5033 196.59 83.75 196.63 83.95C196.677 84.15 196.757 84.3033 196.87 84.41C196.983 84.51 197.137 84.56 197.33 84.56C197.49 84.56 197.623 84.5167 197.73 84.43C197.843 84.3367 197.927 84.19 197.98 83.99C198.033 83.79 198.06 83.5267 198.06 83.2C198.06 82.7133 197.997 82.37 197.87 82.17C197.743 81.97 197.56 81.87 197.32 81.87ZM204.426 80.37C204.532 80.37 204.642 80.3767 204.756 80.39C204.869 80.4033 204.952 80.4167 205.006 80.43L204.836 82.23C204.769 82.2167 204.686 82.2033 204.586 82.19C204.492 82.1767 204.359 82.17 204.186 82.17C204.066 82.17 203.936 82.1833 203.796 82.21C203.662 82.23 203.532 82.2767 203.406 82.35C203.286 82.4233 203.186 82.5333 203.106 82.68C203.032 82.8267 202.996 83.0267 202.996 83.28V86H201.086V80.47H202.506L202.806 81.35H202.896C202.996 81.17 203.126 81.0067 203.286 80.86C203.446 80.7067 203.622 80.5867 203.816 80.5C204.016 80.4133 204.219 80.37 204.426 80.37ZM210.858 83.22C210.858 83.68 210.795 84.09 210.668 84.45C210.541 84.81 210.358 85.1133 210.118 85.36C209.878 85.6 209.588 85.7833 209.248 85.91C208.908 86.0367 208.521 86.1 208.088 86.1C207.688 86.1 207.318 86.0367 206.978 85.91C206.645 85.7833 206.355 85.6 206.108 85.36C205.868 85.1133 205.678 84.81 205.538 84.45C205.405 84.09 205.338 83.68 205.338 83.22C205.338 82.6067 205.448 82.09 205.668 81.67C205.895 81.2433 206.215 80.92 206.628 80.7C207.041 80.48 207.538 80.37 208.118 80.37C208.651 80.37 209.121 80.48 209.528 80.7C209.941 80.92 210.265 81.2433 210.498 81.67C210.738 82.09 210.858 82.6067 210.858 83.22ZM207.278 83.22C207.278 83.5333 207.305 83.8 207.358 84.02C207.411 84.24 207.498 84.4067 207.618 84.52C207.745 84.6267 207.908 84.68 208.108 84.68C208.308 84.68 208.465 84.6267 208.578 84.52C208.698 84.4067 208.785 84.24 208.838 84.02C208.891 83.8 208.918 83.5333 208.918 83.22C208.918 82.9067 208.891 82.6433 208.838 82.43C208.785 82.2167 208.698 82.0567 208.578 81.95C208.458 81.8433 208.298 81.79 208.098 81.79C207.811 81.79 207.601 81.91 207.468 82.15C207.341 82.39 207.278 82.7467 207.278 83.22ZM213.665 86.1C213.098 86.1 212.628 85.8567 212.255 85.37C211.888 84.8833 211.705 84.1733 211.705 83.24C211.705 82.2933 211.892 81.58 212.265 81.1C212.645 80.6133 213.135 80.37 213.735 80.37C213.982 80.37 214.195 80.4067 214.375 80.48C214.555 80.5467 214.712 80.6433 214.845 80.77C214.978 80.89 215.092 81.0267 215.185 81.18H215.225C215.198 81.04 215.175 80.8467 215.155 80.6C215.142 80.3533 215.135 80.1133 215.135 79.88V78.4H217.055V86H215.615L215.205 85.3H215.135C215.048 85.4467 214.938 85.58 214.805 85.7C214.672 85.82 214.512 85.9167 214.325 85.99C214.138 86.0633 213.918 86.1 213.665 86.1ZM214.445 84.59C214.752 84.59 214.968 84.4933 215.095 84.3C215.222 84.1067 215.288 83.81 215.295 83.41V83.26C215.295 82.8267 215.232 82.4933 215.105 82.26C214.985 82.0267 214.758 81.91 214.425 81.91C214.198 81.91 214.008 82.02 213.855 82.24C213.708 82.46 213.635 82.8033 213.635 83.27C213.635 83.73 213.708 84.0667 213.855 84.28C214.008 84.4867 214.205 84.59 214.445 84.59ZM223.751 80.47V86H222.311L222.071 85.31H221.961C221.848 85.4967 221.701 85.65 221.521 85.77C221.348 85.8833 221.154 85.9667 220.941 86.02C220.734 86.0733 220.518 86.1 220.291 86.1C219.931 86.1 219.604 86.03 219.311 85.89C219.018 85.75 218.784 85.53 218.611 85.23C218.444 84.93 218.361 84.5433 218.361 84.07V80.47H220.271V83.49C220.271 83.85 220.321 84.1233 220.421 84.31C220.528 84.4967 220.698 84.59 220.931 84.59C221.171 84.59 221.358 84.5267 221.491 84.4C221.624 84.2667 221.714 84.0733 221.761 83.82C221.814 83.5667 221.841 83.2567 221.841 82.89V80.47H223.751ZM227.59 86.1C227.03 86.1 226.543 86 226.13 85.8C225.717 85.6 225.397 85.29 225.17 84.87C224.943 84.45 224.83 83.9133 224.83 83.26C224.83 82.5867 224.957 82.04 225.21 81.62C225.463 81.1933 225.807 80.88 226.24 80.68C226.68 80.4733 227.18 80.37 227.74 80.37C228.08 80.37 228.4 80.4067 228.7 80.48C229.007 80.5533 229.29 80.6567 229.55 80.79L228.99 82.2C228.763 82.1 228.55 82.02 228.35 81.96C228.157 81.9 227.953 81.87 227.74 81.87C227.547 81.87 227.377 81.92 227.23 82.02C227.083 82.12 226.97 82.2733 226.89 82.48C226.81 82.68 226.77 82.9367 226.77 83.25C226.77 83.57 226.81 83.8267 226.89 84.02C226.977 84.2133 227.093 84.3567 227.24 84.45C227.387 84.5367 227.557 84.58 227.75 84.58C228.023 84.58 228.297 84.5367 228.57 84.45C228.85 84.3633 229.113 84.2433 229.36 84.09V85.61C229.133 85.7567 228.877 85.8767 228.59 85.97C228.303 86.0567 227.97 86.1 227.59 86.1ZM232.951 80.37C233.491 80.37 233.954 80.4633 234.341 80.65C234.734 80.8367 235.034 81.1167 235.241 81.49C235.454 81.8633 235.561 82.3333 235.561 82.9V83.75H232.151C232.164 84.0367 232.271 84.2733 232.471 84.46C232.677 84.6467 232.974 84.74 233.361 84.74C233.707 84.74 234.024 84.7067 234.311 84.64C234.597 84.5733 234.894 84.4667 235.201 84.32V85.69C234.934 85.83 234.641 85.9333 234.321 86C234.007 86.0667 233.611 86.1 233.131 86.1C232.571 86.1 232.071 86.0033 231.631 85.81C231.197 85.61 230.854 85.3 230.601 84.88C230.347 84.46 230.221 83.9233 230.221 83.27C230.221 82.6033 230.334 82.0567 230.561 81.63C230.794 81.2033 231.114 80.8867 231.521 80.68C231.934 80.4733 232.411 80.37 232.951 80.37ZM233.021 81.67C232.794 81.67 232.604 81.74 232.451 81.88C232.304 82.02 232.217 82.2433 232.191 82.55H233.831C233.831 82.3833 233.797 82.2367 233.731 82.11C233.671 81.9767 233.581 81.87 233.461 81.79C233.341 81.71 233.194 81.67 233.021 81.67ZM238.362 86.1C237.796 86.1 237.326 85.8567 236.952 85.37C236.586 84.8833 236.402 84.1733 236.402 83.24C236.402 82.2933 236.589 81.58 236.962 81.1C237.342 80.6133 237.832 80.37 238.432 80.37C238.679 80.37 238.892 80.4067 239.072 80.48C239.252 80.5467 239.409 80.6433 239.542 80.77C239.676 80.89 239.789 81.0267 239.882 81.18H239.922C239.896 81.04 239.872 80.8467 239.852 80.6C239.839 80.3533 239.832 80.1133 239.832 79.88V78.4H241.752V86H240.312L239.902 85.3H239.832C239.746 85.4467 239.636 85.58 239.502 85.7C239.369 85.82 239.209 85.9167 239.022 85.99C238.836 86.0633 238.616 86.1 238.362 86.1ZM239.142 84.59C239.449 84.59 239.666 84.4933 239.792 84.3C239.919 84.1067 239.986 83.81 239.992 83.41V83.26C239.992 82.8267 239.929 82.4933 239.802 82.26C239.682 82.0267 239.456 81.91 239.122 81.91C238.896 81.91 238.706 82.02 238.552 82.24C238.406 82.46 238.332 82.8033 238.332 83.27C238.332 83.73 238.406 84.0667 238.552 84.28C238.706 84.4867 238.902 84.59 239.142 84.59ZM247.576 80.12C247.576 80.3133 247.569 80.5 247.556 80.68C247.543 80.86 247.526 81.0267 247.506 81.18H247.576C247.716 80.9533 247.903 80.7633 248.136 80.61C248.369 80.45 248.673 80.37 249.046 80.37C249.619 80.37 250.089 80.6133 250.456 81.1C250.823 81.5867 251.006 82.2933 251.006 83.22C251.006 83.8467 250.919 84.3767 250.746 84.81C250.579 85.2367 250.343 85.56 250.036 85.78C249.736 85.9933 249.386 86.1 248.986 86.1C248.599 86.1 248.303 86.0333 248.096 85.9C247.889 85.76 247.716 85.6133 247.576 85.46H247.456L247.156 86H245.666V78.4H247.576V80.12ZM248.346 81.87C248.173 81.87 248.026 81.9133 247.906 82C247.793 82.08 247.709 82.2033 247.656 82.37C247.603 82.5367 247.576 82.7533 247.576 83.02V83.29C247.576 83.7167 247.633 84.0367 247.746 84.25C247.866 84.4567 248.073 84.56 248.366 84.56C248.593 84.56 248.766 84.4467 248.886 84.22C249.006 83.9867 249.066 83.6467 249.066 83.2C249.066 82.76 249.006 82.43 248.886 82.21C248.773 81.9833 248.593 81.87 248.346 81.87ZM251.226 80.47H253.236L254.176 83.64C254.19 83.6867 254.203 83.7433 254.216 83.81C254.23 83.8767 254.24 83.9467 254.246 84.02C254.26 84.0933 254.266 84.1667 254.266 84.24H254.306C254.32 84.1067 254.336 83.9933 254.356 83.9C254.383 83.8 254.406 83.7167 254.426 83.65L255.386 80.47H257.336L255.146 86.35C254.98 86.7967 254.783 87.1733 254.556 87.48C254.336 87.7867 254.063 88.0167 253.736 88.17C253.41 88.3233 253.003 88.4 252.516 88.4C252.343 88.4 252.193 88.39 252.066 88.37C251.94 88.3567 251.83 88.34 251.736 88.32V86.82C251.81 86.8333 251.896 86.8467 251.996 86.86C252.103 86.8733 252.213 86.88 252.326 86.88C252.54 86.88 252.71 86.8367 252.836 86.75C252.97 86.6633 253.08 86.55 253.166 86.41C253.253 86.2767 253.326 86.13 253.386 85.97L253.406 85.92L251.226 80.47ZM263.308 84.59C263.481 84.59 263.638 84.5733 263.778 84.54C263.924 84.5 264.074 84.4533 264.228 84.4V85.79C264.021 85.8767 263.801 85.95 263.568 86.01C263.334 86.07 263.038 86.1 262.678 86.1C262.318 86.1 262.001 86.0433 261.728 85.93C261.461 85.8167 261.251 85.6233 261.098 85.35C260.944 85.07 260.868 84.68 260.868 84.18V81.9H260.198V81.12L261.048 80.52L261.538 79.36H262.788V80.47H264.148V81.9H262.788V84.05C262.788 84.23 262.831 84.3667 262.918 84.46C263.011 84.5467 263.141 84.59 263.308 84.59ZM267.107 79.48C267.107 79.8867 267.097 80.23 267.077 80.51C267.057 80.79 267.04 81.0033 267.027 81.15H267.117C267.237 80.9567 267.37 80.8033 267.517 80.69C267.67 80.5767 267.84 80.4967 268.027 80.45C268.214 80.3967 268.417 80.37 268.637 80.37C269.004 80.37 269.334 80.44 269.627 80.58C269.92 80.72 270.154 80.94 270.327 81.24C270.507 81.5333 270.597 81.92 270.597 82.4V86H268.677V82.98C268.677 82.6133 268.624 82.3367 268.517 82.15C268.41 81.9633 268.244 81.87 268.017 81.87C267.79 81.87 267.61 81.9367 267.477 82.07C267.344 82.2033 267.247 82.3967 267.187 82.65C267.134 82.8967 267.107 83.2033 267.107 83.57V86H265.197V78.4H267.107V79.48ZM274.386 80.37C274.926 80.37 275.39 80.4633 275.776 80.65C276.17 80.8367 276.47 81.1167 276.676 81.49C276.89 81.8633 276.996 82.3333 276.996 82.9V83.75H273.586C273.6 84.0367 273.706 84.2733 273.906 84.46C274.113 84.6467 274.41 84.74 274.796 84.74C275.143 84.74 275.46 84.7067 275.746 84.64C276.033 84.5733 276.33 84.4667 276.636 84.32V85.69C276.37 85.83 276.076 85.9333 275.756 86C275.443 86.0667 275.046 86.1 274.566 86.1C274.006 86.1 273.506 86.0033 273.066 85.81C272.633 85.61 272.29 85.3 272.036 84.88C271.783 84.46 271.656 83.9233 271.656 83.27C271.656 82.6033 271.77 82.0567 271.996 81.63C272.23 81.2033 272.55 80.8867 272.956 80.68C273.37 80.4733 273.846 80.37 274.386 80.37ZM274.456 81.67C274.23 81.67 274.04 81.74 273.886 81.88C273.74 82.02 273.653 82.2433 273.626 82.55H275.266C275.266 82.3833 275.233 82.2367 275.166 82.11C275.106 81.9767 275.016 81.87 274.896 81.79C274.776 81.71 274.63 81.67 274.456 81.67ZM284.016 80.37C284.122 80.37 284.232 80.3767 284.346 80.39C284.459 80.4033 284.542 80.4167 284.596 80.43L284.426 82.23C284.359 82.2167 284.276 82.2033 284.176 82.19C284.082 82.1767 283.949 82.17 283.776 82.17C283.656 82.17 283.526 82.1833 283.386 82.21C283.252 82.23 283.122 82.2767 282.996 82.35C282.876 82.4233 282.776 82.5333 282.696 82.68C282.622 82.8267 282.586 83.0267 282.586 83.28V86H280.676V80.47H282.096L282.396 81.35H282.486C282.586 81.17 282.716 81.0067 282.876 80.86C283.036 80.7067 283.212 80.5867 283.406 80.5C283.606 80.4133 283.809 80.37 284.016 80.37ZM290.448 83.22C290.448 83.68 290.384 84.09 290.258 84.45C290.131 84.81 289.948 85.1133 289.708 85.36C289.468 85.6 289.178 85.7833 288.838 85.91C288.498 86.0367 288.111 86.1 287.678 86.1C287.278 86.1 286.908 86.0367 286.568 85.91C286.234 85.7833 285.944 85.6 285.698 85.36C285.458 85.1133 285.268 84.81 285.128 84.45C284.994 84.09 284.928 83.68 284.928 83.22C284.928 82.6067 285.038 82.09 285.258 81.67C285.484 81.2433 285.804 80.92 286.218 80.7C286.631 80.48 287.128 80.37 287.708 80.37C288.241 80.37 288.711 80.48 289.118 80.7C289.531 80.92 289.854 81.2433 290.088 81.67C290.328 82.09 290.448 82.6067 290.448 83.22ZM286.868 83.22C286.868 83.5333 286.894 83.8 286.948 84.02C287.001 84.24 287.088 84.4067 287.208 84.52C287.334 84.6267 287.498 84.68 287.698 84.68C287.898 84.68 288.054 84.6267 288.168 84.52C288.288 84.4067 288.374 84.24 288.428 84.02C288.481 83.8 288.508 83.5333 288.508 83.22C288.508 82.9067 288.481 82.6433 288.428 82.43C288.374 82.2167 288.288 82.0567 288.168 81.95C288.048 81.8433 287.888 81.79 287.688 81.79C287.401 81.79 287.191 81.91 287.058 82.15C286.931 82.39 286.868 82.7467 286.868 83.22ZM296.815 83.22C296.815 83.68 296.752 84.09 296.625 84.45C296.498 84.81 296.315 85.1133 296.075 85.36C295.835 85.6 295.545 85.7833 295.205 85.91C294.865 86.0367 294.478 86.1 294.045 86.1C293.645 86.1 293.275 86.0367 292.935 85.91C292.602 85.7833 292.312 85.6 292.065 85.36C291.825 85.1133 291.635 84.81 291.495 84.45C291.362 84.09 291.295 83.68 291.295 83.22C291.295 82.6067 291.405 82.09 291.625 81.67C291.852 81.2433 292.172 80.92 292.585 80.7C292.998 80.48 293.495 80.37 294.075 80.37C294.608 80.37 295.078 80.48 295.485 80.7C295.898 80.92 296.222 81.2433 296.455 81.67C296.695 82.09 296.815 82.6067 296.815 83.22ZM293.235 83.22C293.235 83.5333 293.262 83.8 293.315 84.02C293.368 84.24 293.455 84.4067 293.575 84.52C293.702 84.6267 293.865 84.68 294.065 84.68C294.265 84.68 294.422 84.6267 294.535 84.52C294.655 84.4067 294.742 84.24 294.795 84.02C294.848 83.8 294.875 83.5333 294.875 83.22C294.875 82.9067 294.848 82.6433 294.795 82.43C294.742 82.2167 294.655 82.0567 294.535 81.95C294.415 81.8433 294.255 81.79 294.055 81.79C293.768 81.79 293.558 81.91 293.425 82.15C293.298 82.39 293.235 82.7467 293.235 83.22ZM304.652 80.37C305.286 80.37 305.769 80.53 306.102 80.85C306.436 81.17 306.602 81.6867 306.602 82.4V86H304.692V82.99C304.692 82.57 304.636 82.28 304.522 82.12C304.409 81.9533 304.242 81.87 304.022 81.87C303.716 81.87 303.502 82.0067 303.382 82.28C303.262 82.5467 303.202 82.9267 303.202 83.42V86H301.292V82.99C301.292 82.7233 301.269 82.51 301.222 82.35C301.176 82.1833 301.106 82.0633 301.012 81.99C300.919 81.91 300.799 81.87 300.652 81.87C300.432 81.87 300.259 81.9367 300.132 82.07C300.012 82.2033 299.929 82.3967 299.882 82.65C299.836 82.9033 299.812 83.2133 299.812 83.58V86H297.902V80.47H299.342L299.622 81.15H299.672C299.772 80.9967 299.899 80.8633 300.052 80.75C300.206 80.63 300.389 80.5367 300.602 80.47C300.816 80.4033 301.059 80.37 301.332 80.37C301.739 80.37 302.072 80.44 302.332 80.58C302.599 80.7133 302.816 80.9 302.982 81.14H303.042C303.216 80.8933 303.439 80.7033 303.712 80.57C303.992 80.4367 304.306 80.37 304.652 80.37Z" fill="black"/>
<path d="M455.37 56.59C455.543 56.59 455.7 56.5733 455.84 56.54C455.987 56.5 456.137 56.4533 456.29 56.4V57.79C456.083 57.8767 455.863 57.95 455.63 58.01C455.397 58.07 455.1 58.1 454.74 58.1C454.38 58.1 454.063 58.0433 453.79 57.93C453.523 57.8167 453.313 57.6233 453.16 57.35C453.007 57.07 452.93 56.68 452.93 56.18V53.9H452.26V53.12L453.11 52.52L453.6 51.36H454.85V52.47H456.21V53.9H454.85V56.05C454.85 56.23 454.893 56.3667 454.98 56.46C455.073 56.5467 455.203 56.59 455.37 56.59ZM459.17 51.48C459.17 51.8867 459.16 52.23 459.14 52.51C459.12 52.79 459.103 53.0033 459.09 53.15H459.18C459.3 52.9567 459.433 52.8033 459.58 52.69C459.733 52.5767 459.903 52.4967 460.09 52.45C460.276 52.3967 460.48 52.37 460.7 52.37C461.066 52.37 461.396 52.44 461.69 52.58C461.983 52.72 462.216 52.94 462.39 53.24C462.57 53.5333 462.66 53.92 462.66 54.4V58H460.74V54.98C460.74 54.6133 460.686 54.3367 460.58 54.15C460.473 53.9633 460.306 53.87 460.08 53.87C459.853 53.87 459.673 53.9367 459.54 54.07C459.406 54.2033 459.31 54.3967 459.25 54.65C459.196 54.8967 459.17 55.2033 459.17 55.57V58H457.26V50.4H459.17V51.48ZM466.449 52.37C466.989 52.37 467.452 52.4633 467.839 52.65C468.232 52.8367 468.532 53.1167 468.739 53.49C468.952 53.8633 469.059 54.3333 469.059 54.9V55.75H465.649C465.662 56.0367 465.769 56.2733 465.969 56.46C466.175 56.6467 466.472 56.74 466.859 56.74C467.205 56.74 467.522 56.7067 467.809 56.64C468.095 56.5733 468.392 56.4667 468.699 56.32V57.69C468.432 57.83 468.139 57.9333 467.819 58C467.505 58.0667 467.109 58.1 466.629 58.1C466.069 58.1 465.569 58.0033 465.129 57.81C464.695 57.61 464.352 57.3 464.099 56.88C463.845 56.46 463.719 55.9233 463.719 55.27C463.719 54.6033 463.832 54.0567 464.059 53.63C464.292 53.2033 464.612 52.8867 465.019 52.68C465.432 52.4733 465.909 52.37 466.449 52.37ZM466.519 53.67C466.292 53.67 466.102 53.74 465.949 53.88C465.802 54.02 465.715 54.2433 465.689 54.55H467.329C467.329 54.3833 467.295 54.2367 467.229 54.11C467.169 53.9767 467.079 53.87 466.959 53.79C466.839 53.71 466.692 53.67 466.519 53.67ZM476.198 52.37C476.771 52.37 477.238 52.53 477.598 52.85C477.958 53.17 478.138 53.6867 478.138 54.4V58H476.228V54.98C476.228 54.6133 476.175 54.3367 476.068 54.15C475.961 53.9633 475.791 53.87 475.558 53.87C475.198 53.87 474.955 54.0167 474.828 54.31C474.708 54.6033 474.648 55.0267 474.648 55.58V58H472.738V52.47H474.178L474.438 53.2H474.508C474.628 53.0267 474.768 52.88 474.928 52.76C475.095 52.6333 475.281 52.5367 475.488 52.47C475.701 52.4033 475.938 52.37 476.198 52.37ZM484.817 52.47V58H483.377L483.137 57.31H483.027C482.914 57.4967 482.767 57.65 482.587 57.77C482.414 57.8833 482.221 57.9667 482.007 58.02C481.801 58.0733 481.584 58.1 481.357 58.1C480.997 58.1 480.671 58.03 480.377 57.89C480.084 57.75 479.851 57.53 479.677 57.23C479.511 56.93 479.427 56.5433 479.427 56.07V52.47H481.337V55.49C481.337 55.85 481.387 56.1233 481.487 56.31C481.594 56.4967 481.764 56.59 481.997 56.59C482.237 56.59 482.424 56.5267 482.557 56.4C482.691 56.2667 482.781 56.0733 482.827 55.82C482.881 55.5667 482.907 55.2567 482.907 54.89V52.47H484.817ZM492.887 52.37C493.52 52.37 494.003 52.53 494.337 52.85C494.67 53.17 494.837 53.6867 494.837 54.4V58H492.927V54.99C492.927 54.57 492.87 54.28 492.757 54.12C492.643 53.9533 492.477 53.87 492.257 53.87C491.95 53.87 491.737 54.0067 491.617 54.28C491.497 54.5467 491.437 54.9267 491.437 55.42V58H489.527V54.99C489.527 54.7233 489.503 54.51 489.457 54.35C489.41 54.1833 489.34 54.0633 489.247 53.99C489.153 53.91 489.033 53.87 488.887 53.87C488.667 53.87 488.493 53.9367 488.367 54.07C488.247 54.2033 488.163 54.3967 488.117 54.65C488.07 54.9033 488.047 55.2133 488.047 55.58V58H486.137V52.47H487.577L487.857 53.15H487.907C488.007 52.9967 488.133 52.8633 488.287 52.75C488.44 52.63 488.623 52.5367 488.837 52.47C489.05 52.4033 489.293 52.37 489.567 52.37C489.973 52.37 490.307 52.44 490.567 52.58C490.833 52.7133 491.05 52.9 491.217 53.14H491.277C491.45 52.8933 491.673 52.7033 491.947 52.57C492.227 52.4367 492.54 52.37 492.887 52.37ZM498.047 52.12C498.047 52.3133 498.04 52.5 498.027 52.68C498.013 52.86 497.997 53.0267 497.977 53.18H498.047C498.187 52.9533 498.373 52.7633 498.607 52.61C498.84 52.45 499.143 52.37 499.517 52.37C500.09 52.37 500.56 52.6133 500.927 53.1C501.293 53.5867 501.477 54.2933 501.477 55.22C501.477 55.8467 501.39 56.3767 501.217 56.81C501.05 57.2367 500.813 57.56 500.507 57.78C500.207 57.9933 499.857 58.1 499.457 58.1C499.07 58.1 498.773 58.0333 498.567 57.9C498.36 57.76 498.187 57.6133 498.047 57.46H497.927L497.627 58H496.137V50.4H498.047V52.12ZM498.817 53.87C498.643 53.87 498.497 53.9133 498.377 54C498.263 54.08 498.18 54.2033 498.127 54.37C498.073 54.5367 498.047 54.7533 498.047 55.02V55.29C498.047 55.7167 498.103 56.0367 498.217 56.25C498.337 56.4567 498.543 56.56 498.837 56.56C499.063 56.56 499.237 56.4467 499.357 56.22C499.477 55.9867 499.537 55.6467 499.537 55.2C499.537 54.76 499.477 54.43 499.357 54.21C499.243 53.9833 499.063 53.87 498.817 53.87ZM505.052 52.37C505.592 52.37 506.056 52.4633 506.442 52.65C506.836 52.8367 507.136 53.1167 507.342 53.49C507.556 53.8633 507.662 54.3333 507.662 54.9V55.75H504.252C504.266 56.0367 504.372 56.2733 504.572 56.46C504.779 56.6467 505.076 56.74 505.462 56.74C505.809 56.74 506.126 56.7067 506.412 56.64C506.699 56.5733 506.996 56.4667 507.302 56.32V57.69C507.036 57.83 506.742 57.9333 506.422 58C506.109 58.0667 505.712 58.1 505.232 58.1C504.672 58.1 504.172 58.0033 503.732 57.81C503.299 57.61 502.956 57.3 502.702 56.88C502.449 56.46 502.322 55.9233 502.322 55.27C502.322 54.6033 502.436 54.0567 502.662 53.63C502.896 53.2033 503.216 52.8867 503.622 52.68C504.036 52.4733 504.512 52.37 505.052 52.37ZM505.122 53.67C504.896 53.67 504.706 53.74 504.552 53.88C504.406 54.02 504.319 54.2433 504.292 54.55H505.932C505.932 54.3833 505.899 54.2367 505.832 54.11C505.772 53.9767 505.682 53.87 505.562 53.79C505.442 53.71 505.296 53.67 505.122 53.67ZM512.084 52.37C512.191 52.37 512.301 52.3767 512.414 52.39C512.527 52.4033 512.611 52.4167 512.664 52.43L512.494 54.23C512.427 54.2167 512.344 54.2033 512.244 54.19C512.151 54.1767 512.017 54.17 511.844 54.17C511.724 54.17 511.594 54.1833 511.454 54.21C511.321 54.23 511.191 54.2767 511.064 54.35C510.944 54.4233 510.844 54.5333 510.764 54.68C510.691 54.8267 510.654 55.0267 510.654 55.28V58H508.744V52.47H510.164L510.464 53.35H510.554C510.654 53.17 510.784 53.0067 510.944 52.86C511.104 52.7067 511.281 52.5867 511.474 52.5C511.674 52.4133 511.877 52.37 512.084 52.37ZM521.309 55.22C521.309 55.68 521.246 56.09 521.119 56.45C520.992 56.81 520.809 57.1133 520.569 57.36C520.329 57.6 520.039 57.7833 519.699 57.91C519.359 58.0367 518.972 58.1 518.539 58.1C518.139 58.1 517.769 58.0367 517.429 57.91C517.096 57.7833 516.806 57.6 516.559 57.36C516.319 57.1133 516.129 56.81 515.989 56.45C515.856 56.09 515.789 55.68 515.789 55.22C515.789 54.6067 515.899 54.09 516.119 53.67C516.346 53.2433 516.666 52.92 517.079 52.7C517.492 52.48 517.989 52.37 518.569 52.37C519.102 52.37 519.572 52.48 519.979 52.7C520.392 52.92 520.716 53.2433 520.949 53.67C521.189 54.09 521.309 54.6067 521.309 55.22ZM517.729 55.22C517.729 55.5333 517.756 55.8 517.809 56.02C517.862 56.24 517.949 56.4067 518.069 56.52C518.196 56.6267 518.359 56.68 518.559 56.68C518.759 56.68 518.916 56.6267 519.029 56.52C519.149 56.4067 519.236 56.24 519.289 56.02C519.342 55.8 519.369 55.5333 519.369 55.22C519.369 54.9067 519.342 54.6433 519.289 54.43C519.236 54.2167 519.149 54.0567 519.029 53.95C518.909 53.8433 518.749 53.79 518.549 53.79C518.262 53.79 518.052 53.91 517.919 54.15C517.792 54.39 517.729 54.7467 517.729 55.22ZM525.776 53.9H524.596V58H522.686V53.9H521.956V52.96L522.726 52.49V52.4C522.726 51.92 522.79 51.53 522.916 51.23C523.043 50.93 523.243 50.71 523.516 50.57C523.796 50.4233 524.16 50.35 524.606 50.35C524.893 50.35 525.153 50.3733 525.386 50.42C525.62 50.46 525.863 50.5233 526.116 50.61L525.706 51.85C525.613 51.8233 525.506 51.8 525.386 51.78C525.273 51.76 525.15 51.75 525.016 51.75C524.87 51.75 524.763 51.7967 524.696 51.89C524.63 51.9767 524.596 52.12 524.596 52.32V52.47H525.776V53.9ZM456.04 66.37C456.653 66.37 457.133 66.6167 457.48 67.11C457.827 67.5967 458 68.3 458 69.22C458 69.8467 457.91 70.3767 457.73 70.81C457.557 71.2367 457.317 71.56 457.01 71.78C456.71 71.9933 456.367 72.1 455.98 72.1C455.72 72.1 455.5 72.0667 455.32 72C455.14 71.9333 454.99 71.8533 454.87 71.76C454.75 71.66 454.65 71.56 454.57 71.46H454.51C454.523 71.5867 454.537 71.7233 454.55 71.87C454.563 72.0167 454.57 72.1867 454.57 72.38V74.4H452.66V66.47H454.21L454.48 67.17H454.57C454.663 67.0233 454.773 66.89 454.9 66.77C455.033 66.65 455.193 66.5533 455.38 66.48C455.567 66.4067 455.787 66.37 456.04 66.37ZM455.32 67.87C455.133 67.87 454.987 67.9167 454.88 68.01C454.773 68.0967 454.697 68.2267 454.65 68.4C454.603 68.5733 454.577 68.7933 454.57 69.06V69.21C454.57 69.5033 454.59 69.75 454.63 69.95C454.677 70.15 454.757 70.3033 454.87 70.41C454.983 70.51 455.137 70.56 455.33 70.56C455.49 70.56 455.623 70.5167 455.73 70.43C455.843 70.3367 455.927 70.19 455.98 69.99C456.033 69.79 456.06 69.5267 456.06 69.2C456.06 68.7133 455.997 68.37 455.87 68.17C455.743 67.97 455.56 67.87 455.32 67.87ZM461.786 66.37C462.486 66.37 463.032 66.5433 463.426 66.89C463.819 67.2367 464.016 67.73 464.016 68.37V72H462.696L462.326 71.27H462.286C462.132 71.4633 461.972 71.6233 461.806 71.75C461.646 71.87 461.459 71.9567 461.246 72.01C461.032 72.07 460.772 72.1 460.466 72.1C460.146 72.1 459.859 72.0367 459.606 71.91C459.352 71.7767 459.152 71.58 459.006 71.32C458.859 71.0533 458.786 70.7167 458.786 70.31C458.786 69.7167 458.989 69.2767 459.396 68.99C459.809 68.7033 460.406 68.5433 461.186 68.51L462.106 68.48V68.4C462.106 68.1533 462.046 67.98 461.926 67.88C461.806 67.7733 461.642 67.72 461.436 67.72C461.216 67.72 460.972 67.76 460.706 67.84C460.439 67.9133 460.169 68.01 459.896 68.13L459.346 66.87C459.666 66.7033 460.026 66.58 460.426 66.5C460.832 66.4133 461.286 66.37 461.786 66.37ZM461.676 69.55C461.329 69.5633 461.082 69.6267 460.936 69.74C460.796 69.8467 460.726 70 460.726 70.2C460.726 70.3867 460.776 70.5267 460.876 70.62C460.976 70.7067 461.109 70.75 461.276 70.75C461.509 70.75 461.706 70.6767 461.866 70.53C462.032 70.3833 462.116 70.1933 462.116 69.96V69.53L461.676 69.55ZM468.656 66.37C468.763 66.37 468.873 66.3767 468.986 66.39C469.1 66.4033 469.183 66.4167 469.236 66.43L469.066 68.23C469 68.2167 468.916 68.2033 468.816 68.19C468.723 68.1767 468.59 68.17 468.416 68.17C468.296 68.17 468.166 68.1833 468.026 68.21C467.893 68.23 467.763 68.2767 467.636 68.35C467.516 68.4233 467.416 68.5333 467.336 68.68C467.263 68.8267 467.226 69.0267 467.226 69.28V72H465.316V66.47H466.736L467.036 67.35H467.126C467.226 67.17 467.356 67.0067 467.516 66.86C467.676 66.7067 467.853 66.5867 468.046 66.5C468.246 66.4133 468.45 66.37 468.656 66.37ZM472.714 70.59C472.887 70.59 473.044 70.5733 473.184 70.54C473.33 70.5 473.48 70.4533 473.634 70.4V71.79C473.427 71.8767 473.207 71.95 472.974 72.01C472.74 72.07 472.444 72.1 472.084 72.1C471.724 72.1 471.407 72.0433 471.134 71.93C470.867 71.8167 470.657 71.6233 470.504 71.35C470.35 71.07 470.274 70.68 470.274 70.18V67.9H469.604V67.12L470.454 66.52L470.944 65.36H472.194V66.47H473.554V67.9H472.194V70.05C472.194 70.23 472.237 70.3667 472.324 70.46C472.417 70.5467 472.547 70.59 472.714 70.59ZM476.523 66.47V72H474.613V66.47H476.523ZM475.573 64.24C475.847 64.24 476.083 64.2967 476.283 64.41C476.49 64.5233 476.593 64.75 476.593 65.09C476.593 65.4167 476.49 65.64 476.283 65.76C476.083 65.8733 475.847 65.93 475.573 65.93C475.293 65.93 475.053 65.8733 474.853 65.76C474.66 65.64 474.563 65.4167 474.563 65.09C474.563 64.75 474.66 64.5233 474.853 64.41C475.053 64.2967 475.293 64.24 475.573 64.24ZM480.375 72.1C479.815 72.1 479.329 72 478.915 71.8C478.502 71.6 478.182 71.29 477.955 70.87C477.729 70.45 477.615 69.9133 477.615 69.26C477.615 68.5867 477.742 68.04 477.995 67.62C478.249 67.1933 478.592 66.88 479.025 66.68C479.465 66.4733 479.965 66.37 480.525 66.37C480.865 66.37 481.185 66.4067 481.485 66.48C481.792 66.5533 482.075 66.6567 482.335 66.79L481.775 68.2C481.549 68.1 481.335 68.02 481.135 67.96C480.942 67.9 480.739 67.87 480.525 67.87C480.332 67.87 480.162 67.92 480.015 68.02C479.869 68.12 479.755 68.2733 479.675 68.48C479.595 68.68 479.555 68.9367 479.555 69.25C479.555 69.57 479.595 69.8267 479.675 70.02C479.762 70.2133 479.879 70.3567 480.025 70.45C480.172 70.5367 480.342 70.58 480.535 70.58C480.809 70.58 481.082 70.5367 481.355 70.45C481.635 70.3633 481.899 70.2433 482.145 70.09V71.61C481.919 71.7567 481.662 71.8767 481.375 71.97C481.089 72.0567 480.755 72.1 480.375 72.1ZM485.166 66.47V72H483.256V66.47H485.166ZM484.216 64.24C484.489 64.24 484.726 64.2967 484.926 64.41C485.133 64.5233 485.236 64.75 485.236 65.09C485.236 65.4167 485.133 65.64 484.926 65.76C484.726 65.8733 484.489 65.93 484.216 65.93C483.936 65.93 483.696 65.8733 483.496 65.76C483.303 65.64 483.206 65.4167 483.206 65.09C483.206 64.75 483.303 64.5233 483.496 64.41C483.696 64.2967 483.936 64.24 484.216 64.24ZM489.878 66.37C490.491 66.37 490.971 66.6167 491.318 67.11C491.665 67.5967 491.838 68.3 491.838 69.22C491.838 69.8467 491.748 70.3767 491.568 70.81C491.395 71.2367 491.155 71.56 490.848 71.78C490.548 71.9933 490.205 72.1 489.818 72.1C489.558 72.1 489.338 72.0667 489.158 72C488.978 71.9333 488.828 71.8533 488.708 71.76C488.588 71.66 488.488 71.56 488.408 71.46H488.348C488.361 71.5867 488.375 71.7233 488.388 71.87C488.401 72.0167 488.408 72.1867 488.408 72.38V74.4H486.498V66.47H488.048L488.318 67.17H488.408C488.501 67.0233 488.611 66.89 488.738 66.77C488.871 66.65 489.031 66.5533 489.218 66.48C489.405 66.4067 489.625 66.37 489.878 66.37ZM489.158 67.87C488.971 67.87 488.825 67.9167 488.718 68.01C488.611 68.0967 488.535 68.2267 488.488 68.4C488.441 68.5733 488.415 68.7933 488.408 69.06V69.21C488.408 69.5033 488.428 69.75 488.468 69.95C488.515 70.15 488.595 70.3033 488.708 70.41C488.821 70.51 488.975 70.56 489.168 70.56C489.328 70.56 489.461 70.5167 489.568 70.43C489.681 70.3367 489.765 70.19 489.818 69.99C489.871 69.79 489.898 69.5267 489.898 69.2C489.898 68.7133 489.835 68.37 489.708 68.17C489.581 67.97 489.398 67.87 489.158 67.87ZM495.624 66.37C496.324 66.37 496.87 66.5433 497.264 66.89C497.657 67.2367 497.854 67.73 497.854 68.37V72H496.534L496.164 71.27H496.124C495.97 71.4633 495.81 71.6233 495.644 71.75C495.484 71.87 495.297 71.9567 495.084 72.01C494.87 72.07 494.61 72.1 494.304 72.1C493.984 72.1 493.697 72.0367 493.444 71.91C493.19 71.7767 492.99 71.58 492.844 71.32C492.697 71.0533 492.624 70.7167 492.624 70.31C492.624 69.7167 492.827 69.2767 493.234 68.99C493.647 68.7033 494.244 68.5433 495.024 68.51L495.944 68.48V68.4C495.944 68.1533 495.884 67.98 495.764 67.88C495.644 67.7733 495.48 67.72 495.274 67.72C495.054 67.72 494.81 67.76 494.544 67.84C494.277 67.9133 494.007 68.01 493.734 68.13L493.184 66.87C493.504 66.7033 493.864 66.58 494.264 66.5C494.67 66.4133 495.124 66.37 495.624 66.37ZM495.514 69.55C495.167 69.5633 494.92 69.6267 494.774 69.74C494.634 69.8467 494.564 70 494.564 70.2C494.564 70.3867 494.614 70.5267 494.714 70.62C494.814 70.7067 494.947 70.75 495.114 70.75C495.347 70.75 495.544 70.6767 495.704 70.53C495.87 70.3833 495.954 70.1933 495.954 69.96V69.53L495.514 69.55ZM502.614 66.37C503.187 66.37 503.654 66.53 504.014 66.85C504.374 67.17 504.554 67.6867 504.554 68.4V72H502.644V68.98C502.644 68.6133 502.591 68.3367 502.484 68.15C502.377 67.9633 502.207 67.87 501.974 67.87C501.614 67.87 501.371 68.0167 501.244 68.31C501.124 68.6033 501.064 69.0267 501.064 69.58V72H499.154V66.47H500.594L500.854 67.2H500.924C501.044 67.0267 501.184 66.88 501.344 66.76C501.511 66.6333 501.697 66.5367 501.904 66.47C502.117 66.4033 502.354 66.37 502.614 66.37ZM508.563 70.59C508.737 70.59 508.893 70.5733 509.033 70.54C509.18 70.5 509.33 70.4533 509.483 70.4V71.79C509.277 71.8767 509.057 71.95 508.823 72.01C508.59 72.07 508.293 72.1 507.933 72.1C507.573 72.1 507.257 72.0433 506.983 71.93C506.717 71.8167 506.507 71.6233 506.353 71.35C506.2 71.07 506.123 70.68 506.123 70.18V67.9H505.453V67.12L506.303 66.52L506.793 65.36H508.043V66.47H509.403V67.9H508.043V70.05C508.043 70.23 508.087 70.3667 508.173 70.46C508.267 70.5467 508.397 70.59 508.563 70.59ZM514.563 70.3C514.563 70.6467 514.483 70.9567 514.323 71.23C514.17 71.5033 513.92 71.7167 513.573 71.87C513.233 72.0233 512.783 72.1 512.223 72.1C511.83 72.1 511.476 72.0767 511.163 72.03C510.856 71.99 510.543 71.91 510.223 71.79V70.26C510.576 70.42 510.933 70.5367 511.293 70.61C511.653 70.6767 511.936 70.71 512.143 70.71C512.356 70.71 512.513 70.6867 512.613 70.64C512.713 70.5933 512.763 70.5233 512.763 70.43C512.763 70.35 512.73 70.28 512.663 70.22C512.596 70.16 512.476 70.0933 512.303 70.02C512.136 69.9467 511.896 69.8467 511.583 69.72C511.276 69.5933 511.02 69.4567 510.813 69.31C510.613 69.1567 510.463 68.9767 510.363 68.77C510.263 68.5567 510.213 68.3 510.213 68C510.213 67.46 510.42 67.0533 510.833 66.78C511.253 66.5067 511.806 66.37 512.493 66.37C512.86 66.37 513.203 66.41 513.523 66.49C513.843 66.57 514.176 66.6867 514.523 66.84L514.003 68.07C513.823 67.9833 513.636 67.91 513.443 67.85C513.256 67.79 513.08 67.7433 512.913 67.71C512.753 67.6767 512.616 67.66 512.503 67.66C512.356 67.66 512.24 67.68 512.153 67.72C512.073 67.76 512.033 67.8167 512.033 67.89C512.033 67.9567 512.06 68.0167 512.113 68.07C512.173 68.1233 512.283 68.1833 512.443 68.25C512.603 68.3167 512.836 68.4133 513.143 68.54C513.463 68.6667 513.726 68.8067 513.933 68.96C514.146 69.1067 514.303 69.2867 514.403 69.5C514.51 69.7067 514.563 69.9733 514.563 70.3ZM454.58 80.47V86H452.67V80.47H454.58ZM453.63 78.24C453.903 78.24 454.14 78.2967 454.34 78.41C454.547 78.5233 454.65 78.75 454.65 79.09C454.65 79.4167 454.547 79.64 454.34 79.76C454.14 79.8733 453.903 79.93 453.63 79.93C453.35 79.93 453.11 79.8733 452.91 79.76C452.717 79.64 452.62 79.4167 452.62 79.09C452.62 78.75 452.717 78.5233 452.91 78.41C453.11 78.2967 453.35 78.24 453.63 78.24ZM459.372 80.37C459.945 80.37 460.412 80.53 460.772 80.85C461.132 81.17 461.312 81.6867 461.312 82.4V86H459.402V82.98C459.402 82.6133 459.349 82.3367 459.242 82.15C459.135 81.9633 458.965 81.87 458.732 81.87C458.372 81.87 458.129 82.0167 458.002 82.31C457.882 82.6033 457.822 83.0267 457.822 83.58V86H455.912V80.47H457.352L457.612 81.2H457.682C457.802 81.0267 457.942 80.88 458.102 80.76C458.269 80.6333 458.455 80.5367 458.662 80.47C458.875 80.4033 459.112 80.37 459.372 80.37ZM467.919 84.59C468.092 84.59 468.249 84.5733 468.389 84.54C468.535 84.5 468.685 84.4533 468.839 84.4V85.79C468.632 85.8767 468.412 85.95 468.179 86.01C467.945 86.07 467.649 86.1 467.289 86.1C466.929 86.1 466.612 86.0433 466.339 85.93C466.072 85.8167 465.862 85.6233 465.709 85.35C465.555 85.07 465.479 84.68 465.479 84.18V81.9H464.809V81.12L465.659 80.52L466.149 79.36H467.399V80.47H468.759V81.9H467.399V84.05C467.399 84.23 467.442 84.3667 467.529 84.46C467.622 84.5467 467.752 84.59 467.919 84.59ZM471.718 79.48C471.718 79.8867 471.708 80.23 471.688 80.51C471.668 80.79 471.652 81.0033 471.638 81.15H471.728C471.848 80.9567 471.982 80.8033 472.128 80.69C472.282 80.5767 472.452 80.4967 472.638 80.45C472.825 80.3967 473.028 80.37 473.248 80.37C473.615 80.37 473.945 80.44 474.238 80.58C474.532 80.72 474.765 80.94 474.938 81.24C475.118 81.5333 475.208 81.92 475.208 82.4V86H473.288V82.98C473.288 82.6133 473.235 82.3367 473.128 82.15C473.022 81.9633 472.855 81.87 472.628 81.87C472.402 81.87 472.222 81.9367 472.088 82.07C471.955 82.2033 471.858 82.3967 471.798 82.65C471.745 82.8967 471.718 83.2033 471.718 83.57V86H469.808V78.4H471.718V79.48ZM478.998 80.37C479.538 80.37 480.001 80.4633 480.388 80.65C480.781 80.8367 481.081 81.1167 481.288 81.49C481.501 81.8633 481.608 82.3333 481.608 82.9V83.75H478.198C478.211 84.0367 478.318 84.2733 478.518 84.46C478.724 84.6467 479.021 84.74 479.408 84.74C479.754 84.74 480.071 84.7067 480.358 84.64C480.644 84.5733 480.941 84.4667 481.248 84.32V85.69C480.981 85.83 480.688 85.9333 480.368 86C480.054 86.0667 479.658 86.1 479.178 86.1C478.618 86.1 478.118 86.0033 477.678 85.81C477.244 85.61 476.901 85.3 476.648 84.88C476.394 84.46 476.268 83.9233 476.268 83.27C476.268 82.6033 476.381 82.0567 476.608 81.63C476.841 81.2033 477.161 80.8867 477.568 80.68C477.981 80.4733 478.458 80.37 478.998 80.37ZM479.068 81.67C478.841 81.67 478.651 81.74 478.498 81.88C478.351 82.02 478.264 82.2433 478.238 82.55H479.878C479.878 82.3833 479.844 82.2367 479.778 82.11C479.718 81.9767 479.628 81.87 479.508 81.79C479.388 81.71 479.241 81.67 479.068 81.67ZM488.627 80.37C488.734 80.37 488.844 80.3767 488.957 80.39C489.07 80.4033 489.154 80.4167 489.207 80.43L489.037 82.23C488.97 82.2167 488.887 82.2033 488.787 82.19C488.694 82.1767 488.56 82.17 488.387 82.17C488.267 82.17 488.137 82.1833 487.997 82.21C487.864 82.23 487.734 82.2767 487.607 82.35C487.487 82.4233 487.387 82.5333 487.307 82.68C487.234 82.8267 487.197 83.0267 487.197 83.28V86H485.287V80.47H486.707L487.007 81.35H487.097C487.197 81.17 487.327 81.0067 487.487 80.86C487.647 80.7067 487.824 80.5867 488.017 80.5C488.217 80.4133 488.42 80.37 488.627 80.37ZM495.059 83.22C495.059 83.68 494.996 84.09 494.869 84.45C494.742 84.81 494.559 85.1133 494.319 85.36C494.079 85.6 493.789 85.7833 493.449 85.91C493.109 86.0367 492.722 86.1 492.289 86.1C491.889 86.1 491.519 86.0367 491.179 85.91C490.846 85.7833 490.556 85.6 490.309 85.36C490.069 85.1133 489.879 84.81 489.739 84.45C489.606 84.09 489.539 83.68 489.539 83.22C489.539 82.6067 489.649 82.09 489.869 81.67C490.096 81.2433 490.416 80.92 490.829 80.7C491.242 80.48 491.739 80.37 492.319 80.37C492.852 80.37 493.322 80.48 493.729 80.7C494.142 80.92 494.466 81.2433 494.699 81.67C494.939 82.09 495.059 82.6067 495.059 83.22ZM491.479 83.22C491.479 83.5333 491.506 83.8 491.559 84.02C491.612 84.24 491.699 84.4067 491.819 84.52C491.946 84.6267 492.109 84.68 492.309 84.68C492.509 84.68 492.666 84.6267 492.779 84.52C492.899 84.4067 492.986 84.24 493.039 84.02C493.092 83.8 493.119 83.5333 493.119 83.22C493.119 82.9067 493.092 82.6433 493.039 82.43C492.986 82.2167 492.899 82.0567 492.779 81.95C492.659 81.8433 492.499 81.79 492.299 81.79C492.012 81.79 491.802 81.91 491.669 82.15C491.542 82.39 491.479 82.7467 491.479 83.22ZM501.426 83.22C501.426 83.68 501.363 84.09 501.236 84.45C501.11 84.81 500.926 85.1133 500.686 85.36C500.446 85.6 500.156 85.7833 499.816 85.91C499.476 86.0367 499.09 86.1 498.656 86.1C498.256 86.1 497.886 86.0367 497.546 85.91C497.213 85.7833 496.923 85.6 496.676 85.36C496.436 85.1133 496.246 84.81 496.106 84.45C495.973 84.09 495.906 83.68 495.906 83.22C495.906 82.6067 496.016 82.09 496.236 81.67C496.463 81.2433 496.783 80.92 497.196 80.7C497.61 80.48 498.106 80.37 498.686 80.37C499.22 80.37 499.69 80.48 500.096 80.7C500.51 80.92 500.833 81.2433 501.066 81.67C501.306 82.09 501.426 82.6067 501.426 83.22ZM497.846 83.22C497.846 83.5333 497.873 83.8 497.926 84.02C497.98 84.24 498.066 84.4067 498.186 84.52C498.313 84.6267 498.476 84.68 498.676 84.68C498.876 84.68 499.033 84.6267 499.146 84.52C499.266 84.4067 499.353 84.24 499.406 84.02C499.46 83.8 499.486 83.5333 499.486 83.22C499.486 82.9067 499.46 82.6433 499.406 82.43C499.353 82.2167 499.266 82.0567 499.146 81.95C499.026 81.8433 498.866 81.79 498.666 81.79C498.38 81.79 498.17 81.91 498.036 82.15C497.91 82.39 497.846 82.7467 497.846 83.22ZM509.264 80.37C509.897 80.37 510.38 80.53 510.714 80.85C511.047 81.17 511.214 81.6867 511.214 82.4V86H509.304V82.99C509.304 82.57 509.247 82.28 509.134 82.12C509.02 81.9533 508.854 81.87 508.634 81.87C508.327 81.87 508.114 82.0067 507.994 82.28C507.874 82.5467 507.814 82.9267 507.814 83.42V86H505.904V82.99C505.904 82.7233 505.88 82.51 505.834 82.35C505.787 82.1833 505.717 82.0633 505.624 81.99C505.53 81.91 505.41 81.87 505.264 81.87C505.044 81.87 504.87 81.9367 504.744 82.07C504.624 82.2033 504.54 82.3967 504.494 82.65C504.447 82.9033 504.424 83.2133 504.424 83.58V86H502.514V80.47H503.954L504.234 81.15H504.284C504.384 80.9967 504.51 80.8633 504.664 80.75C504.817 80.63 505 80.5367 505.214 80.47C505.427 80.4033 505.67 80.37 505.944 80.37C506.35 80.37 506.684 80.44 506.944 80.58C507.21 80.7133 507.427 80.9 507.594 81.14H507.654C507.827 80.8933 508.05 80.7033 508.324 80.57C508.604 80.4367 508.917 80.37 509.264 80.37Z" fill="black"/>
<line x1="176.414" y1="63.5858" x2="186.414" y2="73.5858" stroke="black" stroke-width="4"/>
<line x1="186.414" y1="63.4142" x2="176.414" y2="73.4142" stroke="black" stroke-width="4"/>
<line x1="434.414" y1="63.5858" x2="444.414" y2="73.5858" stroke="black" stroke-width="4"/>
<line x1="444.414" y1="63.4142" x2="434.414" y2="73.4142" stroke="black" stroke-width="4"/>
<line x1="333" y1="70" x2="318" y2="70" stroke="black" stroke-width="4"/>
</svg>
