<svg width="150" height="151" viewBox="0 0 150 151" fill="none" xmlns="http://www.w3.org/2000/svg">
<path d="M37.7766 58.1302H85.5261C86.1574 58.1302 86.7642 57.8777 87.2095 57.4297C87.9616 56.6762 87.9616 56.6762 87.9331 48.9841L87.9318 48.4804C87.9318 46.8526 87.8625 45.1529 87.7906 43.3527C87.777 43.0391 87.7662 42.7133 87.7553 42.3956H91.9462C93.259 42.3956 94.322 41.3313 94.322 40.0198V28.5983C94.322 27.2855 93.259 26.2225 91.9462 26.2225C91.1167 26.2225 90.3347 26.2728 89.5514 26.3216C89.827 25.7528 90.1257 25.2111 90.4651 24.7197C93.5699 20.2396 98.9392 18.1367 104.485 19.2323C108.862 20.0957 114.03 23.2725 115.522 29.5989L116.027 58.4941C116.238 70.5754 112.415 80.8836 104.97 88.3043C96.8037 96.4404 85.2546 100.5 73.2778 99.4542C61.4626 98.417 50.9507 92.4979 44.4356 83.216C41.2072 78.6164 39.0554 73.2906 38.2124 67.8126C37.6951 64.4607 37.4467 59.9644 37.7766 58.1302ZM89.5704 31.0556V37.644H73.4733C76.4193 34.9465 81.5999 31.619 89.5704 31.0556ZM40.5461 85.9461C47.869 96.3779 59.6475 103.027 72.8638 104.188C74.2458 104.309 75.6251 104.37 76.995 104.37C88.8712 104.37 100.111 99.8547 108.324 91.6684C116.705 83.3164 121.011 71.8148 120.778 58.4126L120.268 29.269C120.266 29.1129 120.247 28.9567 120.214 28.802C118.612 21.5103 112.937 16.0582 105.404 14.5703C97.974 13.1027 90.7556 15.9577 86.5606 22.0126C85.5438 23.4815 84.7713 25.15 84.1862 27.0588C71.741 29.7781 66.5292 38.3894 66.2753 38.8224C65.8477 39.5569 65.845 40.4651 66.2672 41.2023C66.6921 41.9408 67.4782 42.3956 68.328 42.3956H82.9983C83.0146 42.7785 83.0281 43.1668 83.0431 43.5469C83.115 45.2968 83.1802 46.949 83.1802 48.4804L83.1815 49.0004C83.1897 51.0055 83.191 52.4052 83.1883 53.3786H36.7299C35.7809 53.3786 34.9053 53.7886 34.2645 54.538C32.0407 57.1297 33.0005 65.1911 33.5164 68.5376C34.4695 74.731 36.9023 80.7506 40.5461 85.9461Z" fill="white"/>
<path d="M99.7065 29.811H102.152C103.464 29.811 104.527 28.748 104.527 27.4352C104.527 26.1251 103.464 25.0594 102.152 25.0594H99.7065C98.3937 25.0594 97.3307 26.1251 97.3307 27.4352C97.3307 28.748 98.3937 29.811 99.7065 29.811Z" fill="white"/>
<path d="M82.0708 92.3416C83.3836 92.3416 84.4466 91.2772 84.4466 89.9658C84.4466 88.6543 83.3836 87.59 82.0708 87.59C62.9368 87.59 58.6074 75.4068 57.6272 70.0796H82.0708C83.3836 70.0796 84.4466 69.0166 84.4466 67.7038C84.4466 66.3924 83.3836 65.328 82.0708 65.328H54.9677C54.3309 65.328 53.72 65.5832 53.2734 66.038C52.8267 66.4928 52.581 67.1092 52.5932 67.7459C52.5973 67.9916 53.3548 92.3416 82.0708 92.3416Z" fill="white"/>
<path d="M45.2884 114.443C46.589 114.649 47.7253 115.626 48.7639 117.428C49.4196 118.566 50.8736 118.954 52.0085 118.298C53.1448 117.644 53.5358 116.191 52.8801 115.055C51.1057 111.977 48.8032 110.192 46.0378 109.751C40.2259 108.818 34.3611 114.069 29.1981 118.7C27.1617 120.526 25.238 122.25 23.8994 123.001C21.0837 124.583 18.636 124.917 17.1847 123.917C16.81 123.662 16.5724 123.365 16.4272 123.103C17.4739 123.088 18.4228 122.376 18.693 121.313C19.0161 120.041 18.2477 118.748 16.977 118.426C14.4736 117.788 12.7902 118.942 12.0516 120.233C10.9316 122.19 11.5154 125.017 13.4364 126.953C14.1328 127.655 16.0565 129.23 19.2754 129.23C21.1489 129.23 23.4609 128.696 26.2236 127.146C28.0197 126.138 30.0358 124.33 32.3681 122.238C36.3092 118.704 41.7125 113.872 45.2884 114.443Z" fill="white"/>
<path d="M73.0252 114.269C74.3258 114.477 75.4635 115.454 76.5007 117.256C77.1578 118.393 78.6104 118.782 79.7467 118.127C80.883 117.472 81.274 116.019 80.6183 114.883C78.8439 111.804 76.5414 110.018 73.776 109.577C67.9505 108.65 62.0979 113.894 56.9322 118.528C54.8972 120.352 52.9748 122.077 51.6362 122.829C48.8192 124.408 46.3687 124.74 44.9215 123.745C44.5468 123.489 44.3106 123.193 44.164 122.931C45.212 122.917 46.161 122.206 46.4312 121.141C46.7543 119.869 45.9872 118.575 44.7152 118.252C42.2118 117.618 40.5283 118.769 39.7884 120.062C38.6698 122.02 39.2535 124.845 41.1732 126.781C41.8696 127.481 43.7934 129.056 47.0109 129.056C48.8857 129.055 51.1977 128.522 53.9618 126.972C55.7565 125.963 57.7726 124.156 60.1049 122.064C64.0447 118.532 69.4344 113.708 73.0252 114.269Z" fill="white"/>
<path d="M101.051 114.64C102.351 114.848 103.489 115.825 104.528 117.627C105.182 118.765 106.636 119.153 107.772 118.499C108.909 117.843 109.3 116.39 108.644 115.254C106.869 112.176 104.567 110.39 101.8 109.948C95.9774 109.018 90.1235 114.268 84.9578 118.898C82.9241 120.724 81.0017 122.448 79.6631 123.2C76.8461 124.779 74.397 125.113 72.9484 124.116C72.5737 123.86 72.3375 123.564 72.1909 123.303C73.239 123.287 74.1866 122.577 74.4567 121.512C74.7812 120.242 74.0128 118.948 72.7421 118.625C70.2346 117.987 68.5539 119.139 67.8154 120.433C66.6967 122.388 67.2791 125.215 69.2001 127.151C69.8966 127.852 71.8203 129.427 75.0392 129.427C76.9126 129.427 79.2246 128.894 81.9887 127.342C83.7835 126.335 85.7995 124.529 88.1305 122.437C92.0703 118.906 97.4626 114.071 101.051 114.64Z" fill="white"/>
<path d="M136.382 115.08C134.607 112.002 132.305 110.215 129.538 109.774C123.714 108.837 117.861 114.094 112.698 118.723C110.662 120.549 108.739 122.274 107.399 123.026C104.584 124.605 102.136 124.94 100.685 123.943C100.313 123.687 100.074 123.392 99.9286 123.129C100.975 123.114 101.924 122.403 102.194 121.34C102.519 120.068 101.75 118.775 100.478 118.451C97.9763 117.811 96.2916 118.968 95.553 120.26C94.4344 122.215 95.0154 125.04 96.9364 126.978C97.6329 127.68 99.5566 129.254 102.775 129.253C104.649 129.253 106.961 128.72 109.724 127.17C111.521 126.163 113.536 124.355 115.871 122.263C119.808 118.73 125.202 113.89 128.788 114.466C130.089 114.675 131.227 115.651 132.265 117.454C132.921 118.59 134.374 118.98 135.51 118.324C136.646 117.67 137.037 116.216 136.382 115.08Z" fill="white"/>
</svg>
