<svg width="150" height="151" viewBox="0 0 150 151" fill="none" xmlns="http://www.w3.org/2000/svg">
<path d="M56.4121 77.8277C52.7738 84.4189 45.6898 82.6391 45.3558 82.5508C44.0892 82.2033 42.79 82.9445 42.4397 84.2057C42.0881 85.4697 42.828 86.7784 44.0919 87.1314C45.0735 87.4043 46.3578 87.5984 47.8009 87.5984C51.9198 87.5984 57.3231 86.01 60.5732 80.1234C61.2058 78.9749 60.7904 77.5304 59.6405 76.8951C58.4933 76.2624 57.0475 76.6792 56.4121 77.8277Z" fill="white"/>
<path d="M133.883 20.677C133.63 19.39 132.381 18.5483 131.094 18.8022C127.208 19.5624 124.449 22.9863 122.015 26.0056C120.273 28.1669 118.473 30.4002 116.788 30.9622C114.745 31.6437 111.728 30.8943 108.808 30.1694C105.083 29.2448 101.23 28.2877 98.0301 29.8598C94.4216 31.6301 92.6527 35.7043 91.0901 39.2992C89.9986 41.8135 88.869 44.4147 87.4354 45.3813C85.5538 46.6479 82.3756 46.747 79.302 46.8421C75.5347 46.9588 71.6411 47.0796 69.0752 49.3753C65.8889 52.2249 65.2359 56.701 64.7064 60.7099C64.1023 60.7317 63.4941 60.7615 62.871 60.8335C62.7922 60.843 62.7108 60.8566 62.6334 60.8729C45.1258 64.7407 14.7562 91.2763 13.472 92.4031C12.8339 92.9638 12.5434 93.8205 12.709 94.6527C13.5317 98.7852 15.8138 108.643 19.2472 110.932C19.6178 111.179 20.0482 111.316 20.4921 111.329C27.4281 111.543 40.2126 104.814 42.2096 101.961C42.4594 101.602 43.6731 101.537 44.4945 101.718C44.6655 101.758 44.842 101.779 45.0185 101.78C48.2835 101.807 51.2241 101.575 53.8864 101.164C53.8999 101.183 53.9095 101.203 53.923 101.222C55.0566 103.438 56.6002 118.436 57.3903 131.187C57.4691 132.447 58.5144 133.416 59.7594 133.416C59.8082 133.416 59.8598 133.415 59.91 133.412C61.2174 133.331 62.2139 132.203 62.1324 130.894C61.4211 119.387 60.2481 105.638 58.5185 100.203C72.0008 96.5941 76.2162 88.0303 76.4334 87.5701C76.9927 86.3903 76.4904 84.9893 75.3134 84.4232C74.1418 83.8584 72.7217 84.3526 72.1461 85.5228C71.9112 85.998 66.1604 97.1344 45.286 97.0298C44.1306 96.8153 40.3294 96.3633 38.3418 99.2006C37.082 100.709 27.124 106.153 21.5076 106.56C21.0121 105.862 20.4134 104.495 19.8052 102.768C19.9857 102.703 20.1649 102.631 20.3319 102.52L24.3518 99.8306C25.4406 99.1002 25.7324 97.6231 25.0007 96.533C24.2703 95.4428 22.7932 95.155 21.7044 95.884L18.3892 98.1037C18.1285 97.1181 17.8787 96.1053 17.652 95.0735C23.1435 90.379 48.9162 68.8569 63.5389 65.5403C67.7312 65.0828 71.504 66.1281 72.9498 68.1537L74.9387 70.9395C75.3514 71.5178 76.0003 71.8803 76.709 71.9305C76.8515 71.94 91.0846 72.927 94.4094 73.1211C95.3217 73.2963 97.4477 75.4725 99.5588 78.2542C95.4928 78.4877 89.0048 78.6574 83.0381 77.9406C82.1204 77.8252 81.2284 78.2597 80.7397 79.0403C80.2523 79.8209 80.2591 80.8133 80.7587 81.5871C84.7283 87.7425 96.105 109.33 96.2951 127.182C96.31 128.485 97.3703 129.532 98.6709 129.532H98.6967C100.01 129.517 101.062 128.442 101.047 127.131C100.874 111.072 92.3024 92.3475 87.1489 83.0615C95.7249 83.5421 103.733 82.7126 104.128 82.6705C104.946 82.5836 105.658 82.0813 106.017 81.3428C106.374 80.6042 106.324 79.7326 105.887 79.0389C103.913 75.9151 98.8732 68.6261 94.7203 68.3818C91.9413 68.2188 81.5936 67.5047 78.1548 67.2672L76.8176 65.3937C75.2727 63.2297 72.6525 61.7444 69.4513 61.0779C69.8816 57.8291 70.3962 54.5682 72.2438 52.9173C73.5186 51.7756 76.5339 51.6819 79.4486 51.5909C83.0218 51.481 87.0716 51.3561 90.0909 49.321C92.6744 47.5792 94.0849 44.3319 95.448 41.1917C96.7431 38.2104 98.0844 35.126 100.124 34.1254C101.768 33.319 104.765 34.063 107.665 34.7811C111.24 35.669 114.94 36.5867 118.291 35.4694C121.298 34.4689 123.544 31.6817 125.714 28.9883C127.733 26.4821 129.82 23.8932 132.007 23.4642C133.295 23.213 134.134 21.9654 133.883 20.677Z" fill="white"/>
</svg>
