<svg width="150" height="150" viewBox="0 0 150 150" fill="none" xmlns="http://www.w3.org/2000/svg">
<path d="M85.3406 46.108C85.5416 45.1306 85.3488 44.1327 84.8017 43.3046C84.1093 42.2511 82.9418 41.6225 81.6819 41.6225C80.9515 41.6225 80.2415 41.8357 79.6292 42.2389C77.9119 43.3711 77.434 45.6913 78.5676 47.4141C79.2613 48.4635 80.4261 49.0907 81.6846 49.0907C82.4164 49.0907 83.1264 48.8776 83.7346 48.4757C84.5709 47.9272 85.1397 47.0869 85.3406 46.108Z" fill="white"/>
<path d="M108.448 113.828C104.486 113.828 100.666 115.242 97.9643 117.708C97.2407 118.37 96.9963 119.408 97.352 120.321C97.7063 121.236 98.5861 121.838 99.5663 121.838H117.328C118.309 121.838 119.189 121.236 119.543 120.321C119.898 119.408 119.655 118.37 118.931 117.708C116.229 115.242 112.409 113.828 108.448 113.828Z" fill="white"/>
<path d="M131.19 105.935C124.48 111.109 103.496 106.849 92.2278 92.241C85.1533 83.0691 84.2098 70.8697 87.7314 65.0836C90.1791 64.7062 92.5414 63.8102 94.628 62.4336C96.4268 61.2484 97.946 59.7604 99.1651 58.0621L121.348 86.8229C118.493 88.3909 115.683 88.9041 112.969 88.3081C106.42 86.8731 102.172 79.6669 102.099 79.5407C101.447 78.4017 99.9946 78.008 98.8583 78.6596C97.7193 79.3113 97.3242 80.7612 97.9758 81.9016C98.1876 82.2722 103.281 91.0301 111.92 92.9429C113.032 93.1887 114.146 93.3108 115.262 93.3108C118.272 93.3108 121.29 92.4053 124.283 90.6269L133.698 102.834C133.059 104.101 132.219 105.141 131.19 105.935ZM74.6183 54.8921C72.772 52.0914 72.1271 48.7394 72.8019 45.4527C73.4766 42.1673 75.3908 39.3421 78.1915 37.4958C80.9923 35.6508 84.3442 35.006 87.6309 35.6807C90.9163 36.3554 93.7415 38.2696 95.5878 41.0717C97.4328 43.8711 98.0777 47.223 97.4029 50.5098C96.7296 53.7951 94.8153 56.6203 92.0133 58.4667C89.6076 60.0523 86.8232 60.7556 83.9586 60.4881C80.1343 60.1365 76.7294 58.0974 74.6183 54.8921ZM46.125 51.1302C41.1969 52.4348 36.691 54.7061 32.7961 57.7268C29.0654 51.9325 23.6282 50.2301 20.2586 49.7699C20.9904 46.7058 22.1742 43.7326 23.802 40.9305C28.1762 33.4067 35.218 28.036 43.6324 25.8082C54.739 22.8663 66.675 26.1164 74.8097 34.0896C71.375 36.6283 69.0141 40.2816 68.148 44.4969C67.6212 47.0587 67.6973 49.645 68.3055 52.1117C61.2134 49.5418 53.5253 49.1698 46.125 51.1302ZM22.238 70.6335C21.5171 69.0261 20.9293 67.3589 20.4758 65.6443C19.4957 61.9421 19.1766 58.168 19.4984 54.4617C21.995 54.7808 26.3692 56.0501 29.1944 60.9022C26.3909 63.726 24.0355 67.0019 22.238 70.6335ZM138.317 101.04L101.545 53.3661C101.747 52.7457 101.924 52.1158 102.058 51.4682C102.058 51.4682 102.058 51.4669 102.058 51.4655C102.988 46.9352 102.099 42.3153 99.5547 38.4556C97.0106 34.5946 93.1156 31.9568 88.5867 31.0255C85.3841 30.3697 82.1421 30.6372 79.15 31.7409C69.826 21.8562 55.616 17.7196 42.416 21.2154C32.7757 23.7677 24.7061 29.9217 19.6939 38.5425C14.6816 47.1646 13.3294 57.2217 15.8817 66.8607C16.8728 70.6117 18.4354 74.1687 20.5234 77.4337C20.9646 78.122 21.7208 78.5293 22.5245 78.5293C22.6209 78.5293 22.7186 78.5238 22.8163 78.5116C23.7246 78.3989 24.4876 77.7758 24.7781 76.9069C28.2766 66.4561 36.7114 58.5372 47.34 55.7243C55.5359 53.5549 64.1363 54.645 71.5637 58.7993C71.5854 58.8128 71.6099 58.8183 71.6316 58.8305C74.3414 62.2055 78.1888 64.4102 82.4883 65.066C79.5613 72.6984 80.8212 85.2304 88.4659 95.1436C97.2943 106.59 111.92 112.801 123.007 112.799C127.482 112.799 131.384 111.786 134.092 109.697C136.138 108.118 137.676 105.972 138.662 103.318C138.947 102.551 138.817 101.689 138.317 101.04Z" fill="white"/>
</svg>
