<svg width="150" height="151" viewBox="0 0 150 151" fill="none" xmlns="http://www.w3.org/2000/svg">
<path d="M96.6392 114.146H96.5916C95.9088 108.313 90.9454 103.771 84.9326 103.771C78.9686 103.771 74.0405 108.241 73.2952 114.004C72.5485 108.241 67.6204 103.771 61.6565 103.771C55.645 103.771 50.6789 108.313 49.9974 114.146H49.9499C42.2632 104.405 37.874 90.5056 37.874 75.8001C37.874 60.1483 42.7831 45.5582 51.3455 35.7712C52.0284 34.9893 52.1248 33.8543 51.5831 32.9691C51.0441 32.084 49.992 31.6482 48.9833 31.9007C46.6564 32.4804 44.434 31.8043 43.3262 30.1752C42.6039 29.1149 42.4166 27.756 42.8008 26.3495C43.2203 24.8086 44.2521 23.4157 45.706 22.426C47.1627 21.4363 48.8407 20.9897 50.4264 21.1648C51.875 21.3236 53.0697 21.997 53.7906 23.0573C54.5671 24.1963 54.7192 25.6612 54.2209 27.1776C53.9032 28.151 54.2426 29.2195 55.0653 29.829C55.8894 30.4372 57.0108 30.4521 57.8471 29.8616C62.7005 26.4432 67.8974 24.7122 73.2952 24.7122C78.4215 24.7122 83.3808 26.2802 88.0347 29.3742C88.856 29.9186 89.9258 29.9023 90.7254 29.3308C91.5278 28.7619 91.8971 27.756 91.6513 26.8043C91.2956 25.4236 91.4898 24.0945 92.1957 23.0573C92.9166 21.997 94.1113 21.3236 95.5599 21.1648C97.151 20.9856 98.8235 21.4377 100.28 22.426C101.734 23.4157 102.766 24.8086 103.186 26.3495C103.568 27.756 103.382 29.1149 102.66 30.1766C101.657 31.6496 99.691 32.346 97.5311 31.9795C96.5428 31.8125 95.5558 32.2863 95.067 33.1619C94.5756 34.0349 94.6883 35.1237 95.3454 35.8812C103.844 45.6668 108.716 60.2148 108.716 75.8001C108.716 90.507 104.326 104.407 96.6392 114.146ZM84.9326 122.514C81.0756 122.514 77.9382 119.375 77.9382 115.518C77.9382 111.661 81.0756 108.522 84.9326 108.522C88.7895 108.522 91.9269 111.661 91.9269 115.518C91.9269 119.375 88.7895 122.514 84.9326 122.514ZM61.6565 122.514C57.8009 122.514 54.6621 119.375 54.6621 115.518C54.6621 111.661 57.8009 108.522 61.6565 108.522C65.5134 108.522 68.6522 111.661 68.6522 115.518C68.6522 119.375 65.5134 122.514 61.6565 122.514ZM101.772 36.3631C103.742 35.7509 105.434 34.5453 106.588 32.8497C108.104 30.6232 108.525 27.87 107.77 25.1018C107.053 22.4695 105.341 20.1235 102.951 18.4971C100.561 16.8721 97.7537 16.143 95.0372 16.4403C92.1862 16.7567 89.7806 18.1577 88.2668 20.3855C87.6627 21.2734 87.2323 22.2468 86.9825 23.2704C82.6138 21.0711 78.0251 19.9606 73.2952 19.9606C68.3576 19.9606 63.587 21.1662 59.0594 23.5528C58.8245 22.4206 58.3738 21.3481 57.7208 20.3855C56.2057 18.1577 53.8014 16.7567 50.9491 16.4403C48.238 16.143 45.4264 16.8721 43.0343 18.4985C40.6449 20.1235 38.933 22.4695 38.2162 25.1018C37.4613 27.87 37.8822 30.6232 39.3986 32.8497C40.6558 34.6987 42.5374 35.9627 44.7055 36.5247C37.2984 46.9294 33.1224 60.952 33.1224 75.8001C33.1224 92.0329 38.1754 107.429 46.9903 118.039C47.4424 118.584 48.1117 118.897 48.8177 118.897H50.4101C51.8668 123.733 56.3551 127.265 61.6565 127.265C67.6204 127.265 72.5485 122.795 73.2952 117.03C74.0405 122.795 78.9686 127.265 84.9326 127.265C90.234 127.265 94.7222 123.733 96.1776 118.897H96.2414H97.7727C98.4787 118.897 99.1494 118.584 99.6001 118.039C108.414 107.431 113.468 92.0343 113.468 75.8001C113.468 60.8828 109.249 46.7854 101.772 36.3631Z" fill="white"/>
<path d="M58.2722 46.6567C58.7311 47.125 59.3352 47.3626 59.9448 47.368C60.553 47.3748 61.1625 47.1481 61.6309 46.6892L62.4007 45.9358L63.1541 46.7042C63.6144 47.1739 64.2185 47.4128 64.8267 47.4196C65.4349 47.4237 66.0458 47.1997 66.5142 46.7408C67.4509 45.8217 67.4659 44.3175 66.5481 43.3794L65.7947 42.611L66.5631 41.8562C67.4998 40.9384 67.5161 39.4342 66.5984 38.4975C65.6793 37.5621 64.175 37.5444 63.2369 38.4635L62.4699 39.217L61.7137 38.4472C60.796 37.5105 59.2931 37.4956 58.3564 38.4147C57.4183 39.331 57.4033 40.8353 58.3211 41.772L59.0759 42.5418L58.3048 43.2952C57.368 44.2143 57.3517 45.7185 58.2722 46.6567Z" fill="white"/>
<path d="M79.9939 46.6567C80.4527 47.125 81.0569 47.3626 81.6664 47.368C82.2746 47.3748 82.8842 47.1481 83.3526 46.6892L84.1223 45.9358L84.8758 46.7042C85.336 47.1739 85.9402 47.4128 86.5484 47.4196C87.1566 47.4237 87.7675 47.1997 88.2359 46.7408C89.1726 45.8217 89.1875 44.3175 88.2698 43.3794L87.5163 42.611L88.2847 41.8562C89.2215 40.9384 89.2378 39.4342 88.32 38.4975C87.4009 37.5621 85.8967 37.5444 84.9586 38.4635L84.1916 39.217L83.4354 38.4472C82.5177 37.5105 81.0148 37.4956 80.078 38.4147C79.1399 39.331 79.125 40.8353 80.0428 41.772L80.7976 42.5418L80.0265 43.2952C79.0897 44.2143 79.0734 45.7185 79.9939 46.6567Z" fill="white"/>
<path d="M67.1801 52.6877C65.9691 52.1732 64.5762 52.7366 64.0631 53.9449C63.5499 55.1518 64.1133 56.5474 65.3216 57.0606L70.961 59.4567C70.9366 59.5966 70.9189 59.7391 70.9189 59.8871V68.9111C70.9189 70.2225 71.9819 71.2869 73.2947 71.2869C74.6062 71.2869 75.6705 70.2225 75.6705 68.9111V59.8871C75.6705 59.7391 75.6515 59.5966 75.6271 59.4567L81.2679 57.0606C82.4748 56.5474 83.0382 55.1518 82.5251 53.9449C82.0119 52.7366 80.6204 52.1732 79.4094 52.6877L73.2947 55.2848L67.1801 52.6877Z" fill="white"/>
<path d="M90.4887 87.9878C89.3592 87.3212 87.9025 87.6959 87.2359 88.8254C86.3616 90.3039 84.5044 91.2596 82.5033 91.2596C79.6144 91.2596 77.2657 89.3522 77.2657 87.0076C77.2657 85.0255 78.998 83.2783 81.3847 82.8534C82.6758 82.6239 83.5378 81.3899 83.307 80.0974C83.0762 78.805 81.849 77.9443 80.5511 78.1751C77.2196 78.7683 74.5492 80.8414 73.2947 83.543C72.0403 80.8414 69.3686 78.7683 66.037 78.1751C64.7446 77.9443 63.5119 78.805 63.2824 80.0974C63.0516 81.3899 63.9124 82.6239 65.2034 82.8534C67.5915 83.2783 69.3238 85.0255 69.3238 87.0076C69.3238 89.3522 66.9737 91.2596 64.0861 91.2596C62.085 91.2596 60.2278 90.3039 59.3535 88.8254C58.6856 87.6959 57.2302 87.3212 56.0994 87.9878C54.9698 88.6557 54.5951 90.1125 55.2631 91.242C57.0008 94.1839 60.3812 96.0112 64.0861 96.0112C68.2227 96.0112 71.7797 93.7332 73.2947 90.4967C74.8098 93.7332 78.3654 96.0112 82.5033 96.0112C86.2082 96.0112 89.5887 94.1839 91.3264 91.242C91.993 90.1125 91.6183 88.6557 90.4887 87.9878Z" fill="white"/>
</svg>
