<svg width="150" height="151" viewBox="0 0 150 151" fill="none" xmlns="http://www.w3.org/2000/svg">
<path d="M64.0335 55.3253C62.7221 55.3253 61.6577 56.3883 61.6577 57.7011C61.6577 59.0126 62.7221 60.0769 64.0335 60.0769C68.0792 60.0769 71.3686 63.3664 71.3686 67.4107C71.3686 71.4564 68.0792 74.7472 64.0335 74.7472C62.7221 74.7472 61.6577 75.8115 61.6577 77.123C61.6577 78.4344 62.7221 79.4988 64.0335 79.4988C70.698 79.4988 76.1202 74.0779 76.1202 67.4107C76.1202 60.7462 70.698 55.3253 64.0335 55.3253Z" fill="white"/>
<path d="M43.6935 61.6412C42.5707 61.6412 41.6571 60.7289 41.6571 59.6048C41.6571 58.4834 42.5707 57.5684 43.6935 57.5684C44.8162 57.5684 45.7299 58.4834 45.7299 59.6048C45.7299 60.7289 44.8162 61.6412 43.6935 61.6412ZM43.6935 52.8168C39.9506 52.8168 36.9055 55.8633 36.9055 59.6048C36.9055 63.3477 39.9506 66.3928 43.6935 66.3928C47.4364 66.3928 50.4815 63.3477 50.4815 59.6048C50.4815 55.8633 47.4364 52.8168 43.6935 52.8168Z" fill="white"/>
<path d="M115.307 68.6373C106.511 68.6373 99.3551 61.4814 99.3551 52.6855C99.3551 49.2399 100.476 45.9192 102.505 43.1918C105.331 48.8068 110.086 52.266 115.307 52.266C120.53 52.266 125.284 48.8068 128.109 43.1918C130.137 45.9178 131.259 49.2399 131.259 52.6855C131.259 61.4814 124.103 68.6373 115.307 68.6373ZM67.2288 102.709H66.9098C63.6013 102.709 60.3363 102.435 57.1649 101.934V92.8705C57.1649 85.7051 53.2727 79.4479 47.5029 76.0539C47.4472 76.0159 47.3875 75.9819 47.3291 75.948C44.4727 74.308 41.1737 73.355 37.6494 73.355H22.8855C22.7036 73.355 22.5271 73.3794 22.3547 73.4188C20.6319 65.9547 21.6093 58.2747 25.4554 51.4541C31.3678 40.9707 42.5435 35.6177 55.3539 37.1382C67.8655 38.6235 78.4969 47.4479 81.8081 59.0961C82.8548 62.7806 86.9398 74.9651 95.5443 77.0992C99.8424 78.1622 104.214 76.5059 108.557 72.2363C110.676 72.9708 112.941 73.3889 115.307 73.3889C115.619 73.3889 115.923 73.3563 116.233 73.3427C105.614 92.3654 88.3721 102.709 67.2288 102.709ZM43.7586 98.1257C42.5924 97.6248 41.4534 97.0953 40.3646 96.5183V78.3672C41.5525 78.5899 42.6874 78.9578 43.7586 79.4465V98.1257ZM52.4133 100.998C51.0828 100.677 49.7836 100.303 48.5102 99.8961V82.9043C50.924 85.534 52.4133 89.0285 52.4133 92.8705V100.998ZM32.219 90.8096V78.1066H35.613V93.5764C34.4034 92.7062 33.263 91.7871 32.219 90.8096ZM25.3197 81.4707C24.8078 80.5339 24.277 79.2252 23.8521 78.1066H27.4674V85.1077C26.6759 83.9157 25.9564 82.702 25.3197 81.4707ZM128.854 37.05C128.249 36.526 127.418 36.3413 126.647 36.5626C125.874 36.7825 125.266 37.3785 125.029 38.1442C123.268 43.8366 119.452 47.5144 115.307 47.5144C111.162 47.5144 107.346 43.8353 105.584 38.1429C105.346 37.3785 104.738 36.7825 103.965 36.5626C103.193 36.3386 102.363 36.526 101.758 37.05C97.21 40.9938 94.6035 46.693 94.6035 52.6855C94.6035 59.9215 98.3423 66.2941 103.982 69.9963C101.37 72.1888 98.922 73.0454 96.6874 72.4915C92.6784 71.4978 88.6327 65.7347 86.3778 57.805C82.5493 44.3349 70.3065 34.1447 55.9132 32.4369C41.1316 30.6869 28.2032 36.9441 21.3174 49.1544C13.9945 62.1425 15.568 78.1025 25.4242 90.754C33.6363 101.293 49.8922 108.139 66.9138 108.139H67.2546C91.238 108.139 111.29 94.8078 122.369 72.1209C130.312 69.2265 136.01 61.6185 136.01 52.6855C136.01 46.6917 133.402 40.9938 128.854 37.05Z" fill="white"/>
</svg>
