<svg width="150" height="150" viewBox="0 0 150 150" fill="none" xmlns="http://www.w3.org/2000/svg">
<path d="M51.5399 64.8094C51.8929 64.1456 51.9078 63.3541 51.5847 62.6753C51.2616 61.9965 50.6358 61.5105 49.8986 61.3666C43.6577 60.1406 38.769 55.3293 37.4426 49.1074C35.9886 42.2841 39.1993 35.2409 45.2529 31.9772C58.5954 24.7901 76.0188 31.2251 88.2481 47.6181C82.2964 50.8682 76.9773 54.5731 74.3558 58.0893C71.2441 62.2626 69.9422 67.3984 70.6916 72.5505C71.4424 77.7026 74.1535 82.2546 78.3267 85.3662C81.7194 87.8968 85.7447 89.2327 89.9668 89.2327C95.5832 89.2327 100.94 86.7523 104.617 82.5641C109.038 91.2053 114.678 98.4603 121.436 104.12C103.745 105.631 56.8672 109.624 49.5225 84.0887C47.664 77.6252 48.3794 70.7788 51.5399 64.8094ZM33.3372 52.0928C33.7771 53.468 34.3513 54.7781 35.0505 56.0081L28.9169 55.347L33.3372 52.0928ZM109.3 43.844C109.319 43.844 109.421 43.8657 109.425 43.9662C109.852 54.3586 106.414 72.3591 101.796 78.5524C98.984 82.3198 94.6723 84.4811 89.9668 84.4811C86.7765 84.4811 83.7341 83.4697 81.1682 81.5568C74.6531 76.6979 73.3063 67.4445 78.1638 60.9308C82.8815 54.6044 99.7334 46.5891 109.3 43.844ZM98.9664 110.032C108.068 110.032 116.329 109.325 121.872 108.851L122.128 108.83C124.014 108.669 125.598 107.395 126.165 105.584C126.725 103.79 126.158 101.861 124.716 100.668C117.863 94.993 112.206 87.5452 107.897 78.5293C107.815 78.3596 107.712 78.209 107.599 78.0691C112.157 68.9311 114.537 52.6521 114.173 43.7707C114.064 41.1465 111.923 39.0924 109.3 39.0924C108.846 39.0924 108.391 39.1562 107.951 39.2825C103.665 40.5152 98.0296 42.7186 92.5205 45.4093C78.8291 26.6025 58.6605 19.3529 42.9993 27.7945C36.047 31.5414 31.9688 39.0924 32.3787 46.8986L21.1799 55.1433C20.3911 55.7244 20.0395 56.729 20.2947 57.6752C20.55 58.6201 21.3605 59.3125 22.3339 59.417L39.2944 61.2417C41.2588 62.9794 43.5586 64.3479 46.0905 65.2398C43.4391 71.6382 43.0251 78.695 44.9556 85.4029C50.8896 106.036 77.3099 110.032 98.9664 110.032Z" fill="white"/>
<path d="M53.1561 47.0466C52.9145 47.4837 52.5167 47.8 52.0375 47.9385C51.0573 48.2195 50.0024 47.6236 49.7241 46.6583C49.5856 46.1777 49.6426 45.674 49.8857 45.2369C50.126 44.8011 50.5224 44.4834 51.0043 44.3463C51.174 44.2974 51.3492 44.2716 51.5229 44.2716C52.3497 44.2716 53.0869 44.8283 53.3163 45.6252C53.4548 46.1058 53.3978 46.6108 53.1561 47.0466ZM57.3145 49.3463C58.1697 47.8 58.372 46.0107 57.8819 44.311C57.0714 41.4899 54.4553 39.52 51.5229 39.52C50.9052 39.52 50.2875 39.6083 49.6902 39.778C47.9904 40.2681 46.5826 41.3894 45.7273 42.9371C44.8707 44.4834 44.6684 46.2727 45.1571 47.9725C45.969 50.7935 48.5837 52.7634 51.5175 52.7634C52.1366 52.7634 52.7529 52.6779 53.3503 52.5055C55.0513 52.0154 56.4578 50.894 57.3145 49.3463Z" fill="white"/>
<path d="M123.682 113.299C73.1008 119.715 55.1791 105.233 54.9266 105.021C53.9356 104.169 52.4395 104.279 51.5842 105.268C50.7249 106.259 50.8321 107.761 51.8232 108.62C52.4517 109.163 65.091 119.709 99.0731 119.709C106.441 119.709 114.813 119.212 124.28 118.014C125.582 117.848 126.503 116.659 126.339 115.357C126.174 114.055 124.979 113.136 123.682 113.299Z" fill="white"/>
</svg>
