<svg width="150" height="151" viewBox="0 0 150 151" fill="none" xmlns="http://www.w3.org/2000/svg">
<path d="M95.2527 105.703V83.6299C104.494 85.9677 110.266 90.4804 110.266 94.6672C110.266 98.8527 104.494 103.364 95.2527 105.703ZM76.3033 107.078V82.5791C76.3033 82.4692 76.2857 82.3633 76.2707 82.256C77.9867 82.1067 79.7598 82.0144 81.6048 82.0144C83.4755 82.0144 85.2716 82.1081 87.0066 82.2615C86.9483 82.4678 86.9062 82.681 86.9062 82.9063V107.078C85.2024 107.226 83.4402 107.319 81.6048 107.319C79.7706 107.319 78.0098 107.226 76.3033 107.078ZM52.9444 94.6672C52.9444 90.4804 58.717 85.9677 67.9582 83.6286V105.703C58.717 103.364 52.9444 98.8527 52.9444 94.6672ZM51.056 48.3554C50.5415 45.5424 51.466 42.9847 53.8798 40.537C56.6548 37.724 59.465 36.2985 62.2304 36.2985C65.7778 36.2985 68.637 38.6852 70.4113 40.6877C76.3943 47.4431 79.6172 60.024 78.7904 72.7664C69.5479 68.0487 52.7693 57.7269 51.056 48.3554ZM94.3934 40.6877C96.1677 38.6852 99.0268 36.2985 102.574 36.2985C105.341 36.2985 108.15 37.724 110.925 40.537C113.339 42.9847 114.263 45.5424 113.749 48.3554C112.035 57.7269 95.2581 68.0487 86.0142 72.7664C85.1875 60.024 88.4104 47.4431 94.3934 40.6877ZM37.5832 96.8638C33.8484 96.8638 30.8115 93.8269 30.8115 90.0921C30.8115 86.3587 33.8484 83.3218 37.5832 83.3218C41.3166 83.3218 44.3549 86.3587 44.3549 90.0921C44.3549 93.8269 41.3166 96.8638 37.5832 96.8638ZM126.771 92.2914H114.713C112.789 84.6454 101.689 78.7154 87.1655 77.4963C94.282 73.9434 116.063 62.1052 118.423 49.212C119.225 44.8243 117.842 40.7827 114.307 37.2C110.607 33.4489 106.659 31.5469 102.574 31.5469C98.3684 31.5469 94.3092 33.6186 90.8364 37.538C86.8288 42.0616 83.9425 48.5916 82.4017 56.0326C80.8621 48.5916 77.9759 42.0616 73.9682 37.538C70.4969 33.6186 66.4363 31.5469 62.2304 31.5469C58.1454 31.5469 54.1989 33.4489 50.498 37.2C46.9642 40.7827 45.5795 44.8243 46.3832 49.212C48.7209 61.9803 70.11 73.7181 77.4383 77.3958C63.3355 78.2728 52.2032 83.5525 49.0807 90.608C49.0875 90.4356 49.1065 90.2672 49.1065 90.0921C49.1065 84.9102 45.6663 80.5183 40.95 79.0738L47.495 67.4052C48.1372 66.2608 47.7299 64.8122 46.5841 64.1714C45.4423 63.532 43.9924 63.9366 43.3516 65.081L37.8248 74.9345L31.7699 65.0064C31.0857 63.8863 29.6263 63.5334 28.5049 64.2149C27.3849 64.8978 27.0306 66.3599 27.7134 67.4799L34.7064 78.9476C29.7417 80.2305 26.0599 84.7337 26.0599 90.0921C26.0599 96.447 31.2296 101.615 37.5832 101.615C42.347 101.615 46.4443 98.7102 48.1969 94.579C48.1969 94.6075 48.1928 94.6374 48.1928 94.6672C48.1928 104.426 62.8685 112.07 81.6048 112.07C98.7893 112.07 112.55 105.638 114.713 97.043H126.771C128.084 97.043 129.147 95.9787 129.147 94.6672C129.147 93.3544 128.084 92.2914 126.771 92.2914Z" fill="white"/>
</svg>
