<svg width="150" height="151" viewBox="0 0 150 151" fill="none" xmlns="http://www.w3.org/2000/svg">
<path d="M116.225 67.5497C113.845 70.2812 110.85 71.6089 107.071 71.6089H80.4712C82.0773 62.5483 89.745 33.4454 122.048 32.2209C122.68 38.7319 123.9 58.7362 116.225 67.5497ZM112.086 106.848C87.8348 105.658 81.5709 84.1912 80.1087 76.5737H100.64C103.491 76.5737 105.746 77.5729 107.536 79.6269C113.332 86.2751 112.588 101.306 112.086 106.848ZM40.6759 106.848C40.1735 101.306 39.4296 86.2751 45.2252 79.6269C47.0159 77.5729 49.2708 76.5737 52.1204 76.5737H72.6514C71.1893 84.1939 64.924 105.658 40.6759 106.848ZM36.5406 67.5524C28.8729 58.7538 30.0866 38.7346 30.7165 32.2209C63.0193 33.4454 70.6856 62.5483 72.2917 71.6089H45.6908C41.9126 71.6089 38.9191 70.2826 36.5406 67.5524ZM126.521 29.4799C126.358 28.3042 125.353 27.4285 124.168 27.4285C95.8501 27.4285 83.7729 46.6332 78.7566 60.3123V52.3758C78.7566 51.0644 77.6922 50 76.3808 50C75.0693 50 74.005 51.0644 74.005 52.3758V60.3096C68.9873 46.6291 56.9101 27.4285 28.5946 27.4285C27.4094 27.4285 26.4048 28.3042 26.2418 29.4799C26.0776 30.6583 22.3591 58.5054 32.9552 70.6708C35.4491 73.534 38.52 75.322 42.1095 76.0211C41.9534 76.1841 41.7904 76.3361 41.6398 76.5099C33.0828 86.3335 36.0627 108.657 36.1944 109.601C36.3573 110.776 37.362 111.65 38.5471 111.65C59.5302 111.65 69.4258 98.541 74.005 87.8811V88.6998C74.005 90.0126 75.0693 91.0756 76.3808 91.0756C77.6922 91.0756 78.7566 90.0126 78.7566 88.6998V87.8825C83.3357 98.5424 93.2313 111.65 114.213 111.65C115.4 111.65 116.404 110.776 116.567 109.601C116.699 108.657 119.679 86.3335 111.122 76.5099C110.971 76.3361 110.808 76.1841 110.652 76.0211C114.242 75.322 117.312 73.534 119.808 70.6695C130.404 58.504 126.685 30.6583 126.521 29.4799Z" fill="white"/>
</svg>
