<svg width="150" height="150" viewBox="0 0 150 150" fill="none" xmlns="http://www.w3.org/2000/svg">
<path d="M121.666 71.2801C121.078 75.2755 117.406 78.5691 114.165 81.4784L112.655 82.8387C109.632 85.577 106.017 88.8488 104.616 93.1524C99.8627 90.3924 96.0139 85.8431 92.9037 79.3361L92.5276 78.5378C92.1516 77.7287 91.7592 76.8911 91.3003 76.0629C90.2686 74.2017 89.1947 73.85 87.5697 73.85H87.3117C87.013 73.85 86.7076 73.8202 86.4075 73.7944C85.9772 73.7564 85.5509 73.7224 85.145 73.7224C83.4575 73.7224 82.1501 74.3211 81.2595 75.5009L68.6691 92.1899L68.661 76.7295C68.661 76.591 68.642 76.458 68.6216 76.329V76.2258C68.6216 75.5946 68.3705 74.9891 67.9252 74.5438C67.4799 74.0985 66.8757 73.85 66.2458 73.85C53.855 73.85 42.352 72.9662 37.7484 62.3199C35.545 57.2235 35.188 50.4572 36.7628 44.0969C37.2393 43.4493 37.3669 42.5872 37.0601 41.8079C36.6542 40.7897 35.6048 40.172 34.52 40.3336C33.9336 40.4164 33.3267 40.4585 32.7158 40.4585C29.8268 40.4585 26.1029 39.4512 24.3272 36.6273C22.7143 34.0601 24.1615 31.3422 26.1857 29.9004C27.9207 28.6664 30.2219 27.9848 32.6615 27.9848C35.6699 27.9848 38.4679 29.0356 40.1405 30.7937C41.4221 32.1378 42.0208 33.8429 41.923 35.8603C41.8606 37.1364 41.7561 38.3922 41.6515 39.6466C41.4167 42.4813 41.1723 45.4137 41.4167 48.4901C41.8443 53.8987 43.3241 59.9686 51.0543 63.9748C51.6435 64.2803 52.3358 64.3224 52.9603 64.097C53.5848 63.869 54.0858 63.3911 54.3397 62.7761C54.7429 61.8108 55.2845 61.0642 55.909 60.1994C57.2599 58.3354 58.9379 56.018 59.3166 51.0939C59.7524 45.4463 59.8814 43.7412 62.75 39.3629C64.4619 36.7468 66.8608 35.1842 69.1633 35.1842C70.6159 35.1842 72.0102 35.8019 73.3026 37.0197C77.07 40.5617 79.2163 46.4985 78.2945 50.8292C78.1438 51.5284 78.3203 52.2601 78.771 52.8167C79.2218 53.3747 79.9006 53.6978 80.6174 53.6978H91.857C92.5724 53.6978 93.2512 53.3747 93.7019 52.8167C94.1527 52.2601 94.3291 51.5284 94.1798 50.8292C93.4087 47.2044 94.9944 41.6572 97.7924 38.2022C98.9654 36.7482 100.885 35.0199 103.36 35.0199C105.835 35.0199 107.753 36.7482 108.927 38.2022C111.725 41.6572 113.314 47.2044 112.54 50.8292C112.282 52.0402 113 53.2498 114.189 53.6028C120.171 55.3704 122.575 65.0908 121.666 71.2801ZM126.402 61.8543C126.178 61.7267 125.941 61.652 125.702 61.6045C124.429 56.6357 121.764 51.9628 117.455 49.8029C117.738 45.0431 115.865 39.2176 112.621 35.2114C110.004 31.9789 106.803 30.2683 103.36 30.2683C99.917 30.2683 96.7144 31.9789 94.0984 35.2114C91.0478 38.9814 89.2083 44.3589 89.2368 48.9462H83.2606C83.3529 43.0569 80.2115 36.9925 76.5568 33.5564C74.386 31.5146 71.8283 30.4326 69.1633 30.4326C65.2507 30.4326 61.368 32.7976 58.7749 36.759C55.2384 42.1582 55.032 44.8435 54.5772 50.7491C54.303 54.3182 53.2631 55.7519 52.0616 57.4122C51.7996 57.7733 51.5253 58.1521 51.2525 58.5635C47.9915 56.2773 46.5579 53.2308 46.1533 48.1167C45.9402 45.4246 46.1574 42.8071 46.3868 40.039C46.4954 38.7316 46.6027 37.4202 46.6692 36.0911C46.6692 36.0748 46.6679 36.0626 46.6692 36.0463C46.7751 35.7761 46.8389 35.4815 46.8376 35.1733L46.8145 21.7643C46.8118 20.4529 45.7488 19.3912 44.4387 19.3912H44.4332C43.1218 19.3939 42.0602 20.4597 42.0629 21.7725L42.071 26.1983C39.5595 24.3071 36.2415 23.2332 32.6615 23.2332C29.243 23.2332 25.9644 24.2284 23.4312 26.0286C18.8764 29.2719 17.5609 34.7919 20.3046 39.1566C22.5324 42.6958 26.7288 44.9046 31.6664 45.1802C30.4119 51.9071 31.0093 58.7033 33.3878 64.2056C39.1386 77.5088 53.8129 78.5161 63.8687 78.5935L63.8605 99.358C63.8605 99.4924 63.8999 99.62 63.923 99.7503L63.9325 116.829H60.3593C59.0465 116.829 57.9835 117.892 57.9835 119.205C57.9835 120.515 59.0465 121.581 60.3593 121.581H66.2417C67.5532 121.581 68.6175 120.515 68.6175 119.205C68.6175 119.146 68.604 119.091 68.5999 119.032C68.6501 118.841 68.6854 118.645 68.6854 118.438L68.6746 100.073L84.9658 78.4795C85.164 78.4659 85.6256 78.4944 85.9975 78.527C86.4211 78.5636 86.8501 78.5989 87.2723 78.6016C87.6117 79.237 87.9186 79.8954 88.224 80.5498L88.6164 81.382C92.5086 89.5303 97.5439 95.0069 103.937 98.1321L103.959 116.829H100.407C99.0957 116.829 98.0313 117.892 98.0313 119.205C98.0313 120.515 99.0957 121.581 100.407 121.581H106.29C107.602 121.581 108.665 120.515 108.665 119.205C108.665 119.127 108.65 119.055 108.644 118.982C108.684 118.807 108.713 118.624 108.713 118.435L108.688 98.1212C108.688 97.9122 108.653 97.7139 108.602 97.5198C108.699 97.2687 108.769 97.0026 108.774 96.727C108.853 92.6895 112.569 89.3267 115.846 86.3617L117.338 85.0149C120.987 81.7404 125.53 77.6676 126.367 71.9725C126.553 70.7153 126.621 69.3387 126.584 67.9146C129.839 71.1688 130.813 76.0032 128.643 79.8181C127.992 80.9584 128.39 82.4084 129.53 83.0586C129.901 83.2704 130.306 83.3709 130.705 83.3709C131.53 83.3709 132.332 82.9392 132.771 82.1694C136.727 75.2171 133.871 66.1036 126.402 61.8543Z" fill="white"/>
</svg>
