<svg width="150" height="151" viewBox="0 0 150 151" fill="none" xmlns="http://www.w3.org/2000/svg">
<path d="M124.752 91.7674C124.654 91.9167 124.573 92.0769 124.511 92.2439L117.649 110.715H111.829V102.27C111.829 101.526 111.482 100.825 110.888 100.376C110.295 99.9266 109.525 99.7813 108.811 99.9822C104.349 101.238 99.6054 101.873 94.7085 101.873C92.1453 101.873 89.5632 101.69 87.0313 101.328C86.3525 101.233 85.6601 101.435 85.1388 101.886C84.6188 102.336 84.3201 102.992 84.3201 103.68V110.715H78.5014L73.8476 98.1889C73.6412 97.6336 73.234 97.1761 72.7072 96.9046C64.4408 92.6471 59.7 86.4049 59.7 79.7771C59.7 78.5634 58.785 77.5452 57.5795 77.4149L56.8722 77.3388C56.2286 77.2709 55.5811 77.4664 55.0855 77.8846C50.8145 81.489 44.5166 83.5566 37.8074 83.5566C25.5401 83.5566 15.559 76.7415 15.559 68.3664C15.559 59.99 25.5401 53.1762 37.8074 53.1762C43.7944 53.1762 50.6638 56.892 51.1702 60.4041C51.325 61.4807 52.1898 62.3143 53.2704 62.4283C54.3565 62.541 55.372 61.9111 55.7494 60.8915C56.6264 58.5238 59.5588 53.0174 67.8076 53.0174C68.2977 53.0174 68.8027 53.0364 69.32 53.0744C69.5372 54.0845 69.9961 54.9886 70.6952 55.7801C72.6217 57.9618 76.2546 59.0221 81.8045 59.0221L82.5661 59.0166C82.7277 59.0139 82.8906 58.9936 83.0494 58.9583C86.8059 58.1098 90.7294 57.6808 94.7085 57.6808C112.234 57.6808 126.79 65.8508 129.325 76.4727C129.338 76.5731 129.348 76.675 129.373 76.7768C129.38 76.8012 129.392 76.8202 129.401 76.8447C129.603 77.8045 129.717 78.782 129.717 79.7771C129.717 83.3964 126.134 89.6604 124.752 91.7674ZM139.243 75.2291C137.302 73.748 135.041 73.4805 133.377 73.5443C129.201 61.7373 113.456 52.9292 94.7085 52.9292C90.466 52.9292 86.2764 53.3785 82.2539 54.2664L81.8045 54.2705C79.0024 54.2705 77.2131 53.9759 76.0727 53.6175C77.376 53.0744 78.7499 52.1866 80.041 51.0095C81.4379 49.7374 82.5647 48.2848 83.2137 46.9177C84.5115 44.1876 83.6074 42.5747 82.9557 41.8593C82.2729 41.1085 81.2764 40.6958 80.1482 40.6958C78.2367 40.6958 75.7781 41.8973 73.5706 43.9093C71.9388 45.3972 70.831 46.9449 70.2404 48.3961C69.411 48.3174 68.5937 48.2658 67.8076 48.2658C60.3042 48.2658 55.9829 51.8119 53.6153 55.0022C50.1819 50.9729 43.5677 48.4246 37.8074 48.4246C22.9199 48.4246 10.8074 57.3699 10.8074 68.3664C10.8074 79.3617 22.9199 88.3082 37.8074 88.3082C44.2858 88.3082 50.4887 86.6072 55.3326 83.5661C56.716 90.3093 61.7758 96.3846 69.7083 100.692L74.6214 113.919C74.9676 114.849 75.8555 115.467 76.8492 115.467H86.6959C88.0074 115.467 89.0717 114.404 89.0717 113.091V106.356C95.1823 106.94 101.342 106.569 107.078 105.312V113.091C107.078 114.404 108.142 115.467 109.453 115.467H119.3C120.294 115.467 121.182 114.849 121.528 113.919L128.874 94.1432C129.903 92.5399 134.469 85.1247 134.469 79.7771C134.469 79.2911 134.448 78.8091 134.409 78.3285C135.1 78.3964 135.815 78.5851 136.375 79.0182C137.368 79.7866 137.872 81.2949 137.872 83.501C137.872 84.8124 138.935 85.8768 140.248 85.8768C141.559 85.8768 142.624 84.8124 142.624 83.501C142.624 79.7241 141.486 76.941 139.243 75.2291Z" fill="white"/>
<path d="M25.5055 58.3261L23.3102 60.1222C22.2961 60.953 22.1454 62.4505 22.9763 63.466C23.446 64.0389 24.1275 64.3362 24.8158 64.3362C25.3453 64.3362 25.8775 64.1611 26.32 63.7999L28.5153 62.0038C29.5294 61.173 29.6787 59.6755 28.8492 58.6601C28.0184 57.6446 26.521 57.4952 25.5055 58.3261Z" fill="white"/>
<path d="M62.817 56.5302L60.6217 58.3263C59.6076 59.1571 59.4569 60.6546 60.2878 61.6701C60.7575 62.243 61.439 62.5403 62.1273 62.5403C62.6568 62.5403 63.189 62.3652 63.6315 62.004L65.8268 60.2066C66.8409 59.3757 66.9902 57.8796 66.1607 56.8642C65.3299 55.8487 63.8325 55.6993 62.817 56.5302Z" fill="white"/>
</svg>
