<svg width="150" height="150" viewBox="0 0 150 150" fill="none" xmlns="http://www.w3.org/2000/svg">
<path d="M26.9633 69.8839C20.5663 69.8839 15.3613 64.6775 15.3613 58.2791C15.3613 51.8808 20.5663 46.6757 26.9633 46.6757C33.3631 46.6757 38.5681 51.8808 38.5681 58.2791C38.5681 64.6775 33.3631 69.8839 26.9633 69.8839ZM43.3197 58.2791C43.3197 52.9315 40.7281 48.1894 36.7449 45.2014C36.7503 45.1905 36.7598 45.181 36.7652 45.1674C37.8798 42.3246 39.5402 39.6651 41.5643 37.4766C42.4549 36.5141 42.3965 35.0112 41.434 34.1193C40.4701 33.2273 38.9686 33.2871 38.0767 34.2496C35.7742 36.7381 33.8898 39.7357 32.5648 42.9328C30.8149 42.292 28.9332 41.9241 26.9633 41.9241C26.7502 41.9241 26.5425 41.9485 26.3293 41.9567C27.2525 40.3357 28.3304 38.8111 29.5659 37.4766C30.4564 36.5141 30.3981 35.0112 29.4342 34.1193C28.4703 33.2273 26.9688 33.2871 26.0782 34.2496C23.6834 36.8372 21.7257 39.9705 20.3953 43.3116C14.6418 45.8476 10.6097 51.597 10.6097 58.2791C10.6097 67.299 17.9462 74.6355 26.9633 74.6355C35.9832 74.6355 43.3197 67.299 43.3197 58.2791Z" fill="white"/>
<path d="M46.5108 99.6809C45.1993 99.6809 44.1349 100.745 44.1349 102.057V105.569C44.1349 106.88 45.1993 107.945 46.5108 107.945C47.8236 107.945 48.8866 106.88 48.8866 105.569V102.057C48.8866 100.745 47.8236 99.6809 46.5108 99.6809Z" fill="white"/>
<path d="M61.5903 99.6809C60.2788 99.6809 59.2145 100.745 59.2145 102.057V105.569C59.2145 106.88 60.2788 107.945 61.5903 107.945C62.9031 107.945 63.9661 106.88 63.9661 105.569V102.057C63.9661 100.745 62.9031 99.6809 61.5903 99.6809Z" fill="white"/>
<path d="M79.7653 99.6809C78.4525 99.6809 77.3895 100.745 77.3895 102.057V105.569C77.3895 106.88 78.4525 107.945 79.7653 107.945C81.0768 107.945 82.1411 106.88 82.1411 105.569V102.057C82.1411 100.745 81.0768 99.6809 79.7653 99.6809Z" fill="white"/>
<path d="M94.8449 99.6809C93.5321 99.6809 92.4691 100.745 92.4691 102.057V105.569C92.4691 106.88 93.5321 107.945 94.8449 107.945C96.1563 107.945 97.2207 106.88 97.2207 105.569V102.057C97.2207 100.745 96.1563 99.6809 94.8449 99.6809Z" fill="white"/>
<path d="M112.678 99.6809C111.365 99.6809 110.302 100.745 110.302 102.057V105.569C110.302 106.88 111.365 107.945 112.678 107.945C113.989 107.945 115.054 106.88 115.054 105.569V102.057C115.054 100.745 113.989 99.6809 112.678 99.6809Z" fill="white"/>
<path d="M127.757 99.6809C126.445 99.6809 125.382 100.745 125.382 102.057V105.569C125.382 106.88 126.445 107.945 127.757 107.945C129.069 107.945 130.133 106.88 130.133 105.569V102.057C130.133 100.745 129.069 99.6809 127.757 99.6809Z" fill="white"/>
<path d="M125.21 90.5367C124.316 90.5367 123.432 90.363 122.593 90.0534V76.3321C122.593 76.1543 122.571 75.9832 122.533 75.8163C123.389 75.4918 124.294 75.3112 125.21 75.3112C129.41 75.3112 132.824 78.727 132.824 82.926C132.824 87.1224 129.41 90.5367 125.21 90.5367ZM107.609 82.926C107.609 78.727 111.025 75.3112 115.223 75.3112C116.138 75.3112 117.043 75.4918 117.901 75.8176C117.865 75.9832 117.841 76.1543 117.841 76.3321V90.0521C117.001 90.363 116.117 90.5367 115.223 90.5367C111.025 90.5367 107.609 87.1224 107.609 82.926ZM92.2982 90.5367C91.4035 90.5367 90.5184 90.363 89.6807 90.0534V76.3321C89.6807 76.1543 89.659 75.9819 89.621 75.8163C90.4763 75.4918 91.3818 75.3112 92.2982 75.3112C96.4959 75.3112 99.9116 78.727 99.9116 82.926C99.9116 87.1224 96.4959 90.5367 92.2982 90.5367ZM74.6969 82.926C74.6969 78.727 78.1126 75.3112 82.309 75.3112C83.2253 75.3112 84.1309 75.4918 84.9889 75.8176C84.9522 75.9832 84.9291 76.1543 84.9291 76.3321V90.0521C84.0888 90.363 83.205 90.5367 82.309 90.5367C78.1126 90.5367 74.6969 87.1224 74.6969 82.926ZM59.0451 90.5367C58.1504 90.5367 57.2653 90.363 56.4276 90.0534V76.3321C56.4276 76.1543 56.4046 75.9832 56.3679 75.8163C57.2232 75.4918 58.1287 75.3112 59.0451 75.3112C63.2428 75.3112 66.6585 78.727 66.6585 82.926C66.6585 87.1224 63.2428 90.5367 59.0451 90.5367ZM41.4438 82.926C41.4438 78.727 44.8582 75.3112 49.0572 75.3112C49.9723 75.3112 50.8778 75.4918 51.7358 75.8176C51.6991 75.9832 51.676 76.1543 51.676 76.3321V90.0521C50.837 90.363 49.9519 90.5367 49.0572 90.5367C44.8582 90.5367 41.4438 87.1224 41.4438 82.926ZM125.21 70.5596C123.49 70.5596 121.788 70.9248 120.216 71.6199C118.644 70.9248 116.94 70.5596 115.223 70.5596C110.037 70.5596 105.595 73.7731 103.76 78.3088C101.928 73.7731 97.4842 70.5596 92.2982 70.5596C90.5781 70.5596 88.8743 70.9248 87.3036 71.6199C85.7315 70.9248 84.0277 70.5596 82.309 70.5596C76.9491 70.5596 72.3903 73.9944 70.6784 78.7718C68.9651 73.9944 64.4049 70.5596 59.0451 70.5596C57.325 70.5596 55.6212 70.9248 54.0505 71.6199C52.4784 70.9248 50.776 70.5596 49.0572 70.5596C42.2394 70.5596 36.6922 76.1068 36.6922 82.926C36.6922 89.7425 42.2394 95.2883 49.0572 95.2883C50.776 95.2883 52.4784 94.9245 54.0505 94.228C55.6212 94.9245 57.325 95.2883 59.0451 95.2883C64.4049 95.2883 68.9651 91.855 70.6784 87.0776C72.3903 91.855 76.9491 95.2883 82.309 95.2883C84.0277 95.2883 85.7315 94.9245 87.3036 94.228C88.8743 94.9245 90.5781 95.2883 92.2982 95.2883C97.4842 95.2883 101.928 92.0762 103.76 87.5405C105.595 92.0762 110.037 95.2883 115.223 95.2883C116.94 95.2883 118.644 94.9245 120.216 94.228C121.788 94.9245 123.49 95.2883 125.21 95.2883C132.03 95.2883 137.576 89.7425 137.576 82.926C137.576 76.1068 132.03 70.5596 125.21 70.5596Z" fill="white"/>
<path d="M26.9647 60.7771C25.5868 60.7771 24.4668 59.6571 24.4668 58.2791C24.4668 56.9025 25.5868 55.7825 26.9647 55.7825C28.3427 55.7825 29.4627 56.9025 29.4627 58.2791C29.4627 59.6571 28.3427 60.7771 26.9647 60.7771ZM26.9647 51.0309C22.968 51.0309 19.7151 54.2823 19.7151 58.2791C19.7151 62.2759 22.968 65.5287 26.9647 65.5287C30.9615 65.5287 34.2143 62.2759 34.2143 58.2791C34.2143 54.2823 30.9615 51.0309 26.9647 51.0309Z" fill="white"/>
</svg>
