<svg width="150" height="150" viewBox="0 0 150 150" fill="none" xmlns="http://www.w3.org/2000/svg">
<path d="M99.4629 72.3363C99.5037 72.3363 99.4996 72.3363 99.5159 72.3363C100.618 72.3363 101.525 71.4579 101.551 70.3501C101.578 69.2247 100.689 68.292 99.5648 68.2648C99.2702 68.2458 92.4102 68.1535 86.8345 73.5948C84.7968 75.5837 83.2369 78.0518 82.1074 80.934C80.9765 78.0518 79.4152 75.5837 77.3788 73.5948C71.8045 68.1535 64.9473 68.258 64.65 68.2648C63.5286 68.292 62.6462 69.2192 62.6679 70.3406C62.6896 71.4606 63.6209 72.4069 64.7382 72.3363C64.7952 72.3173 70.2569 72.2956 74.5822 76.5571C77.8907 79.8167 79.7261 84.7407 80.0723 91.1879C80.037 91.9387 79.9949 92.6881 79.9949 93.4714C79.9949 94.5969 80.9072 95.5078 82.0313 95.5078C82.0585 95.5078 82.0816 95.501 82.1074 95.501C82.1318 95.501 82.1562 95.5078 82.182 95.5078C83.3075 95.5078 84.2184 94.5969 84.2184 93.4714C84.2184 92.6881 84.1777 91.9387 84.141 91.1879C84.4886 84.7407 86.3227 79.8167 89.6325 76.5571C93.8506 72.4001 99.1724 72.3363 99.4629 72.3363Z" fill="white"/>
<path d="M42.4265 46.339L42.1753 53.6904C36.8752 54.0325 32.1711 55.3046 28.1011 57.4985C30.8597 52.9261 35.5651 47.3165 42.4265 46.339ZM131.193 65.6997C124.123 51.8033 110.26 40.09 96.6965 36.552C82.5069 32.8499 67.7199 35.69 56.1355 44.3447C54.5946 45.4959 53.2072 47.0341 51.8659 48.522C49.9951 50.5951 48.2058 52.5812 46.263 53.3089L46.5739 44.2238C46.5929 43.6727 46.3866 43.1364 46.0037 42.7386C45.6195 42.3422 45.0914 42.1182 44.5389 42.1182C28.3169 42.1182 21.5303 61.5061 21.2492 62.3315C21.2044 62.4646 21.1746 62.599 21.1569 62.732C21.1094 62.7809 21.0551 62.823 21.0076 62.8732C10.0205 74.3273 10.6301 92.0318 10.6627 92.7798C10.7075 93.8713 11.6048 94.732 12.6964 94.732H44.733C45.8571 94.732 46.7694 93.8197 46.7694 92.6956C46.7694 91.5702 45.8571 90.6592 44.733 90.6592H14.7518C14.931 85.9524 16.1718 73.7815 23.9631 65.6739C28.9821 60.4512 35.9344 57.7686 44.6122 57.6654C49.0162 57.7415 52.1333 54.3067 54.8906 51.2494C56.1559 49.8457 57.3519 48.5193 58.5738 47.6083C69.1603 39.699 82.6834 37.1073 95.6688 40.4932C107.977 43.7039 121.091 54.8281 127.563 67.5474C130.861 74.0286 133.963 83.8644 130.016 93.9134C128.156 98.6419 124.902 102.078 120.603 103.85C115.68 105.879 109.558 105.593 103.808 103.06C100.711 101.697 98.3895 99.3492 97.2708 96.4507C96.1277 93.483 96.2825 90.089 97.7093 86.8932C99.2868 83.3594 102.422 80.7257 105.699 80.184C108.311 79.7509 110.772 80.689 112.817 82.8937C114.977 85.222 115.093 89.2039 113.08 91.7684C112.056 93.0717 109.806 93.0323 108.22 92.2395C107.804 92.0318 106.474 91.2729 106.76 90.1976C107.05 89.1116 106.403 87.9956 105.316 87.7064C104.231 87.4132 103.114 88.0621 102.825 89.1496C102.117 91.801 103.521 94.4456 106.401 95.8833C109.48 97.4201 113.861 97.3658 116.283 94.284C119.537 90.142 119.325 83.9215 115.802 80.1242C112.826 76.9149 109.002 75.5057 105.032 76.1655C100.374 76.9366 96.1426 80.4107 93.9908 85.2329C92.1187 89.4252 91.9341 93.931 93.4722 97.917C94.9819 101.834 98.0704 104.985 102.166 106.788C105.946 108.451 109.797 109.287 113.504 109.287C116.523 109.287 119.447 108.732 122.156 107.616C127.505 105.411 131.534 101.187 133.807 95.4027C137.369 86.3339 136.466 76.0623 131.193 65.6997Z" fill="white"/>
<path d="M41.4057 69.0086C40.4771 68.08 38.9742 68.08 38.0456 69.0086L37.2853 69.7702L36.5224 69.0086C35.5951 68.08 34.0909 68.08 33.1637 69.0086C32.2351 69.9372 32.2351 71.44 33.1637 72.3686L33.9253 73.1289L33.1637 73.8919C32.2351 74.8191 32.2351 76.3233 33.1637 77.2506C33.628 77.7149 34.2348 77.947 34.843 77.947C35.4512 77.947 36.0594 77.7149 36.5224 77.2506L37.2853 76.489L38.0456 77.2506C38.5099 77.7149 39.1168 77.947 39.7263 77.947C40.3345 77.947 40.9414 77.7149 41.4057 77.2506C42.3343 76.3233 42.3343 74.8191 41.4057 73.8919L40.6441 73.1289L41.4057 72.3686C42.3343 71.44 42.3343 69.9372 41.4057 69.0086Z" fill="white"/>
</svg>
