<svg width="150" height="151" viewBox="0 0 150 151" fill="none" xmlns="http://www.w3.org/2000/svg">
<path d="M119.088 103.2C118.697 102.917 118.219 102.745 117.7 102.745H109.58V96.1272L125.919 88.507L119.088 103.2ZM115.324 124.64H37.7415V107.496H115.324V124.64ZM44.2553 89.0391H48.0308C48.2521 89.0391 48.4625 88.9998 48.6648 88.9428C48.8671 88.9998 49.0775 89.0391 49.2988 89.0391H88.7466C90.058 89.0391 91.1224 87.9748 91.1224 86.6633C91.1224 85.3519 90.058 84.2875 88.7466 84.2875H51.6746V51.5571C51.6746 51.4417 51.6556 51.3291 51.6393 51.2177C51.9461 51.1431 52.2556 51.0711 52.5584 50.9951L53.3159 50.8091C54.4441 50.5335 55.5695 50.2457 56.6746 49.947C57.6277 49.6959 58.7246 48.9071 58.5345 46.5734V34.2097H65.3796V71.0998C65.3796 72.4126 66.4439 73.4756 67.7554 73.4756H104.829V102.745H44.2553V89.0391ZM44.2159 47.5875C43.381 47.5875 42.618 47.5115 41.8795 47.3581C38.476 46.6467 34.691 43.0368 33.78 39.6293C32.9804 36.6412 33.6769 33.4495 34.414 30.0704L34.6027 29.2056C34.7209 28.6531 34.8417 28.1032 34.9652 27.5534H53.7829V45.7941C53.2508 45.9299 52.7172 46.0643 52.1864 46.1946L51.4193 46.382C49.0232 46.9739 46.5428 47.5875 44.2159 47.5875ZM132.501 81.9185C131.795 81.2126 130.722 81.0239 129.817 81.4461L109.58 90.8841V71.0998C109.58 69.7897 108.516 68.724 107.205 68.724H70.1312V31.8339C70.1312 30.5211 69.0668 29.4581 67.7554 29.4581H58.5345V25.1776C58.5345 23.8648 57.4688 22.8018 56.1587 22.8018L34.0977 22.7991C33.9334 22.7923 33.6633 22.7814 33.4325 22.7814C31.4246 22.7814 30.8938 24.0861 30.758 24.6509C30.477 25.832 30.2123 27.0185 29.957 28.2064L29.7724 29.0576C28.985 32.6661 28.093 36.7552 29.19 40.8579C29.8077 43.1658 31.1789 45.4167 32.9668 47.3024L29.5905 47.9622C28.9633 48.0844 28.4134 48.455 28.0618 48.9886C27.7102 49.5235 27.5907 50.1751 27.7251 50.7996L28.8275 55.8499L23.7596 56.8355C23.1324 56.9577 22.5798 57.3283 22.2282 57.8618C21.878 58.3981 21.7571 59.0511 21.8929 59.6756L22.998 64.715L17.9341 65.7006C16.6458 65.9504 15.8054 67.1967 16.0552 68.4851C16.2765 69.62 17.2703 70.4088 18.3848 70.4088C18.5355 70.4088 18.6876 70.3939 18.841 70.364L26.2915 68.9154C26.9201 68.7932 27.4726 68.4226 27.8229 67.8877C28.1745 67.3528 28.2967 66.6998 28.1582 66.074L27.0558 61.0346L32.1197 60.0489C32.7469 59.9281 33.3008 59.5588 33.6511 59.0239C34.0027 58.4891 34.1235 57.836 33.9878 57.2116L32.8854 52.1599L37.9601 51.1675C38.0429 51.1512 38.1162 51.12 38.195 51.0969C39.0842 51.5028 39.9951 51.8178 40.9074 52.0079C41.9555 52.2278 43.0674 52.3391 44.2159 52.3391C45.1323 52.3391 46.031 52.2549 46.923 52.1409V84.2875H41.8795C40.5667 84.2875 39.5037 85.3519 39.5037 86.6633V102.745H35.3644C34.0529 102.745 32.9886 103.808 32.9886 105.121V127.015C32.9886 128.328 34.0529 129.391 35.3644 129.391H117.7C119.012 129.391 120.076 128.328 120.076 127.015V112.342L132.976 84.6011C133.397 83.6956 133.207 82.6245 132.501 81.9185Z" fill="white"/>
</svg>
