<svg width="150" height="150" viewBox="0 0 150 150" fill="none" xmlns="http://www.w3.org/2000/svg">
<path d="M110.71 74.1142C104.482 74.1142 97.53 70.9659 92.1077 65.693C85.7216 59.4793 82.4253 51.3975 83.32 44.6882L102.454 55.8776C103.342 56.3975 104.461 56.2862 105.229 55.606C105.997 54.9245 106.242 53.8276 105.834 52.884L97.4866 33.5776C103.483 33.8545 110.038 36.9445 115.195 41.9608C119.822 46.4626 122.891 51.9704 123.838 57.47C124.736 62.6913 123.589 67.2556 120.607 70.3211C118.193 72.8028 114.77 74.1142 110.71 74.1142ZM62.1672 96.9979C62.1672 92.0087 68.829 87.7934 76.7153 87.7934C84.6029 87.7934 91.266 92.0087 91.266 96.9979C91.266 101.987 84.6029 106.202 76.7153 106.202C68.829 106.202 62.1672 101.987 62.1672 96.9979ZM29.5943 57.47C30.5406 51.9704 33.6087 46.4626 38.2368 41.9608C43.3943 36.9445 49.9502 33.8545 55.9467 33.5776L47.5988 52.884C47.1915 53.8276 47.4359 54.9245 48.2043 55.606C48.9754 56.2862 50.0941 56.3975 50.9792 55.8776L70.1133 44.6882C71.0052 51.3988 67.7089 59.4806 61.3228 65.693C55.9019 70.9659 48.9483 74.1142 42.7223 74.1142C38.6617 74.1142 35.2406 72.8028 32.8268 70.3197C29.8441 67.2556 28.6956 62.6913 29.5943 57.47ZM128.521 56.665C127.405 50.1824 123.85 43.7515 118.508 38.5559C112.141 32.3598 104.159 28.8043 96.6123 28.8043C95.5954 28.8043 94.5881 28.8722 93.6174 29.0052C92.8816 29.1057 92.2354 29.5442 91.8688 30.1917C91.505 30.8393 91.4642 31.6199 91.7575 32.3015L98.5971 48.1175L82.9548 38.97C82.3412 38.6116 81.5999 38.5451 80.932 38.7921C80.2654 39.0379 79.7441 39.57 79.5106 40.2407C76.4315 49.1045 80.1636 60.7011 88.7952 69.0992C95.1759 75.3048 103.163 78.8658 110.71 78.8658C112.947 78.8658 115.039 78.5345 116.972 77.9223C117.802 79.4116 118.835 82.0182 117.769 84.5365C116.659 87.1594 112.267 91.7426 95.4312 93.5713C94.3858 90.4787 91.9625 87.826 88.6228 85.9552L90.4175 81.9204C91.1357 81.7439 91.7656 81.2498 92.0616 80.5099C92.549 79.2907 91.9557 77.9087 90.7379 77.4213L88.5115 76.5307C87.2937 76.0447 85.9117 76.6366 85.4229 77.8544C85.0686 78.7423 85.2926 79.7143 85.9076 80.366L84.2445 84.1075C81.9407 83.4206 79.4006 83.0418 76.7153 83.0418C74.0422 83.0418 71.5129 83.4192 69.2186 84.0994L67.5474 80.3402C68.1447 79.6872 68.3606 78.7314 68.0103 77.8557C67.523 76.6366 66.1396 76.0447 64.9218 76.5307L62.694 77.4213C61.4762 77.9073 60.8829 79.2907 61.3703 80.5085C61.6703 81.262 62.3179 81.7575 63.0524 81.9258L64.8363 85.9403C61.3499 87.8871 58.8438 90.6837 57.8731 93.9447C57.6423 93.8429 57.3966 93.7668 57.1332 93.7424C38.8939 92.0454 34.2468 87.2463 33.0996 84.5351C31.8031 81.4683 33.6169 78.2657 34.3866 77.1159C36.8561 78.2576 39.6568 78.8658 42.7223 78.8658C50.2679 78.8658 58.2546 75.3062 64.6353 69.0992C73.267 60.7025 76.999 49.1058 73.9227 40.2421C73.6892 39.57 73.1692 39.0392 72.5013 38.7921C71.8333 38.5451 71.0921 38.6102 70.4798 38.97L54.8362 48.1175L61.6744 32.3015C61.969 31.6199 61.9283 30.8393 61.5631 30.1917C61.1979 29.5442 60.5517 29.1057 59.8159 29.0052C58.8452 28.8722 57.8378 28.8043 56.821 28.8043C49.2741 28.8043 41.2927 32.3585 34.9229 38.5559C29.5821 43.7515 26.0265 50.1838 24.9119 56.665C23.7485 63.4245 25.3504 69.4508 29.4192 73.6336C29.7314 73.9526 30.064 74.2445 30.398 74.5364C29.1327 76.4438 26.5723 81.2348 28.7051 86.3394C31.4515 92.9197 40.8678 97.0006 56.692 98.4736C56.768 98.4804 56.8414 98.4831 56.9147 98.4831C57.121 98.4831 57.3179 98.4478 57.5106 98.3976C57.7089 99.9018 58.2302 101.325 59.0149 102.641H49.8008C48.4894 102.641 47.425 103.704 47.425 105.017V116.406C47.425 117.718 48.4894 118.782 49.8008 118.782C51.1136 118.782 52.1766 117.718 52.1766 116.406V107.393H63.742C67.1469 109.61 71.6691 110.954 76.7153 110.954C81.7628 110.954 86.2864 109.61 89.6912 107.393H101.254V116.406C101.254 117.718 102.318 118.782 103.63 118.782C104.941 118.782 106.006 117.718 106.006 116.406V105.017C106.006 103.704 104.941 102.641 103.63 102.641H94.4184C95.2221 101.293 95.7434 99.8312 95.9308 98.2876C110.688 96.6816 119.523 92.6699 122.165 86.3408C123.896 82.1946 122.532 78.2576 121.28 75.8981C122.265 75.2464 123.179 74.4903 124.013 73.6336C128.083 69.4495 129.683 63.4231 128.521 56.665Z" fill="white"/>
</svg>
