<svg width="150" height="150" viewBox="0 0 150 150" fill="none" xmlns="http://www.w3.org/2000/svg">
<path d="M77.6071 95.2732C77.4252 95.2678 77.0899 95.1401 76.8632 95.0085V72.084C77.1184 71.9808 77.3682 71.8736 77.6031 71.7609C77.8379 71.8736 78.0877 71.9808 78.3443 72.0854V95.0085C78.1176 95.1401 77.7836 95.2678 77.6071 95.2732ZM35.44 57.802C37.6747 57.0771 45.1673 56.9576 56.6105 59.7231C65.7417 61.9292 71.7165 64.6254 74.4833 66.4201C74.2932 67.0039 74.2606 67.5293 74.3041 67.9746C70.6874 69.081 62.922 69.9349 53.7975 67.7288C43.5313 65.2485 36.8044 60.0665 35.44 57.802ZM77.6031 48.9437C79.11 48.9437 80.8627 51.7363 80.8627 55.3339C80.8627 58.9316 79.11 61.7228 77.6031 61.7228C76.0961 61.7228 74.3434 58.9316 74.3434 55.3339C74.3434 51.7363 76.0961 48.9437 77.6031 48.9437ZM98.5956 59.7231C110.037 56.9563 117.533 57.0771 119.766 57.802C118.4 60.0665 111.675 65.2485 101.41 67.7288C92.2869 69.9376 84.52 69.081 80.902 67.9746C80.9468 67.5293 80.9142 67.0039 80.7228 66.4201C83.4896 64.6254 89.4644 61.9292 98.5956 59.7231ZM128.399 107.417C117.341 107.847 109.575 100.784 107.814 99.0161L103.364 80.3029C103.191 79.5753 102.686 78.9725 102.002 78.6738L90.8166 73.7959C94.7156 73.7213 98.8101 73.2448 102.526 72.3474C113.312 69.7394 121.611 64.0457 123.943 60.0109C124.716 58.6763 124.937 57.4178 124.602 56.2734C122.589 49.4107 101.654 54.0958 97.4783 55.1045C93.5223 56.0602 89.1006 57.3907 85.192 58.9451C85.4608 57.8156 85.6143 56.606 85.6143 55.3339C85.6143 54.2574 85.5029 53.2242 85.3061 52.2467L96.7452 46.7634C97.1484 46.5693 97.4878 46.2665 97.7268 45.8891C97.7566 45.8429 100.64 41.2773 105.658 32.9213C119.733 30.7749 123.136 21.7482 123.277 21.3545C123.721 20.1191 123.08 18.7588 121.845 18.3135C120.612 17.8709 119.25 18.5117 118.805 19.7471C118.78 19.8177 116.101 26.899 103.923 28.3625C103.194 28.4494 102.546 28.8702 102.169 29.5001C97.8666 36.6805 95.0319 41.2407 94.0721 42.7748L83.5521 47.8183C82.9995 46.9698 82.3547 46.2434 81.6324 45.6705C82.3112 44.7989 82.7334 43.7197 82.7334 42.5331C82.7334 40.566 81.608 38.8744 79.9789 38.0137V21.6627C79.9789 20.3513 78.9145 19.2869 77.6031 19.2869C76.2916 19.2869 75.2272 20.3513 75.2272 21.6627V38.0137C73.5981 38.8744 72.4727 40.566 72.4727 42.5331C72.4727 43.7197 72.8949 44.7989 73.5737 45.6692C72.8528 46.2434 72.2066 46.9698 71.654 47.8183L61.134 42.7748C60.1742 41.2407 57.3395 36.6805 53.0373 29.5001C52.6599 28.8702 52.0136 28.4494 51.2832 28.3625C39.3377 26.9261 36.5248 20.0648 36.3931 19.7254C35.9424 18.5036 34.5888 17.8723 33.3616 18.3135C32.1261 18.7588 31.4854 20.1191 31.9293 21.3545C32.0705 21.7482 35.4726 30.7749 49.5496 32.9213C54.5659 41.2773 57.4495 45.8429 57.4793 45.8891C57.7169 46.2665 58.0577 46.5693 58.4595 46.7634L69.9 52.2467C69.7032 53.2242 69.5918 54.2574 69.5918 55.3339C69.5918 56.606 69.7453 57.8156 70.0154 58.9451C66.1042 57.3907 61.6838 56.0602 57.7278 55.1045C53.5518 54.0944 32.6189 49.4094 30.6043 56.2747C30.2689 57.4192 30.4902 58.6763 31.2627 60.0109C33.5964 64.0457 41.8941 69.7408 52.6802 72.3474C56.396 73.2448 60.4919 73.7213 64.3909 73.7959L53.2043 78.6738C52.52 78.9725 52.015 79.5753 51.8426 80.3029L47.3924 99.0161C45.6234 100.789 37.8525 107.864 26.8071 107.417C25.4753 107.376 24.3905 108.385 24.3389 109.696C24.286 111.008 25.3069 112.113 26.617 112.164C27.0256 112.182 27.4275 112.19 27.828 112.19C42.0027 112.189 50.9561 102.197 51.3403 101.758C51.5955 101.468 51.7774 101.119 51.867 100.74L56.191 82.5552L72.1116 75.6124V75.9437L60.4185 87.2525C60.0384 87.619 59.7913 88.1051 59.718 88.6277L57.0639 107.524C56.1394 109.102 51.7828 115.933 46.0185 115.529C44.7274 115.45 43.5775 116.43 43.4879 117.739C43.3997 119.049 44.3893 120.181 45.6981 120.269C45.9764 120.288 46.2493 120.298 46.5208 120.298C55.6887 120.296 61.225 109.851 61.4625 109.394C61.5861 109.155 61.6689 108.895 61.7069 108.629L64.3094 90.098L72.1116 82.5538V95.5108C72.1116 98.3074 75.3101 100.025 77.6031 100.025C79.8974 100.025 83.0959 98.3074 83.0959 95.5108V82.5538L90.8967 90.098L93.5006 108.629C93.5372 108.895 93.62 109.155 93.7436 109.394C93.9825 109.851 99.5161 120.298 108.687 120.298C108.957 120.298 109.231 120.288 109.508 120.269C110.817 120.181 111.806 119.049 111.718 117.739C111.63 116.43 110.483 115.451 109.188 115.529C103.359 115.924 99.0626 109.113 98.1435 107.528L95.4881 88.6277C95.4148 88.1051 95.169 87.619 94.7876 87.2525L83.0959 75.9437V75.6124L99.0151 82.5552L103.339 100.74C103.43 101.119 103.611 101.468 103.866 101.758C104.251 102.197 113.202 112.19 127.379 112.19C127.777 112.19 128.183 112.182 128.589 112.164C129.901 112.113 130.92 111.008 130.869 109.696C130.816 108.385 129.713 107.376 128.399 107.417Z" fill="white"/>
</svg>
