<svg width="150" height="151" viewBox="0 0 150 151" fill="none" xmlns="http://www.w3.org/2000/svg">
<path d="M114.693 75.4838C120.357 76.9799 125.891 78.7665 131.06 80.8857C126.194 82.5474 121.216 83.9023 116.157 85.0046L114.693 75.4838ZM91.0975 88.1244C92.5651 83.3185 92.9968 80.2042 92.4022 78.2764L96.2062 71.5929C100.655 72.3192 105.191 73.1962 109.694 74.2443L111.494 85.936C104.827 87.1469 98.0199 87.8828 91.0975 88.1244ZM81.0282 100.882C80.534 101.747 79.7303 102.368 78.7692 102.629C77.8053 102.892 76.802 102.762 75.9358 102.268C74.1506 101.246 73.5288 98.9608 74.5511 97.1755C76.2739 94.1644 84.0584 84.3978 87.88 81.3989C87.2311 86.2143 82.7524 97.872 81.0282 100.882ZM75.4118 87.7429C69.2116 87.2257 62.5852 86.3582 58.9224 85.5816C55.918 84.9476 53.8192 82.6927 53.8192 80.0969V75.0616V74.1547C53.8192 72.8365 54.3826 71.5481 55.4035 70.5285C56.7027 69.2307 58.5993 68.4881 60.6058 68.4881H60.6207C68.0998 68.5003 79.1303 69.1275 91.1736 70.8272L88.2751 75.9196C86.0092 76.4599 83.0782 78.9606 78.8085 83.8643C77.6871 85.1513 76.5848 86.4858 75.5598 87.7714C75.5095 87.7633 75.4634 87.7484 75.4118 87.7429ZM49.0676 88.1135C39.0362 87.0207 35.7061 79.0611 35.7061 75.0616C35.7061 70.386 38.6996 66.5806 42.3814 66.5766H42.3841H42.3882C46.0727 66.5779 49.0676 70.3846 49.0676 75.0616V80.0969V88.1135ZM93.4326 53.4133L95.1391 63.86L93.6905 66.4028C91.2808 66.0444 88.905 65.7267 86.5835 65.447L93.4326 53.4133ZM106.502 53.5002L108.92 69.2103C106.125 68.5913 103.33 68.0333 100.553 67.5337L100.098 64.752L106.502 53.5002ZM139.7 81.65C139.719 81.5699 139.725 81.4885 139.735 81.407C139.746 81.3364 139.761 81.2658 139.763 81.1939C139.766 81.1151 139.757 81.0377 139.751 80.959C139.747 80.8843 139.747 80.8083 139.735 80.7336C139.725 80.663 139.702 80.5952 139.685 80.5246C139.664 80.4404 139.645 80.3589 139.615 80.2788C139.611 80.2639 139.61 80.249 139.605 80.234C139.583 80.1811 139.552 80.1363 139.527 80.0861C139.491 80.0073 139.455 79.9299 139.41 79.858C139.371 79.7928 139.325 79.7358 139.279 79.6761C139.231 79.6123 139.185 79.5471 139.131 79.4887C139.078 79.4317 139.021 79.3842 138.964 79.3339C138.905 79.281 138.848 79.2281 138.783 79.1819C138.718 79.133 138.649 79.095 138.58 79.0556C138.528 79.0244 138.482 78.9878 138.426 78.9606C130.993 75.363 122.55 72.5595 113.909 70.3901L110.161 46.0334C110.008 45.0342 109.238 44.2413 108.244 44.058C107.252 43.8775 106.248 44.3418 105.747 45.2188L98.8806 57.2879L97.0384 46.0116C96.8768 45.0179 96.1057 44.2332 95.1147 44.0567C94.1223 43.8721 93.1271 44.3445 92.6289 45.2188L81.4382 64.8809C73.2885 64.0718 66.0471 63.746 60.6302 63.7365H60.6058C57.3503 63.7365 54.2319 64.9855 52.0461 67.1644C51.9416 67.2689 51.8493 67.3816 51.7502 67.4889C50.0369 64.6583 47.395 62.645 44.3377 62.0327C38.8258 38.9969 13.7672 29.0633 12.6771 28.6411C11.4539 28.1673 10.0773 28.7783 9.60618 30.0015C9.13374 31.2247 9.74194 32.6013 10.9665 33.0737C11.2068 33.166 34.0919 42.2294 39.4965 62.2716C34.5901 63.7582 30.9545 68.9211 30.9545 75.0616C30.9545 82.5067 37.3121 92.9901 51.4434 92.9901C52.7562 92.9901 53.8192 91.9257 53.8192 90.6143V88.5303C55.0261 89.3177 56.4122 89.9083 57.9381 90.2314C58.2191 90.2911 58.549 90.3522 58.8613 90.412L60.7633 97.9059L47.1696 107.488C46.0971 108.244 45.8405 109.727 46.5967 110.799C47.0597 111.455 47.7941 111.806 48.5408 111.806C49.0133 111.806 49.4911 111.665 49.9066 111.372L64.8375 100.846C65.6425 100.28 66.0145 99.2744 65.7728 98.32L63.9767 91.2455C66.5046 91.6026 69.3284 91.9393 72.1726 92.2189C71.3526 93.358 70.7349 94.2757 70.4267 94.8147C68.1038 98.8739 69.5171 104.068 73.5763 106.392C74.8769 107.135 76.316 107.516 77.7767 107.516C78.5221 107.516 79.2755 107.416 80.0168 107.215C82.2025 106.62 84.0271 105.208 85.1526 103.243C85.9386 101.869 87.8108 97.576 89.4915 92.9303C89.5444 92.9344 89.5947 92.9453 89.649 92.9453C89.668 92.9453 89.6883 92.9453 89.7087 92.9439C93.0145 92.8638 96.289 92.6411 99.5472 92.3452L101.741 106.608C101.919 107.766 102.915 108.621 104.088 108.621H109.771C111.084 108.621 112.147 107.558 112.147 106.246C112.147 104.934 111.084 103.87 109.771 103.87H106.126L104.276 91.8429C106.943 91.513 109.589 91.1071 112.216 90.6319L114.674 106.608C114.853 107.766 115.851 108.621 117.022 108.621H122.704C124.017 108.621 125.08 107.558 125.08 106.246C125.08 104.934 124.017 103.87 122.704 103.87H119.061L116.881 89.7101C124.161 88.1407 131.272 86.0364 138.157 83.3484C138.168 83.3443 138.179 83.3402 138.19 83.3362C138.212 83.328 138.235 83.3199 138.257 83.3131C138.299 83.2968 138.334 83.2696 138.373 83.2533C138.466 83.2099 138.555 83.1678 138.641 83.1149C138.698 83.0809 138.747 83.0402 138.8 83.0008C138.87 82.9492 138.939 82.8976 139.006 82.8366C139.059 82.7863 139.105 82.732 139.155 82.6777C139.208 82.618 139.262 82.5596 139.31 82.4931C139.359 82.4238 139.4 82.3519 139.442 82.2786C139.469 82.2297 139.504 82.1863 139.53 82.1347C139.537 82.1211 139.539 82.1062 139.545 82.0926C139.582 82.0125 139.609 81.9283 139.636 81.8441C139.658 81.779 139.683 81.7152 139.7 81.65Z" fill="white"/>
<path d="M42.3871 73.901C40.7648 73.901 39.4452 75.2206 39.4452 76.8415C39.4452 78.4639 40.7648 79.7834 42.3871 79.7834C44.0081 79.7834 45.329 78.4639 45.329 76.8415C45.329 75.2206 44.0081 73.901 42.3871 73.901Z" fill="white"/>
</svg>
