<svg width="150" height="150" viewBox="0 0 150 150" fill="none" xmlns="http://www.w3.org/2000/svg">
<path d="M70.4603 67.4526C69.4706 67.7404 68.7809 68.6323 68.7511 69.6628C68.5977 74.785 65.8336 79.413 61.5979 82.0251C61.5979 81.9518 61.6087 81.8798 61.6087 81.8038C61.6087 70.518 52.4259 61.3352 41.1388 61.3352C41.0655 61.3352 40.9949 61.3461 40.9216 61.3461C43.5255 57.1063 48.1237 54.349 53.2826 54.1943C54.3116 54.163 55.2036 53.472 55.4914 52.4837C56.9834 47.3669 61.7472 43.7923 67.0215 43.7923C67.0649 43.795 67.2116 43.8032 67.255 43.8032C68.2637 43.8398 69.2819 43.1189 69.5792 42.0872C70.6979 38.2139 74.2955 35.5082 78.3262 35.5082C78.6371 35.5082 78.9453 35.5232 79.2494 35.5544C80.421 35.6725 81.5207 34.8987 81.7976 33.7434C82.4615 30.9684 84.916 29.0298 87.7683 29.0298C88.5517 29.0298 89.3242 29.1805 90.06 29.4764C90.7646 29.7602 91.5642 29.6909 92.2091 29.2877C92.8539 28.8845 93.2653 28.1976 93.3182 27.4387C93.3942 26.358 94.2916 25.5095 95.3641 25.5095C96.5059 25.5095 97.4345 26.4381 97.4345 27.5812C97.4345 28.6524 96.5873 29.5511 95.5067 29.6271C94.7478 29.6787 94.0595 30.0914 93.6576 30.7363C93.2531 31.3811 93.1825 32.1794 93.4676 32.884C93.7649 33.6212 93.9142 34.3923 93.9142 35.177C93.9142 38.0279 91.9769 40.4838 89.202 41.1464C88.0467 41.4233 87.2728 42.5094 87.3896 43.6919C87.4208 43.9973 87.4371 44.3055 87.4371 44.6191C87.4371 48.6485 84.7314 52.2461 80.8554 53.3661C79.825 53.6648 79.1204 54.6178 79.1408 55.6917L79.1503 55.8682C79.1503 61.1968 75.5771 65.9606 70.4603 67.4526ZM41.1388 97.5221C40.1491 97.5221 39.1852 97.4189 38.2458 97.2438C39.5179 77.0943 50.7601 73.9107 54.4067 73.4138C55.9503 75.8439 56.8571 78.718 56.8571 81.8038C56.8571 90.4707 49.8058 97.5221 41.1388 97.5221ZM25.4219 81.8038C25.4219 73.1382 32.4733 66.0868 41.1388 66.0868C44.7772 66.0868 48.121 67.3399 50.7873 69.4225C44.8234 71.2919 35.2007 77.1934 33.6069 95.5943C28.7344 92.9212 25.4219 87.7433 25.4219 81.8038ZM83.8381 57.3317C88.6739 55.2274 91.9755 50.469 92.1792 45.1391C96.0782 43.4258 98.6658 39.5661 98.6658 35.177C98.6658 34.6434 98.6278 34.114 98.5504 33.5913C100.717 32.4401 102.186 30.162 102.186 27.5812C102.186 23.8179 99.126 20.7579 95.3641 20.7579C92.782 20.7579 90.5039 22.2282 89.354 24.3949C88.83 24.3175 88.3019 24.2782 87.7683 24.2782C83.3779 24.2782 79.5182 26.8671 77.8049 30.7661C72.4736 30.9684 67.7166 34.2701 65.6137 39.1059C59.347 39.6598 53.8433 43.7407 51.4824 49.5621C44.1201 50.3984 37.8412 55.2763 35.2224 62.215C26.8134 64.7605 20.6703 72.5735 20.6703 81.8038C20.6703 93.0922 29.8517 102.274 41.1388 102.274C50.3732 102.274 58.1903 96.1265 60.7317 87.7107C67.6473 85.0905 72.5401 78.7818 73.3805 71.4616C79.2019 69.1007 83.2828 63.5984 83.8381 57.3317Z" fill="white"/>
<path d="M105.83 114.951C100.054 113.714 95.1718 109.997 92.7729 105.005C90.2912 99.8465 90.8722 93.2527 94.2187 88.5961C95.818 86.3696 99.44 82.7543 105.769 83.5404C111.521 84.2586 114.915 88.6083 115.635 92.3458C116.348 96.0534 114.619 99.3605 110.893 101.416C109.113 102.399 106.911 102.453 104.998 101.56C103.119 100.681 101.817 99.0361 101.428 97.0445C101.052 95.1207 102.725 93.1753 104.524 92.5671C106.706 91.8272 107.459 93.3368 107.705 93.8324C108.288 95.0094 109.713 95.4914 110.889 94.9062C112.064 94.3238 112.545 92.8983 111.963 91.7227C110.236 88.2404 106.718 86.8054 103 88.0653C99.2337 89.3428 95.8723 93.3898 96.7656 97.9554C97.4498 101.457 99.717 104.339 102.987 105.865C106.27 107.399 110.085 107.289 113.187 105.577C118.753 102.506 121.411 97.2237 120.3 91.4484C119.037 84.8831 113.304 79.6916 106.357 78.8268C99.9654 78.0326 94.1305 80.5795 90.3591 85.8239C88.51 88.3965 87.318 91.4308 86.8049 94.5818L81.9433 94.2709C82.7809 82.4896 92.61 73.1534 104.602 73.1534C117.14 73.1534 127.341 83.3558 127.341 95.8932C127.341 101.153 125.779 105.915 122.848 109.745C122.307 110.342 121.729 110.906 121.124 111.416C117.032 114.867 111.456 116.153 105.83 114.951ZM126.569 112.694C130.172 108.019 132.093 102.239 132.093 95.8932C132.093 80.7342 119.761 68.4018 104.602 68.4018C89.4427 68.4018 77.1102 80.7342 77.1102 95.8932C77.1102 96.1837 77.17 96.458 77.2636 96.7132C77.3668 97.8631 78.2846 98.7998 79.4711 98.8745L86.551 99.3266C86.6976 102.011 87.333 104.658 88.491 107.064C91.5225 113.37 97.6331 118.055 104.835 119.597C106.553 119.965 108.269 120.145 109.957 120.145C115.226 120.145 120.232 118.385 124.186 115.049C124.618 114.685 125.038 114.298 125.445 113.899C125.661 113.765 125.866 113.609 126.035 113.401C126.186 113.22 126.315 113.025 126.46 112.839C126.464 112.833 126.471 112.829 126.477 112.822C126.512 112.782 126.536 112.736 126.569 112.694Z" fill="white"/>
</svg>
