<svg width="150" height="151" viewBox="0 0 150 151" fill="none" xmlns="http://www.w3.org/2000/svg">
<path d="M132.554 54.5385C128.678 50.7739 122.408 50.911 122.209 50.9191H67.6502V40.7521C67.6502 39.4406 66.5858 38.3763 65.2744 38.3763H48.8692C40.7846 38.3763 36.5761 45.5417 35.0474 50.5987H19.1811C19.2205 50.3693 19.2517 50.1358 19.2517 49.8955C19.2517 47.6392 17.4163 45.8023 15.1586 45.8023C12.9022 45.8023 11.0681 47.6392 11.0681 49.8955C11.0681 52.1518 12.9022 53.9873 15.1586 53.9873C15.1654 53.9873 15.1708 53.9846 15.1776 53.9846C15.3283 56.3767 16.1306 62.3542 20.3242 66.6062C23.2539 69.578 27.1856 71.0917 32.0091 71.1107L42.2563 71.8506L53.5692 82.0191V98.3293C53.5692 99.6421 54.6349 100.705 55.945 100.705C57.2578 100.705 58.3208 99.6421 58.3208 98.3293V80.9588C58.3208 80.2854 58.0357 79.6433 57.5334 79.1925L44.8289 67.7724C44.4366 67.4194 43.937 67.209 43.4102 67.171L32.267 66.3659C32.21 66.3618 32.153 66.3591 32.096 66.3591C28.5635 66.3591 25.7478 65.3274 23.7291 63.291C21.3574 60.9016 20.4532 57.566 20.107 55.3503H36.9019C38.0382 55.3503 39.0184 54.5385 39.2356 53.4226C39.3157 53.0017 41.3263 43.1279 48.8692 43.1279H62.8986V64.2983C60.0639 64.4001 55.7033 64.039 54.8806 61.5777C54.4964 60.4223 54.1557 56.7392 54.0375 54.4937C53.9683 53.1836 52.8374 52.1871 51.5382 52.2482C50.2281 52.3161 49.2235 53.4348 49.2914 54.7449C49.3443 55.7549 49.6484 60.9016 50.3734 63.0792C52.8564 70.5297 64.3282 69.0295 65.6287 68.8327C66.7922 68.6576 67.6502 67.6584 67.6502 66.484V55.6707H122.272C123.534 55.6409 127.249 55.9966 129.255 57.9597C130.275 58.9548 130.77 60.2717 130.77 61.9809V77.7426C130.77 79.0554 131.835 80.1184 133.146 80.1184C134.458 80.1184 135.522 79.0554 135.522 77.7426V61.9809C135.522 58.9548 134.523 56.45 132.554 54.5385Z" fill="white"/>
<path d="M124.238 84.089C110.298 81.5802 109.803 64.5912 109.788 63.8676C109.766 62.5588 108.658 61.5271 107.374 61.5366C106.061 61.5569 105.016 62.6376 105.037 63.9504C105.065 65.6311 105.298 67.6906 105.792 69.8926C101.256 68.8296 95.0183 69.2708 89.205 74.7243C81.0513 82.3744 67.9776 79.3442 67.7699 79.2953C66.4978 78.9831 65.2108 79.761 64.8986 81.0344C64.585 82.3079 65.3629 83.5962 66.6363 83.9098C66.916 83.9791 69.9651 84.7027 74.1533 84.7027C79.5321 84.7027 86.7899 83.5066 92.4579 78.1889C99.3029 71.7647 106.012 74.7515 107.653 75.6448C110.039 81.1105 114.306 86.3454 121.441 88.3207V98.3289C121.441 99.6417 122.506 100.705 123.817 100.705C125.129 100.705 126.193 99.6417 126.193 98.3289V86.4268C126.193 85.2769 125.37 84.2913 124.238 84.089Z" fill="white"/>
</svg>
