<svg width="150" height="151" viewBox="0 0 150 151" fill="none" xmlns="http://www.w3.org/2000/svg">
<path d="M44.8722 68.7754C43.9436 67.8468 42.4407 67.8468 41.5121 68.7754L40.7518 69.537L39.9889 68.7754C39.0616 67.8468 37.5574 67.8468 36.6302 68.7754C35.7016 69.704 35.7016 71.2069 36.6302 72.1355L37.3918 72.8957L36.6302 73.6587C35.7016 74.586 35.7016 76.0902 36.6302 77.0174C37.0945 77.4817 37.7013 77.7139 38.3095 77.7139C38.9177 77.7139 39.5246 77.4817 39.9889 77.0174L40.7518 76.2558L41.5121 77.0174C41.9764 77.4817 42.5832 77.7139 43.1928 77.7139C43.801 77.7139 44.4079 77.4817 44.8722 77.0174C45.8008 76.0902 45.8008 74.586 44.8722 73.6587L44.1105 72.8957L44.8722 72.1355C45.8008 71.2069 45.8008 69.704 44.8722 68.7754Z" fill="white"/>
<path d="M128.521 93.45H128.495C124.618 93.45 114.487 91.7041 102.627 75.8853C114.487 60.0652 124.617 58.3193 128.494 58.3193H128.521V93.45ZM56.5043 97.9463C50.835 97.9463 45.0435 96.5331 40.1778 93.5721C38.5189 92.5621 36.9047 91.4163 35.4276 90.1578C31.2313 86.5819 27.5589 81.8194 24.5071 75.884C31.9318 61.4459 42.9759 53.8229 56.5043 53.8229C70.8338 53.8229 86.8522 62.6446 96.7464 75.8853C86.8522 89.1246 70.8338 97.9463 56.5043 97.9463ZM77.2023 105.67C70.3627 105.442 64.2291 104.24 58.9005 102.611C64.9649 102.247 71.2207 100.535 77.2023 97.7237V105.67ZM77.2023 54.0456C71.9145 51.5598 66.4148 49.9456 61.0184 49.3496C65.6559 48.216 71.0171 47.2671 77.2023 46.6779V54.0456ZM131.509 53.8772C131.316 53.8257 130.261 53.5677 128.494 53.5677C122.922 53.5677 111.994 56.0236 99.6842 71.9075C94.7996 65.6965 88.6442 60.4507 81.9539 56.5517V44.0889C81.9539 43.4278 81.6783 42.7951 81.1937 42.3458C80.7077 41.8964 80.0533 41.667 79.3962 41.7199C49.286 44.0238 36.1498 54.4407 33.0545 57.3215C28.2554 61.2205 23.6545 66.8301 19.7351 74.7979C19.5749 75.1237 19.4907 75.5581 19.4907 75.922C19.4907 76.2858 19.5749 76.6456 19.7351 76.9714C24.2627 86.1746 29.6985 92.2268 35.3013 96.1366C41.2829 100.634 56.9374 110.461 79.5781 110.461C80.8896 110.461 81.9539 109.398 81.9539 108.085V95.2162C88.6442 91.3172 94.7996 86.0727 99.6842 79.8604C111.994 95.7457 122.922 98.2016 128.495 98.2016C130.26 98.2016 131.315 97.945 131.509 97.892C132.549 97.6151 133.273 96.6743 133.273 95.5977V56.1729C133.273 55.0964 132.549 54.1542 131.509 53.8772Z" fill="white"/>
</svg>
