<svg width="150" height="150" viewBox="0 0 150 150" fill="none" xmlns="http://www.w3.org/2000/svg">
<path d="M44.8409 106.429C46.1414 106.635 47.2777 107.613 48.3163 109.414C48.972 110.552 50.426 110.94 51.561 110.286C52.6973 109.63 53.0883 108.178 52.4326 107.041C50.6582 103.964 48.3557 102.178 45.5902 101.737C39.7784 100.805 33.9135 106.056 28.7492 110.688C26.7128 112.512 24.7904 114.237 23.4519 114.989C20.6362 116.569 18.1884 116.903 16.7372 115.905C16.3625 115.649 16.1249 115.351 15.9796 115.089C17.0263 115.074 17.9753 114.363 18.2455 113.3C18.5686 112.028 17.8002 110.734 16.5294 110.412C14.026 109.774 12.3412 110.928 11.6027 112.221C10.484 114.177 11.0678 117.003 12.9888 118.939C13.6853 119.641 15.609 121.216 18.8279 121.216C20.7014 121.216 23.0147 120.683 25.7761 119.132C27.5722 118.125 29.5882 116.316 31.9206 114.224C35.8617 110.692 41.2649 105.859 44.8409 106.429Z" fill="white"/>
<path d="M72.5774 106.255C73.8794 106.463 75.0157 107.441 76.0543 109.242C76.71 110.38 78.1626 110.768 79.2989 110.114C80.4352 109.458 80.8262 108.005 80.1705 106.869C78.3961 103.791 76.0936 102.005 73.3282 101.564C67.5027 100.636 61.6501 105.882 56.4844 110.514C54.4494 112.339 52.5284 114.063 51.1884 114.815C48.3714 116.395 45.9209 116.728 44.4737 115.732C44.099 115.475 43.8628 115.179 43.7162 114.918C44.7643 114.903 45.7132 114.192 45.9834 113.128C46.3065 111.856 45.5395 110.563 44.2674 110.24C41.764 109.605 40.0806 110.756 39.342 112.05C38.222 114.006 38.8058 116.831 40.7254 118.767C41.4219 119.468 43.3456 121.044 46.5631 121.044C48.4379 121.042 50.7499 120.509 53.514 118.959C55.3088 117.95 57.3248 116.143 59.6572 114.051C63.5969 110.52 68.9866 105.695 72.5774 106.255Z" fill="white"/>
<path d="M100.603 106.627C101.904 106.834 103.041 107.812 104.08 109.613C104.734 110.751 106.188 111.139 107.325 110.485C108.461 109.829 108.852 108.377 108.196 107.24C106.422 104.163 104.119 102.376 101.353 101.935C95.5298 101.005 89.6758 106.255 84.5115 110.885C82.4751 112.71 80.5541 114.434 79.2155 115.186C76.3985 116.765 73.9494 117.099 72.5008 116.103C72.1261 115.846 71.8899 115.55 71.7433 115.289C72.7913 115.273 73.7389 114.563 74.0091 113.499C74.3336 112.228 73.5652 110.934 72.2931 110.611C69.7869 109.974 68.1076 111.126 67.3691 112.419C66.249 114.374 66.8315 117.201 68.7525 119.137C69.4489 119.839 71.3726 121.414 74.5915 121.414C76.465 121.414 78.777 120.88 81.5411 119.328C83.3358 118.321 85.3518 116.515 87.6828 114.423C91.6226 110.892 97.015 106.058 100.603 106.627Z" fill="white"/>
<path d="M135.934 107.067C134.159 103.988 131.857 102.203 129.09 101.761C123.266 100.823 117.413 106.08 112.251 110.711C110.214 112.535 108.292 114.261 106.952 115.013C104.136 116.592 101.688 116.927 100.237 115.929C99.8651 115.674 99.6262 115.378 99.4809 115.116C100.528 115.101 101.477 114.39 101.747 113.325C102.071 112.055 101.303 110.762 100.031 110.438C97.5287 109.798 95.8439 110.954 95.1054 112.246C93.9867 114.202 94.5678 117.028 96.4888 118.965C97.1852 119.665 99.109 121.24 102.328 121.239C104.201 121.239 106.513 120.707 109.276 119.156C111.073 118.149 113.088 116.341 115.423 114.249C119.36 110.716 124.754 105.876 128.341 106.453C129.641 106.661 130.779 107.638 131.818 109.44C132.473 110.578 133.926 110.966 135.062 110.312C136.199 109.656 136.59 108.203 135.934 107.067Z" fill="white"/>
<path d="M133.133 67.2229C133.076 67.4524 132.872 68.0036 132.197 68.2031C130.178 68.7991 129.246 68.4231 122.541 65.2721C120.807 64.4589 118.734 63.4855 116.215 62.3383C94.9256 52.6491 55.118 65.8531 43.4263 70.1309C39.3237 71.6311 36.3953 75.2654 35.7803 79.6151L33.7765 93.8183C33.7589 93.9365 33.7236 94.1835 33.3557 94.2175C32.981 94.2487 32.9104 94.0111 32.871 93.8984L28.4262 80.3632C28.209 79.702 27.7162 79.1712 27.0727 78.9065L13.7057 73.4109C13.5944 73.3647 13.365 73.2697 13.4234 72.9045C13.4817 72.542 13.7302 72.5244 13.851 72.5149L29.2177 71.4261C32.8194 71.1695 36.0519 69.3449 38.0869 66.422C42.7082 59.786 62.9989 33.0834 90.083 33.0834C97.4751 33.0834 105.379 35.075 113.603 40.0071C119.193 43.3577 124.941 49.9488 124.352 56.5006C124.288 57.2106 124.55 57.9139 125.06 58.4135L132.765 65.9292C133.266 66.4165 133.19 66.9962 133.133 67.2229ZM97.0231 75.1079C95.7659 76.6203 94.6364 77.8 93.663 78.715C94.5319 71.4559 94.7016 66.2509 94.7192 63.5846C96.4692 63.5384 98.1906 63.5534 99.8754 63.6307C100.129 65.8029 100.333 71.1315 97.0231 75.1079ZM55.4981 26.3673C62.4816 24.411 75.7237 22.0529 84.6798 28.6345C77.0433 29.5034 69.7366 32.1955 62.9419 36.1583C60.9 31.4692 57.9785 28.3318 55.4981 26.3673ZM136.084 62.527L129.148 55.7607C129.291 46.4313 121.099 38.9604 116.047 35.9316C107.66 30.9031 99.3717 28.5897 91.37 28.3494C77.3324 12.1546 50.1492 23.0412 48.9979 23.5136C48.0951 23.8829 47.5114 24.7653 47.5222 25.7387C47.5331 26.7135 48.1386 27.5824 49.0495 27.9313C49.1188 27.9571 55.623 30.5338 58.8786 38.712C49.2993 45.1918 40.8781 54.0977 34.1879 63.7068C32.9782 65.4459 31.0437 66.5319 28.8824 66.6853L13.5143 67.7755C11.0476 67.9506 9.12519 69.7087 8.73149 72.1497C8.33779 74.592 9.61122 76.8646 11.8988 77.8054L24.2529 82.8856L28.357 95.3809C29.0779 97.5762 31.0219 98.9718 33.281 98.9718C33.4453 98.9718 33.6095 98.965 33.7765 98.9501C36.2433 98.7302 38.1331 96.9354 38.4806 94.4822L40.4858 80.279C40.8537 77.6683 42.6064 75.4894 45.0568 74.5934C52.5508 71.851 71.9957 65.3006 89.9595 63.848C89.9228 67.094 89.6513 73.9811 88.2204 83.5155C88.0955 84.3423 88.4145 85.1745 89.0635 85.704C89.4952 86.0583 90.0287 86.2443 90.569 86.2443C90.8405 86.2443 91.1121 86.1981 91.3741 86.1031C91.7664 85.9619 95.3559 84.5391 100.678 78.1476C104.696 73.3172 104.938 67.3519 104.692 64.0679C108.172 64.5444 111.408 65.3712 114.247 66.6636C116.746 67.8013 118.802 68.7665 120.52 69.573C127.584 72.8923 129.715 73.8928 133.544 72.7592C135.648 72.1388 137.218 70.4961 137.744 68.3661C138.272 66.2387 137.652 64.0557 136.084 62.527Z" fill="white"/>
<path d="M88.3701 46.0594C84.8526 48.6389 73.6795 55.3373 68.6537 52.3519C67.5269 51.684 66.0688 52.0532 65.3968 53.1814C64.7288 54.3096 65.0981 55.7663 66.229 56.4383C67.907 57.4334 69.8144 57.8407 71.8101 57.8407C80.0765 57.8407 89.858 50.864 91.1844 49.8892C92.2406 49.1127 92.4673 47.6261 91.6908 46.5685C90.9156 45.5137 89.429 45.2856 88.3701 46.0594Z" fill="white"/>
<path d="M110.317 46.6895C109.58 46.5415 108.827 46.6868 108.198 47.1036C107.568 47.5204 107.139 48.1584 106.991 48.8929C106.679 50.4202 107.669 51.9163 109.201 52.2285C109.386 52.2652 109.575 52.2842 109.758 52.2842C111.073 52.2842 112.256 51.3583 112.527 50.0238C112.527 50.0238 112.529 50.0197 112.529 50.017C112.836 48.4938 111.847 47.0004 110.317 46.6895Z" fill="white"/>
</svg>
