<svg width="150" height="151" viewBox="0 0 150 151" fill="none" xmlns="http://www.w3.org/2000/svg">
<path d="M125.557 123.436C123.954 122.105 121.5 120.146 119.262 118.679C117.014 117.206 114.555 116.747 112.157 117.35C109.183 118.095 106.856 120.289 105.348 122.138L97.3962 112.419C100.109 110.368 102.615 108.06 104.883 105.532L127.439 121.431L125.557 123.436ZM17.9249 70.465C17.9249 46.8617 35.1149 27.1969 57.632 23.3318C53.2334 28.0671 50.0213 35.1592 48.9529 43.1501C48.5225 46.3689 48.4737 49.6204 48.7723 52.7293C43.8904 51.0974 39.3031 51.1436 35.1067 52.9343C25.6687 56.965 21.8823 68.2439 21.7262 68.7232C21.4289 69.6301 21.7086 70.6252 22.4281 71.2524C23.149 71.8782 24.178 72.0113 25.0374 71.5918C25.8683 71.1845 33.2753 67.8149 37.4079 74.7007C38.3881 76.3325 39.037 79.3559 39.7864 82.8572C42.2939 94.5407 46.2784 113.005 71.0791 117.986C69.3278 118.181 67.5507 118.291 65.7491 118.291C39.3791 118.291 17.9249 96.8364 17.9249 70.465ZM87.0662 48.2492C88.1984 39.7981 86.8042 31.8087 83.4916 26.0416C101.326 33.1839 113.575 50.7173 113.575 70.465C113.575 90.2316 101.519 107.236 84.3754 114.514C51.3884 114.256 47.3672 95.5358 44.4335 81.8593C43.5931 77.9454 42.8681 74.5649 41.482 72.2557C37.9944 66.4438 32.6753 65.2871 28.3079 65.7826C30.032 62.7796 32.8735 59.0462 36.9952 57.2963C40.7123 55.7146 44.9806 56.0228 49.6711 58.1814L65.9949 76.2742C66.4646 76.7941 67.1095 77.0588 67.7597 77.0588C68.3272 77.0588 68.8961 76.8566 69.3509 76.4466C70.1641 75.7121 70.3419 74.5446 69.8695 73.6119C78.2974 71.228 85.3393 61.1654 87.0662 48.2492ZM132.41 119.12L107.905 101.85C114.448 93.084 118.326 82.2204 118.326 70.465C118.326 45.6127 100.683 23.9549 76.3751 18.9644C75.2401 18.735 74.1079 19.3472 73.6843 20.4225C73.2635 21.4977 73.6748 22.7209 74.6618 23.3223C80.6203 26.9471 83.7862 36.939 82.358 47.6193C80.7289 59.8024 73.6477 69.235 66.1863 69.3925L53.9801 55.864C53.9828 55.7011 53.9706 55.5354 53.9367 55.3698C53.228 51.7518 53.1316 47.7442 53.6624 43.7813C55.039 33.4948 60.5047 24.7532 66.956 22.5213C68.0489 22.1439 68.7101 21.0334 68.5241 19.893C68.3381 18.7526 67.3579 17.9109 66.2012 17.9L65.7491 17.8905C36.7589 17.8905 13.1733 41.4748 13.1733 70.465C13.1733 99.4565 36.7589 123.042 65.7491 123.042C75.9162 123.042 85.4113 120.133 93.4632 115.116L103.671 127.593C104.172 128.205 104.943 128.532 105.732 128.454C106.519 128.38 107.217 127.92 107.597 127.225C108.224 126.072 110.622 122.632 113.314 121.959C114.439 121.674 115.502 121.896 116.658 122.654C120.023 124.86 124.134 128.459 124.176 128.496C124.627 128.892 125.185 129.086 125.743 129.086C126.377 129.086 127.008 128.834 127.475 128.335L132.774 122.688C133.244 122.185 133.474 121.505 133.404 120.821C133.335 120.137 132.972 119.516 132.41 119.12Z" fill="white"/>
<path d="M39.3295 60.0091C38.8815 60.4436 38.6222 61.0545 38.6222 61.6776C38.6222 62.3157 38.8815 62.9266 39.3295 63.3624C39.7639 63.8104 40.3749 64.0684 41.0129 64.0684C41.6374 64.0684 42.2483 63.8104 42.6828 63.3624C43.1308 62.9266 43.3738 62.3157 43.3738 61.6776C43.3738 61.0545 43.1308 60.4436 42.6828 60.0091C41.8003 59.1267 40.1984 59.1267 39.3295 60.0091Z" fill="white"/>
</svg>
