<svg width="150" height="151" viewBox="0 0 150 151" fill="none" xmlns="http://www.w3.org/2000/svg">
<path d="M97.5043 93.339C86.7019 85.7758 80.2139 79.7616 77.4851 76.5305C81.6231 78.0347 89.6261 82.2392 100.127 89.592C110.93 97.1579 117.418 103.169 120.146 106.4C116.008 104.898 108.004 100.693 97.5043 93.339ZM89.4116 100.87C80.0863 91.5429 74.74 84.4928 72.6154 80.8382C76.2701 82.9628 83.3201 88.3077 92.6468 97.6344C101.974 106.961 107.318 114.011 109.444 117.666C105.788 115.54 98.7384 110.196 89.4116 100.87ZM44.4302 55.8868C35.1035 46.5601 29.76 39.5114 27.634 35.8554C31.29 37.9814 38.3387 43.3263 47.6654 52.6517C56.9677 61.9553 62.3071 68.989 64.444 72.6532L64.4318 72.6654C60.7676 70.5299 53.7325 65.1905 44.4302 55.8868ZM55.7078 45.1726C63.2724 55.9764 67.3126 63.8464 68.7707 67.8161C65.5396 65.0873 59.5254 58.6007 51.9595 47.7955C44.395 36.9917 40.3547 29.1204 38.8967 25.1521C42.1278 27.8795 48.1419 34.3661 55.7078 45.1726ZM82.1145 54.8971C83.0146 53.997 84.212 53.4988 85.4868 53.4988C86.7602 53.4988 87.9576 53.997 88.8577 54.8971C89.7592 55.7972 90.2547 56.9933 90.2547 58.2681C90.2547 59.5401 89.7592 60.7375 88.8577 61.639C87.3929 63.1025 85.0537 63.355 83.259 62.44C82.7499 62.1929 81.9652 61.6403 81.2986 60.504C80.9334 59.8212 80.7189 59.065 80.7189 58.2681C80.7189 56.9933 81.2144 55.7972 82.1145 54.8971ZM120.053 99.4441C115.746 95.3319 109.637 90.45 102.853 85.6997C95.0158 80.2123 84.861 73.9782 78.5318 71.878L82.4499 67.9613C82.6168 67.7943 82.7526 67.6084 82.8884 67.4224C83.7246 67.6586 84.5949 67.7876 85.4868 67.7876C88.0296 67.7876 90.419 66.7965 92.2164 64.999C94.0166 63.2016 95.0063 60.8108 95.0063 58.2681C95.0063 55.7253 94.0166 53.3345 92.2164 51.5371C90.419 49.7383 88.0296 48.7472 85.4868 48.7472C82.9427 48.7472 80.5533 49.7383 78.7558 51.5371C76.957 53.3345 75.9673 55.7253 75.9673 58.2681C75.9673 59.16 76.0949 60.0329 76.3312 60.8692C76.1465 61.005 75.9578 61.1394 75.7922 61.305L72.5747 64.5225C72.1525 63.526 71.6542 62.4413 71.0623 61.2453C68.4204 55.9072 64.349 49.2305 59.6001 42.4466C56.8496 38.519 42.8242 18.9234 36.8114 18.9234C36.1217 18.9234 35.4742 19.123 34.9379 19.4977C32.5974 21.1363 33.0631 24.5656 36.6064 31.7229C37.8893 34.3159 39.5144 37.2307 41.3865 40.3138C35.5841 35.2717 28.7024 30.0259 25.1835 30.0259C23.959 30.0259 23.1865 30.5418 22.7521 30.9762C20.7306 32.9963 21.7868 36.2899 26.5181 42.7249C30.0478 47.524 35.2149 53.3916 41.0715 59.2469C42.5839 60.7606 53.2275 71.2915 60.9875 76.111L32.9287 104.17C32.0408 105.056 31.552 106.239 31.552 107.497C31.552 108.757 32.0408 109.94 32.9287 110.825C33.8152 111.713 34.9963 112.203 36.2575 112.203C37.5146 112.203 38.6985 111.713 39.585 110.826L68.0389 82.3723C68.8209 83.8629 69.964 85.6156 71.5008 87.7076C75.0279 92.5054 80.1962 98.3729 86.0529 104.228C88.0255 106.201 105.505 123.497 111.896 123.497C113.119 123.497 113.892 122.979 114.325 122.548C116.346 120.525 115.292 117.231 110.559 110.796C109.009 108.688 107.124 106.364 105.02 103.931C112.156 108.27 119.181 111.79 122.71 111.79C124.439 111.79 125.346 111.015 125.802 110.362C127.442 108.02 125.829 104.96 120.053 99.4441Z" fill="white"/>
</svg>
