<svg width="150" height="151" viewBox="0 0 150 151" fill="none" xmlns="http://www.w3.org/2000/svg">
<path d="M87.5721 106.721C63.9105 106.721 54.8689 90.4934 51.4165 78.408C53.8249 78.9552 56.2985 79.2633 58.7706 79.2633C62.5176 79.2633 66.2402 78.6334 69.6315 77.3627C70.8601 76.9025 71.4832 75.5326 71.0243 74.3054C70.5655 73.0767 69.1957 72.455 67.967 72.9125C62.2556 75.0493 55.45 75.0235 49.52 72.9288C49.4358 72.865 49.3557 72.7971 49.262 72.7428C43.0198 69.156 39.1425 62.4766 39.1425 55.3085C39.1425 44.2223 48.1624 35.2038 59.2485 35.2038C70.3347 35.2038 79.3532 44.2223 79.3532 55.3085C79.3532 57.8418 78.8713 60.3384 77.921 62.7291C77.6304 63.4609 77.72 64.289 78.1626 64.9406C78.6052 65.5923 79.341 65.9819 80.1284 65.9819H92.1486C92.2043 65.9819 92.2599 65.9806 92.3156 65.9765L92.579 65.9819C111.709 65.9819 119.028 58.64 121.347 50.694C124.579 56.2194 126.108 61.8901 126.108 68.1826C126.108 89.4331 108.821 106.721 87.5721 106.721ZM29.3093 55.2243L34.5415 52.6177C34.4465 53.5042 34.3908 54.4002 34.3908 55.3085C34.3908 56.1556 34.4465 56.9933 34.532 57.8255L29.3093 55.2243ZM121.765 42.8837C121.147 42.0895 120.099 41.7678 119.139 42.0868C118.183 42.4031 117.532 43.2883 117.513 44.2956C117.294 55.6913 109.138 61.2303 92.579 61.2303L92.2043 61.2195C92.1079 61.2168 92.0142 61.2208 91.9205 61.2303H83.3826C83.8632 59.2917 84.1048 57.3096 84.1048 55.3085C84.1048 41.6035 72.9549 30.4522 59.2485 30.4522C48.5995 30.4522 39.5199 37.1954 35.9874 46.6239C35.8937 46.6565 35.7987 46.685 35.7064 46.7312L23.2205 52.949C22.3394 53.3875 21.8493 54.2998 21.9077 55.2243C21.8493 56.1488 22.3381 57.0611 23.2205 57.4996L35.7064 63.7188C35.7729 63.7527 35.8421 63.765 35.9086 63.7921C37.7224 68.7474 41.0906 73.0767 45.5938 76.0472C45.7132 76.2386 45.8653 76.4069 46.0391 76.5576C51.1246 98.7639 66.1954 111.472 87.5721 111.472C111.441 111.472 130.859 92.0533 130.859 68.1826C130.859 58.9088 127.969 50.8678 121.765 42.8837Z" fill="white"/>
<path d="M55.0056 55.5295C53.4349 55.5295 52.1574 54.252 52.1574 52.6813C52.1574 51.1119 53.4349 49.8344 55.0056 49.8344C56.5764 49.8344 57.8539 51.1119 57.8539 52.6813C57.8539 54.252 56.5764 55.5295 55.0056 55.5295ZM55.0056 45.0828C50.8161 45.0828 47.4058 48.4904 47.4058 52.6813C47.4058 56.8708 50.8161 60.2811 55.0056 60.2811C59.1965 60.2811 62.6055 56.8708 62.6055 52.6813C62.6055 48.4904 59.1965 45.0828 55.0056 45.0828Z" fill="white"/>
</svg>
