<svg width="150" height="150" viewBox="0 0 150 150" fill="none" xmlns="http://www.w3.org/2000/svg">
<path d="M120.679 71.4338C95.3029 82.9096 89.5209 71.5886 89.2602 71.0401C88.7253 69.8549 87.3352 69.3187 86.1418 69.8427C84.9404 70.3708 84.3932 71.7719 84.92 72.9734C85.0014 73.1593 86.9822 77.5417 93.0181 79.855C95.5093 80.8094 98.2896 81.2859 101.355 81.2859C106.923 81.2859 113.435 79.6921 120.801 76.5547C125.652 84.8171 125.622 94.1071 125.379 97.7496C100.611 103.188 82.5306 100.906 71.6291 90.9575C57.677 78.2259 60.3759 56.7758 60.4044 56.564C60.5103 55.7929 60.232 55.0177 59.6578 54.4923C59.2152 54.0851 58.6396 53.8665 58.0517 53.8665C57.8779 53.8665 57.7028 53.8841 57.5304 53.9235C57.491 53.9344 53.4739 54.7014 47.2574 51.6617C48.8648 48.0953 52.2032 42.3662 56.4606 40.7493C58.4916 39.9782 60.5728 40.2036 62.8155 41.4404C70.619 45.7385 70.4928 54.3036 69.7244 59.0267C69.6022 59.7693 69.8411 60.5269 70.3651 61.0645C70.8905 61.6034 71.6372 61.856 72.3866 61.7636C75.7453 61.3088 108.986 61.5776 133.352 61.8994C129.766 65.7536 125.518 68.9494 120.679 71.4338ZM20.0158 86.305C22.712 81.1977 30.8956 68.1226 44.3386 67.2633L55.6406 66.541C56.1511 72.1574 57.6607 79.2129 61.4987 85.8135C50.6365 90.1307 35.2603 93.2763 20.0158 86.305ZM140.5 58.5421C140.105 57.7411 139.295 57.2279 138.403 57.2157C132.754 57.1369 87.5415 56.5111 74.7407 56.8871C75.1005 51.245 74.0714 42.2169 65.1085 37.2793C61.6154 35.3542 58.1359 35.0298 54.7636 36.3127C49.3441 38.3749 45.631 44.2465 43.6625 48.1849C43.6136 48.2026 43.5648 48.2094 43.5172 48.2284L32.0414 52.9365C30.8277 53.4348 30.248 54.8236 30.7449 56.0359C30.7762 56.1133 30.8305 56.1703 30.8685 56.2409C30.8698 56.2586 30.8671 56.2762 30.8685 56.2952C31.0069 57.5076 32.0347 58.4009 33.2266 58.4009C33.3162 58.4009 33.4072 58.3968 33.4981 58.3873L47.195 56.8233C50.6243 58.2149 53.4739 58.6588 55.4587 58.7403C55.4166 59.5996 55.3881 60.63 55.3976 61.7949L44.0345 62.5212C24.4945 63.7688 15.0443 85.5434 14.6519 86.4693C14.1673 87.611 14.6438 88.9333 15.7434 89.5049C23.6637 93.6211 31.6287 95.162 39.1186 95.162C48.5974 95.162 57.2942 92.6884 64.1786 89.851C65.4099 91.4476 66.8069 92.9871 68.3939 94.4384C76.3522 101.719 87.5076 105.367 101.718 105.367C109.505 105.366 118.211 104.27 127.807 102.075L128.108 102.007C129.058 101.788 129.781 101.012 129.927 100.047C130.017 99.4615 131.908 86.3362 125.076 74.4518C131.077 71.0021 136.18 66.4894 140.272 61.0129C140.807 60.2988 140.894 59.3444 140.5 58.5421Z" fill="white"/>
<path d="M57.9426 43.7368C56.2225 43.7368 54.8255 45.1352 54.8255 46.8539C54.8255 48.5713 56.2225 49.9709 57.9426 49.9709C59.6613 49.9709 61.0582 48.5713 61.0582 46.8539C61.0582 45.1352 59.6613 43.7368 57.9426 43.7368Z" fill="white"/>
</svg>
