<svg width="150" height="151" viewBox="0 0 150 151" fill="none" xmlns="http://www.w3.org/2000/svg">
<path d="M138.558 76.921C138.48 75.6109 137.346 74.6185 136.044 74.6905C134.735 74.7692 133.736 75.8947 133.815 77.2048C134.111 82.1491 133.685 91.0373 127.51 95.0205C123.998 97.285 119.333 97.0841 115.899 94.525C111.898 91.541 111.049 86.974 111.006 81.0332C110.923 69.7678 108.45 59.841 103.656 51.5244C94.507 35.6472 75.1775 26.4278 55.552 28.5986C36.8226 30.6676 20.6848 43.296 13.4379 61.5584C6.21276 79.7652 9.17776 99.1857 21.3717 113.51C21.8238 114.041 22.4836 114.345 23.1814 114.345H23.1977L42.9182 114.195C43.7993 114.189 44.6044 113.696 45.0103 112.912C48.13 106.886 54.3818 103.258 61.3219 103.44C67.7705 103.61 73.1832 107.164 75.8007 112.948C75.9731 113.329 76.2419 113.635 76.5555 113.867C76.9913 114.418 77.6579 114.778 78.4127 114.778H96.6996C98.011 114.778 99.0754 113.713 99.0754 112.402C99.0754 111.09 98.011 110.026 96.6996 110.026H79.6535C76.1183 103.119 69.3941 98.8992 61.4467 98.6901C53.1803 98.4797 45.6551 102.565 41.5022 109.455L24.2879 109.585C13.8452 96.7108 11.43 79.4977 17.8542 63.3111C24.4508 46.6872 39.0952 35.1979 56.0734 33.3217C73.8471 31.364 91.3153 39.6291 99.541 53.8975C103.917 61.4946 106.177 70.6353 106.254 81.0685C106.302 87.4356 107.159 93.9345 113.059 98.3331C118.076 102.075 124.919 102.348 130.087 99.0133C138.291 93.7213 138.917 82.8999 138.558 76.921Z" fill="white"/>
<path d="M70.0765 48.3982C75.1567 48.3982 80.0495 50.2473 83.8521 53.6074C84.8336 54.4749 86.3351 54.3839 87.204 53.3996C88.0729 52.4154 87.9806 50.9152 86.9963 50.0464C82.3248 45.9193 76.3174 43.6466 70.0765 43.6466C55.9805 43.6466 44.5115 55.1157 44.5115 69.213C44.5115 83.3103 55.9805 94.778 70.0765 94.778C73.5791 94.778 76.9745 94.0815 80.1676 92.7103C81.3718 92.1917 81.9284 90.7948 81.4125 89.5892C80.8925 88.3823 79.4969 87.827 78.29 88.3443C75.6943 89.4602 72.9316 90.0264 70.0765 90.0264C58.6007 90.0264 49.2631 80.6888 49.2631 69.213C49.2631 57.7358 58.6007 48.3982 70.0765 48.3982Z" fill="white"/>
<path d="M91.0717 68.493C90.1431 67.5644 88.6402 67.5644 87.7116 68.493L86.9514 69.2532L86.1884 68.493C85.2612 67.5644 83.7569 67.5644 82.8297 68.493C81.9011 69.4216 81.9011 70.9244 82.8297 71.853L83.5913 72.6133L82.8297 73.3762C81.9011 74.3035 81.9011 75.8077 82.8297 76.7349C83.294 77.1992 83.9008 77.4314 84.509 77.4314C85.1172 77.4314 85.7241 77.1992 86.1884 76.7349L86.9514 75.9733L87.7116 76.7349C88.1759 77.1992 88.7828 77.4314 89.3923 77.4314C90.0005 77.4314 90.6074 77.1992 91.0717 76.7349C92.0003 75.8077 92.0003 74.3035 91.0717 73.3762L90.3101 72.6133L91.0717 71.853C92.0003 70.9244 92.0003 69.4216 91.0717 68.493Z" fill="white"/>
</svg>
