<svg width="150" height="150" viewBox="0 0 150 150" fill="none" xmlns="http://www.w3.org/2000/svg">
<path d="M79.3825 102.625C79.0431 102.294 78.6113 102.071 78.1416 101.987C65.4331 99.7254 51.9467 94.6303 51.8802 94.6072C41.9765 90.491 36.2976 85.3429 34.9957 79.307C33.41 71.9516 38.8689 65.1744 39.9564 63.9159L41.147 63.1815C41.1864 63.1679 41.223 63.1529 41.2665 63.138C40.4207 68.0865 40.1342 75.1311 43.7237 80.1895C46.5747 84.2053 51.2394 86.2417 57.5835 86.2417H57.5889C59.9335 86.2403 62.5482 85.9566 65.3612 85.3986C71.4649 84.1849 76.879 83.5699 81.4528 83.5699C88.7988 83.5699 93.9264 85.104 96.6946 88.126C98.5857 90.1909 99.3826 93.0514 99.0677 96.63C99.0541 96.7957 99.0568 96.9626 99.0758 97.1269C99.9827 104.51 104.289 109.701 106.86 112.802C107.016 112.989 107.179 113.185 107.341 113.381C106.665 113.426 106.206 113.432 106.084 113.432C106.02 113.433 106.034 113.43 106.017 113.43C105.911 113.43 105.814 113.448 105.713 113.46C104.816 113.429 103.774 113.372 102.542 113.284C91.6294 112.499 83.925 107.055 79.3825 102.625ZM33.2186 59.7033C30.9758 59.7915 27.9769 59.9096 24.1105 59.9314C28.7955 55.063 34.6509 50.1281 37.7 50.1281C40.3324 50.268 43.2038 52.9737 43.1888 55.3006C43.1861 55.7513 43.0531 56.1749 42.806 56.5699L39.1554 58.8249C37.5697 59.3041 35.5659 59.6096 33.2186 59.7033ZM139.716 109.147C138.82 108.186 137.319 108.136 136.36 109.03C130.76 114.253 124.024 108.311 123.749 108.061C123.279 107.632 122.659 107.415 122.025 107.443C121.388 107.476 120.795 107.761 120.372 108.235C118.313 110.547 115.314 111.824 112.593 112.538C112.079 111.664 111.344 110.761 110.52 109.769C108.165 106.93 104.623 102.66 103.822 96.7821C104.17 92.2721 103.116 88.5102 100.728 85.5642C103.4 83.9202 106.112 80.7054 105.304 75.4474C105.105 74.1495 103.894 73.2576 102.595 73.4612C101.298 73.6608 100.406 74.8745 100.609 76.171C101.293 80.6307 97.5906 81.9326 96.8331 82.1512C96.8059 82.158 96.7842 82.1716 96.7611 82.1784C90.1958 78.2848 79.3214 77.7797 64.4353 80.738C61.9251 81.2348 59.6199 81.4887 57.5889 81.4901H57.5835C52.8061 81.4901 49.5424 80.1664 47.6065 77.4458C43.0395 71.0311 47.1625 58.9322 47.206 58.8127C47.2766 58.6077 47.3037 58.4 47.32 58.1923C47.8019 57.0953 47.9377 56.069 47.9404 55.3304C47.9431 55.1879 47.9241 55.0426 47.916 54.9001C47.9689 54.8349 48.03 54.782 48.0748 54.7114C48.3436 54.2905 54.8628 44.4262 73.7484 44.2456C75.9803 44.2239 78.1199 44.133 80.1997 43.9986C80.2975 44.0108 80.3925 44.0284 80.493 44.0284C80.5283 44.0284 80.5622 44.0271 80.5989 44.0257C81.3551 43.9931 82.0841 43.9157 82.7846 43.799C89.8482 43.1609 95.9262 41.844 100.876 39.8877L106.651 45.0656C107.105 45.4702 107.669 45.6725 108.234 45.6725C108.886 45.6725 109.536 45.4064 110.006 44.8824C110.88 43.9049 110.799 42.4034 109.823 41.5277L105.527 37.6776C109.597 35.3547 112.574 32.4549 114.301 29.0039C114.886 27.8295 114.413 26.4027 113.237 25.8162C112.068 25.2324 110.639 25.7063 110.051 26.8792C107.672 31.6363 101.836 35.1918 93.3345 37.2988C96.286 33.4975 97.7522 28.9034 98.1717 25.7755C98.3468 24.4776 97.4372 23.2857 96.138 23.1078C94.8442 22.9395 93.6454 23.8409 93.4621 25.1374C93.4282 25.3926 92.987 28.2748 91.4787 31.3715C90.0125 30.523 87.0583 27.2105 84.7816 23.788C84.054 22.6951 82.5796 22.3964 81.4881 23.1241C80.3952 23.8504 80.0979 25.3248 80.8229 26.4163C82.6787 29.2102 85.7781 33.374 88.8612 35.2882C87.1493 37.1753 84.8237 38.6768 81.6836 39.1261C79.1517 39.3366 76.4976 39.4682 73.7023 39.494C72.2333 39.509 70.8336 39.5809 69.4896 39.695L63.6587 28.7826C63.041 27.6273 61.6006 27.1928 60.4426 27.8092C59.2859 28.4269 58.8487 29.8659 59.4692 31.024L64.4706 40.3806C54.3673 42.3219 48.6219 46.988 45.9352 49.8444C44.0509 47.3695 41.0587 45.5476 37.9485 45.3833C37.8344 45.3779 37.7177 45.3738 37.5996 45.3738C30.2808 45.3738 19.1362 58.1773 16.9776 60.7419C16.3871 61.4437 16.254 62.4226 16.6328 63.2561C17.0116 64.0897 17.837 64.6327 18.752 64.6463C20.2467 64.6748 21.6423 64.6857 22.9443 64.6857C27.476 64.6857 30.9039 64.5499 33.4073 64.4508C33.5213 64.4454 33.6164 64.4332 33.7277 64.4277C31.4741 68.0743 28.9734 73.8536 30.3418 80.2696C30.8197 82.5055 31.7334 84.6193 33.057 86.6191L17.2912 86.186C16.6165 86.1521 15.9377 86.4494 15.4748 86.9571C15.0077 87.4649 14.7878 88.1505 14.8679 88.836L17.6863 113.077C17.8261 114.288 18.8552 115.179 20.0431 115.179C20.1354 115.179 20.2291 115.173 20.3214 115.163C21.6233 115.011 22.556 113.832 22.4053 112.529L19.9956 91.8024L46.7417 97.5532C46.7946 97.5641 46.8503 97.5627 46.9032 97.5695C47.935 98.0677 48.998 98.5537 50.1248 99.0208C50.6814 99.2325 63.6696 104.142 76.5953 106.536C81.7664 111.418 90.2745 117.166 102.2 118.023C104.267 118.171 105.88 118.244 107.133 118.244C108.499 118.244 109.937 118.174 111.092 117.719C114.466 117.143 118.867 115.854 122.308 112.958C126.421 115.774 133.544 118.156 139.602 112.503C140.56 111.608 140.613 110.106 139.716 109.147Z" fill="white"/>
</svg>
