<svg width="150" height="151" viewBox="0 0 150 151" fill="none" xmlns="http://www.w3.org/2000/svg">
<path d="M61.5778 19.7726C61.1298 20.2057 60.8718 20.8315 60.8718 21.4411C60.8718 22.0805 61.1298 22.6914 61.5778 23.1259C62.0122 23.5739 62.6231 23.8169 63.2598 23.8169C63.8857 23.8169 64.4953 23.5739 64.9311 23.1259C65.3791 22.6914 65.6356 22.0805 65.6356 21.4411C65.6356 20.8193 65.3791 20.2057 64.9311 19.7726C64.0486 18.8915 62.4589 18.8766 61.5778 19.7726Z" fill="white"/>
<path d="M98.2926 60.5113C98.1202 60.2248 97.8948 59.99 97.6396 59.8067C95.4145 56.1507 92.2581 53.1205 88.4772 51.0868C88.4134 51.0013 88.3523 50.9131 88.2735 50.8343C88.2491 50.8085 86.267 48.7477 86.2751 46.4669C86.7381 46.7737 87.2689 47.1701 87.6545 47.4634C89.2578 48.6784 90.9154 49.9369 92.797 49.5826C94.8579 49.1943 96.1978 47.2543 97.3803 45.5424C97.5269 45.3306 97.698 45.0835 97.8704 44.8405C98.0062 45.2763 98.1311 45.7487 98.2261 46.1071C98.6782 47.8109 99.1058 49.4197 100.317 50.3863C101.473 51.3095 103.058 51.524 104.734 51.7493C104.857 51.7656 104.99 51.7833 105.131 51.8023C103.418 52.8734 101.482 54.0912 100.872 56.0258C100.322 57.7689 101.256 59.4361 102.243 61.2037C102.444 61.5594 102.706 62.0291 102.927 62.4744C101.554 62.5124 99.357 62.2707 98.2926 60.5113ZM77.1588 91.4537C66.5546 91.4537 57.9271 82.8262 57.9271 72.2219C57.9271 67.6889 59.5426 63.2835 62.4778 59.8135C62.8416 59.3858 63.0398 58.8428 63.0398 58.2794V30.7649C63.0398 29.8241 62.4859 28.9729 61.6252 28.59C58.8869 27.3804 57.1166 24.6679 57.1166 21.6798C57.1166 17.5106 60.5092 14.118 64.6771 14.118C68.8476 14.118 72.2389 17.5106 72.2389 21.6798C72.2389 24.5837 70.5351 27.265 67.8959 28.5113C67.0651 28.9036 66.5343 29.7413 66.5343 30.659V52.253C66.5343 53.0458 66.932 53.7871 67.5918 54.2283C68.2516 54.6695 69.0893 54.751 69.8197 54.4469C72.1561 53.4803 74.6242 52.9902 77.1588 52.9902C87.7631 52.9902 96.3906 61.6164 96.3906 72.2219C96.3906 82.8262 87.7631 91.4537 77.1588 91.4537ZM77.539 124.962H75.9967V96.1456C76.3837 96.166 76.7665 96.2053 77.1588 96.2053C77.2865 96.2053 77.4114 96.1863 77.539 96.185V124.962ZM111.417 50.8506C110.977 47.7946 107.602 47.3398 105.368 47.0398C104.747 46.9556 103.747 46.8212 103.377 46.7086C103.199 46.3203 102.974 45.4731 102.819 44.888C102.222 42.6371 101.403 39.554 98.4732 39.2187C96.1612 38.958 94.7289 41.0202 93.4704 42.8421C93.0726 43.4177 92.4563 44.3097 92.0232 44.7441C91.5969 44.4875 90.9738 44.0164 90.5244 43.6757C88.75 42.3303 86.5439 40.6632 84.2197 41.5429C83.431 41.6311 82.7046 42.1036 82.3367 42.872C81.3348 44.9586 81.3565 46.9638 81.7991 48.6974C80.2963 48.4015 78.7472 48.2386 77.1588 48.2386C75.1618 48.2386 73.1974 48.4829 71.2859 48.9663V32.0546C74.7939 29.8146 76.9905 25.8911 76.9905 21.6798C76.9905 14.8905 71.4664 9.36639 64.6771 9.36639C58.7837 9.36639 53.8502 13.5329 52.6487 19.0732H46.1295C44.8167 19.0732 43.7537 20.1376 43.7537 21.449C43.7537 22.7591 44.8167 23.8248 46.1295 23.8248H52.5781C53.1945 27.2935 55.2594 30.3576 58.2882 32.1999V57.435C54.9852 61.6476 53.1755 66.8635 53.1755 72.2219C53.1755 83.4018 60.8758 92.7923 71.2451 95.4383V124.962H66.3347C65.0219 124.962 63.9589 126.026 63.9589 127.338C63.9589 128.649 65.0219 129.714 66.3347 129.714H73.6209H79.9148C81.2262 129.714 82.2906 128.649 82.2906 127.338V95.6378C93.055 93.2811 101.142 83.6828 101.142 72.2219C101.142 70.4449 100.933 68.7221 100.567 67.0536C101.33 67.1812 102.06 67.2273 102.698 67.2273C104.038 67.2273 104.995 67.0373 105.101 67.0142C105.313 66.9694 105.504 66.8907 105.689 66.797C106.445 66.7467 107.165 66.3517 107.58 65.6512C108.916 63.3935 107.516 60.8914 106.391 58.8822C106.122 58.4016 105.747 57.7336 105.563 57.2992C106.019 56.8512 107.063 56.1982 107.667 55.8221C109.586 54.6207 111.763 53.2576 111.417 50.8506Z" fill="white"/>
</svg>
