<svg width="150" height="151" viewBox="0 0 150 151" fill="none" xmlns="http://www.w3.org/2000/svg">
<path d="M87.5362 99.9472C69.8793 107.722 48.2161 108.883 36.8733 108.883H36.8692C30.5007 108.882 24.3141 108.537 18.7941 107.877C25.7111 84.6307 48.9492 56.2732 69.863 46.0124C75.4129 43.2904 81.4488 41.8514 87.3136 41.8514C99.5877 41.8514 112.702 48.3394 112.702 66.5489C112.702 81.3576 104.236 92.5944 87.5362 99.9472ZM133.046 55.9474C132.609 54.7106 131.252 54.0589 130.014 54.4961L116.695 59.1907C116.396 57.7625 116.016 56.3872 115.544 55.0744L128.116 50.6446C129.354 50.2074 130.003 48.8498 129.568 47.613C129.132 46.3763 127.776 45.7246 126.537 46.1631L113.542 50.7423C108.644 42.1636 99.4058 37.0998 87.3136 37.0998C86.6429 37.0998 85.9709 37.1283 85.2976 37.1609C85.1292 37.1229 84.9568 37.0998 84.7776 37.0998C79.616 37.0998 75.4156 32.9007 75.4156 27.7391C75.4156 23.8727 78.5625 20.7258 82.429 20.7258C82.4697 20.7258 86.514 20.8086 86.514 23.7614C86.514 25.7638 84.8849 27.3943 82.881 27.3943C81.5696 27.3943 80.5052 28.4586 80.5052 29.7701C80.5052 31.0815 81.5696 32.1459 82.881 32.1459C87.505 32.1459 91.2656 28.384 91.2656 23.7614C91.2656 18.0879 85.846 15.9742 82.429 15.9742C75.9423 15.9742 70.664 21.2525 70.664 27.7391C70.664 32.1527 72.7045 36.0965 75.888 38.6868C73.1199 39.4471 70.3925 40.4598 67.7696 41.7468C45.0216 52.909 19.6508 84.4773 13.4791 109.305C13.3176 109.957 13.4398 110.646 13.8131 111.203C14.1891 111.761 14.7811 112.134 15.4463 112.229C21.8229 113.149 29.23 113.633 36.8679 113.635H36.8733C43.3097 113.635 52.9799 113.26 63.4402 111.582C60.3163 114.907 58.3858 119.368 58.3858 124.279C58.3858 125.592 59.4516 126.655 60.7616 126.655C62.0744 126.655 63.1374 125.592 63.1374 124.279C63.1374 116.657 69.3417 110.452 76.966 110.452C84.5889 110.452 90.7918 116.657 90.7918 124.279C90.7918 125.592 91.8561 126.655 93.1676 126.655C94.479 126.655 95.5434 125.592 95.5434 124.279C95.5434 116.19 90.337 109.309 83.105 106.765C85.2541 106.02 87.3801 105.207 89.4505 104.296C107.77 96.2287 117.454 83.1754 117.454 66.5489C117.454 65.6556 117.403 64.7894 117.344 63.9287C117.477 63.9056 117.608 63.9056 117.739 63.8594L131.593 58.9762C132.831 58.5404 133.482 57.1841 133.046 55.9474Z" fill="white"/>
<path d="M89.1762 60.2521C87.2375 60.2521 85.66 58.6759 85.66 56.7359C85.66 54.7972 87.2375 53.221 89.1762 53.221C91.1162 53.221 92.6924 54.7972 92.6924 56.7359C92.6924 58.6759 91.1162 60.2521 89.1762 60.2521ZM89.1762 48.4694C84.6187 48.4694 80.9084 52.1784 80.9084 56.7359C80.9084 61.2947 84.6187 65.0037 89.1762 65.0037C93.735 65.0037 97.444 61.2947 97.444 56.7359C97.444 52.1784 93.735 48.4694 89.1762 48.4694Z" fill="white"/>
<path d="M71.7342 85.5691C65.3128 90.58 58.6592 91.2914 56.7138 88.7934C54.7642 86.294 57.0694 80.0165 63.495 75.0056C64.5281 74.1978 64.7127 72.7044 63.905 71.6713C63.0999 70.6368 61.6052 70.4508 60.5707 71.2586C52.3586 77.6665 49.0175 86.6524 52.9668 91.7149C54.6448 93.8667 57.3328 94.9148 60.4987 94.9148C64.7793 94.9148 69.9354 93.0006 74.6572 89.316C75.6917 88.5083 75.8763 87.0149 75.0699 85.9818C74.2621 84.9473 72.7687 84.7627 71.7342 85.5691Z" fill="white"/>
</svg>
