<svg width="150" height="150" viewBox="0 0 150 150" fill="none" xmlns="http://www.w3.org/2000/svg">
<path d="M60.8981 71.9892C60.2505 71.9892 60.0184 71.8765 60.0062 71.8765C59.7862 71.5873 59.698 70.2895 59.6396 69.4288C59.3749 65.4741 58.9486 59.111 48.9648 55.5256C52.4308 53.0466 57.3018 51.0292 61.2389 50.4576C68.8686 49.3512 75.0633 50.4685 78.6854 53.6019C80.8861 55.5066 82.002 58.0751 82.002 61.2356C82.002 67.7684 73.7179 71.9892 60.8981 71.9892ZM66.0095 89.6502L70.1013 123.302H68.3676C68.0948 123.302 67.8355 123.358 67.5925 123.442C67.3264 123.44 67.0562 123.438 66.7779 123.434L62.6616 89.5661L66.5675 76.4489C67.7201 76.3308 68.8265 76.1855 69.8691 75.9995L66.0909 88.685C65.9986 88.9972 65.9701 89.3258 66.0095 89.6502ZM115.122 23.5378L105.892 18.7522C105.049 17.1666 103.787 15.7737 102.122 14.7134C97.947 12.0552 92.4976 12.0063 88.5606 14.5966C84.3928 17.3363 82.002 22.5943 82.002 29.0225V50.2092C81.9301 50.1454 81.8676 50.0735 81.7943 50.0096C77.1119 45.9572 69.5732 44.4462 60.5574 45.7549C55.727 46.4541 49.9762 48.8693 45.8586 51.9157C36.4993 57.8349 32.0505 73.0644 31.8658 73.712C31.8563 73.7473 31.8563 73.7826 31.8468 73.8192C31.8387 73.8532 31.8237 73.8844 31.817 73.9184C31.8075 73.9618 31.8115 74.0039 31.8047 74.0487C31.7952 74.1315 31.7857 74.2143 31.783 74.2971C31.7817 74.3731 31.783 74.4478 31.7885 74.5225C31.7939 74.6026 31.8007 74.68 31.8142 74.7573C31.8278 74.8334 31.8455 74.9067 31.8645 74.9813C31.8848 75.0547 31.9066 75.1266 31.9324 75.1959C31.9609 75.2692 31.9907 75.3398 32.026 75.409C32.0586 75.4755 32.0926 75.5407 32.1333 75.6045C32.1727 75.6697 32.2161 75.7321 32.2623 75.7932C32.3084 75.8543 32.3559 75.9127 32.4075 75.9683C32.4591 76.0253 32.5134 76.0769 32.5704 76.1285C32.6274 76.1788 32.6858 76.2263 32.7469 76.2724C32.8107 76.3199 32.8745 76.362 32.9438 76.4014C33.0089 76.4394 33.0755 76.4774 33.1461 76.5087C33.218 76.5426 33.294 76.5725 33.3728 76.5996C33.4149 76.6145 33.4515 76.6363 33.4963 76.6498C33.5235 76.658 33.5506 76.6539 33.5778 76.6607C33.6199 76.6702 33.6606 76.6892 33.704 76.6987C33.8384 76.7232 34.8933 76.9146 36.483 76.9146C40.1757 76.9146 46.7614 75.8869 51.4492 69.3907C52.2176 68.3264 51.9773 66.8412 50.913 66.0741C49.85 65.3071 48.3648 65.546 47.595 66.6104C44.4779 70.933 40.2029 71.9688 37.4143 72.1385C38.6633 68.7988 41.0989 63.2395 44.6748 59.1938C54.3382 61.6375 54.6437 65.9424 54.8989 69.7478C54.941 70.3804 54.9926 71.1135 55.1215 71.8657C55.1175 71.8738 55.1107 71.882 55.1052 71.8915C51.2171 79.9407 41.2441 81.0702 41.0826 81.0865C39.7793 81.2155 38.8249 82.3735 38.9498 83.6781C39.0693 84.9081 40.1038 85.8259 41.312 85.8259C41.3894 85.8259 41.4668 85.8245 41.5428 85.8164C42.022 85.7688 52.4742 84.6461 58.0784 76.2127C58.8237 76.5412 59.7414 76.7408 60.8981 76.7408C61.1167 76.7408 61.3122 76.7245 61.5281 76.7232L57.9657 88.685C57.8734 88.9972 57.8449 89.3258 57.8843 89.6502L61.9761 123.302H60.2438C58.9432 123.302 57.8843 124.346 57.868 125.646C57.8503 126.945 58.8794 128.019 60.1786 128.054C64.3695 128.167 67.2517 128.225 69.2609 128.225C70.5642 128.225 71.4969 128.199 72.1852 128.15C74.371 128.199 76.0707 128.225 77.3875 128.225C81.7224 128.225 81.9993 127.956 82.5763 127.394C83.0365 126.946 83.3013 126.32 83.3013 125.678C83.3013 124.367 82.2383 123.302 80.9255 123.302C80.6811 123.302 80.4476 123.339 80.2249 123.408C79.4878 123.463 77.4323 123.465 74.9031 123.434L70.7855 89.5661L75.0606 75.2135C75.1176 75.0248 75.1407 74.8361 75.1502 74.6487C83.494 71.7177 86.7536 66.1909 86.7536 61.2356C86.7536 60.9763 86.7278 60.7252 86.7183 60.4713C86.7346 60.3518 86.7536 60.231 86.7536 60.1061V29.0225C86.7536 26.7526 87.184 21.1878 91.1713 18.5662C93.5335 17.0145 96.9872 17.077 99.5694 18.721C100.774 19.4867 102.727 21.2407 102.27 24.37C102.055 25.8416 101.207 27.206 99.997 28.0206C99.3209 28.4781 98.2254 28.9546 96.8732 28.6234C95.0689 28.1821 94.0195 26.3928 94.2055 25.0637C94.3874 23.7645 93.4819 22.563 92.1827 22.3811C90.8807 22.1965 89.682 23.1047 89.5001 24.4039C88.9543 28.3002 91.7577 32.2644 95.7464 33.2392C98.1195 33.8189 100.573 33.3641 102.654 31.9603C104.098 30.9856 105.273 29.6035 106.045 28.0233H114.028C115.122 28.0233 116.076 27.2753 116.336 26.2109C116.594 25.1465 116.093 24.0442 115.122 23.5378Z" fill="white"/>
</svg>
