<svg width="150" height="150" viewBox="0 0 150 150" fill="none" xmlns="http://www.w3.org/2000/svg">
<path d="M42.8954 63.1674C42.7338 62.0935 44.3534 57.9922 49.6196 53.2569C53.9422 49.3701 57.9484 47.6011 59.8423 47.6011C60.0093 47.6011 60.1233 47.6147 60.1966 47.6296C60.2767 48.1673 59.9115 49.4638 58.8662 51.2178C58.1969 51.8844 57.3633 52.9093 56.5026 54.4489C55.6622 55.4304 54.6658 56.4676 53.4724 57.5401C49.1485 61.4269 45.1422 63.1972 43.2497 63.1972C43.0827 63.1972 42.9673 63.1823 42.8954 63.1674ZM107.103 79.9297C103.439 75.2677 96.8016 73.1607 89.4013 74.297C78.5202 75.7048 70.9054 74.0526 66.7647 69.3852C61.1565 63.0574 63.6504 52.9107 63.6748 52.8143C63.7291 52.6039 63.7454 52.3907 63.7427 52.179C64.8342 49.9389 65.2754 47.7953 64.6984 46.0467C65.885 46.5341 67.2059 46.9861 68.516 46.9861C69.6225 46.9861 70.718 46.6617 71.7009 45.7602C74.1691 43.493 73.0626 40.2049 72.2548 37.806C71.9725 36.967 71.4579 35.4425 71.5394 34.8899C72.1164 34.8695 73.5731 35.4981 74.3836 35.8511C76.7064 36.8612 79.8886 38.2445 82.3567 35.9773C84.8289 33.7074 83.7239 30.4207 82.9161 28.0191C82.6188 27.1326 82.0649 25.4804 82.1246 25.1084C82.6038 24.993 84.1977 25.6827 85.057 26.056C87.3799 27.0647 90.5607 28.4481 93.0329 26.1782C93.9995 25.2903 94.0946 23.7712 93.2081 22.8046C92.3188 21.8393 90.8472 21.7578 89.8806 22.6443C89.3986 22.7665 87.8062 22.0701 86.9495 21.6981C84.6267 20.6894 81.4444 19.306 78.9723 21.5759C76.5014 23.8458 77.6065 27.1326 78.4129 29.5342C78.6967 30.3759 79.2098 31.9059 79.1257 32.4544C78.5541 32.4978 77.092 31.8489 76.2788 31.4932C73.9559 30.4845 70.7751 29.1025 68.3056 31.3683C65.8361 33.6355 66.9439 36.9222 67.7517 39.3225C68.0341 40.1615 68.5472 41.6847 68.4671 42.2373C67.9078 42.3038 66.4348 41.629 65.623 41.2761C63.3001 40.266 60.1206 38.884 57.6511 41.1498C57.0294 41.72 56.7728 42.5522 56.9017 43.3315C53.7412 44.2737 49.9753 46.5476 46.4428 49.7231C40.5617 55.0109 35.8291 62.4777 39.3357 66.3781C39.9792 67.0949 41.1807 67.9488 43.2497 67.9488C45.9635 67.9488 49.6019 66.3998 53.2756 63.7797C48.1506 87.501 64.9998 98.0713 70.2741 100.744V133.647C70.2741 134.959 71.3371 136.023 72.6499 136.023C73.9613 136.023 75.0257 134.959 75.0257 133.647V99.232C75.0257 98.2546 74.4202 97.3735 73.5079 97.0178C72.5712 96.6512 51.2338 87.9775 58.5947 62.0229C59.082 65.497 60.3514 69.2983 63.1847 72.5077C68.4291 78.4472 77.4545 80.6343 90.0652 79.0024C95.8024 78.1241 100.775 79.5699 103.368 82.8662C105.85 86.0239 105.965 90.6099 103.698 96.1259L100.182 104.683C96.8654 103.438 89.9634 99.8022 87.0595 90.485C86.6685 89.2306 85.338 88.5342 84.085 88.9224C82.8319 89.3121 82.1327 90.6439 82.5224 91.8969C83.5514 95.2 85 97.8948 86.6291 100.123C82.9731 100.257 80.1208 99.2809 80.0733 99.2633C78.8433 98.8248 77.4857 99.4669 77.0404 100.7C76.5978 101.935 77.24 103.295 78.474 103.738C78.6586 103.804 81.7472 104.889 85.9137 104.889C87.3581 104.889 88.9316 104.751 90.558 104.402C93.8285 107.231 97.1614 108.688 99.1828 109.373V134.266C99.1828 135.578 100.247 136.642 101.559 136.642C102.871 136.642 103.934 135.578 103.934 134.266V108.052L108.093 97.9315C111.008 90.8407 110.655 84.4478 107.103 79.9297Z" fill="white"/>
</svg>
