<svg width="150" height="151" viewBox="0 0 150 151" fill="none" xmlns="http://www.w3.org/2000/svg">
<path d="M102.568 127.291H101.47C101.342 121.82 100.376 108.66 94.1988 102.303C91.8121 99.8461 88.9136 98.6012 85.483 98.6012C71.497 98.6012 68.7057 120.047 68.1613 127.291H66.3394L60.6986 57.698C62.5626 56.3106 64.2962 54.3868 65.7774 52.064C65.8439 51.9975 65.9186 51.9418 65.9783 51.8671L66.558 80.985C66.5702 81.6339 66.8485 82.2489 67.3278 82.6887C68.2822 83.563 69.7647 83.5087 70.6566 82.5734C70.7204 82.5068 77.0726 75.9157 83.7724 75.7175C84.1688 75.7066 84.3385 75.708 84.7716 75.7107C85.1395 75.7148 85.6812 75.7188 86.6383 75.7188C90.1178 76.0216 95.1993 78.2861 99.1364 83.7518C103.868 90.3198 108.198 103.199 102.568 127.291ZM52.9345 55.2503C50.9442 54.5756 49.5188 51.7803 49.3301 47.9002L60.2519 51.5766C58.1626 54.0556 55.8547 55.4268 54.0423 55.4268C53.6567 55.4268 53.2847 55.367 52.9345 55.2503ZM60.8398 28.3956C61.2253 28.3956 61.5987 28.4553 61.9476 28.5721C65.1828 29.6663 66.9381 36.362 64.284 44.2225C63.8917 45.3859 63.4301 46.4625 62.9264 47.4617L49.7061 43.0129C49.9152 41.9091 50.2016 40.7701 50.5967 39.5985C52.9671 32.5865 57.6657 28.3956 60.8398 28.3956ZM109.603 73.0756C108.515 72.3452 107.039 72.6344 106.307 73.7259L102.152 79.9152C98.0285 74.7359 92.4312 71.4071 86.922 70.9754C86.8596 70.9699 86.7985 70.9672 86.736 70.9672C85.7368 70.9672 85.1829 70.9632 84.8109 70.9604C84.2937 70.955 84.0955 70.955 83.6312 70.9686C78.7153 71.1138 74.2488 73.6105 71.2078 75.8437L70.4435 37.4576C70.4394 37.2295 70.3919 37.0123 70.3267 36.8046C70.3294 33.4907 69.6289 30.5352 68.3202 28.2639C68.3487 28.2082 68.3921 28.1648 68.4166 28.1078L72.0753 19.5142C72.5898 18.3072 72.0278 16.9116 70.8209 16.3971C69.6112 15.8812 68.2183 16.446 67.7052 17.6529L64.732 24.6337C64.3288 24.4151 63.9093 24.221 63.4667 24.0716C62.6277 23.7879 61.744 23.644 60.8398 23.644C59.9709 23.644 59.0966 23.7933 58.2278 24.0472L55.928 16.6102C55.5424 15.3558 54.2106 14.6499 52.9576 15.0409C51.7045 15.4278 51.0013 16.7582 51.3895 18.0126L53.9513 26.3049C50.6836 28.8327 47.815 32.9883 46.0949 38.078C42.7158 48.0822 45.0536 57.6016 51.414 59.7507C52.2543 60.0345 53.1381 60.1784 54.0423 60.1784C54.7306 60.1784 55.423 60.0888 56.1126 59.9286L61.7806 129.86C61.8811 131.093 62.9115 132.043 64.1496 132.043H70.4095C71.6979 132.043 72.7514 131.015 72.784 129.727C72.7908 129.464 73.7832 103.353 85.5834 103.353C87.6076 103.353 89.31 104.091 90.7885 105.61C96.0573 111.029 96.861 124.765 96.7253 129.599C96.7076 130.241 96.9506 130.863 97.3973 131.323C97.8439 131.784 98.4589 132.043 99.1011 132.043H103.74C103.876 132.043 104.006 132.024 104.134 132.004C104.244 132.017 104.354 132.043 104.462 132.043C105.528 132.043 106.496 131.322 106.766 130.241C112.647 106.61 109.521 92.4241 105.009 84.1848L110.252 76.3732C110.984 75.283 110.694 73.8073 109.603 73.0756Z" fill="white"/>
</svg>
