<svg width="150" height="151" viewBox="0 0 150 151" fill="none" xmlns="http://www.w3.org/2000/svg">
<path d="M87.5248 124.489V115.193C88.4181 115.238 89.3222 115.268 90.2413 115.272V124.489H87.5248ZM57.9223 86.4039C57.8598 81.8206 57.9345 78.4904 57.9997 75.5512C58.0743 72.2115 58.1314 69.4393 57.9291 66.3209C61.7208 65.3108 65.066 63.2215 67.6264 60.3936C67.7309 64.6782 68.0731 69.4705 68.9881 72.4382C69.1795 73.0627 69.6207 73.58 70.2086 73.8691C70.795 74.1583 71.4752 74.195 72.0875 73.9642C77.5165 71.9413 83.9271 70.8485 90.6269 70.805C96.2216 70.7466 101.509 72.4939 107.105 74.3212C114.59 76.7649 122.996 79.5059 133.099 77.9446C133.192 81.6645 132.207 85.0137 130.789 87.8891C125.715 94.6214 120.043 98.1471 113.925 98.3602C102.496 98.792 92.8506 87.6719 92.7542 87.5578C91.9017 86.5641 90.4015 86.4487 89.4064 87.2999C88.4086 88.1524 88.2918 89.6526 89.1444 90.6491C89.5883 91.1677 99.9658 103.123 113.315 103.123C113.564 103.123 113.812 103.119 114.063 103.109C114.647 103.09 115.224 103.04 115.798 102.975C108.071 107.612 98.8268 110.527 90.6106 110.527C70.9512 110.527 58.1205 101.058 57.9223 86.4039ZM37.4877 46.9696C37.4877 38.5362 44.3476 31.6763 52.781 31.6763C61.2145 31.6763 68.0758 38.5362 68.0758 46.9696C68.0758 55.403 61.2145 62.2644 52.781 62.2644C44.3476 62.2644 37.4877 55.403 37.4877 46.9696ZM20.4864 57.4571C16.5589 54.2437 15.4715 49.4975 16.4489 47.643C16.9092 46.7714 18.0441 46.5936 19.8266 47.1149C21.168 47.5072 22.2663 47.9064 23.4284 48.3286C25.8653 49.2137 28.3836 50.1288 32.9818 50.8836C33.0307 50.8917 33.0795 50.8877 33.1271 50.8931C33.8805 54.6727 35.7079 58.0626 38.2669 60.7547C32.3396 60.9869 24.2579 60.5416 20.4864 57.4571ZM135.019 90.068C137.478 85.1236 138.364 79.9417 137.582 74.7665C137.483 74.1149 137.118 73.5338 136.574 73.1605C136.029 72.7885 135.357 72.6609 134.711 72.8048C124.681 75.0625 116.496 72.3893 108.581 69.8045C102.87 67.9405 96.9805 65.995 90.597 66.0534C84.3697 66.0941 78.346 66.982 73.0052 68.6356C72.2205 63.6532 72.2708 55.627 72.4405 51.5094C72.4459 51.3465 72.4377 51.1877 72.412 51.0329C72.6835 49.7201 72.8274 48.3612 72.8274 46.9696C72.8274 35.916 63.8346 26.9247 52.781 26.9247C42.0479 26.9247 33.2845 35.4097 32.7849 46.022C29.2457 45.3772 27.193 44.64 25.0493 43.8621C23.8682 43.4331 22.6477 42.9891 21.1612 42.5547C17.1467 41.3804 13.8152 42.4542 12.2472 45.4274C9.92566 49.8287 12.2716 56.876 17.478 61.1348C21.9092 64.7596 29.4833 65.5891 35.4852 65.5891C39.7359 65.5891 43.1719 65.1764 44.1684 65.0434C46.7832 66.2937 49.6966 67.016 52.781 67.016C52.9263 67.016 53.0675 66.997 53.2128 66.9929C53.373 69.7447 53.3214 72.2495 53.2494 75.4453C53.187 78.2759 53.1082 81.8002 53.1707 86.4677C53.3757 101.58 64.975 112.344 82.7732 114.761V124.489H70.8955C69.5827 124.489 68.5197 125.553 68.5197 126.864C68.5197 128.176 69.5827 129.24 70.8955 129.24H85.149H92.6171C93.9286 129.24 94.9929 128.176 94.9929 126.864V115.033C108.027 113.712 122.016 106.748 130.255 97.1696C132.197 94.9106 133.769 92.5646 134.974 90.1617C134.991 90.1305 135.007 90.0992 135.019 90.068Z" fill="white"/>
<path d="M44.5256 41.8286C43.2399 41.9793 42.3371 43.1292 42.462 44.4176C42.5883 45.7046 43.7531 46.6522 45.0374 46.5517C45.1365 46.5476 47.5598 46.3861 49.489 49.0592C49.9533 49.7013 50.6796 50.0435 51.4168 50.0435C51.9001 50.0435 52.3861 49.8968 52.807 49.5927C53.87 48.8243 54.1102 47.3405 53.3405 46.2761C50.4569 42.2848 46.4384 41.5992 44.5256 41.8286Z" fill="white"/>
</svg>
