<svg width="150" height="150" viewBox="0 0 150 150" fill="none" xmlns="http://www.w3.org/2000/svg">
<path d="M104.802 68.9504C104.618 79.0211 97.8663 88.3912 86.7408 94.0171C85.8379 94.4733 85.3234 95.4521 85.4592 96.454L88.1947 116.833L63.0058 99.4923C62.6406 99.2425 62.2157 99.0986 61.7731 99.0755C40.5755 98.0465 23.9707 84.6239 23.9707 68.52C23.9707 52.8452 40.0963 39.4511 60.6802 38.0283C61.1038 37.9984 61.5138 37.8559 61.8641 37.6142L88.1961 19.4889L85.3696 40.5439C85.2352 41.5486 85.7511 42.5274 86.6579 42.9835C98.0197 48.699 104.805 58.2443 104.805 68.52L104.802 68.9504ZM90.299 39.5298L93.617 14.8106C93.7433 13.8779 93.3048 12.9602 92.5038 12.4687C91.7055 11.9759 90.6887 12.0031 89.9148 12.5366L59.6987 33.3364C36.5747 35.1936 19.2191 50.2291 19.2191 68.52C19.2191 86.9834 37.4558 102.37 60.8608 103.785L89.9148 123.785C90.3194 124.065 90.7918 124.203 91.2616 124.203C91.6933 124.203 92.1223 124.087 92.5038 123.852C93.3048 123.362 93.7433 122.443 93.617 121.513L90.3886 97.4641C102.216 90.9476 109.345 80.4248 109.554 69.0332L109.557 68.52C109.557 56.8867 102.393 46.1535 90.299 39.5298Z" fill="white"/>
<path d="M44.3095 64.7611C42.0952 64.7611 40.2951 62.9609 40.2951 60.748C40.2951 58.5365 42.0952 56.735 44.3095 56.735C46.5224 56.735 48.3239 58.5365 48.3239 60.748C48.3239 62.9609 46.5224 64.7611 44.3095 64.7611ZM44.3095 51.9834C39.4751 51.9834 35.5435 55.9136 35.5435 60.748C35.5435 65.5811 39.4751 69.5127 44.3095 69.5127C49.1439 69.5127 53.0755 65.5811 53.0755 60.748C53.0755 55.9136 49.1439 51.9834 44.3095 51.9834Z" fill="white"/>
<path d="M117.779 41.9984C116.888 41.0372 115.386 40.9829 114.424 41.8722C113.462 42.7614 113.404 44.2656 114.295 45.2282C115.295 46.3129 138.535 72.0625 114.358 96.24C113.431 97.1672 113.431 98.6715 114.358 99.6001C114.822 100.064 115.43 100.295 116.037 100.295C116.645 100.295 117.254 100.064 117.718 99.6001C145.155 72.163 118.056 42.2971 117.779 41.9984Z" fill="white"/>
<path d="M65.9251 51.3772C64.9625 52.2664 64.9042 53.7693 65.792 54.7332C66.4192 55.4147 80.9904 71.6 65.8558 86.7332C64.9286 87.6604 64.9286 89.166 65.8558 90.0932C66.3201 90.5562 66.9283 90.7883 67.5365 90.7883C68.1447 90.7883 68.7516 90.5562 69.2159 90.0932C87.6087 71.7032 69.463 51.7044 69.2783 51.5048C68.3864 50.5436 66.8876 50.4879 65.9251 51.3772Z" fill="white"/>
</svg>
