<svg width="150" height="151" viewBox="0 0 150 151" fill="none" xmlns="http://www.w3.org/2000/svg">
<path d="M89.362 76.7236C89.0552 63.8481 83.8841 55.2966 59.6387 52.1253C58.983 52.0384 58.3191 52.2298 57.8114 52.6547C57.3023 53.0783 56.9927 53.6946 56.9575 54.3544C56.69 59.4237 56.9507 65.3266 57.8779 71.4032C52.3796 67.6997 47.6796 62.2923 43.8498 55.2572C46.5311 53.9743 48.524 51.5333 49.773 47.971C50.2075 46.7342 49.5558 45.378 48.3177 44.9436C47.0809 44.5078 45.7233 45.1594 45.2902 46.3989C44.3779 49.0001 43.0638 50.5694 41.2744 51.1967C38.6393 52.1185 35.0159 51.0745 31.3382 49.3625C31.4033 49.1467 31.4481 48.9213 31.4481 48.6851V39.0393C53.6938 30.6032 85.9857 44.1303 112.772 55.355C118.364 57.6982 123.726 59.945 128.641 61.8294C117.69 67.6589 103.264 74.3872 89.362 76.7236ZM83.9031 89.8924C83.4795 94.7444 83.0085 100.14 82.8673 106.121C66.8421 98.2973 61.4131 73.4925 61.6181 57.204C86.4255 61.0026 85.6626 69.732 83.9031 89.8924ZM26.6965 41.2699V46.9189C25.1475 46.0242 23.6609 45.1037 22.3196 44.2661C23.7125 43.1312 25.176 42.1387 26.6965 41.2699ZM135.172 59.1685C129.134 57.0601 122.079 54.1033 114.609 50.9727C81.4757 37.0885 40.2413 19.8103 16.7114 42.918C16.1887 43.4312 15.9321 44.1561 16.0149 44.8825C16.0991 45.6101 16.5132 46.2591 17.1377 46.6406C17.8246 47.0587 18.5536 47.5162 19.318 47.9941C25.0321 51.5673 32.4935 56.2184 38.9815 56.2714C44.1308 66.2267 50.8808 73.4152 59.0672 77.6631C62.4965 92.6171 70.2361 107.248 84.4652 111.881C84.7068 111.96 84.9539 111.998 85.201 111.998C85.6965 111.998 86.1866 111.843 86.5979 111.545C87.2129 111.098 87.5768 110.384 87.5768 109.622C87.5768 102.433 88.1402 95.9893 88.6357 90.3051C88.9059 87.2233 89.1584 84.3031 89.2887 81.5445C106.226 78.9012 123.739 70.0184 135.538 63.4897C136.358 63.0363 136.835 62.1444 136.755 61.2103C136.676 60.2777 136.055 59.478 135.172 59.1685Z" fill="white"/>
<path d="M36.0171 40.798C35.5691 41.246 35.3112 41.8569 35.3112 42.4814C35.3112 43.1059 35.5691 43.7168 36.0171 44.1648C36.4515 44.5992 37.0625 44.8572 37.687 44.8572C38.3115 44.8572 38.9224 44.6128 39.3704 44.1648C39.8184 43.7168 40.0628 43.1059 40.0628 42.4814C40.0628 41.8569 39.8184 41.246 39.3704 40.798C38.4744 39.9155 36.8996 39.9155 36.0171 40.798Z" fill="white"/>
</svg>
