<svg width="150" height="151" viewBox="0 0 150 151" fill="none" xmlns="http://www.w3.org/2000/svg">
<path d="M17.6716 82.766C17.6716 81.8347 18.4291 81.0785 19.3591 81.0785C20.2904 81.0785 21.0466 81.8347 21.0466 82.766C21.0466 83.6973 20.2904 84.4535 19.3591 84.4535C18.4291 84.4535 17.6716 83.6973 17.6716 82.766ZM114.641 99.8378C110.55 99.8378 104.584 100.415 97.675 101.083C73.564 103.412 34.3579 107.203 25.5144 90.0563C37.7315 93.4761 48.3914 89.8011 57.2551 79.0909C58.0914 78.0809 57.9516 76.5835 56.9402 75.7472C55.9288 74.9095 54.4313 75.0507 53.5951 76.0621C45.6287 85.6875 36.3685 88.6294 25.3651 85.0304C25.6339 84.3231 25.7982 83.5656 25.7982 82.766C25.7982 79.2158 22.9092 76.3269 19.3591 76.3269C15.809 76.3269 12.92 79.2158 12.92 82.766C12.92 86.3161 15.809 89.2051 19.3591 89.2051C19.5817 89.2051 19.7935 89.1616 20.0121 89.1385C24.723 104.228 43.8733 107.949 64.5007 107.949C76.0063 107.949 87.9709 106.794 98.1325 105.813C104.919 105.156 110.78 104.589 114.641 104.589C115.952 104.589 117.017 103.526 117.017 102.214C117.017 100.902 115.952 99.8378 114.641 99.8378Z" fill="white"/>
<path d="M46.8228 91.4564C46.3897 91.9044 46.1304 92.5153 46.1304 93.1398C46.1304 93.7643 46.3897 94.3752 46.8228 94.8232C47.2708 95.2577 47.8831 95.5156 48.5062 95.5156C49.1321 95.5156 49.7417 95.2577 50.1897 94.8232C50.639 94.3752 50.882 93.7643 50.882 93.1398C50.882 92.5153 50.639 91.9044 50.1897 91.4564C49.3072 90.574 47.7188 90.574 46.8228 91.4564Z" fill="white"/>
<path d="M87.6211 57.6299C88.9325 57.6299 89.9969 56.5655 89.9969 55.2541V38.0438C89.9969 36.731 88.9325 35.668 87.6211 35.668C86.3083 35.668 85.2453 36.731 85.2453 38.0438V55.2541C85.2453 56.5655 86.3083 57.6299 87.6211 57.6299Z" fill="white"/>
<path d="M131.294 79.3414H114.082C112.772 79.3414 111.706 80.4058 111.706 81.7172C111.706 83.0287 112.772 84.093 114.082 84.093H131.294C132.607 84.093 133.67 83.0287 133.67 81.7172C133.67 80.4058 132.607 79.3414 131.294 79.3414Z" fill="white"/>
<path d="M104.913 64.4237C105.378 64.888 105.986 65.1201 106.593 65.1201C107.202 65.1201 107.81 64.888 108.275 64.4237L120.182 52.5148C121.111 51.5862 121.111 50.082 120.182 49.1547C119.255 48.2261 117.749 48.2261 116.822 49.1547L104.913 61.0636C103.985 61.9922 103.985 63.4964 104.913 64.4237Z" fill="white"/>
<path d="M66.9668 64.4237C67.4311 64.888 68.0393 65.1201 68.6475 65.1201C69.2557 65.1201 69.8625 64.888 70.3268 64.4237C71.2541 63.4964 71.2541 61.9908 70.3268 61.0636L58.4166 49.1547C57.4894 48.2261 55.9851 48.2261 55.0579 49.1547C54.1293 50.082 54.1293 51.5862 55.0579 52.5148L66.9668 64.4237Z" fill="white"/>
<path d="M96.7398 59.0255C97.0304 59.1409 97.3304 59.1965 97.625 59.1965C98.5672 59.1965 99.4591 58.6331 99.8297 57.7059L106.11 42.0799C106.6 40.8621 106.01 39.4787 104.793 38.9886C103.573 38.4972 102.192 39.0905 101.702 40.3069L95.4216 55.9356C94.9315 57.152 95.5234 58.5367 96.7398 59.0255Z" fill="white"/>
<path d="M129.029 95.801L113.06 89.3823C111.843 88.8909 110.459 89.4841 109.97 90.7005C109.48 91.9183 110.07 93.3017 111.288 93.7904L127.256 100.209C127.548 100.326 127.848 100.382 128.143 100.382C129.085 100.382 129.974 99.8182 130.348 98.8909C130.838 97.6732 130.246 96.2898 129.029 95.801Z" fill="white"/>
<path d="M46.2102 67.6339L62.181 74.0527C62.4715 74.1694 62.7702 74.2251 63.0661 74.2251C64.007 74.2251 64.8989 73.6617 65.2709 72.7345C65.7596 71.5167 65.1704 70.1333 63.9527 69.6446L47.9846 63.2258C46.7668 62.7344 45.3834 63.3263 44.8919 64.544C44.4032 65.7618 44.9938 67.1452 46.2102 67.6339Z" fill="white"/>
<path d="M110.116 72.12C110.501 73.0228 111.38 73.5645 112.301 73.5645C112.614 73.5645 112.929 73.5034 113.234 73.373L128.723 66.7642C129.931 66.2497 130.492 64.8527 129.977 63.6472C129.461 62.4403 128.067 61.8809 126.859 62.3928L111.369 69.0029C110.162 69.5174 109.601 70.9131 110.116 72.12Z" fill="white"/>
<path d="M74.761 57.6319C75.1479 58.5347 76.0249 59.0764 76.9481 59.0764C77.259 59.0764 77.5753 59.0153 77.8794 58.885C79.0863 58.3705 79.647 56.9749 79.1325 55.7679L72.6676 40.6144C72.1531 39.4075 70.7561 38.8482 69.5505 39.3613C68.3423 39.8759 67.7829 41.2715 68.2975 42.4784L74.761 57.6319Z" fill="white"/>
</svg>
