<svg width="150" height="150" viewBox="0 0 150 150" fill="none" xmlns="http://www.w3.org/2000/svg">
<path d="M120.075 89.6315C117.724 100.359 110.227 112.846 96.6673 114.974C97.5579 112.552 97.8349 110.293 97.8756 109.91C98.0182 108.607 97.0773 107.436 95.7754 107.293C94.4735 107.149 93.2991 108.089 93.1539 109.391C93.029 110.491 92.471 113.409 91.2804 115.29H86.5967L86.632 107.383C86.6347 106.752 86.3862 106.145 85.9409 105.697C85.4943 105.249 84.8888 104.997 84.2562 104.997H77.9881C76.8355 104.997 75.8485 105.825 75.6476 106.959L74.2411 114.896H69.3334C68.2949 112.24 67.3201 107.073 66.8911 103.984C66.7105 102.685 65.524 101.782 64.2112 101.957C62.912 102.138 62.0037 103.336 62.1843 104.637C62.2929 105.423 63.0667 110.803 64.3402 114.933C62.2128 114.678 60.1533 113.698 58.1957 111.993C51.8869 106.489 47.6322 94.36 47.605 81.8104C51.3683 80.2396 54.7501 77.6222 57.635 73.9268C58.4427 72.8923 58.2581 71.3976 57.225 70.5925C56.1905 69.7834 54.6971 69.968 53.8907 71.0025C48.8364 77.4769 42.2588 79.9328 34.3453 78.301C30.0499 77.4158 26.3572 74.911 23.9461 71.2482C21.5364 67.5868 20.696 63.2031 21.5812 58.909C21.5852 58.8913 21.592 58.8723 21.5961 58.8533C21.9681 58.3822 22.1649 57.7686 22.0943 57.1251L22.0875 57.064C24.443 49.9448 31.4061 45.223 39.0345 45.876C40.1178 45.9765 41.132 45.3085 41.4836 44.2768C41.5107 44.1967 41.5352 44.1193 41.5406 44.0854C42.829 40.1266 45.1342 36.7923 48.0354 34.6935C50.7058 32.7589 53.5486 32.1371 56.0384 32.9503C63.1781 35.2745 65.6407 41.0986 63.569 50.7539C63.4265 51.4178 62.3553 53.6347 61.8408 54.7018C61.2706 55.8843 61.7662 57.3043 62.9486 57.8731C64.1311 58.4447 65.5511 57.9478 66.12 56.7667C67.335 54.2497 67.9921 52.7821 68.2134 51.7531C68.6166 49.8755 68.8406 48.1554 68.9384 46.5589C69.1596 46.5589 69.3836 46.5426 69.6077 46.4788C81.6482 43.0563 92.4208 43.7921 102.544 48.7283C119.083 56.7911 123.265 75.0807 120.075 89.6315ZM124.948 69.7481C124.813 69.6856 124.677 69.6381 124.539 69.6015C122.054 59.3814 115.808 49.9081 104.627 44.4573C93.5422 39.0541 81.8138 38.1811 68.7944 41.7788C68.4808 39.4817 67.8238 37.5566 66.9468 35.9384C67.9962 35.5094 68.9859 34.7478 69.776 33.7309C70.6286 32.6381 71.1553 31.3538 71.2612 30.117C71.3956 28.5286 70.8322 27.1194 69.7149 26.2492C69.0144 25.7034 68.1509 25.4143 67.2183 25.4143C65.5023 25.4143 63.7197 26.3904 62.4463 28.0249C61.9223 28.6997 61.5435 29.4192 61.2951 30.1455C59.9863 29.369 58.6749 28.811 57.5087 28.4322C56.0303 27.9503 54.4989 27.7697 52.9567 27.8756C52.9526 27.2647 52.8793 26.6375 52.7191 26.0198C52.0091 23.2937 49.9577 21.389 47.7286 21.389C47.3959 21.389 47.066 21.4324 46.747 21.5152C44.2273 22.1723 42.9023 25.178 43.7304 28.3616C43.9965 29.3798 44.45 30.284 45.0296 31.0157C41.8203 33.4119 39.215 36.9281 37.5805 41.0633C31.0151 41.0783 24.9982 44.1559 21.0789 49.0949C20.6566 48.207 19.7158 47.6382 18.6854 47.7468C17.3821 47.8893 16.4386 49.061 16.5811 50.3656L17.2613 56.6282C17.1418 57.064 17.0196 57.4998 16.9273 57.9492C15.7856 63.4868 16.8689 69.1372 19.9778 73.8602C23.0854 78.5833 27.8479 81.8131 33.3855 82.9548C35.2902 83.3472 37.1433 83.5427 38.9408 83.5427C40.293 83.5427 41.6003 83.3933 42.8846 83.1734C43.2091 96.7195 47.9173 109.332 55.0732 115.573C58.2364 118.333 61.7947 119.757 65.4643 119.757C66.1037 119.757 66.7458 119.715 67.3907 119.628C67.426 119.624 67.4586 119.61 67.4939 119.603C67.612 119.622 67.7287 119.648 67.8509 119.648H76.2327C77.384 119.648 78.371 118.823 78.5719 117.688L79.9784 109.748H81.8695L81.8342 117.656C81.8315 118.288 82.0799 118.896 82.5266 119.344C82.9719 119.791 83.5787 120.042 84.21 120.042H92.4493C92.5769 120.042 92.7004 120.024 92.8226 120.004C92.9516 120.025 93.0806 120.042 93.215 120.042H93.2679C108.531 119.706 120.875 108.17 124.717 90.6483C125.727 86.0434 126.07 81.1003 125.624 76.1682C128.248 78.8209 131.767 84.2812 131.513 94.4523C131.48 95.7638 132.518 96.8526 133.829 96.8865C133.849 96.8879 133.87 96.8879 133.89 96.8879C135.174 96.8879 136.231 95.8629 136.263 94.5704C136.737 75.5912 125.429 69.9775 124.948 69.7481Z" fill="white"/>
<path d="M39.5365 54.1244C37.1145 53.3017 34.7781 53.3899 32.7797 54.3769C29.4685 56.0128 28.2236 59.4625 28.0919 59.8508C27.6724 61.0943 28.3403 62.4411 29.5825 62.8619C29.835 62.9461 30.0916 62.9868 30.3428 62.9868C31.3352 62.9868 32.2597 62.361 32.5937 61.3713C32.6005 61.3509 33.3146 59.4123 34.884 58.6357C35.7501 58.2081 36.7737 58.2026 38.0078 58.6221C39.2514 59.0457 40.5995 58.3805 41.0217 57.1383C41.4439 55.8961 40.7787 54.5466 39.5365 54.1244Z" fill="white"/>
<path d="M53.3723 44.588C52.0568 44.3178 50.6924 45.2206 50.4209 46.5389C50.2946 47.1593 50.4385 47.8978 50.7888 48.4232C51.1364 48.9459 51.7568 49.364 52.3731 49.4889C52.5279 49.5215 52.7139 49.5405 52.8727 49.5405C54.0566 49.5405 55.0883 48.6988 55.3273 47.5218C55.5906 46.1778 54.7136 44.8609 53.3723 44.588Z" fill="white"/>
</svg>
