<svg width="150" height="151" viewBox="0 0 150 151" fill="none" xmlns="http://www.w3.org/2000/svg">
<path d="M66.5215 42.5219C69.1553 49.2407 72.1393 56.8554 80.369 59.9168C80.6419 60.0186 80.9216 60.0662 81.1972 60.0662C82.1611 60.0662 83.068 59.4756 83.425 58.5199C83.8825 57.2899 83.2567 55.9214 82.0267 55.4639C75.7885 53.1424 73.4358 47.1418 70.9459 40.7882C69.124 36.1439 67.2424 31.3407 63.7221 27.758C62.803 26.824 61.2988 26.8104 60.3621 27.7295C59.4267 28.6486 59.4131 30.1528 60.3336 31.0895C63.1723 33.9799 64.7987 38.1287 66.5215 42.5219Z" fill="white"/>
<path d="M120.525 69.4968C115.37 66.297 108.639 66.6323 101.612 66.9907C95.5134 67.3002 88.6005 67.6532 81.818 65.7689C68.6465 62.1115 64.8018 51.8168 61.4092 42.7345C60.6747 40.7659 59.981 38.9074 59.218 37.2077C57.9065 34.2847 56.3236 32.0651 54.7216 30.3558V21.7813C54.7216 20.4698 53.6573 19.4054 52.3458 19.4054C51.0344 19.4054 49.97 20.4698 49.97 21.7813V26.5722C47.9132 25.406 46.3859 25.0599 46.242 25.0286C45.5293 24.8752 44.784 25.0653 44.2233 25.5364L17.8397 47.7372C16.926 48.507 16.7251 49.8347 17.3713 50.8393L22.8764 59.4126C23.2321 59.9651 23.8023 60.348 24.4498 60.4661C25.1015 60.5855 25.7667 60.4281 26.2935 60.0344L38.1032 51.2534C39.5396 51.3688 42.3145 51.472 45.1695 50.9466C46.5652 52.7549 54.1229 63.1949 54.6768 77.8434C55.2538 93.1693 66.8029 100.103 71.0848 102.154V134.382C71.0848 135.695 72.1478 136.758 73.4606 136.758C74.772 136.758 75.8364 135.695 75.8364 134.382V100.599C75.8364 99.603 75.2146 98.7124 74.2792 98.3689C74.1367 98.3173 60.0013 92.9494 59.4243 77.6655C58.8962 63.6347 52.6363 53.2572 49.8723 49.3256C51.6222 48.3332 53.0789 46.8819 53.8229 44.7559C54.256 43.5178 53.603 42.1615 52.3648 41.7285C51.128 41.2954 49.7718 41.9484 49.3374 43.1865C48.0286 46.9254 40.3297 46.7842 37.7421 46.4434C37.1285 46.3606 36.5053 46.5208 36.0071 46.8914L25.4993 54.7044L22.4976 50.0288L46.2733 30.0219C48.1468 30.7903 52.1557 33.0683 54.8832 39.1518C55.5823 40.713 56.2503 42.5023 56.9589 44.3962C60.3692 53.5315 65.0421 66.0417 80.5459 70.3467C88.0724 72.4388 95.3953 72.0654 101.853 71.7369C110.397 71.3011 117.16 70.9563 120.968 76.3609C121.488 77.4008 125.348 85.5206 122.722 92.3466C121.719 94.9546 120.311 96.3298 118.681 97.9223C117.038 99.5283 115.279 101.261 114.018 104.219C97.8716 98.168 100.397 87.5665 100.526 87.0669C100.869 85.8098 100.133 84.5078 98.8762 84.1535C97.615 83.7992 96.3009 84.5363 95.9465 85.8003C95.9031 85.955 91.9077 101.205 112.725 108.805C112.439 110.495 112.268 112.445 112.268 114.755V134.382C112.268 135.695 113.332 136.758 114.643 136.758C115.956 136.758 117.019 135.695 117.019 134.382V114.755C117.019 106.19 119.328 103.934 122.002 101.322C123.773 99.5908 125.781 97.6277 127.158 94.0518C128.496 90.5709 128.572 86.9447 128.135 83.7462C129.801 87.09 131.017 91.418 131.017 96.9679V111.585C131.017 112.897 132.082 113.961 133.393 113.961C134.705 113.961 135.769 112.897 135.769 111.585V96.9679C135.769 76.6161 121.518 69.9367 120.525 69.4968Z" fill="white"/>
</svg>
