<svg width="150" height="151" viewBox="0 0 150 151" fill="none" xmlns="http://www.w3.org/2000/svg">
<path d="M96.0496 116.917C92.6447 119.821 86.3061 122.118 78.6451 123.421L85.1969 92.6785C85.4698 91.3956 84.6512 90.133 83.3682 89.8602C82.0894 89.5873 80.8227 90.4059 80.5499 91.6889L73.641 124.107C71.9834 124.283 70.285 124.414 68.5609 124.498V90.8159L75.0502 85.5172C76.0657 84.6863 76.2177 83.1889 75.3869 82.1734C74.5574 81.1566 73.0613 81.0073 72.0445 81.8354L65.6733 87.0391L60.4818 81.9752C59.541 81.0602 58.0395 81.0778 57.1217 82.0173C56.2054 82.9568 56.2244 84.461 57.1638 85.3774L63.8093 91.8586V124.609C62.0987 124.604 60.4275 124.552 58.8011 124.456L51.8203 91.6889C51.5474 90.4059 50.2821 89.5873 49.0019 89.8602C47.7176 90.133 46.899 91.3956 47.1732 92.6785L53.8486 124.008C45.0255 122.923 38.1004 120.436 34.8503 117.012C34.2665 116.071 34.4376 111.781 34.5299 109.476C34.5788 108.227 34.6263 107.009 34.6263 105.927C34.6263 84.5153 41.5962 65.1423 52.4597 55.9785C54.7636 56.8338 59.6211 58.3122 65.695 58.3122C69.5451 58.3122 73.8813 57.7054 78.356 55.9758C89.2195 65.141 96.1908 84.5139 96.1908 105.927C96.1908 107.016 96.2396 108.241 96.2899 109.497C96.3808 111.77 96.5505 115.982 96.0496 116.917ZM45.4124 43.8932V19.6668L54.0929 24.4605C54.8885 24.9017 55.866 24.8487 56.6099 24.3247C57.305 23.8346 60.494 23.1463 65.4085 23.1463C70.323 23.1463 73.512 23.8346 74.2071 24.3247C74.9497 24.8487 75.9286 24.9003 76.7241 24.4605L85.4046 19.6668V43.8932C85.4046 47.8601 83.5664 49.1416 78.0424 50.9853C78.0179 50.9934 77.9962 51.0111 77.9718 51.0206C77.9283 51.0369 77.8849 51.0436 77.8428 51.0627C65.2348 56.5799 53.144 51.14 53.0218 51.083C52.9688 51.0586 52.9132 51.0464 52.8589 51.0274C52.829 51.0151 52.8046 50.9948 52.7747 50.9853C47.2506 49.1416 45.4124 47.8587 45.4124 43.8932ZM109.601 37.0549C112.035 29.5406 117.398 26.1615 118.001 25.8045C118.894 25.4637 119.529 24.5976 119.529 23.5835C119.529 22.272 118.465 21.2077 117.153 21.2077C115.462 21.2077 110.735 24.8691 107.671 29.9275C103.549 36.7277 100.547 48.49 109.647 65.9121C121.621 88.8433 106.541 105.983 101.103 111.12C101.085 110.54 101.063 109.939 101.039 109.306C100.99 108.117 100.942 106.958 100.942 105.927C100.942 84.4148 94.1313 64.6414 83.3316 54.0467C87.217 52.2682 90.1562 49.5897 90.1562 43.8932V15.6401C90.1562 14.7998 89.7123 14.0219 88.9873 13.5942C88.2637 13.1666 87.3677 13.1544 86.6319 13.5603L75.5104 19.7048C72.4789 18.5372 67.6078 18.3947 65.4085 18.3947C63.2106 18.3947 58.3381 18.5372 55.3066 19.7048L44.1852 13.5603C43.4493 13.153 42.5533 13.1666 41.8284 13.5942C41.1048 14.0219 40.6608 14.7998 40.6608 15.6401V43.8932C40.6608 49.5883 43.6 52.2682 47.4855 54.0467C36.6844 64.6414 29.8747 84.4148 29.8747 105.927C29.8747 106.952 29.8285 108.105 29.7797 109.287C29.5611 114.828 29.557 118.328 31.3463 120.216C36.7808 125.944 49.0223 129.365 64.0971 129.365C64.7067 129.365 65.3325 129.354 65.9584 129.342C66.0344 129.349 66.1063 129.365 66.1851 129.365C66.2923 129.365 66.3955 129.347 66.4987 129.334C78.1768 129.038 92.27 126.568 99.3268 120.364C99.3811 120.317 99.4341 120.265 99.4843 120.212C100.235 119.418 100.656 118.317 100.889 116.92C101.37 116.898 101.849 116.747 102.255 116.428C102.533 116.208 129.806 94.252 113.859 63.7128C108.579 53.6041 107.148 44.6358 109.601 37.0549Z" fill="white"/>
</svg>
