<svg width="150" height="150" viewBox="0 0 150 150" fill="none" xmlns="http://www.w3.org/2000/svg">
<path d="M72.4149 40.6278C72.4149 35.9535 76.2175 32.1509 80.8918 32.1509C85.566 32.1509 89.3686 35.9535 89.3686 40.6278C89.3686 45.3006 85.566 49.1046 80.8918 49.1046C76.2175 49.1046 72.4149 45.3006 72.4149 40.6278ZM49.3642 66.0393L55.2182 60.9442C56.2079 60.0822 56.311 58.582 55.4503 57.5923C54.5882 56.604 53.0881 56.4995 52.0984 57.3588L45.5303 63.0743C44.018 61.7982 42.6047 60.4772 41.2973 59.1169L47.7622 53.491C48.7519 52.6289 48.8564 51.1274 47.9957 50.1377C47.1337 49.1481 45.6335 49.0449 44.6425 49.9056L38.1463 55.56C36.9598 54.0992 35.8778 52.6113 34.8813 51.1139L40.4977 46.2251C41.4874 45.3631 41.5919 43.8643 40.7312 42.8732C39.8691 41.8849 38.369 41.7804 37.3779 42.6397L32.3657 47.0017C26.8945 37.1767 24.9518 27.4047 24.2621 21.6051L67.4121 57.1769C63.285 60.1677 59.1009 64.5093 55.0349 69.5799C53.0161 68.4735 51.1291 67.2883 49.3642 66.0393ZM131.923 39.1113H94.0265C93.2717 32.5297 87.673 27.3993 80.8918 27.3993C73.5974 27.3993 67.6633 33.3334 67.6633 40.6278C67.6633 47.9221 73.5974 53.8562 80.8918 53.8562C82.3199 53.8562 83.6925 53.6213 84.9808 53.2019C85.3243 56.027 85.7493 63.3771 82.3661 71.1629C75.0541 87.9877 53.3325 91.1957 45.5941 91.8066C49.2597 85.7082 53.2632 79.5977 57.3767 74.2487C57.3998 74.2243 57.4175 74.1944 57.4392 74.1686C62.4637 67.6454 67.6511 62.2666 72.5805 59.4522C72.6335 59.4237 72.6769 59.3816 72.7258 59.3491C72.795 59.3029 72.8656 59.2595 72.9294 59.2052C73 59.1468 73.0598 59.0803 73.1208 59.0151C73.1575 58.9757 73.2009 58.9431 73.2362 58.9011C73.2444 58.8902 73.2498 58.878 73.258 58.8685C73.3163 58.7952 73.3639 58.7164 73.4114 58.639C73.4467 58.582 73.4874 58.5277 73.5173 58.4693C73.5512 58.4001 73.5756 58.3282 73.6042 58.2562C73.6327 58.1842 73.6652 58.1123 73.687 58.0376C73.706 57.9684 73.7141 57.8992 73.7277 57.8286C73.7426 57.7498 73.7616 57.6724 73.7684 57.5923C73.7752 57.5149 73.7698 57.4362 73.7684 57.3588C73.7671 57.2855 73.7725 57.2122 73.7643 57.1389C73.7562 57.0615 73.7358 56.9882 73.7195 56.9122C73.7046 56.8361 73.6924 56.7601 73.6693 56.6855C73.6503 56.6216 73.6204 56.5619 73.5946 56.4995C73.5607 56.4153 73.5281 56.3298 73.4833 56.2497C73.4765 56.2374 73.4738 56.2239 73.467 56.2117C73.4385 56.1628 73.4019 56.1221 73.3693 56.0759C73.3218 56.0026 73.2743 55.9293 73.2172 55.8627C73.1602 55.7935 73.095 55.7351 73.0312 55.674C72.9905 55.636 72.9579 55.5912 72.9145 55.5559L23.0199 14.4233C22.3154 13.8436 21.342 13.7187 20.5111 14.1002C19.683 14.4831 19.1467 15.3085 19.1331 16.2208C19.1291 16.4882 19.0625 34.2267 29.4577 51.4166C29.5527 51.7234 29.7075 52.0153 29.9315 52.2705C29.9709 52.3153 30.0184 52.3493 30.0605 52.39C34.9193 60.1188 41.9463 67.6535 52.0957 73.3758C36.9992 93.6991 24.2309 122.038 23.4951 123.683C22.9589 124.88 23.4965 126.286 24.6939 126.82C25.0088 126.962 25.3387 127.03 25.6618 127.03C26.5714 127.03 27.4376 126.506 27.8326 125.622C27.9548 125.349 34.098 111.71 42.7228 96.6953C42.7527 96.6967 42.7812 96.7048 42.8124 96.7048C44.1863 96.7048 76.5624 96.4346 86.724 73.0581C91.6494 61.7235 89.5397 51.418 89.446 50.9862C89.4297 50.9089 89.3985 50.8383 89.3754 50.765C91.477 49.0041 93.0111 46.6012 93.7034 43.8629H131.923C133.235 43.8629 134.298 42.7999 134.298 41.4871C134.298 40.1757 133.235 39.1113 131.923 39.1113Z" fill="white"/>
<path d="M80.892 37.3399C79.2697 37.3399 77.9501 38.6595 77.9501 40.2818C77.9501 41.9028 79.2697 43.2224 80.892 43.2224C82.5144 43.2224 83.8339 41.9028 83.8339 40.2818C83.8339 38.6595 82.5144 37.3399 80.892 37.3399Z" fill="white"/>
</svg>
