<svg width="150" height="151" viewBox="0 0 150 151" fill="none" xmlns="http://www.w3.org/2000/svg">
<path d="M39.8129 68.658C39.4192 68.658 39.2428 68.5888 39.2156 68.5888H39.2129C38.7662 67.6941 40.3845 62.8719 46.7001 57.1917C51.5426 52.8393 56.0566 50.8572 58.203 50.8572C58.6239 50.8572 58.7908 50.9291 58.8031 50.9237C59.2484 51.8211 57.6328 56.6405 51.3132 62.3221C46.4733 66.6759 41.9593 68.658 39.8129 68.658ZM110.581 87.507C106.577 82.4146 99.3071 80.1203 91.1968 81.3611C79.0463 82.9305 70.5287 81.0719 65.8816 75.8289C59.5755 68.7137 62.3749 57.3411 62.4034 57.2311C62.5147 56.7967 62.4917 56.3527 62.3654 55.94C63.8818 52.766 64.1792 49.7982 62.3491 47.7605C61.669 47.0057 60.3982 46.1056 58.203 46.1056C57.1712 46.1056 56.0105 46.3241 54.771 46.7138C55.033 43.3198 56.7816 37.5282 65.1485 34.3868C69.3937 32.7929 73.3158 32.1739 76.7777 31.6295C84.6871 30.3832 91.5199 29.3066 95.5818 17.8322C96.019 16.5954 95.3714 15.2378 94.1346 14.7993C92.8992 14.3621 91.5416 15.0084 91.1017 16.2465C87.9833 25.0519 83.487 25.7619 76.0378 26.9362C72.3533 27.5159 68.1773 28.1744 63.4786 29.9379C51.9268 34.2754 49.623 43.5614 50.0194 48.8859C47.8798 50.1295 45.6669 51.7315 43.5233 53.6579C37.0991 59.4358 31.8995 67.5624 35.6655 71.7534C36.3443 72.5082 37.6163 73.4096 39.8129 73.4096C42.9965 73.4096 47.3612 71.4316 51.692 68.1476C45.0492 95.4489 64.5091 107.401 70.2218 110.259V134.45C70.2218 135.763 71.2876 136.826 72.5976 136.826C73.9104 136.826 74.9734 135.763 74.9734 134.45V108.741C74.9734 107.762 74.368 106.881 73.4556 106.526C72.394 106.112 47.892 96.1671 57.1305 66.2334C57.5256 70.3591 58.8614 75.0564 62.3016 78.9527C68.0538 85.4665 77.9778 87.8613 91.8606 86.0652C98.312 85.0796 103.913 86.7168 106.844 90.4435C109.657 94.0207 109.797 99.1918 107.248 105.396L103.256 115.107C99.6288 113.793 91.6407 109.768 88.3227 99.1212C87.9331 97.8682 86.6013 97.169 85.3482 97.56C84.0952 97.9496 83.3974 99.2814 83.787 100.534C84.9776 104.353 86.6746 107.438 88.5793 109.954C84.2635 110.214 80.8247 109.048 80.7405 109.018C79.5051 108.577 78.1502 109.222 77.7077 110.454C77.2637 111.689 77.9059 113.05 79.1413 113.493C79.3422 113.565 82.7281 114.754 87.2964 114.754C88.9174 114.754 90.6904 114.59 92.5191 114.189C96.2403 117.435 100.047 119.063 102.263 119.795V135.136C102.263 136.447 103.327 137.511 104.638 137.511C105.951 137.511 107.014 136.447 107.014 135.136V118.466L111.642 107.202C114.835 99.4321 114.457 92.4391 110.581 87.507Z" fill="white"/>
</svg>
