<svg width="150" height="150" viewBox="0 0 150 150" fill="none" xmlns="http://www.w3.org/2000/svg">
<path d="M113.989 48.3333C113.06 47.4047 111.557 47.4047 110.629 48.3333L110.087 48.8763L109.544 48.3333C108.615 47.4047 107.112 47.4047 106.184 48.3333C105.255 49.2605 105.255 50.7661 106.184 51.6933L106.727 52.2364L106.184 52.7808C105.255 53.708 105.255 55.2122 106.184 56.1395C106.648 56.6038 107.255 56.8359 107.863 56.8359C108.473 56.8359 109.08 56.6038 109.544 56.1395L110.087 55.5964L110.629 56.1395C111.093 56.6038 111.7 56.8359 112.309 56.8359C112.916 56.8359 113.524 56.6038 113.989 56.1395C114.917 55.2122 114.917 53.708 113.989 52.7808L113.446 52.2364L113.989 51.6933C114.917 50.7661 114.917 49.2605 113.989 48.3333Z" fill="white"/>
<path d="M108.377 64.9446C107.178 64.9446 105.993 64.7654 104.851 64.4111C103.849 64.0988 102.759 64.4858 102.175 65.3601C101.59 66.233 101.648 67.3856 102.319 68.1961C105.725 72.3096 107.525 77.0979 107.525 82.045C107.525 88.6456 104.347 94.8811 98.5761 99.6001C98.5109 99.6558 98.4485 99.7128 98.3887 99.7739C95.5514 102.655 90.9654 104.973 84.7571 106.67C81.4079 107.586 78.0532 108.048 74.7868 108.048C47.0171 108.048 28.6678 74.7642 21.7617 59.6283C29.7457 64.2862 38.6964 66.7272 48.463 66.9607C51.2922 71.9132 57.0878 78.1962 64.9741 78.1962C66.9399 78.1962 69.0347 77.8038 71.2449 76.9051C72.4613 76.4109 73.0464 75.0248 72.5509 73.8098C72.0567 72.5947 70.6747 72.0069 69.4556 72.5037C59.6089 76.5087 53.5051 66.3484 52.1529 63.7934C52.1217 63.7133 52.1054 63.6278 52.0647 63.549C45.3025 50.3545 35.1273 41.4622 21.7793 37.0609C25.9295 33.9234 33.9624 29.1718 44.5531 29.1718C57.5426 29.1718 70.6448 36.1961 83.4986 50.0463C85.9871 52.7289 87.6501 54.6228 88.9874 56.1447C91.0604 58.5082 92.3108 59.9324 94.2847 61.5343C95.1604 62.2457 96.4134 62.2416 97.2864 61.5275C98.1593 60.8134 98.4091 59.5835 97.8851 58.5856C96.9877 56.8723 96.5315 55.026 96.5315 53.0996C96.5315 46.5695 101.845 41.2559 108.377 41.2559C114.908 41.2559 120.222 46.5695 120.222 53.0996C120.222 59.631 114.908 64.9446 108.377 64.9446ZM135.131 51.0659C135.131 49.7544 134.068 48.6901 132.755 48.6901H124.63C124.539 48.6901 124.455 48.7091 124.366 48.7172C122.437 41.6903 116.009 36.5043 108.377 36.5043C99.5413 36.5043 92.2972 43.4429 91.8071 52.156C90.5812 50.7631 89.0675 49.0621 86.9822 46.8139C73.1917 31.9549 58.9165 24.4202 44.5531 24.4202C26.7916 24.4202 15.6443 36.006 15.1787 36.4988C14.599 37.1138 14.3885 37.9908 14.6261 38.8027C14.8651 39.6132 15.5167 40.2349 16.3367 40.4386C29.1022 43.5868 39.0046 50.8677 45.8238 62.1072C35.358 61.3497 25.9933 57.7045 17.94 51.2437C17.1105 50.5785 15.9403 50.5459 15.0755 51.1623C14.2107 51.7773 13.8591 52.8946 14.2161 53.8938C15.0728 56.3008 35.6757 112.8 74.7868 112.8C78.4768 112.8 82.2509 112.28 86.0074 111.254C92.9733 109.352 98.2476 106.643 101.682 103.199C108.516 97.5678 112.277 90.0602 112.277 82.045C112.277 77.7319 111.177 73.5355 109.059 69.6827C117.269 69.3473 123.951 63.0195 124.859 54.969H132.755C134.068 54.969 135.131 53.906 135.131 52.5932C135.131 52.3244 135.077 52.0719 134.994 51.8288C135.077 51.5899 135.131 51.336 135.131 51.0659Z" fill="white"/>
</svg>
