<svg width="150" height="151" viewBox="0 0 150 151" fill="none" xmlns="http://www.w3.org/2000/svg">
<path d="M124.703 66.2814C122.649 68.6939 119.887 69.8275 116.82 70.5674V66.667C116.82 65.3556 115.756 64.2912 114.445 64.2912C113.133 64.2912 112.069 65.3556 112.069 66.667V71.4865C109.039 71.9956 105.909 72.5291 102.955 73.751C101.489 74.3592 100.3 74.9185 99.0739 75.6C99.1282 65.5823 94.3753 61.1429 89.4648 60.3881C81.0884 59.0889 76.3314 67.1897 76.1332 67.5359C75.4802 68.6695 75.8712 70.1126 77.0021 70.7697C78.1329 71.4281 79.5869 71.0398 80.2467 69.9117C80.3825 69.6822 83.5905 64.2939 88.7426 65.084C93.0312 65.7438 95.0758 71.1973 94.0766 79.3144C93.7739 81.7771 93.1928 84.4651 92.3579 87.2998V85.0856C92.3579 84.5154 92.1488 83.9995 91.8135 83.5908C91.7877 83.5406 91.7632 83.489 91.7347 83.4429C91.7293 83.4347 91.7266 83.4266 91.7225 83.4198L91.7212 83.4184C91.3261 82.8116 90.6649 82.4043 89.902 82.3486C89.8558 82.3459 89.8097 82.3364 89.7621 82.3351C89.7513 82.3351 89.7418 82.3323 89.7296 82.3323C89.6467 82.3323 89.568 82.3473 89.4879 82.3568C89.4227 82.3636 89.3576 82.3636 89.2924 82.3758C89.1933 82.3948 89.0996 82.426 89.006 82.4573C88.953 82.4735 88.8973 82.4858 88.8444 82.5061C88.7426 82.5469 88.6476 82.6012 88.5539 82.6555C88.5145 82.6772 88.4738 82.6908 88.4371 82.7138C78.695 89.0131 73.4791 89.3919 69.1945 84.1176C69.1524 84.0633 69.0696 83.9764 69.0221 83.9275C68.9759 83.8787 68.8782 83.785 68.8266 83.7402C68.255 83.2447 67.4812 83.0492 66.744 83.2161C66.0055 83.3831 65.3905 83.8909 65.0891 84.5846C64.8407 85.1562 64.5909 85.7386 64.3384 86.3386C57.101 103.548 42.9249 109.582 31.0052 111.416C33.4692 110.42 36.1586 109.214 39.0788 107.753C59.2053 97.6895 62.3101 69.5234 62.4323 68.3287C62.4431 68.2228 62.4472 68.1169 62.4431 68.0097C64.4483 58.4874 76.421 50.7844 89.3087 50.7844C93.2091 50.7844 98.7617 53.2322 104.132 55.5971C112.092 59.1038 120.973 63.015 126.136 58.9436C126.878 59.5559 127.612 59.8776 128.25 60.0378C127.56 62.1788 126.14 64.5939 124.703 66.2814ZM129.487 40.4734C130.041 40.563 131.867 43.0678 131.867 47.9538C131.867 52.0076 130.615 54.3984 129.871 55.1532C129.78 55.2048 129.684 55.2428 129.598 55.3079C129.53 55.3609 129.481 55.3894 129.45 55.4071C128.854 55.2129 127.117 52.7258 127.117 47.9538C127.117 43.0692 128.943 40.563 129.487 40.4734ZM144.539 32.8193C144.539 31.3639 143.362 30.2249 141.859 30.2249C139.864 30.2249 134.985 33.0827 132.36 36.6464C131.495 36.0477 130.53 35.7218 129.491 35.7218C128.452 35.7218 127.486 36.049 126.62 36.6491C123.995 33.084 119.12 30.2249 117.126 30.2249C115.622 30.2249 114.445 31.3639 114.445 32.8193C114.445 33.9475 114.472 35.2372 123.418 41.2948C122.748 43.1778 122.365 45.4395 122.365 47.9538C122.365 50.574 122.776 52.9267 123.503 54.8545C120.816 57.4312 114.499 54.9713 106.047 51.2487C100.228 48.6842 94.2096 46.0328 89.3087 46.0328C74.1294 46.0328 59.9587 55.6161 57.7214 67.3947C57.6848 67.5847 57.6725 67.7789 57.6834 67.9716L57.6847 68.0164C57.401 70.3298 53.9731 94.9933 36.9528 103.503C19.361 112.299 11.0417 111.241 10.9887 111.236C9.71121 111.023 8.4948 111.876 8.26265 113.154C8.03051 114.43 8.86407 115.657 10.1375 115.91C10.2719 115.937 14.5904 116.75 20.925 116.75C34.5146 116.75 57.3766 112.998 68.0582 89.6838C74.6344 94.9852 82.2818 91.8994 87.6063 88.819V107.964C87.6063 109.275 88.6706 110.34 89.9821 110.34C90.0445 110.34 90.1029 110.326 90.164 110.321C90.5292 110.543 90.9419 110.69 91.3899 110.69H114.973C116.284 110.69 117.349 109.627 117.349 108.314C117.349 107.003 116.284 105.938 114.973 105.938H93.5675C93.5689 103.492 94.0413 98.2801 96.8352 88.9344C97.6104 86.3373 98.1806 83.8488 98.5553 81.4974C100.964 79.8968 102.415 79.1203 104.774 78.1414C107.005 77.2169 109.47 76.7513 112.069 76.3087V87.6989L109.135 92.0229C108.398 93.109 108.682 94.5861 109.768 95.3232C110.175 95.6002 110.639 95.7332 111.098 95.7332C111.86 95.7332 112.608 95.368 113.067 94.6906L116.41 89.7625C116.678 89.3702 116.82 88.9059 116.82 88.4293V75.4493C118.253 75.1479 119.67 74.7841 121.044 74.2831V87.6989L118.11 92.0229C117.373 93.109 117.657 94.5861 118.741 95.3232C119.15 95.6002 119.614 95.7332 120.073 95.7332C120.835 95.7332 121.583 95.368 122.042 94.6906L125.386 89.7625C125.653 89.3702 125.796 88.9059 125.796 88.4293V71.7512C126.683 71.0778 127.529 70.2918 128.321 69.3618C130.052 67.3295 133.098 62.6526 133.398 58.3463C135.378 56.246 136.618 52.5059 136.618 47.9538C136.618 45.4382 136.236 43.1764 135.564 41.2948C144.511 35.2372 144.539 33.9475 144.539 32.8193Z" fill="white"/>
</svg>
