<svg width="150" height="150" viewBox="0 0 150 150" fill="none" xmlns="http://www.w3.org/2000/svg">
<path d="M105.868 95.0186C105.435 94.3045 105.067 93.699 104.769 93.2429C104.369 92.6292 103.71 92.2355 102.981 92.1731C94.7549 91.4726 82.2827 89.1348 69.5742 81.9762C69.2117 81.7712 68.8085 81.6707 68.408 81.6707C67.9423 81.6707 67.4767 81.8078 67.0748 82.0807C64.8063 83.6189 62.1521 84.4321 59.4016 84.4321C51.8493 84.4321 45.7075 78.2889 45.7075 70.7366C45.7075 63.187 51.8493 57.0425 59.4016 57.0425C60.185 57.0425 60.9887 57.1198 61.8603 57.2773C62.2703 57.3506 62.6816 57.3153 63.059 57.185C65.3982 57.6249 71.7857 59.0422 79.6421 62.5597C80.5354 62.9602 81.5821 62.7702 82.2813 62.0832L111.688 33.0998C110.754 41.669 107.292 57.5516 94.592 67.4458C94.0042 67.9046 93.6648 68.6146 93.677 69.36C93.6892 70.1053 94.0517 70.8031 94.6545 71.2416C103.472 77.6549 110.754 85.677 116.296 95.0879C116.312 95.1177 116.331 95.1476 116.352 95.1775C116.368 95.2073 116.387 95.2372 116.396 95.2535C117.43 96.9518 122.191 104.925 125.153 112.302C115.872 111.515 108.904 100.025 105.868 95.0186ZM52.2688 33.0944L75.1308 55.6292C67.9369 53.0565 63.0115 52.3492 62.7508 52.3139C62.3626 52.261 61.9716 52.3044 61.6159 52.4334C60.8611 52.3384 60.1293 52.2909 59.4016 52.2909C58.7785 52.2909 58.1622 52.3248 57.5567 52.3845C54.1627 45.2408 52.7956 37.9804 52.2688 33.0944ZM130.761 113.778C127.912 105.245 121.684 94.8068 120.481 92.8302C120.43 92.7256 120.37 92.6238 120.304 92.5301C114.955 83.4899 108.089 75.662 99.8663 69.2229C117.328 53.4964 116.809 28.1364 116.775 27.0205C116.749 26.0756 116.164 25.2379 115.286 24.885C114.409 24.532 113.407 24.7343 112.734 25.3968L81.9799 55.7079L51.2275 25.3968C50.5542 24.7343 49.5536 24.532 48.6752 24.885C47.7982 25.2366 47.2131 26.0742 47.1846 27.0191C47.1697 27.588 46.871 40.4051 52.8241 53.5249C45.8949 56.1817 40.9559 62.8856 40.9559 70.7366C40.9559 75.9308 43.1213 80.6226 46.5886 83.9786L18.918 115.351C18.0505 116.336 18.1455 117.837 19.1284 118.705C19.5805 119.102 20.1412 119.299 20.7005 119.299C21.3576 119.299 22.012 119.028 22.4817 118.494L50.4103 86.8296C53.0725 88.3229 56.1366 89.1837 59.4016 89.1837C62.6083 89.1837 65.7158 88.3637 68.4772 86.797C80.8979 93.5185 92.986 95.9635 101.388 96.7984C101.52 97.0116 101.657 97.241 101.805 97.4827C105.365 103.353 113.702 117.097 126.155 117.097C127.059 117.097 127.979 117.023 128.886 116.877C129.575 116.766 130.179 116.359 130.541 115.761C130.901 115.165 130.982 114.44 130.761 113.778Z" fill="white"/>
<path d="M58.9607 72.8027C57.8652 72.8027 56.9732 71.9108 56.9732 70.8138C56.9732 69.7182 57.8652 68.8263 58.9607 68.8263C60.0577 68.8263 60.9496 69.7182 60.9496 70.8138C60.9496 71.9108 60.0577 72.8027 58.9607 72.8027ZM58.9607 64.0747C55.245 64.0747 52.2216 67.0981 52.2216 70.8138C52.2216 74.5296 55.245 77.5543 58.9607 77.5543C62.6765 77.5543 65.7012 74.5296 65.7012 70.8138C65.7012 67.0981 62.6765 64.0747 58.9607 64.0747Z" fill="white"/>
</svg>
