<svg width="150" height="150" viewBox="0 0 150 150" fill="none" xmlns="http://www.w3.org/2000/svg">
<path d="M80.3716 94.0008L75.7096 71.7565C75.7015 71.713 75.6825 71.6737 75.6702 71.6316V54.3086C85.8916 55.4924 93.8567 64.1878 93.8567 74.7215C93.8567 83.5676 88.2281 91.1063 80.3716 94.0008ZM70.8385 95.1208L73.2944 83.3979L75.7517 95.1208C74.9439 95.2172 74.1267 95.2823 73.2944 95.2823C72.4622 95.2823 71.645 95.2172 70.8385 95.1208ZM52.7349 74.7215C52.7349 64.1878 60.6986 55.4924 70.9186 54.3086V71.6302C70.9064 71.6723 70.8888 71.7117 70.8793 71.7565L66.2173 94.0008C58.3622 91.1063 52.7349 83.5676 52.7349 74.7215ZM73.2944 41.9083C77.4365 41.9083 80.8047 45.2778 80.8047 49.4185C80.8047 49.6574 80.7952 49.895 80.7721 50.1299C76.011 48.2347 70.5996 48.1559 65.8222 50.176C65.7978 49.9249 65.7842 49.6737 65.7842 49.4185C65.7842 45.2778 69.1538 41.9083 73.2944 41.9083ZM109.392 78.1983H98.3395C98.4983 77.0593 98.6083 75.9039 98.6083 74.7215C98.6083 73.334 98.4657 71.9832 98.2499 70.6568H109.392C110.703 70.6568 111.767 69.5925 111.767 68.281C111.767 66.9682 110.703 65.9052 109.392 65.9052H96.9914C96.3872 64.2842 95.6256 62.7461 94.7187 61.3016C99.0821 60.3336 102.16 58.4384 103.845 55.6119C106.507 51.1454 104.525 46.2621 104.439 46.0571C103.934 44.8447 102.54 44.2705 101.333 44.7769C100.121 45.2819 99.5477 46.6734 100.053 47.8831C100.064 47.9129 101.192 50.7815 99.7622 53.1791C98.5513 55.2127 95.6528 56.5418 91.3913 57.0577C89.5775 55.1992 87.4854 53.6176 85.1762 52.3849C85.4205 51.4169 85.5563 50.4272 85.5563 49.4185C85.5563 42.6577 80.0567 37.1567 73.2944 37.1567C66.5336 37.1567 61.0326 42.6577 61.0326 49.4185C61.0326 50.4272 61.1697 51.4169 61.4127 52.3849C59.1034 53.6176 57.0127 55.2005 55.1976 57.0577C50.9606 56.5459 48.0689 55.2263 46.847 53.2103C45.4053 50.8345 46.5171 47.9374 46.5443 47.8695C47.0371 46.6612 46.4642 45.2792 45.2586 44.7769C44.0504 44.2732 42.6575 44.8447 42.1524 46.0571C42.0656 46.2621 40.0835 51.1454 42.7457 55.6119C44.4291 58.4384 47.5082 60.3336 51.8715 61.3016C50.9633 62.7461 50.203 64.2842 49.5989 65.9052H37.1986C35.8871 65.9052 34.8228 66.9682 34.8228 68.281C34.8228 69.5925 35.8871 70.6568 37.1986 70.6568H48.339C48.1245 71.9832 47.9833 73.334 47.9833 74.7215C47.9833 75.9039 48.0933 77.0593 48.2508 78.1983H37.1986C35.8871 78.1983 34.8228 79.264 34.8228 80.5741C34.8228 81.8869 35.8871 82.9499 37.1986 82.9499H49.383C49.9967 84.7283 50.8044 86.4118 51.7778 87.9866C47.4647 88.96 44.4183 90.8498 42.7457 93.6559C40.0835 98.1224 42.0656 103.006 42.1524 103.211C42.5312 104.12 43.4082 104.666 44.3355 104.666C44.6368 104.666 44.9423 104.609 45.2383 104.49C46.4465 103.995 47.0289 102.612 46.5443 101.4C46.5321 101.371 45.3944 98.4496 46.847 96.0575C48.0539 94.0646 50.8967 92.7531 55.0578 92.2277C59.6655 97.0296 66.1304 100.034 73.2944 100.034C80.4599 100.034 86.9234 97.0296 91.5338 92.2277C95.6935 92.7531 98.5363 94.0646 99.7446 96.0575C101.178 98.4238 100.083 101.305 100.046 101.397C99.5518 102.605 100.125 103.987 101.333 104.491C101.63 104.614 101.94 104.673 102.244 104.673C103.175 104.673 104.058 104.123 104.439 103.211C104.525 103.006 106.507 98.1224 103.845 93.6559C102.172 90.8498 99.1269 88.96 94.8124 87.9866C95.7872 86.4118 96.5922 84.7283 97.2059 82.9499H109.392C110.703 82.9499 111.767 81.8869 111.767 80.5741C111.767 79.264 110.703 78.1983 109.392 78.1983Z" fill="white"/>
</svg>
