<svg width="150" height="151" viewBox="0 0 150 151" fill="none" xmlns="http://www.w3.org/2000/svg">
<path d="M94.8254 77.295C94.3068 77.295 93.7515 77.2027 93.0754 77.0058C92.1414 76.7316 91.1395 77.056 90.5421 77.8177C89.9407 78.582 89.8674 79.6328 90.3521 80.4731C90.9263 81.4669 91.2169 82.5095 91.2169 83.5739C91.2169 87.0181 88.4134 89.8202 84.9692 89.8202C83.6102 89.8202 82.2988 89.3613 81.1733 88.4938C80.6031 88.0512 79.8632 87.8951 79.1641 88.0635C78.4636 88.2345 77.8784 88.7124 77.5716 89.364C76.2697 92.1363 73.4567 93.9283 70.4048 93.9283C67.6041 93.9283 65.0654 92.4852 63.6141 90.0673C63.1851 89.3505 62.4113 88.9133 61.5777 88.9133C60.7428 88.9133 59.969 89.3505 59.5413 90.0673C58.0887 92.4852 55.55 93.9283 52.7492 93.9283C49.7367 93.9283 47.0242 92.2476 45.6694 89.5419C45.3598 88.9228 44.7951 88.4707 44.123 88.3024C43.451 88.1327 42.741 88.2657 42.1763 88.6662C41.1051 89.4211 39.8615 89.8202 38.5786 89.8202C35.1344 89.8202 32.3323 87.0181 32.3323 83.5739C32.3323 82.5095 32.6228 81.4669 33.1944 80.4758C33.6804 79.6328 33.6044 78.582 33.0057 77.8177C32.4029 77.0547 31.3996 76.7302 30.4683 77.0072C29.7949 77.2054 29.2397 77.2963 28.7224 77.2963C25.2768 77.2963 22.4747 74.4929 22.4747 71.0473C22.4747 67.6031 25.2768 64.7996 28.7224 64.7996C29.2465 64.7996 29.799 64.8919 30.4656 65.0888C31.3983 65.3589 32.4029 65.0413 33.0043 64.2783C33.6044 63.5153 33.6804 62.4618 33.1944 61.6215C32.6228 60.6291 32.3323 59.5864 32.3323 58.5194C32.3323 55.0751 35.1344 52.273 38.5786 52.273C39.8629 52.273 41.1065 52.6722 42.1735 53.427C42.7369 53.8288 43.4538 53.9619 44.1217 53.7935C44.7937 53.6252 45.3598 53.1718 45.6694 52.5527C47.0242 49.847 49.7367 48.1663 52.7492 48.1663C55.5513 48.1663 58.09 49.6094 59.54 52.026C59.969 52.7428 60.7428 53.1799 61.5777 53.1799C62.4113 53.1799 63.1851 52.7428 63.6155 52.026C65.064 49.6094 67.6028 48.1663 70.4048 48.1663C73.4567 48.1663 76.2697 49.9583 77.5716 52.7305C77.8784 53.3822 78.4636 53.8614 79.1641 54.0311C79.8646 54.1995 80.6045 54.042 81.1747 53.6008C82.2988 52.7333 83.6102 52.273 84.9692 52.273C88.4134 52.273 91.2169 55.0751 91.2169 58.5194C91.2169 59.5851 90.9263 60.6291 90.3534 61.6215C89.8701 62.4632 89.9448 63.5153 90.5462 64.2756C91.1463 65.0413 92.155 65.3617 93.0822 65.0861C93.7542 64.8892 94.3081 64.7969 94.8254 64.7969C98.271 64.7969 101.074 67.6003 101.074 71.0473C101.074 74.4915 98.271 77.295 94.8254 77.295ZM95.8517 60.0942C95.9291 59.5742 95.9685 59.0502 95.9685 58.5194C95.9685 52.4563 91.0336 47.5214 84.9692 47.5214C83.4242 47.5214 81.9227 47.8486 80.5271 48.4799C78.1608 45.3411 74.4111 43.4147 70.4048 43.4147C67.0366 43.4147 63.9074 44.7139 61.5777 46.996C59.2467 44.7139 56.1175 43.4147 52.7492 43.4147C48.7565 43.4147 45.0964 45.2542 42.7261 48.3401C41.4146 47.8011 40.0136 47.5214 38.5786 47.5214C32.5142 47.5214 27.5807 52.4563 27.5807 58.5194C27.5807 59.0515 27.6187 59.5769 27.6974 60.0969C22.1109 60.6141 17.7231 65.3277 17.7231 71.0473C17.7231 76.7669 22.1096 81.4818 27.6974 82.0018C27.6187 82.519 27.5807 83.0431 27.5807 83.5739C27.5807 89.6369 32.5142 94.5718 38.5786 94.5718C40.0122 94.5718 41.4133 94.2935 42.7247 93.7545C44.5901 96.1819 47.2577 97.8205 50.2526 98.4192V115.744C50.2526 117.056 51.3156 118.119 52.6284 118.119C53.9412 118.119 55.0042 117.056 55.0042 115.744V98.4735C57.4981 98.0283 59.7762 96.8607 61.5777 95.0986C63.7105 97.1865 66.514 98.4396 69.5563 98.6392V115.744C69.5563 117.056 70.6193 118.119 71.9321 118.119C73.2436 118.119 74.3079 117.056 74.3079 115.744V98.0378C76.7679 97.2313 78.955 95.6986 80.5271 93.6147C81.9227 94.246 83.4242 94.5718 84.9692 94.5718C91.0336 94.5718 95.9685 89.6369 95.9685 83.5739C95.9685 83.0431 95.9291 82.5163 95.8517 81.9991C101.438 81.4805 105.826 76.7655 105.826 71.0473C105.826 65.3264 101.438 60.6114 95.8517 60.0942Z" fill="white"/>
<path d="M126.468 66.2241C125.546 66.6898 124.517 66.9247 123.409 66.9247C118.318 66.9247 112.335 62.116 108.861 55.2276C106.644 50.8371 105.673 46.1846 106.127 42.1254C106.537 38.4381 108.083 35.7419 110.478 34.5337C111.397 34.068 112.426 33.8331 113.535 33.8331C118.626 33.8331 124.609 38.6431 128.083 45.5289C132.418 54.1171 131.677 63.5958 126.468 66.2241ZM85.3366 28.0783C88.026 28.1421 93.9533 29.3653 99.1827 37.9277C89.4243 35.822 86.3032 30.6781 85.3366 28.0783ZM132.326 43.3879C128.007 34.831 120.455 29.0815 113.535 29.0815C111.675 29.0815 109.927 29.4888 108.337 30.2912C106.146 31.3976 104.427 33.1788 103.222 35.4677C96.587 24.6232 88.5039 23.324 85.1044 23.324C84.0523 23.324 83.0734 23.4421 82.3539 23.6579C81.8448 23.8113 81.4022 24.1277 81.0954 24.5621L80.6067 25.2531C80.2999 25.6835 80.1478 26.2034 80.1709 26.7302C80.3392 30.5545 84.503 40.7759 101.301 43.1151C101.105 47.6875 102.255 52.6875 104.619 57.3699C108.937 65.9268 116.487 71.6763 123.409 71.6763C125.268 71.6763 127.016 71.269 128.607 70.4666C136.376 66.5459 138.009 54.652 132.326 43.3879Z" fill="white"/>
</svg>
