<svg width="150" height="150" viewBox="0 0 150 150" fill="none" xmlns="http://www.w3.org/2000/svg">
<path d="M110.412 60.2577C108.921 63.7617 102.403 65.4193 92.0786 64.9279L92.0772 64.9374C91.784 64.9225 91.4894 64.9564 91.2124 65.0474C90.1291 65.4085 89.4543 66.4932 89.6118 67.6254C89.6702 68.0572 89.844 68.4495 90.0992 68.7726C90.592 70.8633 90.9233 79.4651 86.1092 86.4866C82.0079 92.4695 75.2552 95.7821 66.0181 96.3509L99.8128 39.6236C105.694 45.764 112.525 55.2862 110.412 60.2577ZM84.5127 107.967C73.8718 115.976 61.5176 113.302 61.4009 113.273C60.6949 113.109 59.9537 113.277 59.3862 113.728C58.8187 114.179 58.4888 114.865 58.4888 115.588V129.581H46.2215L63.1753 101.122C63.3626 101.166 63.5459 101.18 63.7577 101.185C81.7174 100.964 89.3267 92.0419 92.547 84.5955C94.7123 79.5845 95.3613 73.6926 95.0083 69.765C96.9999 69.7827 98.8435 69.7134 100.541 69.5614C99.2209 88.037 93.8326 100.953 84.5127 107.967ZM100.96 34.0628C100.435 33.5687 99.7151 33.3379 99.0023 33.4383C98.2882 33.5388 97.657 33.957 97.2891 34.576L91.9279 43.5756C90.8323 40.4571 90.6382 34.5122 98.9399 26.4481C99.8807 25.533 99.9038 24.0288 98.9888 23.088C98.0751 22.1458 96.5695 22.1255 95.6301 23.0391C82.5089 35.7843 87.0853 45.3594 89.0959 48.3285L85.9477 53.6123C85.8336 53.3679 85.6843 53.1358 85.482 52.9321C85.3571 52.8099 73.2582 40.2358 94.1964 17.2299C95.0789 16.2606 95.0083 14.7564 94.0376 13.874C93.0669 12.9902 91.5654 13.0608 90.6816 14.0314C66.7213 40.358 81.4852 55.6582 82.126 56.2976C82.5903 56.7606 83.1972 56.9914 83.8026 56.9914C83.8515 56.9914 83.8977 56.9805 83.9438 56.9778L39.9997 130.74C39.5611 131.475 39.553 132.387 39.9752 133.131C40.3974 133.874 41.1862 134.333 42.0401 134.333H60.8646C62.1761 134.333 63.2404 133.268 63.2404 131.957V118.339C66.9793 118.7 73.8256 118.707 80.9924 115.508H94.0104C95.3232 115.508 96.3862 114.445 96.3862 113.132C96.3862 111.821 95.3232 110.756 94.0104 110.756H88.6099C98.4878 102.566 104.123 88.4796 105.352 68.8093C110.262 67.6472 113.379 65.4261 114.786 62.1136C119.213 51.6886 102.842 35.8372 100.96 34.0628Z" fill="white"/>
<path d="M95.946 51.888C95.0174 52.8166 95.0174 54.3194 95.946 55.248L96.7076 56.0083L95.946 56.7713C95.0174 57.6985 95.0174 59.2027 95.946 60.13C96.4103 60.5943 97.0171 60.8264 97.6253 60.8264C98.2335 60.8264 98.8417 60.5943 99.306 60.13L100.068 59.3684L100.829 60.13C101.294 60.5943 101.9 60.8264 102.509 60.8264C103.117 60.8264 103.725 60.5943 104.188 60.13C105.117 59.2027 105.117 57.6985 104.188 56.7713L103.428 56.0083L104.188 55.248C105.117 54.3194 105.117 52.8166 104.188 51.888C103.261 50.9594 101.756 50.9594 100.829 51.888L100.068 52.6496L99.306 51.888C98.3774 50.9594 96.8746 50.9594 95.946 51.888Z" fill="white"/>
</svg>
