<svg width="150" height="151" viewBox="0 0 150 151" fill="none" xmlns="http://www.w3.org/2000/svg">
<path d="M52.273 107.393C58.4976 114.373 54.3257 121.107 51.7218 124.148L22.7439 95.1702C24.5943 93.6415 27.8349 91.4911 31.5235 91.377C34.1273 91.2969 36.6538 92.2662 39.0473 94.2429C37.4222 97.5066 36.7217 100.374 36.9837 102.816C37.2525 105.328 38.4418 106.684 39.1152 107.262C39.6935 107.934 41.0511 109.124 43.5613 109.395C43.8993 109.43 44.2442 109.449 44.5999 109.449C46.8223 109.449 49.3637 108.726 52.2065 107.302C52.2296 107.33 52.2486 107.365 52.273 107.393ZM82.3615 54.229C85.1935 51.3984 89.8012 51.397 92.6318 54.229C94.003 55.6002 94.7578 57.4234 94.7578 59.3621C94.7578 61.3021 94.003 63.1267 92.6318 64.4965C92.4824 64.6459 92.3263 64.7884 92.1661 64.9242L81.9352 54.6946C82.0696 54.5331 82.2122 54.377 82.3615 54.229ZM102.878 43.1306L103.729 43.9818L96.3951 51.3142C96.2607 51.1662 96.1344 51.0115 95.9905 50.8689C95.8479 50.725 95.6918 50.5988 95.5438 50.463L102.878 43.1306ZM44.437 104.694C43.4065 104.665 42.9246 104.343 42.7698 104.213C42.5798 103.795 42.5825 103.799 42.163 103.608C42.0326 103.454 41.7136 102.971 41.6837 101.942C41.6457 100.643 42.0612 98.4542 43.9577 95.0846C44.0487 94.9543 44.1261 94.8172 44.1885 94.6746C44.8334 93.5682 45.6507 92.3273 46.6431 90.9657L55.4172 99.7412C49.623 103.969 46.2222 104.758 44.437 104.694ZM59.1751 96.7803L49.6013 87.2065C51.0077 85.5326 52.6599 83.7025 54.5905 81.7041L64.6747 91.787C62.6777 93.7202 60.8476 95.3724 59.1751 96.7803ZM82.0058 81.7136C78.0851 85.6344 73.3932 88.3713 68.9607 89.3542L57.5052 77.8974C58.4881 73.4676 61.2264 68.7743 65.1458 64.8536C68.9389 61.0604 73.4991 58.3588 77.8299 57.3067L89.5527 69.0296C88.502 73.3603 85.799 77.9205 82.0058 81.7136ZM133.671 45.167C133.143 43.9642 131.742 43.4184 130.54 43.9479C129.339 44.4733 128.793 45.8757 129.321 47.0758C130.65 50.1046 133.42 59.0716 130.315 64.1585C128.84 66.5764 126.171 67.9258 122.202 68.2992C119.172 66.4583 117.515 64.282 117.154 61.6781C116.338 55.797 122.465 48.6615 124.894 46.4079C125.855 45.5159 125.913 44.0144 125.023 43.0519C124.132 42.0866 122.631 42.0296 121.668 42.9188C121.236 43.3179 111.132 52.775 112.446 62.3176C112.996 66.3049 115.368 69.6283 119.505 72.2158C116.933 80.3275 112.24 83.6197 104.845 82.5377C100.477 81.905 95.7502 80.0017 91.3882 77.1629C92.8327 74.5604 93.8305 71.871 94.36 69.202C94.9411 68.7974 95.4922 68.3562 95.9905 67.8579C98.2604 65.5894 99.5094 62.5714 99.5094 59.3621C99.5094 58.0343 99.284 56.7419 98.8713 55.5187C98.9446 55.4603 99.0234 55.4074 99.0899 55.3395L107.146 47.2849C107.518 47.5062 107.935 47.6243 108.356 47.6243C108.962 47.6243 109.571 47.3921 110.035 46.9278C110.962 46.0006 110.962 44.4964 110.035 43.5678L103.29 36.8245C102.362 35.8959 100.859 35.8959 99.9302 36.8245C99.1456 37.6079 99.0329 38.8026 99.5746 39.7149L91.5199 47.7695C91.4493 47.8401 91.395 47.9175 91.3353 47.9949C87.1457 46.5884 82.333 47.5374 79.0028 50.8689C78.4992 51.3699 78.0579 51.9224 77.6561 52.4994C74.987 53.0289 72.2976 54.0267 69.6965 55.4712C66.8577 51.1079 64.9544 46.3821 64.3204 42.0146C63.2452 34.6198 66.5333 29.9279 74.6436 27.3539C77.2325 31.4919 80.5532 33.865 84.5418 34.4134C85.1229 34.4935 85.7053 34.5316 86.2836 34.5316C95.2044 34.5316 103.567 25.5958 103.941 25.1913C104.831 24.2274 104.77 22.7286 103.809 21.8366C102.846 20.9447 101.342 21.0044 100.452 21.9642C98.1979 24.3944 91.0665 30.5212 85.1813 29.7039C82.5774 29.3442 80.4012 27.6879 78.5603 24.6564C78.9349 20.6922 80.2817 18.0245 82.6928 16.5488C87.7553 13.4507 96.7467 16.2135 99.785 17.5412C100.986 18.0652 102.388 17.5168 102.913 16.3166C103.44 15.1138 102.894 13.7155 101.692 13.1887C101.156 12.9539 88.4477 7.47186 80.226 12.4882C76.8673 14.5382 74.7997 17.939 74.0354 22.5983C60.3589 26.6263 58.6008 35.6923 59.6176 42.6975C60.5272 48.9547 63.2669 54.3281 65.7119 58.0764C64.8851 58.7009 64.0801 59.3784 63.2886 60.0884L55.3629 52.1627C54.4357 51.2341 52.9315 51.2341 52.0042 52.1627C51.0756 53.09 51.0756 54.5942 52.0042 55.5214L59.9516 63.4688C59.2239 64.3133 58.556 65.1848 57.9193 66.0713L49.6882 57.8389C48.7596 56.9116 47.2567 56.9116 46.3281 57.8389C45.4009 58.7675 45.4009 60.2703 46.3281 61.1989L55.3575 70.2283C54.2646 72.3353 53.446 74.4817 52.9478 76.5995C52.9301 76.6172 52.9097 76.628 52.8921 76.6457C47.926 81.6118 44.1152 86.1014 41.4611 90.1022C38.3264 87.6952 34.9365 86.5087 31.3768 86.6281C23.5272 86.8711 17.7873 93.2682 17.547 93.541C16.7161 94.4819 16.7595 95.906 17.6474 96.7925L50.0656 129.211C50.5285 129.674 51.1367 129.908 51.7463 129.908C52.307 129.908 52.869 129.712 53.3197 129.312C53.5831 129.079 59.7792 123.516 60.2313 115.887C60.4648 111.958 59.1479 108.256 56.3458 104.865C60.1403 102.336 64.3801 98.7664 69.0448 94.1615C71.5523 93.7148 74.1209 92.8052 76.6311 91.5019L85.6619 100.53C86.1262 100.994 86.733 101.226 87.3412 101.226C87.9481 101.226 88.5576 100.994 89.0206 100.53C89.9492 99.6041 89.9492 98.0985 89.0206 97.1713L80.7881 88.9388C81.6746 88.3048 82.5475 87.6355 83.3892 86.9078L91.3366 94.8566C91.8009 95.3195 92.4091 95.5516 93.016 95.5516C93.6242 95.5516 94.2324 95.3195 94.6967 94.8566C95.6239 93.928 95.6239 92.4237 94.6967 91.4965L86.771 83.5708C87.481 82.7807 88.1585 81.9743 88.783 81.1475C92.53 83.5925 97.9033 86.3308 104.163 87.2418C105.203 87.3938 106.291 87.4834 107.401 87.4834C113.757 87.4834 120.84 84.475 124.269 72.8213C128.925 72.057 132.324 69.9894 134.371 66.6347C139.389 58.4104 133.907 45.7046 133.671 45.167Z" fill="white"/>
</svg>
