<svg width="150" height="151" viewBox="0 0 150 151" fill="none" xmlns="http://www.w3.org/2000/svg">
<path d="M43.8074 50.482L43.2875 49.5371L44.2296 49.0185C45.3782 48.3845 45.7963 46.9413 45.1623 45.7901C44.527 44.6416 43.0838 44.2234 41.9339 44.8601L40.9918 45.3801L40.4691 44.4352C39.8364 43.288 38.392 42.8699 37.2434 43.5053C36.0935 44.1393 35.6754 45.5837 36.3094 46.7336L36.8321 47.6744L35.8872 48.1971C34.7387 48.8311 34.3232 50.2756 34.9559 51.4241C35.2736 51.9984 35.7935 52.3908 36.3773 52.5591C36.9611 52.7274 37.6113 52.6731 38.1842 52.3555L39.1278 51.8355L39.6477 52.7777C39.9654 53.3533 40.4854 53.7443 41.0692 53.9126C41.6543 54.0823 42.3019 54.0267 42.8761 53.709C44.0246 53.0763 44.4414 51.6305 43.8074 50.482Z" fill="white"/>
<path d="M58.9055 59.0606C59.492 59.2303 60.1382 59.1747 60.7125 58.8584L61.6573 58.337L62.1773 59.2806C62.4936 59.8548 63.0122 60.2458 63.5974 60.4155C64.1811 60.5825 64.8301 60.5296 65.4043 60.2119C66.5529 59.5779 66.9696 58.132 66.3356 56.9849L65.8157 56.04L66.7579 55.5214C67.9077 54.8874 68.3245 53.4402 67.6905 52.293C67.0565 51.1445 65.6107 50.7263 64.4622 51.3603L63.52 51.8817L62.9987 50.9395C62.3647 49.7909 60.9202 49.3742 59.7703 50.0082C58.6218 50.6422 58.205 52.0853 58.8403 53.2352L59.3603 54.176L58.4168 54.6987C57.2669 55.3327 56.8514 56.7772 57.4854 57.9257C57.8031 58.5013 58.3204 58.8923 58.9055 59.0606Z" fill="white"/>
<path d="M46.121 68.9471C46.2038 68.9715 46.2961 68.962 46.383 68.9756C46.4631 69.0109 46.5364 69.0665 46.6206 69.0896C47.2899 69.2851 48.0379 69.1833 48.6529 68.7489L51.8691 66.4749C52.9416 65.716 53.1954 64.2348 52.4379 63.1637C51.6831 62.0926 50.1965 61.836 49.1253 62.5935L47.9931 63.3945L47.4623 62.1143C46.9586 60.8992 45.5657 60.3263 44.3575 60.83C43.1451 61.335 42.5695 62.7238 43.0732 63.9362L44.5842 67.5732C44.872 68.2683 45.4517 68.7529 46.121 68.9471Z" fill="white"/>
<path d="M129.245 67.2809C127.996 68.6412 126.483 69.7056 124.803 70.4143C124.024 68.925 123.06 67.5538 121.904 66.2967C123.807 61.1744 122.464 55.3232 118.356 51.5545C116.587 49.9308 114.446 48.823 112.141 48.3085C114.339 46.6807 117.027 45.7752 119.799 45.7752C123.017 45.7752 126.096 46.9739 128.468 49.1529C130.993 51.469 132.464 54.6308 132.611 58.0547C132.758 61.4785 131.563 64.7544 129.245 67.2809ZM116.537 103.591C116.202 100.165 114.78 97.7061 112.444 96.5861C111.605 96.1856 110.687 95.9833 109.716 95.9833C104.931 95.9833 99.2683 101.093 95.6258 108.7C94.9715 110.064 94.4257 111.448 93.9736 112.819C89.6144 114.452 81.724 113.635 77.6933 112.957C78.5635 110.257 79.0332 107.603 79.0346 105.218C79.036 100.94 77.5535 97.8758 74.8613 96.5861C74.0223 96.1856 73.106 95.9833 72.1353 95.9833C67.605 95.9833 62.2927 100.564 58.6475 107.505C42.3875 101.214 40.7665 88.2857 40.9105 82.5539C41.8771 82.873 42.86 83.1676 43.8646 83.4201C47.4052 84.3175 51.0083 84.7723 54.5733 84.7723C70.1695 84.7723 82.7965 76.3578 86.0615 63.7498C86.0697 63.7213 86.0778 63.6955 86.0846 63.667L86.496 62.0433C88.2188 62.1261 89.985 62.1777 91.8517 62.2144C101.765 62.4166 113.002 62.6434 118.568 70.7238C124.516 79.3581 123.147 94.3325 116.537 103.591ZM99.4624 125.249C99.2045 125.249 98.9845 125.204 98.7877 125.109C97.8781 124.675 97.3133 123.012 97.3147 120.768C97.3147 117.847 98.2623 114.197 99.9118 110.753C102.915 104.481 107.255 100.735 109.716 100.735C109.976 100.735 110.196 100.78 110.391 100.873C111.301 101.308 111.865 102.972 111.864 105.215C111.864 108.135 110.918 111.786 109.267 115.231C106.265 121.502 101.925 125.249 99.4624 125.249ZM87.054 118.536C88.979 118.528 90.9313 118.385 92.7518 118.044C92.6296 118.98 92.5631 119.891 92.5631 120.766C92.5631 121.327 92.5916 121.865 92.6418 122.382C89.4759 121.274 87.859 119.692 87.054 118.536ZM61.88 125.249C61.622 125.249 61.4021 125.204 61.2052 125.109C60.6391 124.838 60.206 124.088 59.9603 123.02C59.9481 122.91 59.9291 122.799 59.8992 122.691C59.7947 122.118 59.7322 121.476 59.7322 120.768C59.7336 117.847 60.6798 114.197 62.3307 110.753C65.3323 104.481 69.6739 100.735 72.1353 100.735C72.3932 100.735 72.6132 100.78 72.8086 100.873C73.7196 101.308 74.2844 102.972 74.283 105.215C74.2816 108.135 73.3354 111.786 71.6859 115.231C68.6843 121.502 64.3426 125.249 61.88 125.249ZM46.9694 106.269C49.5611 108.388 52.7677 110.297 56.7197 111.85C55.7857 114.413 55.2101 116.962 55.0376 119.314C49.4946 115.7 47.5966 110.131 46.9694 106.269ZM20.7216 47.1993C20.7297 47.1749 20.7379 47.1477 20.7433 47.1233L27.1607 21.7755L33.1436 30.7275C33.7518 31.6371 34.9017 32.0159 35.9321 31.6398C42.3807 29.2885 49.9154 28.9993 57.1799 30.8389C64.4282 32.6743 70.9297 36.515 75.4872 41.6562C76.2149 42.4748 77.4068 42.6921 78.3748 42.1802L87.8957 37.1558L81.4769 62.4995C81.4688 62.5293 81.4606 62.5619 81.4538 62.5918C78.7699 73.0195 67.9797 80.0207 54.5733 80.0207C51.4006 80.0207 48.1913 79.6147 45.0321 78.8165C28.3445 74.5889 17.4633 60.4617 20.7216 47.1993ZM131.681 45.6516C128.43 42.6676 124.21 41.0236 119.799 41.0236C114.885 41.0236 110.162 43.0993 106.84 46.7174C106.121 47.4993 105.456 48.3818 104.86 49.3375C104.358 50.1439 104.385 51.1716 104.928 51.9509C105.471 52.7315 106.423 53.1103 107.358 52.9202C110.13 52.3473 113.067 53.1483 115.144 55.0557C117.44 57.1627 118.389 60.2689 117.827 63.2203C110.572 57.8483 100.425 57.6352 91.9481 57.4641C90.4656 57.4356 89.0578 57.3949 87.6852 57.3419L93.8121 33.1441C94.0429 32.2331 93.7157 31.2733 92.9785 30.6922C92.2413 30.1139 91.2299 30.0202 90.4004 30.4587L77.7612 37.1313C72.681 31.9765 65.8577 28.1345 58.3461 26.2312C50.8142 24.3251 42.9835 24.4595 36.0855 26.5773L28.1436 14.6943C27.6223 13.915 26.6896 13.5145 25.7651 13.6733C24.8405 13.8322 24.0952 14.5218 23.8658 15.4314L16.1478 45.915C16.1424 45.9354 16.1369 45.9544 16.1329 45.9707C12.6941 59.5562 21.4587 73.9006 36.281 80.7361C36.019 84.4885 36.1833 93.2749 42.0318 101.131C41.9911 101.279 41.9639 101.433 41.9517 101.592C41.9395 101.763 40.924 118.347 55.5848 125.014C56.2541 127.079 57.4664 128.589 59.1539 129.395C59.9929 129.797 60.9106 130.001 61.88 130.001C66.6288 130.001 72.2357 124.968 75.8809 117.462C76.8434 117.645 79.0183 118.024 81.7159 118.282C82.0539 119.516 84.1813 125.549 93.9804 127.689C94.1501 127.725 94.3212 127.743 94.4882 127.743C94.5384 127.743 94.5832 127.721 94.6321 127.719C95.2213 128.426 95.915 129.003 96.7364 129.395C97.574 129.797 98.4917 130.001 99.4624 130.001C104.249 130.001 109.912 124.889 113.553 117.284C114.483 115.343 115.207 113.369 115.722 111.44C125.33 103.458 129.34 87.3313 125.761 75.1279C128.421 74.1721 130.815 72.5973 132.747 70.493C135.922 67.0325 137.559 62.5429 137.358 57.851C137.158 53.1578 135.14 48.8271 131.681 45.6516Z" fill="white"/>
</svg>
