<svg width="150" height="150" viewBox="0 0 150 150" fill="none" xmlns="http://www.w3.org/2000/svg">
<path d="M117.01 114.536C117.01 115.448 116.269 116.19 115.356 116.19H108.711V99.8685C108.711 98.557 107.647 97.4927 106.335 97.4927C105.022 97.4927 103.959 98.557 103.959 99.8685V116.19H96.3908C96.8157 114.82 97.0343 113.386 97.0343 111.931C97.0343 103.97 90.5585 97.4927 82.5962 97.4927C74.6352 97.4927 68.1595 103.97 68.1595 111.931C68.1595 113.386 68.3767 114.82 68.8003 116.19H61.6267V99.8685C61.6267 98.557 60.5624 97.4927 59.2509 97.4927C57.9381 97.4927 56.8751 98.557 56.8751 99.8685V116.19H49.8373C48.925 116.19 48.1824 115.448 48.1824 114.536V62.7775C48.1824 61.4647 47.118 60.4017 45.8066 60.4017H32.1994V44.6834C32.1994 33.1872 45.1387 28.0623 74.1533 28.0623C88.7855 28.0623 91.1287 31.0313 91.3772 31.4373V71.257H65.6724V41.531H82.0885V62.21H75.3833V48.0014C75.3833 46.6886 74.3189 45.6256 73.0075 45.6256C71.6947 45.6256 70.6317 46.6886 70.6317 48.0014V64.5858C70.6317 65.8986 71.6947 66.9616 73.0075 66.9616H84.4643C85.7771 66.9616 86.8401 65.8986 86.8401 64.5858V39.1552C86.8401 37.8424 85.7771 36.7794 84.4643 36.7794H63.2966C61.9851 36.7794 60.9208 37.8424 60.9208 39.1552V73.6329C60.9208 74.9443 61.9851 76.0087 63.2966 76.0087H93.753C95.0644 76.0087 96.1288 74.9443 96.1288 73.6329V33.79H102.257C110.328 33.79 117.01 35.0838 117.01 50.9636V114.536ZM102.257 29.0384H95.4758C95.3115 28.756 95.1147 28.4655 94.8621 28.1682C92.1062 24.9452 85.139 23.3107 74.1533 23.3107C60.1768 23.3107 27.4478 23.3107 27.4478 44.6834V97.456C27.4478 98.7688 28.5108 99.8318 29.8236 99.8318H32.8388C34.1502 99.8318 35.2146 98.7688 35.2146 97.456V65.1533H43.4308V114.536C43.4308 118.068 46.3035 120.941 49.8373 120.941H72.5282C73.4025 120.941 74.2062 120.461 74.6203 119.691C75.0344 118.92 74.9923 117.986 74.5103 117.257C73.4636 115.671 72.9111 113.829 72.9111 111.931C72.9111 106.59 77.2554 102.244 82.5962 102.244C87.937 102.244 92.2827 106.59 92.2827 111.931C92.2827 113.829 91.7288 115.67 90.6821 117.257C90.2001 117.986 90.1581 118.921 90.5721 119.691C90.9862 120.461 91.7899 120.941 92.6642 120.941H115.356C118.889 120.941 121.762 118.068 121.762 114.536V50.9636C121.762 31.6436 111.901 29.0384 102.257 29.0384Z" fill="white"/>
<path d="M49.3395 42.7195C48.4109 41.7909 46.908 41.7909 45.9794 42.7195L45.2192 43.4811L44.4562 42.7195C43.529 41.7909 42.0248 41.7909 41.0975 42.7195C40.1689 43.6481 40.1689 45.151 41.0975 46.0796L41.8591 46.8398L41.0975 47.6028C40.1689 48.53 40.1689 50.0343 41.0975 50.9615C41.5618 51.4258 42.1687 51.658 42.7769 51.658C43.3851 51.658 43.9933 51.4258 44.4562 50.9615L45.2192 50.1999L45.9794 50.9615C46.4437 51.4258 47.0519 51.658 47.6602 51.658C48.2684 51.658 48.8752 51.4258 49.3395 50.9615C50.2681 50.0343 50.2681 48.53 49.3395 47.6028L48.5792 46.8398L49.3395 46.0796C50.2681 45.151 50.2681 43.6481 49.3395 42.7195Z" fill="white"/>
</svg>
