<svg width="150" height="150" viewBox="0 0 150 150" fill="none" xmlns="http://www.w3.org/2000/svg">
<path d="M88.3781 83.2817C87.9437 83.7297 87.6857 84.3406 87.6857 84.9651C87.6857 85.5896 87.9437 86.2006 88.3781 86.6486C88.8261 87.0844 89.437 87.3409 90.0615 87.3409C90.686 87.3409 91.2956 87.0844 91.7436 86.6486C92.1794 86.2006 92.4373 85.5896 92.4373 84.9651C92.4373 84.3406 92.1794 83.7297 91.7436 83.2817C90.8625 82.4006 89.2592 82.4006 88.3781 83.2817Z" fill="white"/>
<path d="M74.1551 96.1657C73.9582 96.0951 73.7532 96.0408 73.5346 96.0245C66.824 95.5357 61.3963 89.8935 61.1778 83.1788C61.0678 79.7876 62.72 76.361 65.4895 74.2404C67.978 72.333 70.9294 71.7641 73.8048 72.6411C77.2232 73.6824 79.1144 77.2936 79.1605 80.1609C79.1823 81.6706 78.722 84.3735 75.3823 85.5058C74.0112 85.9701 72.4852 85.833 71.3014 85.1338C70.6009 84.7211 69.713 83.9269 69.4523 82.4838C69.2378 81.2904 69.8773 79.8663 70.9403 79.1698C71.7114 78.6648 72.4676 78.673 73.2495 79.197C74.3411 79.9247 75.8154 79.6355 76.5458 78.5454C77.2748 77.4538 76.9829 75.9795 75.8928 75.2491C73.5279 73.6648 70.7027 73.6458 68.3377 75.1948C65.6904 76.9271 64.2269 80.2709 64.7768 83.3268C65.2288 85.8357 66.6883 87.9318 68.8876 89.227C71.2471 90.6185 74.2447 90.9077 76.9069 90.0062C81.3653 88.4966 83.9827 84.7876 83.9108 80.0876C83.8266 74.6545 80.1597 69.611 75.1909 68.0959C70.8751 66.7804 66.2864 67.6438 62.5992 70.4676C58.6336 73.5059 56.27 78.434 56.4289 83.3323C56.5931 88.369 58.9201 92.9549 62.5028 96.1657H54.0856V64.6014C54.0856 64.5431 54.0721 64.4901 54.068 64.4317C54.0721 64.3747 54.0856 64.3204 54.0856 64.262C54.0856 62.9506 53.0213 61.8862 51.7098 61.8862H23.636C23.6184 61.1816 23.6048 60.3277 23.6075 59.4086L29.0053 57.7035C30.257 57.3084 30.9521 55.9739 30.5571 54.7235C30.162 53.4718 28.8275 52.7794 27.5758 53.1732L23.9116 54.3298C24.1519 52.6491 24.5646 51.206 25.2719 50.4987C25.8706 49.9013 26.7843 49.2443 27.9396 48.4134C30.1729 46.8087 33.2315 44.6094 37.231 40.6099C38.3945 39.4465 39.4847 38.3129 40.5314 37.2254C47.4008 30.079 51.5537 25.7713 61.6651 27.5566C67.1974 28.5341 72.1377 31.9145 74.5596 36.3796C76.501 39.9569 76.6408 43.9292 74.9669 47.8676C73.851 50.4932 71.539 52.4862 68.6215 53.3347C65.7461 54.171 62.7268 53.7759 60.5492 52.2758C58.8522 51.1082 57.7485 49.3637 57.2692 47.0911C56.528 43.56 58.005 41.7788 59.3735 40.9072C61.1221 39.7954 63.5291 39.7058 64.8541 40.6995C65.8479 41.4476 66.0773 42.7712 65.5316 44.6338C65.1623 45.8937 65.8832 47.2133 67.1431 47.5812C68.3988 47.9505 69.7211 47.2296 70.0904 45.9697C71.2009 42.1779 70.3334 38.8735 67.7065 36.901C64.8134 34.7261 60.2356 34.7247 56.8226 36.8996C53.2032 39.2034 51.6325 43.3794 52.6208 48.0699C53.3485 51.5264 55.1582 54.3353 57.8543 56.1897C61.1954 58.4895 65.7149 59.1262 69.9479 57.8976C73.5387 56.8523 76.5051 54.5878 78.3663 51.5712C84.0153 53.0618 101.375 57.7157 107.481 60.2164C111.234 61.7532 113.994 62.8881 115.893 66.7369C115.934 67.0696 116.041 67.3994 116.228 67.6995C116.4 67.9751 116.522 68.29 116.667 68.5874C117.142 69.9368 117.547 71.5537 117.886 73.5019C118.035 76.8484 117.054 80.3618 115.02 82.7417C112.473 85.7284 108.789 86.3203 104.37 84.4536C101.646 83.3037 99.7811 80.2342 99.8314 76.9868C99.8572 75.4066 100.385 72.5678 103.66 71.3053C104.743 70.8858 105.776 71.1003 106.733 71.9352C107.866 72.9262 108.538 74.6042 108.263 75.7555C108.162 76.1818 107.886 76.7859 106.682 77.0927C105.411 77.4158 104.641 78.7096 104.966 79.9803C105.29 81.2524 106.588 82.0235 107.853 81.6963C110.476 81.0298 112.31 79.2662 112.883 76.8592C113.577 73.9621 112.362 70.545 109.861 68.3593C107.571 66.3568 104.688 65.8151 101.951 66.8713C97.7203 68.5032 95.1531 72.2569 95.0798 76.9122C94.9997 82.1281 97.9905 86.9177 102.522 88.8319C104.796 89.7917 107.013 90.2642 109.1 90.2642C112.82 90.2642 116.129 88.7613 118.634 85.8289C118.763 85.6755 118.879 85.5098 119.003 85.3524C119.142 88.4952 119.222 92.0671 119.244 96.1657H74.1551ZM125.759 64.9748L119.776 63.9525C117.463 59.7032 114.071 57.7795 109.282 55.8191C103.06 53.2709 86.5282 48.8125 80.2195 47.1454C81.4454 42.6762 80.9634 38.2178 78.7356 34.1138C75.6403 28.4064 69.417 24.1015 62.4919 22.8783C49.8825 20.6478 44.2417 26.5112 37.1061 33.9319C36.0798 34.9976 35.0114 36.1095 33.871 37.2499C30.1444 40.9765 27.2662 43.0455 25.166 44.5551C23.8356 45.5122 22.7821 46.2684 21.9132 47.1386C18.8437 50.2095 18.7419 56.449 18.9007 62.5773C18.917 63.2289 18.9319 63.8018 18.9319 64.262C18.9319 65.5748 19.9963 66.6378 21.3077 66.6378H49.334V98.5415C49.334 99.8543 50.397 100.917 51.7098 100.917H57.7512V118.251C56.5986 118.417 55.7148 119.405 55.7148 120.602C55.7148 121.915 56.7778 122.978 58.0906 122.978H60.127C61.4384 122.978 62.5028 121.915 62.5028 120.602V100.917H110.019V118.251C108.866 118.417 107.982 119.405 107.982 120.602C107.982 121.915 109.045 122.978 110.358 122.978H112.395C113.706 122.978 114.77 121.915 114.77 120.602V100.917H121.626C122.938 100.917 124.002 99.8543 124.002 98.5415C124.002 87.0548 123.585 78.9771 122.605 73.1272C122.535 71.7669 122.321 70.4296 121.964 69.148L124.959 69.6599C125.095 69.6816 125.229 69.6938 125.362 69.6938C126.499 69.6938 127.503 68.8738 127.7 67.7171C127.923 66.4233 127.053 65.1961 125.759 64.9748Z" fill="white"/>
<path d="M47.3797 42.6066C46.4511 41.678 44.9482 41.678 44.0196 42.6066L43.2593 43.3682L42.4964 42.6066C41.5691 41.678 40.0649 41.678 39.1377 42.6066C38.2091 43.5352 38.2091 45.0381 39.1377 45.9667L39.8993 46.7269L39.1377 47.4899C38.2091 48.4171 38.2091 49.9214 39.1377 50.8486C39.602 51.3129 40.2088 51.545 40.817 51.545C41.4252 51.545 42.0334 51.3129 42.4964 50.8486L43.2593 50.087L44.0196 50.8486C44.4839 51.3129 45.0908 51.545 45.7003 51.545C46.3085 51.545 46.9154 51.3129 47.3797 50.8486C48.3083 49.9214 48.3083 48.4171 47.3797 47.4899L46.6181 46.7269L47.3797 45.9667C48.3083 45.0381 48.3083 43.5352 47.3797 42.6066Z" fill="white"/>
<path d="M87.3466 65.9591C86.2239 65.9591 85.3102 65.0454 85.3102 63.9227C85.3102 62.8 86.2239 61.8863 87.3466 61.8863C88.4693 61.8863 89.383 62.8 89.383 63.9227C89.383 65.0454 88.4693 65.9591 87.3466 65.9591ZM87.3466 57.1347C83.6037 57.1347 80.5586 60.1798 80.5586 63.9227C80.5586 67.6656 83.6037 70.7107 87.3466 70.7107C91.0895 70.7107 94.1346 67.6656 94.1346 63.9227C94.1346 60.1798 91.0895 57.1347 87.3466 57.1347Z" fill="white"/>
</svg>
