<svg width="150" height="150" viewBox="0 0 150 150" fill="none" xmlns="http://www.w3.org/2000/svg">
<path d="M96.157 46.8596C98.1621 46.8596 99.794 45.2291 99.794 43.224C99.794 41.2201 98.1621 39.5883 96.157 39.5883C94.1518 39.5883 92.52 41.2201 92.52 43.224C92.52 45.2291 94.1518 46.8596 96.157 46.8596Z" fill="white"/>
<path d="M80.2475 47.3022C81.7544 45.5115 83.1745 43.8227 84.4465 42.2641L84.9611 41.6559C85.481 41.0409 85.6534 40.2033 85.4199 39.4335C85.1851 38.6638 84.5782 38.0637 83.803 37.8397C81.5643 37.1949 79.999 35.115 79.999 32.7854C79.999 29.8801 82.3626 27.5179 85.2652 27.5179C88.1704 27.5179 90.5327 29.8801 90.534 32.727C90.5313 32.7528 90.5245 32.8587 90.5245 32.8858C90.4946 33.6434 90.8273 34.371 91.4232 34.8421C92.0179 35.3146 92.8026 35.4721 93.5316 35.2711C94.3109 35.0553 95.067 34.9494 95.8436 34.9494C97.5216 34.9494 98.9593 35.4612 100.117 35.8712C100.893 36.1468 101.563 36.3857 102.251 36.4699C102.406 36.4903 102.569 36.5011 102.742 36.5011C104.694 36.5011 107.139 35.1245 110.932 32.86C112.528 31.9056 114.881 30.5019 115.806 30.2114C116.265 30.5698 117.171 31.6531 117.605 33.5076C118.464 37.2003 116.942 41.7265 113.319 46.2555C110.324 49.9997 107.584 51.7239 104.934 53.3897C99.6978 56.6819 95.1756 59.526 93.5384 74.7352C91.5346 93.3398 82.5418 99.1761 81.0905 100.002C80.4145 100.16 78.4609 100.581 75.9384 100.86H67.4779C60.9723 99.9798 57.3515 96.7922 56.7203 91.3333C55.0898 77.1966 70.2284 59.207 80.2475 47.3022ZM123.776 114.719C122.926 110.614 118.487 107.498 112.193 106.589C102.284 105.156 92.0097 108.321 83.7528 110.862C76.3389 113.147 67.6584 114.452 57.2117 114.852C48.2963 115.192 38.2379 115.173 31.7187 110.572C30.5593 109.755 29.9524 108.88 30.0529 108.176C30.1683 107.364 31.31 106.069 34.1474 105.088C39.848 103.121 46.9917 103.977 53.8978 104.803C58.3426 105.337 62.9408 105.885 67.186 105.689C67.2797 105.683 67.3679 105.661 67.4575 105.648C68.7282 105.794 70.0655 105.872 71.4747 105.872C73.1649 105.872 74.7791 105.765 76.229 105.611H91.912C93.2248 105.611 94.2878 104.548 94.2878 103.235C94.2878 101.924 93.2248 100.86 91.912 100.86H87.5595C91.4952 96.9334 96.7573 89.2154 98.2628 75.2443C98.3158 74.761 98.3742 74.3225 98.4312 73.8704L103.678 71.0466L105.624 72.9541C106.559 73.8704 108.063 73.8582 108.984 72.9188C109.902 71.982 109.887 70.4778 108.95 69.5601L105.754 66.4294C105.01 65.7018 103.882 65.5416 102.966 66.0344L99.5105 67.8943C101.186 61.3819 103.852 59.6835 107.463 57.4122C110.168 55.7112 113.534 53.596 117.03 49.2246C124.017 40.4898 122.936 33.8239 121.671 30.6281C121.045 29.0465 120.111 27.7107 119.067 26.7821C119.319 26.2865 119.477 25.734 119.477 25.1421C119.477 23.1369 117.844 21.5051 115.84 21.5051C113.835 21.5051 112.203 23.1369 112.203 25.1421C112.203 25.6308 112.303 26.0965 112.48 26.5228C111.351 27.0902 110.054 27.8491 108.496 28.7805C106.683 29.8625 103.646 31.6762 102.841 31.7563C102.657 31.7319 102.109 31.5364 101.707 31.3938C100.366 30.9187 98.3389 30.1978 95.8436 30.1978C95.549 30.1978 95.2517 30.2086 94.9544 30.229C93.8221 25.939 89.9068 22.7663 85.2652 22.7663C79.7424 22.7663 75.2474 27.2599 75.2474 32.7854C75.2474 36.0504 76.8603 39.0548 79.4112 40.9038C78.526 41.9682 77.5866 43.0841 76.6105 44.2422C65.4374 57.5195 50.1332 75.7046 51.9999 91.8777C52.3881 95.2323 53.5896 98.0235 55.5351 100.212C55.1753 100.167 54.825 100.129 54.4626 100.086C47.0202 99.1951 39.328 98.2733 32.597 100.598C26.8639 102.576 25.5945 105.775 25.3488 107.506C25.137 108.994 25.3271 111.876 28.9777 114.455C36.7092 119.909 47.6963 119.972 57.3936 119.6C68.2585 119.183 77.3381 117.812 85.1511 115.404C93.3578 112.877 102.661 110.008 111.513 111.291C116.258 111.977 118.784 114.047 119.122 115.682C119.452 117.28 117.709 118.621 116.641 119.279C116.54 119.341 106.251 124.946 99.9883 117.158C99.167 116.135 97.6709 115.974 96.6473 116.795C95.625 117.616 95.4635 119.112 96.2862 120.135C99.9327 124.672 104.549 126.081 108.749 126.081C113.268 126.081 117.307 124.448 119.132 123.325C122.754 121.096 124.446 117.96 123.776 114.719Z" fill="white"/>
</svg>
