<svg width="150" height="151" viewBox="0 0 150 151" fill="none" xmlns="http://www.w3.org/2000/svg">
<path d="M60.8347 69.5913C63.3965 69.5913 65.479 67.5074 65.479 64.947C65.479 62.3852 63.3965 60.3012 60.8347 60.3012C58.2729 60.3012 56.1903 62.3852 56.1903 64.947C56.1903 67.5074 58.2729 69.5913 60.8347 69.5913Z" fill="white"/>
<path d="M94.3717 69.5913C96.9335 69.5913 99.0161 67.5074 99.0161 64.947C99.0161 62.3852 96.9335 60.3012 94.3717 60.3012C91.8099 60.3012 89.7274 62.3852 89.7274 64.947C89.7274 67.5074 91.8099 69.5913 94.3717 69.5913Z" fill="white"/>
<path d="M49.9255 95.1669V74.9726C53.6413 78.1562 58.4879 79.7744 64.3785 79.7744H70.4348L75.4905 89.5899C75.4946 89.598 75.5 89.6021 75.5041 89.6089C75.5964 89.7827 75.7118 89.9429 75.8462 90.0908C75.8815 90.1302 75.9181 90.1628 75.9548 90.1994C76.0593 90.3013 76.1734 90.3909 76.2983 90.4737C76.3458 90.5049 76.3919 90.5388 76.4408 90.566C76.468 90.5809 76.4883 90.6013 76.5155 90.6135C76.6132 90.6651 76.7137 90.6895 76.8142 90.7262C76.8793 90.7493 76.9404 90.7805 77.0069 90.7968C77.2038 90.8484 77.4034 90.8782 77.6016 90.8782H77.6056C77.8038 90.8782 78.0021 90.8484 78.1989 90.7968C78.2654 90.7805 78.3265 90.7493 78.393 90.7262C78.4922 90.6895 78.594 90.6651 78.6904 90.6135C78.7175 90.6013 78.7392 90.5809 78.765 90.566C78.8153 90.5388 78.8601 90.5049 78.9076 90.4737C79.0325 90.3909 79.1465 90.3013 79.2511 90.1994C79.2877 90.1628 79.3257 90.1302 79.361 90.0908C79.4941 89.9429 79.6108 89.7827 79.7018 89.6089C79.7058 89.6021 79.7113 89.598 79.7154 89.5899L84.7711 79.7744H90.8273C96.7179 79.7744 101.565 78.1562 105.28 74.9726V95.1669C105.28 110.429 92.8651 122.844 77.6029 122.844C62.3408 122.844 49.9255 110.429 49.9255 95.1669ZM77.459 34.6763C88.0578 34.6763 97.6547 40.7746 102.271 50.119H97.9167C91.1083 50.119 85.6874 52.2708 81.8033 56.5174C79.8823 58.6176 78.5451 61.026 77.6029 63.4479C76.6607 61.026 75.3235 58.6176 73.4025 56.5174C69.5198 52.2708 64.0975 50.119 57.2905 50.119H52.6326C57.2674 40.666 66.7638 34.6763 77.459 34.6763ZM80.2245 75.0228C80.2801 71.508 80.9738 64.4648 85.31 59.7254C88.256 56.5038 92.4972 54.8706 97.9167 54.8706H108.52C108.464 58.3854 107.77 65.4287 103.434 70.1694C100.488 73.391 96.2469 75.0228 90.8273 75.0228H80.2245ZM46.6917 54.8706H57.2905C62.7005 54.8706 66.9363 56.4984 69.8809 59.7077C74.2089 64.4227 74.9135 71.4958 74.9773 75.0228H64.3785C58.9699 75.0228 54.7328 73.3964 51.7881 70.187C47.4615 65.4707 46.7555 58.399 46.6917 54.8706ZM110.032 95.1669V69.4797C110.032 69.31 110.013 69.1444 109.979 68.9842C113.453 62.3768 113.351 54.895 113.243 52.8383C113.259 52.7242 113.277 52.6129 113.277 52.4948C113.277 51.258 112.329 50.2547 111.122 50.1407C111.113 50.1407 111.104 50.1394 111.095 50.1394C111.03 50.1326 110.967 50.119 110.901 50.119H107.474C103.38 40.085 94.5499 32.8489 84.1452 30.6469V23.3281C84.1452 22.0166 83.0808 20.9523 81.7694 20.9523C80.4566 20.9523 79.3936 22.0166 79.3936 23.3281V30.0021C78.7501 29.964 78.108 29.9247 77.459 29.9247C76.9065 29.9247 76.3607 29.96 75.8136 29.9871V27.4009C75.8136 26.0895 74.7506 25.0251 73.4378 25.0251C72.1264 25.0251 71.062 26.0895 71.062 27.4009V30.5695C60.4904 32.6602 51.6157 39.8555 47.4343 50.119H44.305C44.2521 50.119 44.2032 50.1312 44.1503 50.1353C44.1177 50.138 44.0851 50.1407 44.0512 50.1448C42.8606 50.2738 41.9292 51.2702 41.9292 52.4948C41.9292 52.6129 41.9469 52.7242 41.9645 52.8383C41.8559 54.8923 41.7528 62.3673 45.2201 68.972C45.1916 69.12 45.1739 69.2734 45.1739 69.4309V95.1669C45.1739 110.809 56.3049 123.899 71.062 126.933V132.835C71.062 134.148 72.1264 135.211 73.4378 135.211C74.7506 135.211 75.8136 134.148 75.8136 132.835V127.544C76.4069 127.578 77.0029 127.596 77.6029 127.596C78.2043 127.596 78.8003 127.578 79.3936 127.544V132.835C79.3936 134.148 80.4566 135.211 81.7694 135.211C83.0808 135.211 84.1452 134.148 84.1452 132.835V126.932C98.901 123.899 110.032 110.809 110.032 95.1669Z" fill="white"/>
<path d="M60.1194 126.952C39.6943 115.595 41.4592 96.1662 41.5447 95.3516C41.5543 95.2661 41.5583 95.1792 41.5583 95.0937V74.7799C41.5583 73.4684 40.494 72.4041 39.1825 72.4041C37.8711 72.4041 36.8067 73.4684 36.8067 74.7799V94.9769C36.6112 97.1111 35.2509 118.561 57.8102 131.105C58.1754 131.308 58.5718 131.404 58.9628 131.404C59.7977 131.404 60.6068 130.964 61.0413 130.182C61.678 129.036 61.2666 127.591 60.1194 126.952Z" fill="white"/>
<path d="M118.4 94.9772V74.7801C118.4 73.4687 117.335 72.4043 116.024 72.4043C114.712 72.4043 113.648 73.4687 113.648 74.7801V95.0939C113.648 95.1754 113.652 95.2636 113.661 95.3451C113.747 96.1664 115.512 115.595 95.0868 126.953C93.9396 127.589 93.5283 129.037 94.165 130.182C94.5994 130.963 95.4086 131.404 96.2435 131.404C96.6345 131.404 97.0309 131.308 97.3961 131.104C119.955 118.561 118.595 97.1099 118.4 94.9772Z" fill="white"/>
</svg>
