<svg width="150" height="150" viewBox="0 0 150 150" fill="none" xmlns="http://www.w3.org/2000/svg">
<path d="M106.556 99.0107C105.861 99.6026 104.8 99.9012 103.4 99.9012C99.4466 99.9012 94.0189 97.6503 88.8505 94.703L105.307 81.2818C105.544 81.932 105.773 82.5837 105.989 83.2421C108.563 91.0755 108.78 97.1195 106.556 99.0107ZM84.5727 92.072C80.1686 89.1613 76.3714 86.0347 74.4857 83.8205C69.2766 77.6977 70.0165 68.4782 76.1366 63.2691C78.7717 61.0263 82.1249 59.7923 85.5787 59.7923C89.8646 59.7923 93.9157 61.6617 96.6893 64.924C98.5343 67.0908 101.161 71.4962 103.45 76.6727C103.435 76.6849 103.419 76.6931 103.404 76.7039L84.6161 92.0285C84.5985 92.0407 84.5876 92.057 84.5727 92.072ZM81.9131 100.588C69.0893 98.7351 59.1937 87.7032 59.1937 74.3743C59.1937 67.1871 62.0786 60.6693 66.7379 55.8865C66.9225 55.6978 67.1112 55.5145 67.3013 55.3299C83.8586 39.2925 112.231 51.5014 112.231 74.3743C112.231 77.27 111.746 80.1156 110.838 82.8186C110.728 82.4629 110.617 82.1058 110.503 81.7583C108.046 74.2711 103.756 65.8947 100.307 61.8436C96.6295 57.5197 91.2602 55.0407 85.5787 55.0407C80.9981 55.0407 76.5506 56.6766 73.0575 59.6511C64.9431 66.5586 63.9602 78.7824 70.8677 86.8995C74.1531 90.7592 81.9131 96.6389 89.7791 100.562C88.4391 100.767 87.0843 100.892 85.7131 100.892C84.832 100.892 81.9824 100.581 81.9131 100.588ZM38.4984 42.1584L50.9938 42.1869C50.9979 42.2114 51.0033 42.2358 51.006 42.2589C51.0277 42.4109 51.0549 42.5589 51.0807 42.7069C51.1323 43.0232 51.1893 43.3368 51.2572 43.6477C51.2884 43.797 51.3237 43.9437 51.3603 44.093C51.4337 44.3998 51.5138 44.7053 51.602 45.008C51.6441 45.1546 51.6889 45.2999 51.735 45.4452C51.8274 45.7425 51.9305 46.0357 52.0378 46.3262C52.0921 46.4742 52.1464 46.6208 52.2034 46.7675C52.3134 47.0431 52.4315 47.3159 52.5537 47.5861C52.6229 47.7422 52.6922 47.9011 52.7668 48.0545C52.8809 48.2934 53.0044 48.5242 53.1293 48.7577C53.2257 48.9396 53.3194 49.1243 53.4212 49.3035C53.4348 49.3265 53.4456 49.3523 53.4606 49.3741C47.2346 47.616 41.2191 44.8424 38.4984 42.1584ZM53.5203 29.397C53.4253 29.5571 53.3424 29.7228 53.2528 29.8857C53.2243 29.9373 53.1958 29.9889 53.1687 30.0391C52.5876 31.1184 52.1084 32.2493 51.7378 33.4209C51.7133 33.4969 51.6902 33.5743 51.6658 33.6503C51.3576 34.6672 51.12 35.7098 50.9789 36.7755L38.3545 36.7606C41.0114 34.0209 47.1572 31.1795 53.5203 29.397ZM85.8393 39.4364C85.8393 40.6678 85.6846 41.8964 85.3764 43.106C85.1673 43.1074 84.9582 43.1223 84.7492 43.1291C84.479 43.1372 84.2089 43.1427 83.9414 43.1562C83.7228 43.1698 83.507 43.1902 83.2884 43.2078C82.9721 43.2309 82.6558 43.2554 82.3408 43.2879C82.1996 43.3042 82.0584 43.3259 81.9186 43.3422C81.5289 43.3897 81.1393 43.4386 80.7551 43.5011C80.7049 43.5092 80.6547 43.5201 80.6058 43.5282C74.0187 44.67 67.9353 47.8386 63.2665 52.6337C62.5483 52.2291 61.8858 51.7539 61.2505 51.2462C58.2529 48.8487 56.1703 45.2225 55.6816 41.3411C55.6028 40.7153 55.554 40.0813 55.554 39.4364C55.554 38.8812 55.5893 38.3327 55.6476 37.7869C55.6694 37.5955 55.7074 37.4082 55.7345 37.2181C56.2952 33.3815 58.3628 29.8748 61.4147 27.4977C63.982 25.4993 67.1981 24.2937 70.6967 24.2937C79.0459 24.2937 85.8393 31.0872 85.8393 39.4364ZM116.983 74.3743C116.983 58.6438 105.305 45.5931 90.1633 43.4264C90.4375 42.1082 90.5909 40.775 90.5909 39.4364C90.5909 28.467 81.6674 19.5421 70.6967 19.5421C66.3591 19.5421 62.3528 20.954 59.0797 23.319C50.2444 24.7119 32.2263 30.4287 32.2263 39.397C32.2263 48.2798 50.0788 54.013 58.8882 55.4439C59.3105 55.7561 59.7462 56.0535 60.1956 56.3345C56.579 61.435 54.4421 67.6569 54.4421 74.3743C54.4421 89.4559 65.1753 102.076 79.4016 105.003L79.369 119.517C79.3663 121.017 80.5773 122.288 82.0788 122.288H82.0842C83.5803 122.288 84.7967 121.012 84.7994 119.515L84.8306 105.621C85.1252 105.63 85.4171 105.644 85.7131 105.644C86.7856 105.644 87.8486 105.576 88.9048 105.469L88.8722 119.517C88.8695 121.017 90.0805 122.288 91.582 122.288H91.5874C93.0835 122.288 94.2999 121.012 94.3026 119.515L94.3366 104.426C95.1294 104.198 95.9168 103.952 96.692 103.662C96.7925 103.624 96.8807 103.571 96.973 103.522C99.2742 104.237 101.459 104.653 103.4 104.653C105.96 104.653 108.056 103.973 109.637 102.63C112.762 99.9678 113.236 95.2623 112.575 90.3532C115.45 85.527 116.983 80.0287 116.983 74.3743Z" fill="white"/>
<path d="M66.2035 41.9954C68.5168 41.9954 70.3998 40.1124 70.3998 37.799C70.3998 35.4857 68.5168 33.6027 66.2035 33.6027C63.8901 33.6027 62.0071 35.4857 62.0071 37.799C62.0071 40.1124 63.8901 41.9954 66.2035 41.9954Z" fill="white"/>
</svg>
