<svg width="150" height="151" viewBox="0 0 150 151" fill="none" xmlns="http://www.w3.org/2000/svg">
<path d="M84.0477 97.5338C85.9931 93.8289 85.146 89.2158 84.6789 86.7164C84.1807 84.0447 83.4653 81.4232 82.7756 78.8858C82.4036 77.5173 82.0316 76.1502 81.6936 74.7777C80.8329 71.286 79.9681 67.5607 78.8901 62.7005C78.5087 60.9777 78.1367 59.2535 77.766 57.5294C81.3691 56.0849 83.859 52.566 83.859 48.5108C83.859 43.9547 80.7039 40.1331 76.4682 39.085V35.7833C76.4682 34.4719 75.4052 33.4075 74.0924 33.4075C72.7809 33.4075 71.7166 34.4719 71.7166 35.7833V39.1108C67.5284 40.1915 64.4222 43.99 64.4222 48.5108C64.4222 52.5416 66.8944 56.055 70.4744 57.5104C69.2552 63.2055 68.18 67.9816 67.1238 72.3992C66.4192 75.3465 65.6508 78.3333 64.843 81.2793C63.9606 84.5008 63.0904 87.9464 63.0076 91.5264C62.9505 93.9511 63.3456 95.9291 64.1873 97.5338H17.2822C18.8788 60.3111 43.9876 30.4222 74.1399 30.4222C104.294 30.4222 129.402 60.3111 130.999 97.5338H84.0477ZM74.1399 43.5434C76.8795 43.5434 79.1074 45.7726 79.1074 48.5108C79.1074 51.0401 77.2149 53.1593 74.7033 53.4416C74.5051 53.4647 74.311 53.5122 74.1277 53.5815C73.943 53.5095 73.7489 53.462 73.5493 53.4376C71.0541 53.143 69.1738 51.0238 69.1738 48.5108C69.1738 45.7726 71.4016 43.5434 74.1399 43.5434ZM74.0313 97.5338C71.5333 97.5338 69.8662 97.0641 68.9321 96.0961C68.0918 95.2259 67.7076 93.7665 67.7578 91.6364C67.8298 88.5954 68.6212 85.4742 69.4249 82.5364C70.2477 79.5415 71.0269 76.5032 71.7451 73.5056C72.5121 70.299 73.286 66.9118 74.1195 63.1295C74.163 63.3304 74.2064 63.5286 74.2512 63.7295C75.3373 68.6264 76.2102 72.3856 77.0791 75.9127C77.4266 77.3232 77.8081 78.7283 78.1896 80.1334C78.8562 82.5785 79.5459 85.1077 80.0074 87.5894C80.5125 90.2896 80.9551 93.3442 79.8106 95.4105C79.03 96.8197 77.1456 97.5338 74.2078 97.5338H74.0313ZM138.836 88.0306L134.864 87.9763C133.863 81.058 132.101 74.3854 129.611 68.1282C130.015 67.9558 130.417 67.7833 130.814 67.6136C131.845 67.1765 132.874 66.738 134.006 66.2316C135.203 65.6967 135.74 64.2916 135.205 63.0942C134.669 61.8968 133.263 61.3592 132.066 61.8941C130.964 62.3869 129.959 62.8145 128.956 63.2408C128.544 63.4159 128.13 63.5938 127.711 63.773C125.025 58.0222 121.713 52.6746 117.804 47.8728L121.098 44.4082C122.002 43.4578 121.964 41.9536 121.014 41.0495C120.061 40.1453 118.558 40.1833 117.654 41.135L114.663 44.2792C109.94 39.2235 104.685 35.1344 99.0587 32.0907C99.1428 31.8612 99.2297 31.6264 99.3112 31.401C99.6139 30.5742 99.9153 29.7488 100.282 28.7903C100.753 27.5658 100.141 26.1905 98.9148 25.7222C97.6916 25.2524 96.3163 25.8634 95.8452 27.0879C95.4678 28.0735 95.1583 28.922 94.8487 29.7705C94.8229 29.8411 94.7958 29.9131 94.77 29.9823C88.9445 27.4585 82.7878 26.0249 76.4668 25.7398V21.9711C76.4668 20.6597 75.4038 19.5953 74.091 19.5953C72.7796 19.5953 71.7152 20.6597 71.7152 21.9711V25.7425C65.0426 26.0575 58.5573 27.6703 52.4495 30.4751L51.2535 27.5155C50.762 26.2978 49.3773 25.7086 48.1608 26.2014C46.9444 26.6928 46.3566 28.079 46.848 29.294L48.2002 32.6418C42.9382 35.6313 38.0182 39.5561 33.568 44.3321L30.5283 41.135C29.6269 40.186 28.124 40.1467 27.1696 41.0522C26.2193 41.9563 26.1813 43.4592 27.0854 44.4095L30.4319 47.9284C26.2926 53.0249 22.809 58.7254 20.0476 64.8754L15.6354 63.0019C14.4245 62.4914 13.0316 63.0548 12.5197 64.2617C12.0066 65.4686 12.5713 66.8642 13.7782 67.3774L18.2393 69.2713C15.9735 75.2148 14.3457 81.5087 13.409 88.0306H9.38233C8.06953 88.0306 7.00653 89.0936 7.00653 90.4064C7.00653 91.7178 8.06953 92.7822 9.38233 92.7822H12.8429C12.6297 95.1241 12.498 97.489 12.4614 99.8729C12.4519 100.508 12.6976 101.123 13.1442 101.577C13.5909 102.032 14.2005 102.285 14.8372 102.285H67.5338C67.5121 102.413 67.4944 102.541 67.4944 102.674V117.11C67.4944 118.423 68.5588 119.486 69.8702 119.486C71.1817 119.486 72.246 118.423 72.246 117.11V102.674C72.246 102.541 72.2284 102.413 72.2067 102.285H74.0313H74.2078H76.0745C76.0528 102.413 76.0351 102.541 76.0351 102.674V117.11C76.0351 118.423 77.0995 119.486 78.4109 119.486C79.7223 119.486 80.7867 118.423 80.7867 117.11V102.674C80.7867 102.541 80.7691 102.413 80.7473 102.285H133.444C134.081 102.285 134.69 102.032 135.137 101.577C135.584 101.123 135.829 100.508 135.82 99.8729C135.782 97.4741 135.651 95.0942 135.436 92.736L138.77 92.7822H138.804C140.1 92.7822 141.161 91.7396 141.18 90.439C141.199 89.1289 140.149 88.0496 138.836 88.0306Z" fill="white"/>
<path d="M60.7576 66.985L56.9373 81.0009C56.5939 82.2676 57.3392 83.5736 58.6058 83.9184C58.8135 83.9768 59.0253 84.0026 59.2317 84.0026C60.277 84.0026 61.2341 83.3075 61.522 82.2513L65.3422 68.234C65.6871 66.9687 64.9404 65.6627 63.6738 65.3165C62.4085 64.9731 61.1038 65.7198 60.7576 66.985Z" fill="white"/>
<path d="M87.5238 66.985C87.1776 65.7198 85.8702 64.9731 84.6076 65.3165C83.341 65.6627 82.5943 66.9687 82.9392 68.234L86.7594 82.2513C87.0486 83.3075 88.0044 84.0026 89.0497 84.0026C89.2561 84.0026 89.4679 83.9768 89.6756 83.9184C90.9422 83.5736 91.6875 82.2676 91.3441 81.0009L87.5238 66.985Z" fill="white"/>
</svg>
