<svg width="150" height="150" viewBox="0 0 150 150" fill="none" xmlns="http://www.w3.org/2000/svg">
<path d="M130.063 53.3114C130.063 64.1926 121.21 73.0455 110.329 73.0455C99.4479 73.0455 90.5949 64.1926 90.5949 53.3114C90.5949 42.4289 99.4479 33.5759 110.329 33.5759C116.453 33.5759 121.934 36.3807 125.557 40.7726C126.569 42.2646 127.478 43.7389 128.297 45.197C129.421 47.676 130.063 50.417 130.063 53.3114ZM46.405 83.8873C46.2068 83.8384 46.0113 83.7909 45.8131 83.7434C45.5864 80.0127 45.1167 76.6241 44.461 73.5749C45.5538 73.822 46.648 74.1261 47.7314 74.5483C63.3981 80.6575 77.2619 78.8126 91.3498 68.7541C92.7576 70.481 94.403 72.0028 96.2236 73.2912C75.2106 90.8993 59.2615 87.0247 46.405 83.8873ZM22.7068 86.559C23.8879 81.711 26.6614 77.8161 30.6759 75.4552C33.3069 73.9048 36.3208 73.1174 39.4596 73.0536C40.1587 75.891 40.6909 79.08 40.9787 82.6423C34.2287 81.2861 27.9118 81.1463 22.7068 86.559ZM28.368 53.3833C30.4003 55.06 34.9496 59.5754 38.0544 68.3455C34.579 68.6048 31.2406 69.608 28.2661 71.3593C25.1789 73.1758 22.685 75.6901 20.8482 78.7175C20.5088 70.8991 21.7429 60.9411 28.368 53.3833ZM37.6173 46.4501C42.377 44.1476 48.865 44.0023 54.5479 46.0699C58.9968 47.6882 65.1209 51.4447 69.0322 60.1496C69.0702 60.2351 69.1136 60.318 69.1625 60.3981C70.0925 61.9471 70.6667 62.8974 86.3647 58.3277C86.8439 60.6193 87.6476 62.7901 88.7187 64.7994C75.8392 74.0433 63.7294 75.686 49.4583 70.1212C47.3649 69.3053 45.2348 68.769 43.1169 68.4934C39.8804 58.2069 34.6876 52.562 31.8325 50.0884C33.5133 48.7417 35.4234 47.5117 37.6173 46.4501ZM132.463 42.9108C131.657 41.2029 130.67 39.5996 129.508 38.1348C129.467 38.0737 129.432 38.0126 129.39 37.9528C129.341 37.8809 129.281 37.8225 129.227 37.7587C129.217 37.7478 129.209 37.737 129.2 37.7275C129.149 37.6691 129.101 37.608 129.045 37.5564C124.55 32.2251 117.832 28.8243 110.329 28.8243C96.8277 28.8243 85.8433 39.81 85.8433 53.3114C85.8433 53.3847 85.8542 53.4539 85.8542 53.5259C80.8867 54.9785 75.1658 56.4597 72.7235 56.8439C68.1158 47.585 61.2409 43.4498 56.173 41.6048C49.3252 39.1136 41.4226 39.3294 35.5483 42.1736C7.14865 55.9085 18.1629 92.3736 18.2783 92.7402C18.4086 93.161 18.6625 93.4977 18.9666 93.7733C19.1716 94.2349 19.5137 94.6381 19.9916 94.8988C20.354 95.0956 20.7437 95.1907 21.1292 95.1907C21.9696 95.1907 22.7841 94.7426 23.2159 93.9539C28.4385 84.3937 34.7758 85.9386 45.2782 88.5031C58.6642 91.7709 76.9959 96.2455 100.393 75.9955C100.416 75.9752 100.433 75.9494 100.457 75.9277C109.193 83.1501 105.423 90.2463 98.0074 102.148C93.6265 109.179 88.6604 117.148 88.3182 125.693C88.2639 127.005 89.2849 128.11 90.5963 128.163C90.6289 128.164 90.6615 128.164 90.694 128.164C91.9607 128.164 93.0142 127.162 93.0658 125.885C93.359 118.594 97.7712 111.512 102.04 104.661C107.65 95.6577 113.407 86.4015 108.278 77.6925C108.955 77.7496 109.637 77.7971 110.329 77.7971C121.404 77.7971 130.773 70.4009 133.787 60.2935C136.657 77.2717 128.115 91.6541 120.859 103.848C115.996 112.021 111.797 119.079 111.541 125.696C111.49 127.007 112.512 128.112 113.822 128.163C113.855 128.164 113.885 128.164 113.916 128.164C115.187 128.164 116.239 127.159 116.289 125.881C116.498 120.469 120.412 113.893 124.942 106.278C134.39 90.4024 147.112 69.0066 132.463 42.9108Z" fill="white"/>
<path d="M101.854 42.4654C101.34 41.9305 100.601 41.6657 99.8655 41.7567C99.1283 41.8436 98.474 42.2699 98.0979 42.912L96.1416 46.2368C95.7737 46.8599 95.7126 47.6175 95.9719 48.2922C96.2312 48.9683 96.7837 49.4882 97.4734 49.7068L104.908 52.0527C105.142 52.1274 105.384 52.1641 105.622 52.1641C106.428 52.1641 107.201 51.7514 107.642 51.0386C108.215 50.1141 108.086 48.9194 107.331 48.1374L101.854 42.4654Z" fill="white"/>
</svg>
