<svg width="150" height="150" viewBox="0 0 150 150" fill="none" xmlns="http://www.w3.org/2000/svg">
<path d="M95.586 69.1174C97.3332 71.6425 98.2564 74.503 98.2564 77.3879C98.2564 86.8667 88.6011 94.5792 76.7343 94.5792C64.8675 94.5792 55.2123 86.8667 55.2123 77.3879C55.2123 74.503 56.1355 71.6425 57.884 69.1174C58.2492 68.5879 58.385 67.9322 58.2587 67.3009C58.1325 66.6683 57.7564 66.1157 57.2148 65.7682C53.7216 63.5214 51.6364 59.7133 51.6364 55.5808C51.6364 48.9027 57.0708 43.4683 63.7489 43.4683C68.3837 43.4683 72.5434 46.0626 74.6043 50.2373C75.0048 51.0477 75.8302 51.5623 76.7343 51.5623C77.6385 51.5623 78.4653 51.0477 78.8658 50.2373C80.9252 46.0626 85.0849 43.4683 89.7198 43.4683C96.3992 43.4683 101.834 48.9027 101.834 55.5808C101.834 59.7133 99.747 63.5214 96.2553 65.7682C95.7136 66.1157 95.3362 66.6683 95.2099 67.3009C95.0837 67.9322 95.2194 68.5879 95.586 69.1174ZM106.585 55.5808C106.585 46.2826 99.0194 38.7167 89.7198 38.7167C84.5962 38.7167 79.8908 40.9893 76.7343 44.8299C73.5779 40.9893 68.8725 38.7167 63.7489 38.7167C54.4507 38.7167 46.8848 46.2826 46.8848 55.5808C46.8848 60.555 49.0515 65.1899 52.774 68.3734C51.2549 71.1932 50.4607 74.2722 50.4607 77.3879C50.4607 89.4868 62.2474 99.3308 76.7343 99.3308C91.2227 99.3308 103.008 89.4868 103.008 77.3879C103.008 74.2722 102.214 71.1932 100.696 68.3734C104.419 65.1899 106.585 60.555 106.585 55.5808Z" fill="white"/>
<path d="M63.6849 51.1147C61.7979 51.1147 60.2638 52.6488 60.2638 54.5359C60.2638 56.4229 61.7979 57.957 63.6849 57.957C65.572 57.957 67.1061 56.4229 67.1061 54.5359C67.1061 52.6488 65.572 51.1147 63.6849 51.1147Z" fill="white"/>
<path d="M89.358 51.1147C87.471 51.1147 85.9369 52.6488 85.9369 54.5359C85.9369 56.4229 87.471 57.957 89.358 57.957C91.2451 57.957 92.7792 56.4229 92.7792 54.5359C92.7792 52.6488 91.2451 51.1147 89.358 51.1147Z" fill="white"/>
<path d="M78.7723 58.3454H74.2705C73.5646 58.3454 72.8953 58.659 72.4445 59.2007C71.9924 59.7438 71.8065 60.4592 71.9341 61.1529C73.1668 67.8228 74.6601 69.1899 76.5214 69.1899C78.384 69.1899 79.8774 67.8228 81.1087 61.1529C81.2364 60.4592 81.0504 59.7438 80.5983 59.2007C80.1476 58.659 79.4783 58.3454 78.7723 58.3454Z" fill="white"/>
<path d="M124.499 100.253C117.97 97.5171 113.767 94.9594 111.888 93.7132C115.002 88.1918 117.174 81.8993 118.137 75.1371C121.939 79.8032 127.496 88.9765 124.499 100.253ZM76.7341 111.057C56.2139 111.057 39.5181 91.3903 39.5181 67.2155C39.5181 43.0407 56.2139 23.3745 76.7341 23.3745C97.2556 23.3745 113.951 43.0407 113.951 67.2155C113.951 91.3903 97.2556 111.057 76.7341 111.057ZM28.2623 100.253C25.1018 88.3615 31.454 78.8094 35.2295 74.4149C36.1187 81.3101 38.2692 87.7302 41.3903 93.3656C39.8508 94.4245 35.4738 97.2321 28.2623 100.253ZM118.67 68.7089C118.684 68.212 118.703 67.7165 118.703 67.2155C118.703 40.4205 99.8757 18.6229 76.7341 18.6229C53.5924 18.6229 34.7665 40.4205 34.7665 67.2155C34.7665 67.5142 34.7815 67.8101 34.7869 68.1074C34.7258 68.1509 34.6634 68.1848 34.6063 68.2351C33.8882 68.8636 17.0947 83.8475 24.5411 104.233C24.7597 104.833 25.2117 105.321 25.7942 105.583C26.105 105.724 26.439 105.794 26.773 105.794C27.0662 105.794 27.3581 105.74 27.6364 105.63C36.4106 102.205 41.7813 98.853 43.891 97.414C51.5872 108.61 63.4445 115.808 76.7341 115.808C89.896 115.808 101.657 108.751 109.357 97.7398C111.744 99.3187 116.958 102.441 125.124 105.63C125.403 105.74 125.696 105.794 125.989 105.794C126.323 105.794 126.656 105.724 126.967 105.583C127.549 105.321 128.001 104.833 128.22 104.233C135.034 85.5811 121.562 71.4594 118.67 68.7089Z" fill="white"/>
<path d="M64.8257 116.782C61.1276 116.782 57.8028 119.05 56.5525 122.428C56.2837 123.157 56.3868 123.972 56.8308 124.611C57.2761 125.248 58.0037 125.629 58.7803 125.629H70.8711C71.6476 125.629 72.3767 125.248 72.8206 124.611C73.2645 123.972 73.3691 123.157 73.0989 122.428C71.8486 119.05 68.5238 116.782 64.8257 116.782Z" fill="white"/>
<path d="M87.9354 116.782C84.2373 116.782 80.9126 119.05 79.6622 122.428C79.3934 123.157 79.4966 123.972 79.9405 124.611C80.3858 125.248 81.1135 125.629 81.89 125.629H93.9808C94.7574 125.629 95.4864 125.248 95.9303 124.611C96.3743 123.973 96.4775 123.158 96.2086 122.429C94.9597 119.05 91.6349 116.782 87.9354 116.782Z" fill="white"/>
</svg>
