<svg width="150" height="150" viewBox="0 0 150 150" fill="none" xmlns="http://www.w3.org/2000/svg">
<path d="M57.9018 69.1952C59.2146 69.1952 60.2776 68.1322 60.2776 66.8194C60.2776 62.4629 56.7315 58.9195 52.375 58.9195C50.2639 58.9195 48.2805 59.7409 46.7871 61.2342C45.2951 62.7263 44.4738 64.7097 44.4738 66.8181C44.4738 67.8865 44.6828 68.9237 45.0955 69.8998C45.4797 70.8067 46.3595 71.3497 47.2853 71.3497C47.5935 71.3497 47.9071 71.29 48.2099 71.161C49.2702 70.713 49.8336 69.5862 49.6136 68.5015L55.5735 67.2919C55.7921 68.3779 56.7519 69.1952 57.9018 69.1952Z" fill="white"/>
<path d="M107.579 67.8522C106.882 67.1421 106.224 66.4131 105.601 65.6651L111.57 59.4866C112.216 60.0799 112.875 60.6487 113.546 61.2013L107.579 67.8522ZM88.0946 44.9019L92.758 38.1845C97.0806 41.9722 101.643 46.9125 106.167 53.3761C106.827 54.3182 107.534 55.2088 108.267 56.0668L102.75 61.7755C98.1259 54.4879 93.0865 49.0182 88.0946 44.9019ZM69.4493 26.0055C71.7355 26.368 76.4654 27.4798 82.4497 30.8263L77.6832 37.8845C77.6601 37.9171 77.6465 37.9537 77.6275 37.9863C73.4529 35.8494 69.5892 34.5366 66.354 33.7329C67.1889 31.535 68.4705 28.2238 69.4493 26.0055ZM81.7641 40.3295L86.4954 33.327C87.3411 33.9013 88.2046 34.5176 89.0816 35.1815C89.0409 35.2331 88.9933 35.2765 88.9553 35.3308L84.3096 42.0225C83.4557 41.4238 82.6058 40.8549 81.7641 40.3295ZM131.333 66.6561C124.248 62.9431 115.43 58.3218 110.059 50.6514C90.0319 22.0426 68.9755 21.1073 68.089 21.0828C67.1455 21.019 66.3228 21.558 65.906 22.3739C64.7276 24.6764 62.6369 30.1163 61.6227 32.8098C59.5483 32.522 58.0631 32.4704 57.3911 32.4677L34.244 26.2621C33.2679 26.0001 32.2321 26.3856 31.6646 27.2219C31.0957 28.0568 31.1188 29.1619 31.7229 29.9738L42.9422 45.0743L20.353 96.9999C19.8969 98.0479 20.2526 99.2725 21.2002 99.9146L35.1713 109.378C35.5745 109.651 36.0401 109.787 36.5031 109.787C37.023 109.787 37.543 109.617 37.9733 109.279C39.931 107.738 51.9336 98.1552 59.8714 88.4714C62.6029 94.8901 70.4417 111.196 82.9371 120.296C83.3593 120.603 83.848 120.752 84.3341 120.752C85.0672 120.752 85.7908 120.413 86.2564 119.775C87.0275 118.715 86.794 117.228 85.7337 116.456C71.4531 106.055 63.3333 84.3742 63.2532 84.157C63.2356 84.1108 63.2084 84.0701 63.1894 84.0253C65.4838 80.5824 66.9758 77.2848 66.9758 74.5098C66.9758 73.1984 65.9114 72.134 64.6 72.134C63.2872 72.134 62.2242 73.1984 62.2242 74.5098C62.2242 81.2476 46.9172 95.9722 36.389 104.465L25.497 97.0867L47.8485 45.7083C48.1866 44.9291 48.0834 44.0276 47.577 43.3448L39.6079 32.6197L56.472 37.1419C56.696 37.2003 56.9241 37.2247 57.1549 37.2206C57.3911 37.203 81.4559 36.8541 98.8957 64.56C103.712 72.2169 111.361 78.3166 121.63 82.6894C122.836 83.2053 124.231 82.6405 124.746 81.435C125.259 80.2267 124.698 78.8324 123.491 78.3179C118.71 76.2815 114.573 73.8501 111.09 71.0534L117.364 64.0604C121.322 66.7688 125.444 68.9342 129.127 70.8647C129.48 71.048 129.856 71.1362 130.229 71.1362C131.083 71.1362 131.91 70.6733 132.333 69.8628C132.944 68.7007 132.496 67.2643 131.333 66.6561Z" fill="white"/>
</svg>
