<svg width="150" height="151" viewBox="0 0 150 151" fill="none" xmlns="http://www.w3.org/2000/svg">
<path d="M72.9221 86.7535C72.4483 86.9463 71.0948 86.9762 70.4282 86.9911C69.7725 87.0061 69.1657 87.0237 68.6878 87.0834C61.7084 87.9604 55.6983 87.2966 50.8218 85.1149C43.7975 81.9721 38.082 72.4919 38.082 63.9825C38.082 63.9119 38.0671 63.8495 38.0657 63.7802C38.063 63.7503 38.0685 63.7191 38.0644 63.6893C36.776 53.2873 45.9873 44.7086 46.0783 44.6272C46.6634 44.0936 46.9444 43.3049 46.8291 42.5215C46.7137 41.7396 46.2154 41.0648 45.5 40.7254L34.6744 35.572C33.7092 33.9795 34.1002 32.4834 34.4559 31.6987C35.2406 29.9624 37 28.7487 38.9387 28.6102C49.2429 27.8567 51.8372 33.4324 56.1368 42.6587C57.7537 46.1314 59.5891 50.0671 62.098 54.0476C63.2194 55.8274 65.1404 56.3949 66.5428 56.8103L67.0777 56.9732C68.6633 57.4728 70.4133 57.7837 72.5855 57.9507C72.9058 57.9765 73.1855 57.986 73.4326 57.99C73.4665 58.0593 73.5073 58.138 73.5521 58.2249C76.232 63.3458 81.5212 76.3462 72.9221 86.7535ZM64.4982 110.389C64.4982 112.313 62.9329 113.878 61.0092 113.878C59.0841 113.878 57.5188 112.313 57.5188 110.389C57.5188 108.464 59.0841 106.9 61.0092 106.9C62.9329 106.9 64.4982 108.464 64.4982 110.389ZM23.3602 50.7975C22.9136 50.6549 22.5511 50.5463 22.3094 50.4567C21.6469 49.873 21.3089 49.0923 21.0957 48.0198C26.2275 47.918 33.4757 46.3513 35.6954 42.5229C35.8501 42.2555 36.009 41.9174 36.1393 41.5319L40.5257 43.6198C38.3671 46.1776 35.318 50.5314 33.9291 55.936C30.4727 53.0633 25.7496 51.5523 23.3602 50.7975ZM116.052 45.2462C117.598 45.2462 118.857 46.5047 118.857 48.0497C118.857 49.5974 117.598 50.8559 116.052 50.8559C114.504 50.8559 113.246 49.5974 113.246 48.0497C113.246 46.5047 114.504 45.2462 116.052 45.2462ZM97.9346 58.0566C99.1483 58.0837 109.797 58.6403 109.797 69.8758C109.797 71.1886 110.86 72.2516 112.173 72.2516C113.485 72.2516 114.549 71.1886 114.549 69.8758C114.549 64.9695 112.984 61.4166 110.733 58.8861L113.641 55.2056C114.398 55.4608 115.206 55.6075 116.052 55.6075C120.218 55.6075 123.608 52.2175 123.608 48.0497C123.608 43.8846 120.218 40.4946 116.052 40.4946C111.884 40.4946 108.494 43.8846 108.494 48.0497C108.494 49.6462 108.995 51.126 109.842 52.3465L107.052 55.879C103.941 54.0408 100.481 53.343 97.978 53.305H75.598C75.4771 53.305 75.3617 53.324 75.2464 53.3416C74.8757 53.2588 74.4617 53.2235 73.9851 53.233C73.7313 53.2412 73.3973 53.2466 72.9493 53.214C71.1505 53.0742 69.7386 52.8298 68.5086 52.4415L67.8909 52.2542C67.2908 52.0763 66.2848 51.7777 66.1178 51.5129C63.7678 47.7877 62.079 44.1602 60.4444 40.6521C56.0024 31.1218 52.1726 22.8866 38.5952 23.8708C34.8862 24.1383 31.6429 26.3878 30.1265 29.7411C28.7892 32.6993 29.1287 35.9915 30.9994 38.6225C31.013 38.6429 31.0293 38.6632 31.0415 38.6863C31.085 38.7447 31.1175 38.8085 31.161 38.8682C31.8208 39.7344 31.6497 40.029 31.5859 40.139C30.679 41.7016 25.7387 43.1175 21.4813 43.2764C21.5003 43.1583 21.5193 43.0388 21.5193 42.9153C21.5193 41.6038 20.4549 40.5394 19.1435 40.5394H18.071C16.7595 40.5394 15.6952 41.6038 15.6952 42.9153C15.6952 43.5126 15.9233 44.0516 16.2871 44.4697C16.0916 44.8593 15.9911 45.2938 16.0319 45.7391C16.2939 48.6973 16.5926 52.0505 19.5671 54.3517C20.0667 54.7386 20.6504 54.9232 21.9266 55.3278C25.2418 56.3759 32.858 58.8019 33.2897 63.5644C33.306 63.7531 33.3141 63.9377 33.3359 64.1264C33.3969 73.2101 39.198 85.1203 48.8804 89.4511C51.935 90.8182 55.3317 91.6776 59.038 92.0278V102.397C55.4444 103.282 52.7672 106.526 52.7672 110.389C52.7672 114.933 56.4639 118.63 61.0092 118.63C65.5517 118.63 69.2498 114.933 69.2498 110.389C69.2498 106.822 66.9663 103.786 63.7896 102.642V92.1812C65.5639 92.1514 67.3872 92.036 69.2783 91.7984C69.6232 91.7563 70.0617 91.7522 70.5328 91.7414C72.5352 91.6966 75.0278 91.6423 76.4723 89.9154C85.9999 78.5346 81.9461 65.0007 78.7598 58.0566H97.9346Z" fill="white"/>
<path d="M122.654 113.878C120.73 113.878 119.165 112.314 119.165 110.39C119.165 108.465 120.73 106.9 122.654 106.9C124.579 106.9 126.143 108.465 126.143 110.39C126.143 112.314 124.579 113.878 122.654 113.878ZM122.654 102.148C121.941 102.148 121.251 102.25 120.59 102.421C116.221 98.7271 114.486 92.4373 114.47 92.3735C114.193 91.3322 113.251 90.6059 112.173 90.6059C93.9757 90.6059 92.4403 72.6842 92.3805 71.8873C92.2909 70.5799 91.1668 69.6065 89.85 69.6812C88.5399 69.7722 87.5515 70.9058 87.6411 72.2145C87.6561 72.4399 89.3897 94.1737 110.435 95.3114C111.274 97.6084 113.144 101.737 116.429 105.006C115.176 106.45 114.413 108.331 114.413 110.39C114.413 114.933 118.11 118.63 122.654 118.63C127.199 118.63 130.894 114.933 130.894 110.39C130.894 105.845 127.199 102.148 122.654 102.148Z" fill="white"/>
</svg>
