<svg width="150" height="150" viewBox="0 0 150 150" fill="none" xmlns="http://www.w3.org/2000/svg">
<path d="M58.3797 24.7888C58.9906 24.911 59.5744 25.196 60.1663 25.6603C60.321 25.7785 60.4853 25.8708 60.6537 25.9482C58.6621 28.5398 56.923 31.2292 55.5056 33.4679C54.0055 33.6539 51.9216 34.1576 49.6503 35.1839C51.3717 29.2593 54.1168 23.9389 58.3797 24.7888ZM130.789 87.1189C122.331 84.1621 117.498 74.5625 112.38 64.3981C106.298 52.3168 99.4077 38.7137 84.8692 35.4839C85.7801 26.5618 84.5149 18.5859 77.8748 16.4626C72.6426 14.7914 67.7281 18.0008 63.5861 22.4564C63.4517 22.2596 63.2956 22.0722 63.096 21.9174C61.9203 20.9983 60.6496 20.3983 59.3123 20.1295C51.9935 18.6619 46.8102 24.8743 43.9104 38.5929C43.8832 38.7205 43.8751 38.8481 43.8696 38.973C42.4482 40.2641 41.0933 41.8253 39.9136 43.73C38.6144 45.8302 37.626 47.9589 36.6689 50.0198C34.8823 53.8672 33.1962 57.5015 29.6569 60.5819C26.5562 63.2822 23.3549 65.2358 22.6721 65.4747C21.5548 65.8494 20.9085 66.9735 21.0891 68.1003C21.0701 68.2184 21.0524 68.3365 21.0524 68.4601C21.0511 69.0316 21.1366 82.5425 30.1674 90.2428C34.1397 93.63 39.1533 95.3324 45.1254 95.3324C46.8889 95.3324 48.7394 95.1736 50.6658 94.8763C50.7024 94.8776 50.7377 94.8858 50.7744 94.8858C50.8898 94.8858 51.0079 94.8776 51.1274 94.86C52.2976 94.6848 53.4244 94.4907 54.5282 94.2871C54.6069 99.298 56.2659 111.599 69.1142 124.707C69.5785 125.181 70.1949 125.418 70.8099 125.418C71.4099 125.418 72.01 125.193 72.4729 124.739C73.4097 123.82 73.4246 122.317 72.5069 121.379C59.5866 108.2 59.1576 96.2963 59.2852 93.2716C69.1007 90.8578 75.6837 87.0809 78.8767 81.9913C81.8363 77.2723 80.7149 73.2646 80.5765 72.8234C80.1909 71.5866 78.8957 70.9092 77.6481 71.2703C76.4045 71.6355 75.6877 72.9497 76.0285 74.2C76.0556 74.2991 76.6733 76.6736 74.7537 79.6168C72.4852 83.095 66.452 87.7326 50.6481 90.1233C50.5015 90.1192 50.3535 90.1247 50.2028 90.1491C43.0578 91.3031 37.3627 90.1219 33.2708 86.6451C32.5595 86.0396 31.9336 85.3717 31.3526 84.678C32.0124 84.8205 32.6925 84.9264 33.3998 84.9264C33.9795 84.9264 34.5714 84.8694 35.1701 84.7418C38.0143 84.1363 40.2435 82.123 41.7952 78.7575C42.3451 77.5655 41.8251 76.155 40.6331 75.6051C39.4425 75.0512 38.0306 75.5753 37.4808 76.7672C36.5929 78.6923 35.4865 79.811 34.1913 80.092C31.9336 80.5902 29.1098 78.6896 28.2151 77.9185C27.9803 77.7135 27.7155 77.5682 27.4386 77.4718C27.2092 76.7876 27.0042 76.1129 26.8358 75.4599C28.1133 75.2073 31.3173 74.3045 32.592 71.4414C33.4392 69.5366 33.184 67.3496 31.8698 64.929C32.178 64.6751 32.4862 64.4198 32.778 64.166C37.0789 60.419 39.061 56.1493 40.9793 52.0209C41.9174 49.9981 42.8039 48.0893 43.9538 46.2307C48.218 39.3409 54.968 38.2535 56.4614 38.0987C56.737 38.1462 57.0262 38.1462 57.318 38.0905C58.1475 37.9303 58.863 37.3262 59.1739 36.5564C62.8883 30.6699 70.3347 19.0366 76.429 20.9888C81.1399 22.4944 81.6557 32.6045 77.7771 47.3738C77.4445 48.6418 78.2034 49.941 79.4727 50.275C79.6736 50.328 79.8773 50.3524 80.0769 50.3524C81.1304 50.3524 82.0929 49.6478 82.3726 48.5794C83.0839 45.875 83.722 43.0349 84.2121 40.2016C96.3151 43.1123 102.328 54.9995 108.136 66.535C113.452 77.0944 118.95 88.0136 129.221 91.6044C129.48 91.6954 129.743 91.7388 130.004 91.7388C130.986 91.7388 131.905 91.1252 132.247 90.1464C132.68 88.9069 132.027 87.5534 130.789 87.1189Z" fill="white"/>
<path d="M44.9389 58.1189C43.8623 58.8588 43.588 60.3264 44.3225 61.4084C45.057 62.4904 46.5327 62.7728 47.6188 62.0437C47.8061 61.9161 52.2251 59.0068 55.1548 61.9813C55.6205 62.4524 56.2341 62.6886 56.8477 62.6886C57.4505 62.6886 58.0519 62.4619 58.5149 62.0057C59.4503 61.0853 59.4611 59.5811 58.5407 58.647C53.956 53.9918 47.6391 56.2671 44.9389 58.1189Z" fill="white"/>
</svg>
