<svg width="150" height="151" viewBox="0 0 150 151" fill="none" xmlns="http://www.w3.org/2000/svg">
<path d="M123.732 69.1254C122.517 73.6368 119.732 77.1353 115.896 78.9748C114.106 79.8315 112.151 80.2822 110.078 80.3148C109.287 80.3284 108.554 80.7343 108.125 81.3982C107.694 82.062 107.622 82.8983 107.932 83.626C109.455 87.187 110.229 90.9706 110.229 94.8683C110.229 110.645 97.393 123.481 81.6163 123.481H61.0378C51.1436 123.481 43.0944 115.429 43.0944 105.534C43.0944 84.9768 61.4546 66.2555 81.6163 66.2555C83.95 66.2555 86.2864 66.5419 88.5577 67.1081C89.3641 67.309 90.2181 67.0714 90.8073 66.4863C91.3978 65.8984 91.6367 65.0459 91.4399 64.2381C90.1855 59.1023 90.8697 53.847 93.3188 49.8204C93.908 48.851 93.7288 47.6007 92.8925 46.8336C90.0524 44.2325 87.0413 41.0951 84.1835 37.7594C75.9551 28.1544 72.2326 20.9442 71.6013 18.1869C74.2472 19.2282 80.7325 23.9567 89.0152 33.6215C91.8187 36.8946 94.4144 40.2859 96.5214 43.4261C97.173 44.3954 98.4288 44.7497 99.4891 44.261C101.319 43.4166 103.292 42.9903 105.35 42.9903C112.179 42.9903 118.789 47.5695 122.19 54.6589C124.436 59.3453 124.983 64.4825 123.732 69.1254ZM34.3962 109.291C32.4223 109.291 30.8176 107.685 30.8176 105.713C30.8176 103.739 32.4223 102.133 34.3962 102.133C36.3702 102.133 37.9762 103.739 37.9762 105.713C37.9762 107.685 36.3702 109.291 34.3962 109.291ZM126.475 52.6034C122.289 43.8768 113.995 38.2387 105.35 38.2387C103.289 38.2387 101.291 38.5604 99.3819 39.1985C97.3957 36.3679 95.085 33.4029 92.6237 30.5289C85.7773 22.5407 75.9266 13.2099 70.6985 13.2099C69.4318 13.2099 68.5942 13.7014 68.1095 14.1141C62.3818 19.0286 77.4878 37.249 80.575 40.8521C83.1056 43.8048 85.7583 46.6151 88.3256 49.0669C86.4806 52.875 85.7475 57.3238 86.2104 61.8216C84.6872 61.6098 83.1517 61.5039 81.6163 61.5039C61.2197 61.5039 42.4726 78.5268 38.9442 98.7401C37.6341 97.8849 36.0742 97.3812 34.3962 97.3812C29.8021 97.3812 26.066 101.119 26.066 105.713C26.066 110.306 29.8021 114.043 34.3962 114.043C36.2724 114.043 38.002 113.412 39.3949 112.361C42.3002 121.551 50.9033 128.233 61.0378 128.233H81.6163C100.013 128.233 114.981 113.266 114.981 94.8683C114.981 91.3969 114.454 88.0015 113.413 84.7406C114.992 84.4446 116.508 83.9504 117.947 83.2594C123.054 80.813 126.738 76.2325 128.32 70.3622C129.868 64.6223 129.212 58.3149 126.475 52.6034Z" fill="white"/>
<path d="M76.4465 89.5409C66.7831 86.2677 56.9459 92.8073 56.5319 93.0883C55.4471 93.8214 55.162 95.2944 55.8938 96.3818C56.6269 97.4693 58.1012 97.7571 59.19 97.0267C59.2729 96.9724 67.5379 91.5189 74.9436 94.0495C79.4319 95.5795 82.8625 99.8044 85.1406 106.606C85.4732 107.601 86.3991 108.23 87.3928 108.228C87.6426 108.228 87.8965 108.188 88.1477 108.105C89.3912 107.688 90.0632 106.343 89.6465 105.098C86.8688 96.8013 82.4267 91.5664 76.4465 89.5409Z" fill="white"/>
<path d="M112.253 53.6853C111.325 52.7567 109.822 52.7567 108.893 53.6853L108.35 54.2284L107.807 53.6853C106.879 52.7567 105.374 52.7567 104.447 53.6853C103.518 54.6139 103.518 56.1168 104.447 57.0454L104.99 57.5884L104.447 58.1315C103.518 59.0601 103.518 60.5629 104.447 61.4915C104.911 61.9558 105.518 62.188 106.126 62.188C106.735 62.188 107.343 61.9558 107.807 61.4915L108.35 60.9485L108.893 61.4915C109.358 61.9558 109.964 62.188 110.574 62.188C111.182 62.188 111.789 61.9558 112.253 61.4915C113.181 60.5629 113.181 59.0601 112.253 58.1315L111.71 57.5884L112.253 57.0454C113.181 56.1168 113.181 54.6139 112.253 53.6853Z" fill="white"/>
</svg>
