<svg width="150" height="150" viewBox="0 0 150 150" fill="none" xmlns="http://www.w3.org/2000/svg">
<path d="M105.938 79.9227C92.4887 79.9227 81.5465 72.4627 81.5465 63.2921C81.5465 61.9114 81.7583 60.5239 82.338 59.2627C82.9014 58.0368 83.9562 56.8625 83.9562 55.4465V45.0052L93.4078 48.4562C93.9197 48.6422 94.4858 48.6463 95.003 48.4671C96.7462 47.8684 98.5436 47.4177 100.363 47.1217C104.533 46.4429 109.056 46.5569 113.183 47.4394C114.737 47.772 116.127 48.5499 117.771 48.5322C118.677 48.5227 119.318 48.1182 120.139 47.8141C122.2 47.0484 124.289 46.3547 126.35 45.5849C126.446 45.5496 127.925 45.0934 127.925 45.0052V55.4465C127.925 56.5339 128.806 57.4924 129.238 58.4468C129.923 59.9592 130.333 61.6263 130.333 63.2921C130.333 72.4627 119.39 79.9227 105.938 79.9227ZM110.62 86.6347C102.094 97.1724 87.3489 103.463 71.1785 103.463C45.6447 103.463 24.8734 87.6257 24.8734 68.1604C24.8734 48.6952 45.6447 32.8587 71.1785 32.8587C82.8145 32.8587 93.7676 36.1129 102.333 42.0891L102.126 42.1121C99.4587 42.3687 96.8127 42.8941 94.2577 43.7087L82.395 39.3779C81.6673 39.1118 80.8541 39.2191 80.2187 39.663C79.582 40.107 79.2046 40.8333 79.2046 41.6085V54.7731C79.1245 54.9089 79.0444 55.0474 78.9684 55.1845C78.7824 55.5185 78.6086 55.8565 78.4512 56.1905C78.2991 56.5068 78.1565 56.8313 78.0194 57.1652C77.2307 59.0957 76.7949 61.2014 76.7949 63.2921C76.7949 75.0828 89.8686 84.6743 105.938 84.6743C108.211 84.6743 110.412 84.4639 112.536 84.1014C111.942 84.9621 111.264 85.8581 110.62 86.6347ZM135.085 63.2921C135.085 60.4791 134.27 57.6445 132.911 55.1872C132.835 55.0501 132.757 54.9116 132.676 54.7758V41.6085C132.676 40.8333 132.298 40.107 131.662 39.663C131.027 39.2191 130.215 39.1132 129.486 39.3779L117.622 43.7087C116.4 43.3191 115.157 42.9878 113.898 42.7312C113.375 42.624 112.849 42.5316 112.321 42.4488C111.977 42.3945 110.663 42.4258 110.446 42.2004C110.355 42.1067 110.261 42.0144 110.154 41.9343L107.144 39.7092C97.5241 32.2275 84.7518 28.1071 71.1785 28.1071C43.0246 28.1071 20.1218 46.0736 20.1218 68.1604C20.1218 90.2459 43.0246 108.215 71.1785 108.215C88.7689 108.215 104.895 101.266 114.292 89.6499C115.184 88.5787 117.99 85.0517 118.741 82.4723C128.403 78.9873 135.085 71.7106 135.085 63.2921Z" fill="white"/>
<path d="M67.6737 74.1567C59.1575 66.6587 45.4172 68.3096 44.8375 68.3856C43.5369 68.5512 42.6151 69.7418 42.7821 71.0438C42.9477 72.3457 44.1451 73.2634 45.4403 73.0992C45.5598 73.0842 57.6098 71.6262 64.5336 77.7232C67.7416 80.5483 69.368 84.6741 69.368 89.9877C69.368 91.3005 70.431 92.3635 71.7438 92.3635C73.0553 92.3635 74.1196 91.3005 74.1196 89.9877C74.1196 83.2486 71.9502 77.9227 67.6737 74.1567Z" fill="white"/>
<path d="M106.518 64.6139L105.94 65.1936L105.362 64.6153C104.433 63.6867 102.93 63.6867 102.002 64.6153C101.074 65.5425 101.074 67.0467 102.002 67.9753L104.225 70.1964C104.688 70.6607 105.297 70.8928 105.905 70.8928C105.917 70.8928 105.928 70.8901 105.94 70.8901C105.951 70.8901 105.962 70.8928 105.974 70.8928C106.582 70.8928 107.19 70.6607 107.655 70.1977L109.879 67.9753C110.806 67.0481 110.806 65.5439 109.879 64.6153C108.951 63.688 107.447 63.6867 106.518 64.6139Z" fill="white"/>
<path d="M97.2552 55.5521H94.088C92.7752 55.5521 91.7122 56.6165 91.7122 57.9279C91.7122 59.2407 92.7752 60.3037 94.088 60.3037H97.2552C98.5667 60.3037 99.631 59.2407 99.631 57.9279C99.631 56.6165 98.5667 55.5521 97.2552 55.5521Z" fill="white"/>
<path d="M117.792 55.5521H114.624C113.312 55.5521 112.248 56.6165 112.248 57.9279C112.248 59.2407 113.312 60.3037 114.624 60.3037H117.792C119.104 60.3037 120.168 59.2407 120.168 57.9279C120.168 56.6165 119.104 55.5521 117.792 55.5521Z" fill="white"/>
</svg>
