<svg width="150" height="150" viewBox="0 0 150 150" fill="none" xmlns="http://www.w3.org/2000/svg">
<path d="M96.2819 95.1646C96.1842 94.8496 96.0851 94.5455 95.9873 94.2468C95.3316 92.2552 94.7655 90.5324 94.7655 86.8357C94.7655 83.143 95.3316 81.4188 95.9873 79.4259C96.6878 77.2958 97.4807 74.8834 97.4807 70.3164C97.4807 65.7549 96.6865 63.341 95.9859 61.2137C95.3316 59.2207 94.7655 57.5006 94.7655 53.808C94.7655 50.2497 95.2922 48.5187 95.9181 46.614C116.316 49.8628 127.647 67.0867 129.931 70.9178C127.663 74.7204 116.454 91.7746 96.2819 95.1646ZM86.9457 95.7103C86.795 95.1958 86.6375 94.7138 86.4841 94.2468C85.8284 92.2552 85.2623 90.5324 85.2623 86.8357C85.2623 83.143 85.8284 81.4188 86.4841 79.4259C87.1846 77.2958 87.9775 74.8834 87.9775 70.3164C87.9775 65.7549 87.1833 63.341 86.4827 61.2137C85.8284 59.2207 85.2623 57.5006 85.2623 53.808C85.2623 50.1126 85.8284 48.3925 86.4841 46.3995C86.5126 46.3154 86.5398 46.2258 86.5669 46.1416C87.8498 46.0751 89.1233 46.0561 90.3858 46.0941C89.8319 47.9377 89.3351 50.194 89.3351 53.808C89.3351 58.3681 90.1293 60.782 90.8284 62.9107C91.4841 64.9023 92.0503 66.6251 92.0503 70.3164C92.0503 74.0131 91.4841 75.7332 90.8271 77.7302C90.1279 79.8603 89.3351 82.2728 89.3351 86.8357C89.3351 91.2452 90.075 93.6427 90.7565 95.7225C89.4953 95.7687 88.2245 95.766 86.9457 95.7103ZM43.9505 65.019C44.2953 66.3658 44.5342 67.927 44.5342 70.3164C44.5342 73.3058 44.1609 75.0015 43.6735 76.5967C41.4335 74.8277 39.1731 72.9284 36.8937 70.9164C39.2654 68.8203 41.6181 66.8518 43.9505 65.019ZM66.2558 86.8357C66.2558 83.143 66.822 81.4188 67.4777 79.4259C68.1782 77.2958 68.9711 74.8834 68.9711 70.3164C68.9711 65.7549 68.1769 63.341 67.4763 61.2137C66.822 59.2207 66.2558 57.5006 66.2558 53.808C66.2558 52.8061 66.3007 51.9576 66.3753 51.1987C67.7981 50.5809 69.2113 50.0135 70.6151 49.5084C70.4413 50.7086 70.3287 52.1042 70.3287 53.808C70.3287 58.3681 71.1228 60.782 71.822 62.9107C72.4777 64.9023 73.0439 66.6251 73.0439 70.3164C73.0439 74.0131 72.4777 75.7332 71.8207 77.7302C71.1215 79.8603 70.3287 82.2728 70.3287 86.8357C70.3287 89.1748 70.5377 90.9438 70.835 92.4032C69.4123 91.8941 67.98 91.3253 66.5382 90.7021C66.3645 89.6581 66.2558 88.4363 66.2558 86.8357ZM57.9731 61.2137C57.4735 59.6904 57.0269 58.3179 56.8422 56.1118C58.1781 55.3217 59.5059 54.5723 60.8268 53.8745C60.8349 58.3899 61.6237 60.7942 62.3188 62.9107C62.9745 64.9023 63.5406 66.6251 63.5406 70.3164C63.5406 74.0131 62.9745 75.7332 62.3174 77.7302C61.6183 79.8603 60.8254 82.2728 60.8254 86.8357C60.8254 87.2335 60.8363 87.6027 60.8472 87.9679C59.4977 87.2552 58.1401 86.4868 56.7744 85.6776C56.883 82.7602 57.3921 81.1976 57.9745 79.4259C58.675 77.2958 59.4678 74.8834 59.4678 70.3164C59.4678 65.7549 58.6736 63.341 57.9731 61.2137ZM48.5745 61.5354C49.6605 60.7521 50.7412 60.0081 51.8178 59.2872C52.1029 60.7154 52.4694 61.8558 52.8156 62.9107C53.4713 64.9023 54.0374 66.6251 54.0374 70.3164C54.0374 74.0131 53.4713 75.7332 52.8142 77.7302C52.3852 79.0376 51.9209 80.459 51.6263 82.414C50.509 81.6632 49.3877 80.888 48.2608 80.0762C48.3301 79.8603 48.3993 79.6418 48.4713 79.4259C49.1718 77.2958 49.9646 74.8834 49.9646 70.3164C49.9646 65.9802 49.2465 63.5868 48.5745 61.5354ZM81.3252 62.9107C81.9809 64.9023 82.5471 66.6251 82.5471 70.3164C82.5471 74.0131 81.9809 75.7332 81.3239 77.7302C80.6247 79.8603 79.8319 82.2728 79.8319 86.8357C79.8319 90.8121 80.4319 93.1553 81.0496 95.0994C79.7056 94.8754 78.3507 94.5971 76.9863 94.2645C76.985 94.2577 76.9823 94.2523 76.9809 94.2468C76.3252 92.2552 75.7591 90.5324 75.7591 86.8357C75.7591 83.143 76.3252 81.4188 76.9809 79.4259C77.6814 77.2958 78.4743 74.8834 78.4743 70.3164C78.4743 65.7549 77.6801 63.341 76.9795 61.2137C76.3252 59.2207 75.7591 57.5006 75.7591 53.808C75.7591 50.9054 76.1107 49.2206 76.5777 47.6675C77.957 47.32 79.3241 47.0363 80.6831 46.8C80.2161 48.5215 79.8319 50.642 79.8319 53.808C79.8319 58.3681 80.6261 60.782 81.3252 62.9107ZM134.574 69.4638C134.046 68.4605 121.345 44.8519 94.9134 41.6683C76.0238 39.3767 55.3869 48.1386 33.3544 67.7098C28.1602 62.874 22.8737 57.4165 17.499 51.3398C16.6301 50.3556 15.13 50.2633 14.1457 51.1321C13.1628 52.0024 13.0705 53.5039 13.9407 54.4868C19.3141 60.5647 24.6142 66.0345 29.8396 70.9137C24.6142 75.7943 19.3141 81.2709 13.9407 87.3475C13.0705 88.3304 13.1628 89.8319 14.1457 90.7021C14.5978 91.1013 15.1585 91.2954 15.7178 91.2954C16.3762 91.2954 17.0292 91.0266 17.499 90.4958C22.8751 84.4151 28.1616 78.9575 33.3544 74.1204C53.1116 91.6674 71.746 100.518 89.0038 100.518C90.9913 100.518 92.9639 100.401 94.9134 100.166C121.345 96.981 134.046 73.3723 134.574 72.3691C134.819 71.9048 134.887 71.3998 134.816 70.9192C134.887 70.4372 134.819 69.9295 134.574 69.4638Z" fill="white"/>
<path d="M110.327 73.1487C108.573 73.1487 107.146 71.7218 107.146 69.9692C107.146 68.2151 108.573 66.7897 110.327 66.7897C112.08 66.7897 113.507 68.2151 113.507 69.9692C113.507 71.7218 112.08 73.1487 110.327 73.1487ZM110.327 62.0381C105.953 62.0381 102.395 65.5977 102.395 69.9692C102.395 74.342 105.953 77.9003 110.327 77.9003C114.7 77.9003 118.258 74.342 118.258 69.9692C118.258 65.5977 114.7 62.0381 110.327 62.0381Z" fill="white"/>
</svg>
