<svg width="150" height="150" viewBox="0 0 150 150" fill="none" xmlns="http://www.w3.org/2000/svg">
<path d="M124.156 65.5518L96.828 61.5007V34.8863H103.338L128.03 60.2368L124.156 65.5518ZM104.585 82.4743V84.5229V120.171H99.797V84.3328C99.797 83.0214 98.7327 81.957 97.4212 81.957C96.1084 81.957 95.0454 83.0214 95.0454 84.3328V93.6677H52.2186C54.4328 91.114 55.9791 88.3662 56.8358 85.4338C59.2116 77.2923 55.2922 70.8831 55.1238 70.6156C54.4328 69.5065 52.9775 69.1725 51.8656 69.8594C50.7537 70.545 50.4075 72.0072 51.089 73.1231C51.2112 73.3254 54.0608 78.1041 52.2511 84.1781C50.5297 89.9601 45.1957 95.0144 36.3984 99.1999C35.5717 99.5936 35.0436 100.427 35.0436 101.345V105.172V105.218V120.171H30.2553V67.5787V62.5691V61.1654C30.2553 60.0698 31.0142 59.1303 32.1057 58.6633C32.7709 58.3701 33.0587 58.347 35.5934 58.347H92.0764V63.5493C92.0764 64.7263 92.9384 65.7269 94.1033 65.8993L104.585 67.4538V82.4743ZM59.5455 102.701C59.5455 108.216 55.06 112.704 49.5441 112.704C44.8834 112.704 40.8202 109.442 39.7952 104.922V102.826C42.5267 101.447 44.9405 99.9669 47.0515 98.3948C47.1344 98.4043 58.7758 98.3948 58.7758 98.3948C59.35 99.4918 59.5455 100.678 59.5455 102.701ZM86.7328 37.0598C83.4529 37.0598 81.8129 35.637 81.8129 35.3017C81.8129 34.9664 83.4529 33.5436 86.7328 33.5436C90.0128 33.5436 91.6528 34.9664 91.6528 35.3017C91.6528 35.637 90.0128 37.0598 86.7328 37.0598ZM132.833 58.3578L106.041 30.8515C105.594 30.394 104.98 30.1347 104.34 30.1347H96.851V24.0295C96.851 23.9535 96.8443 23.8571 96.8375 23.7811C96.8348 23.7553 96.6094 21.1514 98.3105 19.2807C99.6558 17.8009 101.933 17.0501 105.075 17.0501C106.387 17.0501 107.451 15.9858 107.451 14.6743C107.451 13.3629 106.387 12.2985 105.075 12.2985C100.496 12.2985 97.018 13.5937 94.7359 16.1487C91.927 19.2929 92.0356 23.2503 92.0994 24.1246V29.8265C90.583 29.1694 88.7502 28.792 86.7328 28.792C81.2183 28.792 77.0613 31.59 77.0613 35.3017C77.0613 39.012 81.2183 41.8114 86.7328 41.8114C88.7394 41.8114 90.564 41.4367 92.0764 40.7851V53.5954H33.6208C32.6732 53.5954 31.7975 53.7624 30.6829 53.9049C27.0242 54.5525 24.1597 56.3214 21.6264 58.9362C14.2057 66.5958 14.67 79.8921 14.6918 80.4542C14.7447 81.7317 15.7982 82.7308 17.0635 82.7308C17.0988 82.7308 17.1314 82.7295 17.1653 82.7281C18.4754 82.6738 19.4936 81.5674 19.4393 80.2559C19.4352 80.1392 19.0225 68.453 25.038 62.2419C25.1887 62.0885 25.3489 61.9541 25.5037 61.8089V62.5691V67.5787V122.547C25.5037 123.858 26.5667 124.922 27.8795 124.922H37.4194C38.7322 124.922 39.7952 123.858 39.7952 122.547V113.744C42.4235 116.06 45.8541 117.456 49.5441 117.456C57.6788 117.456 64.2971 110.836 64.2971 102.701C64.2971 101.141 64.1912 99.7538 63.8369 98.4193H95.0454V122.547C95.0454 123.858 96.1084 124.922 97.4212 124.922H106.961C108.274 124.922 109.337 123.858 109.337 122.547V84.5229V82.4743V68.157L124.88 70.4622C124.997 70.4799 125.114 70.488 125.23 70.488C125.982 70.488 126.698 70.1323 127.149 69.5132L133.05 61.4152C133.733 60.4784 133.639 59.1873 132.833 58.3578Z" fill="white"/>
</svg>
