<svg width="150" height="150" viewBox="0 0 150 150" fill="none" xmlns="http://www.w3.org/2000/svg">
<path d="M85.8138 112.438C83.4 112.792 81.0337 112.973 78.7774 112.973C49.8551 112.973 43.2028 83.9054 42.9354 82.67C42.9204 82.6048 42.9055 82.5397 42.8851 82.4745C38.4037 67.8165 29.7734 65.628 25.0286 65.628C24.92 65.628 24.81 65.6294 24.7041 65.6307C28.6195 57.9169 34.4178 54.0124 41.9823 54.0124C46.2371 54.0124 50.1524 55.2492 52.6911 56.2864C57.0938 58.0852 60.834 58.9989 63.8071 58.9989C65.648 58.9989 66.6269 58.6364 66.8414 58.5332C87.8923 50.1704 95.3849 41.1546 104.498 26.7531C113.239 46.1682 108.912 64.1578 91.8484 78.9895C91.175 79.576 90.8858 80.4911 91.103 81.3572C91.3189 82.2247 92.0031 82.8967 92.8734 83.099C94.85 83.5538 96.9842 83.7859 99.2147 83.7859C110.652 83.7846 122.899 77.8193 129.933 73.7451C125.294 85.1381 112.64 108.5 85.8138 112.438ZM135.775 66.1507C134.954 65.5846 133.867 65.59 133.052 66.167C132.867 66.2973 114.311 79.3262 98.7586 79.0303C115.202 62.4431 118.107 41.927 106.843 20.7566C106.444 20.0072 105.674 19.5266 104.824 19.4995C103.938 19.4642 103.173 19.9 102.725 20.6222C92.743 36.7492 86.5306 45.5736 65.0914 54.1183C65.0873 54.1183 64.6896 54.2473 63.8071 54.2473C62.1889 54.2473 59.2564 53.8359 54.4886 51.8878C51.5575 50.6904 47.0082 49.2608 41.9823 49.2608C34.4626 49.2608 24.2955 52.4892 18.5529 67.8708C18.227 68.7464 18.451 69.7307 19.1163 70.3878C19.7815 71.0462 20.7807 71.2471 21.6482 70.9132C21.6631 70.9077 23.0547 70.3796 25.0286 70.3796C31.0238 70.3796 35.6179 75.0158 38.3182 83.79C38.8476 86.0233 46.9729 117.725 78.7774 117.725C81.2632 117.725 83.863 117.528 86.5035 117.139C125.198 111.459 136.614 69.1293 136.725 68.703C136.976 67.7364 136.595 66.7182 135.775 66.1507Z" fill="white"/>
<path d="M37.5367 59.986C37.2802 59.986 37.0724 60.1924 37.0724 60.4462C37.0724 60.7015 37.2802 60.9092 37.5367 60.9092C37.7893 60.9092 37.9983 60.7015 37.9983 60.4462C37.9983 60.1924 37.7893 59.986 37.5367 59.986Z" fill="white"/>
<path d="M37.5367 57.6104C35.9714 57.6104 34.6966 58.8825 34.6966 60.4464C34.6966 62.0117 35.9714 63.2852 37.5367 63.2852C39.1007 63.2852 40.3741 62.0117 40.3741 60.4464C40.3741 58.8825 39.1007 57.6104 37.5367 57.6104Z" fill="white"/>
<path d="M35.336 105.789C32.9778 105.789 31.0595 107.707 31.0595 110.065C31.0595 112.424 32.9778 114.343 35.336 114.343C37.6927 114.343 39.6097 112.424 39.6097 110.065C39.6097 107.707 37.6927 105.789 35.336 105.789Z" fill="white"/>
<path d="M127.048 49.6458C129.406 49.6458 131.325 47.7275 131.325 45.3693C131.325 43.0098 129.406 41.0915 127.048 41.0915C124.689 41.0915 122.769 43.0098 122.769 45.3693C122.769 47.7275 124.689 49.6458 127.048 49.6458Z" fill="white"/>
<path d="M60.2181 33.293C62.5763 33.293 64.4946 31.3747 64.4946 29.0165C64.4946 26.657 62.5763 24.7387 60.2181 24.7387C57.8613 24.7387 55.9444 26.657 55.9444 29.0165C55.9444 31.3747 57.8613 33.293 60.2181 33.293Z" fill="white"/>
</svg>
