<svg width="150" height="150" viewBox="0 0 150 150" fill="none" xmlns="http://www.w3.org/2000/svg">
<path d="M86.7456 116.726C75.3322 116.726 64.7389 110.881 58.6079 101.345C58.612 101.291 58.6269 101.24 58.6269 101.185V86.7756V86.0873V65.2468C62.0087 59.9861 66.7373 55.787 72.3944 53.0936C72.8274 52.8886 73.1872 52.5559 73.4275 52.1419C76.0789 47.5763 84.9277 33.5767 95.6216 29.7591C94.3726 35.3823 93.3652 40.9322 92.6158 46.311C92.4923 47.1975 92.8779 48.0772 93.6123 48.589C94.3468 49.0995 95.3066 49.1552 96.0927 48.7316C100.117 46.5703 103.828 45.3321 107.18 45.0294C105.983 47.359 104.83 49.7009 103.737 52.0251C103.227 53.1085 103.603 54.4023 104.614 55.0431C114.361 61.2215 120.178 71.7823 120.178 83.2934C120.178 101.728 105.18 116.726 86.7456 116.726ZM41.5035 90.1031C44.8853 88.9763 48.111 88.641 50.7176 88.641C51.9774 88.641 53.0431 88.7211 53.8753 88.812V98.174C46.5049 96.0426 42.8448 91.9535 41.5035 90.1031ZM37.5 74.3577C41.0718 70.1477 46.5728 67.814 53.8753 67.4067V84.0333C52.9834 83.9505 51.9163 83.8894 50.7176 83.8894C45.8153 83.8894 39.0341 84.8899 32.5922 89.2071C32.6574 85.1682 33.5154 79.0522 37.5 74.3577ZM124.929 83.2934C124.929 70.8523 118.98 59.3833 108.912 52.2098C110.258 49.4185 111.685 46.6137 113.167 43.8497C113.535 43.16 113.542 42.3346 113.185 41.6395C112.828 40.9457 112.152 40.4719 111.377 40.3715C107.3 39.842 102.81 40.5846 97.9865 42.5735C98.8092 37.5205 99.8573 32.3345 101.11 27.1064C101.292 26.3475 101.09 25.5465 100.569 24.9654C100.046 24.3844 99.2694 24.0979 98.497 24.1957C84.6264 25.9809 73.3461 42.9713 69.6873 49.128C63.5292 52.2057 58.3758 56.8636 54.6478 62.6511C45.5017 62.9579 38.4992 65.8346 33.8765 71.2827C25.9902 80.5768 28.0497 93.7116 28.1407 94.2669C28.2832 95.1262 28.8846 95.8403 29.7073 96.1254C29.9612 96.2137 30.2246 96.2558 30.4852 96.2558C31.069 96.2558 31.6446 96.0399 32.0886 95.6326C33.7055 94.1528 35.3875 92.9758 37.0791 92.0377C38.4082 94.1162 43.3051 100.525 54.1428 103.137C60.2683 113.181 70.6512 119.806 82.2139 121.192C82.0836 121.484 82.0089 121.807 82.0089 122.149V130.437C82.0089 131.749 83.0733 132.813 84.3847 132.813C85.6975 132.813 86.7605 131.749 86.7605 130.437V122.149C86.7605 121.913 86.7157 121.689 86.6519 121.475C86.6831 121.475 86.7144 121.477 86.7456 121.477C88.3435 121.477 89.9156 121.367 91.4619 121.176C91.3275 121.473 91.2487 121.8 91.2487 122.149V130.437C91.2487 131.749 92.3131 132.813 93.6245 132.813C94.936 132.813 96.0003 131.749 96.0003 130.437V122.149C96.0003 121.506 95.741 120.922 95.3243 120.493C112.26 116.589 124.929 101.398 124.929 83.2934Z" fill="white"/>
<path d="M95.4956 84.1027C94.567 85.0313 94.567 86.5356 95.4956 87.4628C101.479 93.4457 101.041 99.0418 100.545 101.259C98.3303 101.756 92.7329 102.195 86.7486 96.2098C85.82 95.2826 84.3158 95.2826 83.3886 96.2098C82.46 97.1384 82.46 98.6426 83.3886 99.5699C88.8339 105.015 94.2154 106.271 98.0221 106.271C101.134 106.271 103.196 105.431 103.379 105.353C103.486 105.308 103.583 105.249 103.679 105.189C103.708 105.173 103.739 105.16 103.766 105.141C103.937 105.029 104.085 104.893 104.217 104.746C104.252 104.706 104.283 104.664 104.316 104.62C104.426 104.478 104.521 104.327 104.596 104.164C104.608 104.138 104.63 104.119 104.64 104.092C104.813 103.685 108.753 93.9996 98.8557 84.1027C97.9271 83.1741 96.4229 83.1741 95.4956 84.1027Z" fill="white"/>
<path d="M77.8416 66.6227C71.9496 63.6808 67.4994 66.6431 67.3134 66.7707C66.23 67.5106 65.9517 68.989 66.693 70.0724C67.4329 71.1544 68.9113 71.434 69.9946 70.6942C70.0177 70.6779 72.3528 69.194 75.721 70.8747C76.0618 71.0444 76.4229 71.1245 76.7786 71.1245C77.6515 71.1245 78.4905 70.6426 78.9073 69.809C79.4924 68.6347 79.0159 67.2092 77.8416 66.6227Z" fill="white"/>
</svg>
