<svg width="150" height="150" viewBox="0 0 150 150" fill="none" xmlns="http://www.w3.org/2000/svg">
<path d="M37.0995 75.1995C35.9673 75.0338 34.8798 75.6855 34.5024 76.7607C33.5412 79.4908 29.7739 82.5251 24.0828 85.1846L28.2982 73.6789C28.5466 72.9988 28.4706 72.2412 28.0945 71.6222L16.9025 53.2986C22.1062 56.3464 29.0082 61.5013 33.3742 69.1405C33.529 69.4106 33.7014 69.6577 33.8738 69.8967C33.939 69.9863 34.0055 70.0745 34.0612 70.1668C34.6178 71.0859 35.7215 71.519 36.7533 71.219C40.9646 70.0039 45.5655 68.5282 50.4298 66.8339C53.3011 65.8334 79.2041 57.1501 104.513 60.3935C115.929 61.8542 126.172 65.1831 132.559 69.4446C119.442 84.4922 89.6835 83.1713 37.0995 75.1995ZM81.9709 94.1163L88.0421 85.5946C92.2955 85.7521 96.2923 85.767 100.028 85.6258C97.1978 89.5439 89.1105 92.4953 81.9709 94.1163ZM72.9171 45.5847L85.7057 55.1463C81.0776 55.426 76.641 55.9555 72.5437 56.6071L72.9171 45.5847ZM137.444 67.1353C130.564 61.6031 118.781 57.4285 105.117 55.6799C101.06 55.1613 96.9941 54.9359 93.0041 54.9278C92.8467 54.6467 92.6308 54.3915 92.3566 54.1851L72.1188 39.0547C71.4074 38.5239 70.4639 38.4329 69.667 38.8157C68.8701 39.1986 68.3501 39.9928 68.3216 40.8779L67.7609 57.4461C57.6088 59.3902 50.3347 61.8352 48.8672 62.347C44.7319 63.7875 40.7935 65.0663 37.1334 66.1565C28.4176 51.5392 12.1305 45.6051 11.4327 45.3567C10.4851 45.0173 9.42616 45.3146 8.79081 46.0966C8.15681 46.8772 8.0835 47.9728 8.60753 48.8321L23.442 73.121L19.2063 84.6809C18.5425 86.2395 18.8751 88.0125 20.0684 89.2262C20.8707 90.0435 21.931 90.4738 23.0185 90.4738C23.5778 90.4738 24.1426 90.3598 24.6829 90.1236C29.52 88.0193 35.4921 84.666 38.1313 80.1615C55.1474 82.7165 69.8272 84.5465 82.404 85.3176L74.6969 96.135C74.1471 96.9061 74.1091 97.9325 74.6005 98.743C75.0336 99.4611 75.8088 99.8901 76.6315 99.8901C76.7387 99.8901 76.8473 99.882 76.9559 99.8671C79.5748 99.5073 102.215 96.0834 105.441 85.2878C120.797 83.9519 131.337 79.4284 137.88 70.3773C138.621 69.3523 138.429 67.9268 137.444 67.1353Z" fill="white"/>
<path d="M93.2239 65.7135H93.2117C91.9043 65.7135 90.8426 66.7697 90.8359 68.0784L90.8128 73.2387C90.806 74.5515 91.8649 75.6199 93.1764 75.6267H93.1886C94.4959 75.6267 95.5576 74.5691 95.5644 73.2618L95.5875 68.1015C95.5942 66.7887 94.5353 65.7203 93.2239 65.7135Z" fill="white"/>
<path d="M100.585 65.9628C99.2732 65.9628 98.2088 67.0271 98.2088 68.3386V73.3549C98.2088 74.6664 99.2732 75.7307 100.585 75.7307C101.897 75.7307 102.96 74.6664 102.96 73.3549V68.3386C102.96 67.0271 101.897 65.9628 100.585 65.9628Z" fill="white"/>
<path d="M107.957 75.9805C109.269 75.9805 110.333 74.9161 110.333 73.6047V68.5883C110.333 67.2769 109.269 66.2125 107.957 66.2125C106.645 66.2125 105.582 67.2769 105.582 68.5883V73.6047C105.582 74.9161 106.645 75.9805 107.957 75.9805Z" fill="white"/>
</svg>
