<svg width="150" height="150" viewBox="0 0 150 150" fill="none" xmlns="http://www.w3.org/2000/svg">
<path d="M117.899 67.6896C117.083 72.9802 115.005 78.1255 111.886 82.5703C105.591 91.5386 95.432 97.2581 84.0146 98.2614C72.4383 99.2742 61.2802 95.3494 53.3898 87.4861C46.1972 80.3194 42.5032 70.3573 42.7041 58.6778L42.9729 43.1659H50.2022C51.515 43.1659 52.578 42.1002 52.578 40.7901V29.7297C52.578 28.4169 51.515 27.3539 50.2022 27.3539C48.0558 27.3539 46.0696 27.5331 44.2301 27.8413C46.3221 23.6422 50.3311 21.4239 53.8215 20.7356C59.1596 19.6848 64.3307 21.7063 67.3174 26.0167C70.4426 30.528 70.1508 37.6948 69.8955 44.0171C69.8236 45.7589 69.7571 47.4057 69.7571 48.9805L69.7557 49.4611C69.7285 56.9469 69.7285 56.9469 70.4793 57.7004C70.9246 58.147 71.5328 58.3995 72.1627 58.3995H118.332C118.635 60.1997 118.392 64.4911 117.899 67.6896ZM78.6792 123.794V103.128C79.2589 103.151 79.84 103.17 80.4224 103.17C81.5627 103.17 82.7113 103.119 83.8625 103.031V123.794H78.6792ZM47.8264 32.1911V38.4143H41.4131C41.1823 38.3328 40.9393 38.2772 40.6827 38.2731C40.3759 38.2568 40.0813 38.3098 39.8057 38.4143H32.5086C35.3636 35.8457 40.3025 32.7422 47.8264 32.1911ZM121.854 54.7965C121.218 54.0552 120.349 53.6479 119.407 53.6479H74.5005C74.4992 52.7085 74.5005 51.3726 74.5073 49.4774L74.5087 48.9805C74.5087 47.5007 74.5738 45.9028 74.6431 44.2112C74.9295 37.1422 75.2553 29.131 71.2233 23.3123C67.1423 17.4217 60.1194 14.6495 52.9011 16.0736C45.7913 17.4774 40.3935 22.5222 38.6612 29.3048C29.4499 32.6621 25.4965 39.2207 25.2807 39.5927C24.853 40.3271 24.849 41.2354 25.2725 41.9726C25.6975 42.7111 26.4822 43.1659 27.3334 43.1659H38.2213L37.9539 58.5964C37.7285 71.5968 41.9072 82.7508 50.0365 90.853C56.4865 97.2812 64.8602 101.373 73.9276 102.698V123.794H69.3688C68.056 123.794 66.993 124.858 66.993 126.17C66.993 127.482 68.056 128.545 69.3688 128.545H93.1729C94.4857 128.545 95.5488 127.482 95.5488 126.17C95.5488 124.858 94.4857 123.794 93.1729 123.794H88.6141V102.42C99.7125 100.39 109.456 94.304 115.776 85.299C119.312 80.261 121.669 74.4219 122.595 68.4132C123.096 65.1631 124.027 57.3297 121.854 54.7965Z" fill="white"/>
<path d="M60.0829 26.2281H57.7152C56.4038 26.2281 55.3394 27.2925 55.3394 28.6039C55.3394 29.9167 56.4038 30.9797 57.7152 30.9797H60.0829C61.3957 30.9797 62.4587 29.9167 62.4587 28.6039C62.4587 27.2925 61.3957 26.2281 60.0829 26.2281Z" fill="white"/>
<path d="M101.75 65.2176H75.5071C74.1956 65.2176 73.1313 66.2819 73.1313 67.5934C73.1313 68.9048 74.1956 69.9692 75.5071 69.9692H99.0832C98.1057 75.1566 93.8659 86.7735 75.5071 86.7735C74.1956 86.7735 73.1313 87.8379 73.1313 89.1493C73.1313 90.4608 74.1956 91.5251 75.5071 91.5251C103.387 91.5251 104.121 67.8744 104.125 67.6354C104.136 66.9974 103.89 66.3837 103.444 65.9289C102.997 65.4741 102.388 65.2176 101.75 65.2176Z" fill="white"/>
</svg>
