<svg width="150" height="150" viewBox="0 0 150 150" fill="none" xmlns="http://www.w3.org/2000/svg">
<path d="M81.8097 108.339H78.7565V96.5331V78.6616C78.7565 75.1047 83.5298 70.8446 85.9599 69.0444C90.4997 70.7359 93.7484 75.102 93.7484 80.2242V85.4415C93.7484 93.2056 87.3039 108.339 81.8097 108.339ZM59.0142 85.4415V80.2242C59.0142 75.102 62.263 70.7359 66.8014 69.0444C69.2315 70.8446 74.0048 75.1047 74.0048 78.6616V96.5331V108.339H70.953C65.4588 108.339 59.0142 93.2056 59.0142 85.4415ZM80.277 50.6489C84.6322 50.6489 88.1741 54.1922 88.1741 58.5474V62.3147C88.1741 62.4722 87.9827 62.6202 87.7804 62.6202L64.9809 62.6284C64.78 62.6284 64.5872 62.479 64.5858 62.2917V58.5474C64.5858 54.1922 68.1305 50.6489 72.4857 50.6489H80.277ZM79.5167 68.2841C78.4293 69.3485 77.3215 70.6043 76.3806 71.9836C75.4398 70.6043 74.332 69.3485 73.2446 68.2841H79.5167ZM123.997 44.6768C123.76 43.3871 122.52 42.5386 121.23 42.7734C109.537 44.9388 106.468 56.4038 106.342 56.8925C106.331 56.9359 106.321 56.9794 106.312 57.0242L103.531 71.1853L97.585 74.8196C96.3713 71.2871 94.0118 68.2868 90.9423 66.2708C92.137 65.3422 92.9217 63.9167 92.9257 62.2917V58.5474C92.9257 55.2674 91.6618 52.2862 89.6078 50.0353C94.2358 47.2359 105.754 39.059 103.815 27.9688C102.574 20.8631 99.9282 16.0111 95.9518 13.5443C91.7514 10.9391 87.6664 12.0998 87.494 12.1514C86.2477 12.5193 85.5445 13.8172 85.8961 15.0675C86.2463 16.3206 87.5551 17.0483 88.8108 16.717C88.9072 16.6926 91.1554 16.1156 93.5271 17.6334C94.0118 17.9429 94.4639 18.3461 94.8983 18.7914C91.6347 18.8905 88.8407 20.7029 88.4416 20.9744C87.3555 21.7089 87.0718 23.186 87.8089 24.2721C88.5448 25.3581 90.0232 25.6419 91.1079 24.9061C91.7582 24.4662 94.5644 22.9823 96.4311 23.7738C97.8294 24.3657 98.5693 26.2256 98.963 27.9444C99.02 28.2268 99.0838 28.4942 99.1354 28.7861C99.5033 30.8917 99.1273 32.901 98.31 34.7649L97.6896 34.0536C96.8261 33.0666 95.326 32.9648 94.3376 33.8282C93.3493 34.6916 93.2488 36.1918 94.1109 37.1801L95.6436 38.9355C94.1951 40.6556 92.4994 42.153 90.9178 43.3749L90.0965 41.424C89.5874 40.2144 88.1972 39.6428 86.9862 40.1533C85.7766 40.6624 85.2091 42.0566 85.7169 43.2649L86.9116 46.1036C86.1269 46.5747 85.6273 46.8354 85.6001 46.8503C85.5241 46.8883 85.4589 46.9399 85.3897 46.9874C83.8244 46.291 82.0975 45.8973 80.277 45.8973H72.4857C70.7452 45.8973 69.0849 46.2516 67.5753 46.8897C67.5522 46.8775 67.5332 46.8612 67.5114 46.849C67.4843 46.834 66.9847 46.5747 66.2014 46.1064L67.3961 43.2649C67.9052 42.0566 67.3363 40.6624 66.1267 40.1533C64.9171 39.6428 63.5255 40.2144 63.0164 41.424L62.1924 43.3816C60.608 42.1639 58.911 40.6651 57.4611 38.945L59.002 37.1801C59.8654 36.1904 59.7636 34.6903 58.7753 33.8269C57.7897 32.9648 56.2868 33.0652 55.422 34.0549L54.7975 34.7717C53.983 32.9064 53.6096 30.8971 53.9775 28.7861C54.0291 28.4942 54.0929 28.2281 54.1499 27.9457C54.5423 26.2324 55.2795 24.3752 56.6724 23.7779C58.4725 23.0054 61.1986 24.3698 62.0118 24.9115C63.0979 25.6405 64.5695 25.3568 65.3053 24.2721C66.0412 23.186 65.7588 21.7089 64.6713 20.9744C64.2722 20.7029 61.4796 18.8905 58.216 18.7914C58.6504 18.3448 59.1011 17.9429 59.5871 17.6334C61.9317 16.1332 64.1582 16.679 64.298 16.7156C65.5456 17.0686 66.8544 16.3532 67.225 15.1028C67.5956 13.8457 66.8774 12.5234 65.619 12.1514C65.4465 12.0998 61.3629 10.9377 57.1625 13.5443C53.1847 16.0111 50.5401 20.8631 49.2979 27.9688C47.3904 38.8826 58.5133 46.9752 63.2798 49.8981C61.1511 52.1626 59.8342 55.2009 59.8342 58.5474V62.3378C59.841 63.9384 60.623 65.3503 61.8122 66.2749C58.7468 68.2909 56.39 71.2898 55.1776 74.821L49.2314 71.1853L46.4496 57.0242C46.4415 56.9794 46.432 56.9359 46.4211 56.8925C46.2949 56.4038 43.2253 44.9388 31.5337 42.7734C30.2412 42.5331 29.0031 43.3871 28.7655 44.6768C28.5266 45.9679 29.3778 47.2074 30.6689 47.4449C39.0846 49.0035 41.5799 57.2183 41.8039 58.022L44.7703 73.1253C44.8979 73.7783 45.2943 74.3472 45.8618 74.6947L53.2607 79.2169C53.5852 79.4151 53.9409 79.5088 54.2966 79.5386C54.2871 79.7681 54.2626 79.9921 54.2626 80.2242V85.4415C54.2626 85.9085 54.2871 86.4176 54.3319 86.9566C49.2286 94.3365 41.3559 96.4367 41.2812 96.4557C40.4857 96.6553 39.849 97.2512 39.5978 98.0319L36.3246 108.198C35.9228 109.447 36.6097 110.785 37.8587 111.188C38.1004 111.264 38.3447 111.302 38.5878 111.302C39.5897 111.302 40.5237 110.66 40.8482 109.654L43.7426 100.662C46.0654 99.8524 51.0505 97.7088 55.4505 93.0943C55.8985 94.8008 56.4714 96.5887 57.1516 98.3631C54.8912 106.931 48.3489 111.575 48.2892 111.617C47.6117 112.083 47.2221 112.864 47.2601 113.684L47.7353 124.352C47.7923 125.626 48.8444 126.622 50.107 126.622C50.1437 126.622 50.179 126.622 50.2156 126.619C51.5257 126.56 52.5412 125.451 52.4814 124.14L52.0606 114.702C53.8581 113.215 57.4761 109.762 59.9903 104.413C62.8128 109.322 66.5584 113.09 70.953 113.09H81.8097C86.2029 113.09 89.9485 109.322 92.771 104.413C95.2852 109.762 98.9046 113.215 100.701 114.702L100.278 124.14C100.22 125.451 101.236 126.56 102.547 126.619C102.584 126.622 102.619 126.622 102.654 126.622C103.917 126.622 104.969 125.626 105.026 124.352L105.503 113.684C105.539 112.864 105.15 112.083 104.472 111.617C104.406 111.573 97.8878 107.002 95.6097 98.3645C96.2912 96.5901 96.8641 94.8021 97.3121 93.0943C101.711 97.7088 106.696 99.8524 109.019 100.662L111.916 109.654C112.239 110.662 113.172 111.302 114.176 111.302C114.417 111.302 114.662 111.264 114.905 111.187C116.154 110.785 116.84 109.447 116.438 108.198L113.165 98.0319C112.915 97.2553 112.277 96.6607 111.485 96.457C111.407 96.4367 103.534 94.3365 98.4308 86.9579C98.4756 86.4176 98.5 85.9085 98.5 85.4415V80.2242C98.5 79.9921 98.4742 79.7681 98.4647 79.5386C98.8218 79.5088 99.1761 79.4151 99.502 79.2169L106.901 74.6947C107.468 74.3472 107.865 73.7783 107.994 73.1253L110.959 58.022C111.195 57.1776 113.698 49.0008 122.094 47.4449C123.385 47.2074 124.236 45.9679 123.997 44.6768Z" fill="white"/>
</svg>
