<svg width="150" height="151" viewBox="0 0 150 151" fill="none" xmlns="http://www.w3.org/2000/svg">
<path d="M64.092 98.616L84.6786 78.0294L114.31 107.66C103.228 116.344 82.8065 112.734 64.092 98.616ZM48.4388 96.4642C45.3829 93.4083 45.3829 88.4354 48.4388 85.3781L87.9844 45.8325C89.4642 44.3527 91.4327 43.5382 93.5275 43.5382C95.6209 43.5382 97.5894 44.3527 99.0692 45.8325C102.125 48.8885 102.125 53.8627 99.0706 56.9187L59.5237 96.4642C56.4663 99.5202 51.4948 99.5189 48.4388 96.4642ZM37.35 30.6993L66.8737 60.2245L46.3006 80.7975C32.2562 62.1129 28.6803 41.7624 37.35 30.6993ZM102.121 72.9058L95.9617 66.745L99.5892 63.1175C102.325 66.6038 102.508 70.3006 102.121 72.9058ZM119.496 106.126L88.0387 74.6693L92.6016 70.1051L101.594 79.0978C102.042 79.5472 102.648 79.7943 103.274 79.7943C103.404 79.7943 103.536 79.7834 103.666 79.7603C104.424 79.6354 105.074 79.1494 105.411 78.4584C107.161 74.8689 108.707 66.5997 102.942 59.7126C104.987 57.4074 106.117 54.4818 106.117 51.3756C106.117 48.0142 104.806 44.851 102.428 42.4738C100.051 40.0967 96.8889 38.7866 93.5275 38.7866C90.1647 38.7866 87.0015 40.0967 84.6243 42.4738L70.2324 56.8644L39.5018 26.1324C39.3497 25.9803 39.1773 25.8622 39.0008 25.7604C38.9546 25.7088 38.9193 25.6518 38.8705 25.6029C37.9419 24.6743 36.439 24.6743 35.5104 25.6029C23.0924 38.0223 26.3466 62.6613 43.1591 84.5065C42.0147 86.4302 41.3902 88.6255 41.3902 90.9212C41.3902 94.2853 42.7003 97.4472 45.0788 99.8243C47.5333 102.277 50.7576 103.506 53.9806 103.506C56.1989 103.506 58.4091 102.91 60.3776 101.751C73.3535 111.773 87.33 117.017 99.152 117.017C107.057 117.017 113.984 114.657 119.015 109.849C119.186 109.747 119.349 109.633 119.496 109.486C120.423 108.559 120.423 107.055 119.496 106.126Z" fill="white"/>
<path d="M57.7361 107.678C53.5832 111.827 45.6141 110.613 39.9692 104.969C37.1562 102.156 35.3615 98.6946 34.9162 95.2232C34.5008 91.9799 35.333 89.1303 37.2608 87.2025C38.1894 86.2739 38.1894 84.7697 37.2608 83.8424C36.3322 82.9152 34.8293 82.9152 33.9007 83.8424C30.9086 86.8332 29.5971 91.0906 30.204 95.8273C30.7823 100.336 33.0563 104.775 36.6105 108.328C40.1633 111.882 44.6027 114.156 49.1126 114.735C49.8674 114.832 50.6128 114.88 51.3404 114.88C55.1743 114.88 58.5819 113.551 61.0962 111.038C62.0234 110.109 62.0234 108.605 61.0962 107.678C60.1676 106.749 58.6647 106.749 57.7361 107.678Z" fill="white"/>
<path d="M93.1572 54.6389C94.8772 54.6389 96.2742 53.2406 96.2742 51.5219C96.2742 49.8031 94.8772 48.4048 93.1572 48.4048C91.4384 48.4048 90.0401 49.8031 90.0401 51.5219C90.0401 53.2406 91.4384 54.6389 93.1572 54.6389Z" fill="white"/>
</svg>
