<svg width="150" height="150" viewBox="0 0 150 150" fill="none" xmlns="http://www.w3.org/2000/svg">
<path d="M87.4266 76.2233C85.2667 63.7211 89.6056 45.9664 92.0913 41.4958C93.5888 38.8023 93.362 35.5292 91.4533 32.2831C89.239 28.5199 85.2748 25.5277 81.1341 24.2434V20.9187C81.1341 19.6072 80.0698 18.5429 78.7583 18.5429H76.3907C75.0792 18.5429 74.0149 19.6072 74.0149 20.9187V23.7058C67.0925 24.4186 64.2374 27.7162 61.6933 30.669C60.4674 32.0917 59.3093 33.4344 57.687 34.5897C55.9982 35.7939 54.3174 36.7754 52.8363 37.6416C51.1515 38.6259 49.5618 39.5545 48.2666 40.6229C47.7195 41.0736 47.4032 41.7456 47.4032 42.4556L47.3937 47.7231C47.3937 49.0359 48.4567 50.0989 49.7695 50.0989C54.4437 50.0989 60.3072 50.0406 64.6678 49.993C59.7411 55.2619 57.1589 61.5584 57.2906 68.2039C57.4671 77.2252 62.6097 85.6016 71.768 91.7936C72.8555 92.5308 74.3326 92.2443 75.067 91.1569C75.8015 90.0694 75.5164 88.5924 74.4289 87.8579C71.468 85.8568 68.9999 83.61 67.064 81.1907H73.3401C74.6529 81.1907 75.7159 80.1264 75.7159 78.8149C75.7159 77.5035 74.6529 76.4391 73.3401 76.4391H64.0637C63.4079 75.0639 62.9016 73.656 62.5622 72.2197H73.3401C74.6529 72.2197 75.7159 71.1553 75.7159 69.8439C75.7159 68.5311 74.6529 67.4681 73.3401 67.4681H62.0503C62.0693 66.0385 62.2445 64.6293 62.5757 63.2459H73.3401C74.6529 63.2459 75.7159 62.1829 75.7159 60.8701C75.7159 59.5601 74.6529 58.4957 73.3401 58.4957H64.38C66.134 55.1628 68.8397 52.0919 72.4143 49.4649C73.2438 48.8567 73.5859 47.7856 73.2655 46.8095C72.9464 45.8334 72.0355 45.1736 71.0078 45.1736C70.5028 45.1736 69.0474 45.1912 67.0354 45.2143C63.2654 45.2564 57.3028 45.3256 52.1494 45.3433L52.1521 43.6408C53.0223 43.0353 54.069 42.4244 55.2325 41.7443C56.8005 40.8265 58.5803 39.788 60.4429 38.4616C62.5336 36.9723 63.9998 35.2712 65.2923 33.7697C68.0224 30.6024 69.995 28.3122 76.8753 28.3122C80.6481 28.3122 85.2517 31.1143 87.3574 34.6929C87.9493 35.6975 88.8114 37.6185 87.9384 39.1879C84.8648 44.7161 80.4499 63.755 82.7442 77.0324C83.2506 79.9607 83.8045 82.5863 84.2933 84.9024C85.9034 92.5335 87.0655 98.0467 85.3766 107.604C84.3992 113.135 81.0174 118.077 76.5536 120.499C72.9749 122.44 69.004 122.58 65.0642 120.906C60.542 118.985 58.8627 114.208 59.217 110.58C59.3962 108.745 60.3995 104.355 65.8421 103.21C68.8017 102.587 71.2915 103.316 72.6681 105.212C73.6782 106.604 73.875 108.381 73.1528 109.632C72.3505 111.029 70.4756 111.65 67.8731 111.386C66.563 111.256 65.4009 112.205 65.2678 113.51C65.1348 114.814 66.0838 115.981 67.3898 116.114C71.9038 116.574 75.5042 115.075 77.2718 112.003C78.9362 109.11 78.6389 105.348 76.5129 102.42C74.023 98.9916 69.6678 97.5498 64.8633 98.5599C59.0392 99.7844 55.0628 104.214 54.4871 110.118C53.8545 116.596 57.4413 122.83 63.2057 125.28C65.6453 126.316 68.1025 126.833 70.519 126.833C73.3714 126.833 76.1694 126.112 78.8194 124.675C84.5254 121.579 88.8317 115.356 90.0549 108.432C91.9053 97.9679 90.598 91.7691 88.9417 83.9222C88.4394 81.5342 87.9181 79.0661 87.4266 76.2233Z" fill="white"/>
<path d="M100.512 43.1191C99.3404 42.5272 97.9123 42.9969 97.319 44.1658C96.8207 45.1528 85.2282 68.5999 96.761 92.2276C97.1724 93.0707 98.0181 93.5621 98.8979 93.5621C99.2468 93.5621 99.6025 93.4848 99.9378 93.3205C101.118 92.7449 101.608 91.3221 101.032 90.1437C90.5554 68.6814 101.449 46.5308 101.56 46.3095C102.152 45.1392 101.682 43.711 100.512 43.1191Z" fill="white"/>
<path d="M69.8879 36.6255C69.8879 37.937 70.9522 39.0013 72.2637 39.0013H72.3031C73.6145 39.0013 74.6598 37.937 74.6598 36.6255C74.6598 35.3141 73.5765 34.2497 72.2637 34.2497C70.9522 34.2497 69.8879 35.3141 69.8879 36.6255Z" fill="white"/>
</svg>
