<svg width="150" height="151" viewBox="0 0 150 151" fill="none" xmlns="http://www.w3.org/2000/svg">
<path d="M135.195 52.4078C135.161 52.4241 135.127 52.439 135.094 52.4553C134.827 52.5829 134.546 52.7201 134.253 52.8898C130.881 54.842 128.062 57.5694 126.103 60.7788C124.165 63.9528 122.862 67.7528 122.119 72.3958C121.341 77.2668 120.769 82.4162 121.849 87.0931C123.238 93.1195 126.995 98.402 130.68 102.373C122.87 103.565 112.445 102.697 109.11 93.9246C109.098 93.8947 109.081 93.8676 109.067 93.8377C110.507 91.3031 112.005 88.3462 113.638 84.8843C114.197 83.6978 113.688 82.2818 112.502 81.7238C111.319 81.1618 109.901 81.6709 109.34 82.8574C99.3343 104.071 96.2756 104.06 76.266 103.982C76.0433 103.98 75.8179 103.98 75.5912 103.979C76.9678 101.201 80.0428 96.1646 86.1873 88.5281C87.01 87.5072 86.8484 86.0111 85.8262 85.1884C84.8053 84.3657 83.3078 84.5273 82.4865 85.5496C78.2861 90.7695 75.3183 95.0025 73.3159 98.3137C70.5043 97.9512 66.3202 95.8483 61.8957 93.6123C53.2397 89.2354 43.4269 84.2748 35.3397 87.5412C31.0551 89.2721 27.8335 93.1616 25.7673 99.0998C25.603 99.5722 25.5989 100.061 25.7225 100.51C25.827 101.515 26.5574 102.382 27.5973 102.596C36.9892 104.518 36.8059 112.475 36.7557 113.361C36.7516 113.416 36.7503 113.471 36.7503 113.526V118.346L25.4713 111.873C25.1116 111.666 24.7029 111.557 24.2888 111.557H23.8422C23.4268 111.557 23.0181 111.666 22.6597 111.873L11.3808 118.346V113.526C11.3808 113.436 11.3754 113.346 11.3658 113.26C11.2708 112.236 10.8323 104.054 20.9016 102.529C22.1683 102.336 23.0426 101.176 22.8987 99.913C22.9516 99.7066 22.9883 99.4962 22.9842 99.2735C22.7032 85.6256 30.379 72.3238 42.5391 65.3878C48.0265 62.2572 54.6421 60.2724 62.2039 59.4877C65.4554 59.1524 68.848 59.1293 72.1307 59.1103C76.8809 59.0791 81.7927 59.0478 86.6502 58.0948C93.3405 56.782 98.179 52.8531 101.648 49.5759C102.974 48.3228 104.285 46.9217 105.553 45.5641C109.691 41.1411 113.969 36.5673 119.567 36.1275C125.62 35.6455 131.778 39.7292 134.208 45.8221C134.788 47.2788 135.13 48.7952 135.224 50.332C135.265 51.0163 135.255 51.7114 135.195 52.4078ZM139.966 50.0456C139.842 48.0024 139.39 45.9891 138.621 44.0626C135.441 36.0867 127.281 30.7527 119.196 31.3908C111.759 31.9746 106.618 37.4701 102.082 42.3181C100.807 43.6825 99.6031 44.9695 98.3853 46.1221C93.8645 50.3945 90.0809 52.5802 85.7352 53.4314C81.3176 54.2989 76.8402 54.3275 72.1008 54.3587C68.7041 54.379 65.1934 54.4008 61.7138 54.7619C53.4908 55.6145 46.2494 57.8016 40.185 61.2607C26.6674 68.9719 18.3561 83.0543 18.2489 98.216C8.40628 100.626 6.26941 108.857 6.62646 113.595C6.62782 113.607 6.62782 113.618 6.62918 113.63V122.449C6.62918 123.298 7.08125 124.081 7.81436 124.506C8.54746 124.929 9.45298 124.931 10.1874 124.51L24.0662 116.545L37.9436 124.51C38.3101 124.72 38.7188 124.825 39.1261 124.825C39.5374 124.825 39.9488 124.719 40.3167 124.506C41.0498 124.081 41.5019 123.298 41.5019 122.449V113.603C41.753 109.477 39.7791 101.632 31.0606 98.6395C32.5946 95.179 34.5863 92.9716 37.1195 91.9479C43.2111 89.488 51.9988 93.9327 59.7521 97.8535C63.9376 99.9686 67.6968 101.868 70.9605 102.697C70.2165 104.35 69.8852 105.563 69.8852 106.347C69.8852 107.659 70.9482 108.722 72.261 108.722C73.6553 108.722 74.983 108.728 76.2469 108.733C76.9746 108.736 77.6833 108.737 78.3757 108.737C92.9251 108.737 99.4524 107.916 106.098 98.5445C109.996 104.955 117.397 107.579 125.313 107.579C128.897 107.578 132.587 107.04 136.104 106.074C136.938 105.844 137.583 105.178 137.784 104.336C137.987 103.493 137.712 102.608 137.072 102.024L136.871 101.843C132.959 98.2187 127.98 92.5317 126.478 86.0261C125.584 82.142 126.109 77.5397 126.811 73.1452C127.454 69.1253 128.549 65.8915 130.159 63.255C131.706 60.7204 133.945 58.5577 136.633 57.0033C136.814 56.9001 136.989 56.8173 137.153 56.7372C138.021 56.3204 139.637 55.5439 139.889 53.2373C140.004 52.1784 140.03 51.1031 139.966 50.0456Z" fill="white"/>
<path d="M120.011 44.9732C119.48 45.5216 119.165 46.267 119.165 47.0313C119.165 47.7943 119.48 48.5382 120.011 49.0867C120.558 49.6175 121.304 49.9338 122.067 49.9338C122.83 49.9338 123.577 49.6175 124.124 49.0867C124.654 48.5382 124.97 47.7943 124.97 47.0313C124.97 46.267 124.654 45.5216 124.124 44.9732C123.046 43.8952 121.106 43.8952 120.011 44.9732Z" fill="white"/>
</svg>
