<svg width="150" height="150" viewBox="0 0 150 150" fill="none" xmlns="http://www.w3.org/2000/svg">
<path d="M83.1456 53.2282C84.3892 52.8128 85.0612 51.4701 84.6485 50.2266C84.2344 48.9803 82.889 48.3083 81.6441 48.721C80.6476 49.0522 57.2154 57.096 55.6732 79.9254C55.585 81.2342 56.5746 82.3677 57.8834 82.456C57.939 82.4587 57.992 82.4614 58.0463 82.4614C59.2858 82.4614 60.3298 81.5002 60.4139 80.2458C61.739 60.6326 82.9311 53.3015 83.1456 53.2282Z" fill="white"/>
<path d="M98.0958 63.6741C96.8536 63.256 95.5068 63.9307 95.0901 65.1729C95.0181 65.3888 87.6871 86.5809 68.0752 87.9059C66.7651 87.9928 65.7754 89.1264 65.8636 90.4351C65.9492 91.6909 66.9932 92.6521 68.2326 92.6521C68.2856 92.6521 68.3399 92.6494 68.3942 92.6467C91.2236 91.1044 99.2674 67.6722 99.5987 66.6758C100.013 65.4322 99.3394 64.0895 98.0958 63.6741Z" fill="white"/>
<path d="M107.988 51.0421C106.793 48.8102 105.275 46.7412 103.427 44.8935C101.61 43.0757 99.531 41.5647 97.272 40.351C99.8338 33.2983 106.171 25.2368 112.487 23.8059C115.682 23.0837 118.599 24.0978 121.41 26.9094C124.222 29.721 125.237 32.6398 124.514 35.8329C123.085 42.1417 115.036 48.4749 107.988 51.0421ZM110.995 70.6336C111.027 70.6228 114.143 69.5924 117.192 71.2256C119.841 72.6456 121.796 75.6635 122.999 80.1966C125.778 90.6569 122.572 105.888 120.226 108.957C120.028 108.651 119.762 108.154 119.459 107.376C111.923 88.0788 108.756 81.4537 107.944 79.8422C109.314 76.8487 110.276 73.7615 110.811 70.6757C110.872 70.6594 110.934 70.6526 110.995 70.6336ZM96.2443 88.4291C89.6653 95.0066 81.0704 98.7794 72.6655 98.7794C69.1805 98.7794 65.8992 98.1346 62.9111 96.8611C62.0558 96.4973 61.0376 96.3276 59.7058 96.3276C58.6944 96.3276 57.611 96.4253 56.563 96.519C55.5814 96.6073 54.5659 96.6982 53.6984 96.6982C52.2309 96.6982 51.9023 96.4362 51.8928 96.4267C51.1271 95.661 51.2819 92.6336 51.3851 90.6284C51.5073 88.2404 51.6226 85.9867 50.9669 84.1567C47.3177 73.957 50.9045 61.0653 59.8918 52.0766C66.4694 45.4977 75.0643 41.7249 83.4692 41.7249C89.9627 41.7249 95.8574 44.0437 100.067 48.2522C110.089 58.2754 108.374 76.2989 96.2443 88.4291ZM72.1292 117.749C68.5126 118.08 66.0702 117.585 65.4281 116.392C64.099 113.922 67.7767 107.391 70.682 103.752C70.7594 103.656 70.8191 103.551 70.8802 103.447C71.4735 103.479 72.0613 103.531 72.6655 103.531C77.7863 103.531 82.9506 102.317 87.7878 100.072C87.4918 105.16 85.3441 116.542 72.1292 117.749ZM44.5672 77.6389C40.937 80.5455 34.4069 84.2273 31.9306 82.8928C30.736 82.2506 30.2404 79.8083 30.5703 76.1889C31.7704 63.0542 43.1309 60.8589 48.2314 60.5412C45.6872 66.0069 44.5102 71.827 44.8428 77.461C44.7491 77.5167 44.6541 77.5683 44.5672 77.6389ZM40.9451 28.8603C40.1659 28.5575 39.6703 28.2914 39.3622 28.0946C42.433 25.7473 57.6667 22.5447 68.1243 25.3224C72.656 26.5238 75.6753 28.4788 77.094 31.1288C78.7109 34.1468 77.7184 37.2326 77.6886 37.3235C77.6682 37.3778 77.6628 37.4362 77.6465 37.4919C74.5227 38.0363 71.4382 39.011 68.4732 40.3741C66.8536 39.5568 60.2231 36.3882 40.9451 28.8603ZM129.148 36.8823C129.903 33.5521 129.757 28.5358 124.77 23.5493C119.785 18.5629 114.769 18.4176 111.437 19.1711C103.32 21.0106 95.9184 30.3944 92.8991 38.4911C89.9396 37.5109 86.7736 36.9733 83.4692 36.9733C83.1842 36.9733 82.8977 36.9882 82.6112 36.9964C82.8963 35.1079 82.952 32.0642 81.331 28.9757C79.2797 25.0712 75.2476 22.2963 69.3434 20.7296C57.854 17.6791 36.5044 20.6699 34.4463 26.9664C33.9643 28.4435 33.9413 31.2266 39.2155 33.2874C52.4644 38.4599 59.68 41.5579 63.336 43.2101C60.9209 44.7808 58.6306 46.6177 56.5317 48.7165C54.346 50.9036 52.463 53.2794 50.8638 55.7679C42.8268 55.2778 27.3854 58.8171 25.8391 75.7572C25.3056 81.6126 26.5966 85.4193 29.6797 87.0769C30.755 87.6566 31.9483 87.8982 33.1946 87.8982C37.6461 87.8982 42.7643 84.7961 45.6261 82.7774C45.8691 83.782 46.1447 84.7812 46.495 85.7573C46.829 86.6927 46.7285 88.6544 46.6389 90.3867C46.4678 93.7332 46.2737 97.5277 48.5314 99.7868C50.022 101.277 52.1942 101.45 53.6998 101.45C54.7791 101.45 55.9018 101.349 56.9879 101.25C57.9749 101.163 58.9075 101.079 59.7058 101.079C60.5923 101.079 60.9412 101.188 61.0485 101.233C62.4957 101.849 64.0067 102.309 65.5543 102.677C62.9695 106.336 58.5939 113.714 61.2426 118.64C62.6572 121.272 65.6385 122.597 70.1213 122.597C70.8911 122.597 71.7043 122.559 72.5623 122.48C89.5051 120.934 93.0444 105.501 92.553 97.4558C95.0591 95.8511 97.4322 93.9586 99.603 91.7891C101.725 89.6658 103.56 87.381 105.113 84.9903C106.766 88.649 109.862 95.866 115.032 109.105C116.608 113.14 118.609 114.074 120.123 114.074C120.589 114.074 121.007 113.986 121.354 113.873C127.65 111.815 130.642 90.4641 127.591 78.9761C126.023 73.0732 123.25 69.0398 119.344 66.9885C116.247 65.3621 113.195 65.4245 111.307 65.7123C111.401 62.1541 110.921 58.6718 109.852 55.4136C117.943 52.3861 127.312 44.9913 129.148 36.8823Z" fill="white"/>
</svg>
