<svg width="150" height="151" viewBox="0 0 150 151" fill="none" xmlns="http://www.w3.org/2000/svg">
<path d="M28.0104 106.706C28.0145 105.567 28.0607 104.119 28.0905 103.168C28.2005 99.6869 28.2073 99.0882 27.8434 98.3564C27.6398 97.9451 27.3208 97.6016 26.9271 97.3681C23.886 95.5652 21.7505 92.4237 21.2129 88.9645C20.6875 85.58 21.7016 82.1059 23.9933 79.4315C26.2822 76.7597 29.5567 75.2283 32.9765 75.2283C36.4316 75.2283 39.7238 76.7828 42.0073 79.4939C44.3016 82.2118 45.2805 85.7321 44.694 89.1505C44.5731 89.8511 44.7741 90.5692 45.2384 91.1068C45.7054 91.6444 46.3774 91.9418 47.0983 91.9268C49.3451 91.8685 51.7046 91.8209 54.1225 91.7856C54.4117 92.5228 54.7212 93.2532 55.0525 93.9768C55.3213 94.5687 55.8222 95.0222 56.4372 95.2353C57.1133 95.4688 73.1792 100.959 88.3368 100.959C101.332 100.959 111.787 97.3654 115.669 95.8272C124.517 97.8758 127.094 103.441 127.833 106.706H28.0104ZM32.9765 51.5111C34.3355 51.5111 35.4419 52.6148 35.4419 53.9751C35.4419 55.3341 34.3355 56.4391 32.9765 56.4391C31.6176 56.4391 30.5125 55.3341 30.5125 53.9751C30.5125 52.6148 31.6176 51.5111 32.9765 51.5111ZM86.7538 40.2701C103.784 40.2701 117.639 56.1391 117.639 75.6465C117.639 81.0932 116.584 86.3132 114.502 91.1734C111.616 92.3558 101.22 96.2073 88.3368 96.2073C83.7426 96.2073 78.9938 95.6507 74.6549 94.8959C74.6101 94.7954 74.5693 94.6963 74.5096 94.6013C66.7957 82.3652 68.7344 68.7892 73.7996 61.3523C77.757 55.5418 83.6693 52.9026 90.012 54.1054C94.298 54.9186 98.1943 57.5863 100.436 61.2383C101.906 63.6344 103.352 67.5484 101.89 72.5824C100.555 77.1765 97.153 80.9737 93.2214 82.2553C91.1986 82.9151 88.1141 83.1852 84.9333 80.7253C82.4977 78.8423 81.0207 75.8678 80.984 72.7684C80.9501 70.0247 82.0687 67.5891 84.135 65.9111C85.4682 64.8278 86.8366 65.0748 87.7476 65.4713C89.2762 66.1365 90.4994 67.6774 90.5945 69.058C90.6623 70.0803 90.1112 70.9342 88.9042 71.6674C87.7842 72.3489 87.4285 73.811 88.1087 74.9324C88.7902 76.0538 90.2537 76.4095 91.3737 75.7279C94.0808 74.0812 95.5239 71.533 95.3338 68.7349C95.1193 65.5622 92.8318 62.5008 89.6428 61.1134C86.69 59.8277 83.5892 60.2336 81.1401 62.2225C77.924 64.8346 76.1808 68.6005 76.2324 72.8267C76.2867 77.3638 78.4534 81.7217 82.0266 84.4845C85.7913 87.3938 90.2931 88.2084 94.6944 86.772C100.16 84.9908 104.666 80.0614 106.453 73.9088C107.97 68.6793 107.273 63.2964 104.485 58.7539C101.514 53.9086 96.5611 50.5132 90.8972 49.4366C82.6077 47.8618 74.944 51.2314 69.872 58.6778C64.2624 66.9144 61.9939 80.5501 68.5552 93.6605C64.0846 92.6355 60.5738 91.5752 58.9596 91.062C56.907 86.2331 55.8684 81.0524 55.8684 75.6465C55.8684 56.1391 69.7241 40.2701 86.7538 40.2701ZM119.321 91.939C121.358 86.8019 122.391 81.3335 122.391 75.6465C122.391 53.5189 106.405 35.5185 86.7538 35.5185C67.1039 35.5185 51.1168 53.5189 51.1168 75.6465C51.1168 79.5672 51.6137 83.3834 52.5857 87.0598C51.5892 87.0775 50.5792 87.0938 49.6126 87.1141C49.5936 83.2558 48.2102 79.4763 45.6416 76.4298C42.9766 73.2707 39.3152 71.2587 35.3523 70.6722V60.7563C38.1612 59.7693 40.1935 57.1179 40.1935 53.9751C40.1935 49.996 36.9557 46.7595 32.9765 46.7595C28.9974 46.7595 25.7609 49.996 25.7609 53.9751C25.7609 57.1179 27.7918 59.7693 30.6007 60.7563V70.6736C26.68 71.2546 23.0457 73.2354 20.3861 76.3402C17.189 80.0682 15.7798 84.9352 16.517 89.6922C17.2026 94.1085 19.7413 98.1501 23.4 100.739C23.3919 101.406 23.3634 102.293 23.3403 103.018C23.1638 108.663 23.2059 109.745 24.1385 110.708C24.5865 111.169 25.2586 111.457 25.9007 111.457H130.508C131.819 111.457 132.884 110.393 132.884 109.081C132.884 104.171 129.92 95.515 119.321 91.939Z" fill="white"/>
</svg>
