<svg width="150" height="151" viewBox="0 0 150 151" fill="none" xmlns="http://www.w3.org/2000/svg">
<path d="M127.216 70.2623C124.683 71.6199 121.94 72.3367 119.284 72.3367C115.154 72.3367 111.756 70.5935 110.19 67.6733C108.94 65.3396 108.946 62.471 110.205 59.5983C111.549 56.5288 114.13 53.8529 117.469 52.065C120 50.7087 122.743 49.9906 125.4 49.9906C129.531 49.9906 132.929 51.7351 134.494 54.6539C137.181 59.6716 133.917 66.6741 127.216 70.2623ZM110.207 93.6944H104.734C104.08 91.5508 102.728 87.9531 100.367 84.885C102.978 83.9699 105.531 82.9612 108.013 81.8534C109.235 85.6154 109.998 89.5823 110.207 93.6944ZM61.8219 86.4937C47.5318 86.4937 33.577 83.9048 21.2825 79.0473C23.361 73.8327 26.3668 69.0866 30.092 65.0056C39.8586 70.3043 50.9719 73.1254 62.3391 73.1254C74.7001 73.1254 86.6171 69.8658 96.9444 63.6887C100.839 67.6339 104.027 72.2742 106.309 77.4087C93.0793 83.3522 77.7506 86.4937 61.8219 86.4937ZM24.7716 93.6944H18.0786C18.2565 90.1959 18.8389 86.8033 19.758 83.5504C22.2668 84.5347 24.8245 85.4484 27.4528 86.248C26.2229 88.5722 25.297 91.6635 24.7716 93.6944ZM64.1434 49.9458C75.1752 49.9458 85.3084 53.8475 93.2544 60.3328C83.9575 65.5975 73.3438 68.3738 62.3391 68.3738C52.2589 68.3738 42.4014 65.9885 33.6435 61.5057C41.781 54.3186 52.4585 49.9458 64.1434 49.9458ZM138.682 52.4112C136.277 47.9202 131.312 45.239 125.4 45.239C121.962 45.239 118.445 46.1513 115.224 47.8768C110.952 50.1643 107.625 53.6506 105.853 57.6909C104.74 60.2309 104.327 62.8077 104.585 65.2513C103.064 63.2625 101.403 61.3903 99.612 59.6472C99.5618 59.5304 99.5089 59.415 99.4396 59.3064C99.1518 58.8584 98.735 58.5475 98.2721 58.3737C89.2386 50.1888 77.2646 45.1942 64.1434 45.1942C36.0885 45.1942 13.2673 68.0168 13.2673 96.0702C13.2673 97.383 14.3303 98.446 15.6431 98.446H26.6424C27.7597 98.446 28.7263 97.6681 28.9638 96.578C29.5965 93.6849 30.9908 89.1125 32.2004 87.5635C41.6316 89.9746 51.6494 91.2453 61.8219 91.2453C73.5366 91.2453 84.954 89.6053 95.5257 86.4571C95.6071 86.5942 95.7049 86.7259 95.8175 86.8481C99.2794 90.6127 100.579 96.5074 100.591 96.5631C100.823 97.6614 101.792 98.446 102.915 98.446H112.644C113.955 98.446 115.019 97.383 115.019 96.0702C115.019 88.3496 113.283 81.0307 110.192 74.4681C112.684 76.142 115.811 77.0883 119.284 77.0883C122.721 77.0883 126.24 76.176 129.46 74.4505C138.469 69.6255 142.607 59.7381 138.682 52.4112Z" fill="white"/>
<path d="M127.825 58.3024L126.777 58.0499L127.03 57.0032C127.337 55.7284 126.553 54.4454 125.276 54.1386C124.001 53.8318 122.717 54.6165 122.41 55.8926L122.159 56.938L121.112 56.6868C119.835 56.38 118.553 57.1647 118.246 58.4409C117.939 59.717 118.724 60.9986 119.999 61.3068L121.048 61.5566L120.794 62.606C120.489 63.8808 121.272 65.1637 122.548 65.4705C123.186 65.6253 123.826 65.5058 124.345 65.1881C124.863 64.8705 125.261 64.3546 125.414 63.7165L125.667 62.6698L126.714 62.9209C127.352 63.0757 127.991 62.9562 128.51 62.6386C129.028 62.3209 129.426 61.8064 129.579 61.1669C129.886 59.8921 129.1 58.6106 127.825 58.3024Z" fill="white"/>
</svg>
