<svg width="150" height="150" viewBox="0 0 150 150" fill="none" xmlns="http://www.w3.org/2000/svg">
<path d="M105.768 58.2507C105.726 58.248 105.635 58.2425 105.591 58.2425C104.283 58.1774 103.246 59.2064 103.174 60.4839C101.786 84.9072 88.9351 97.2898 64.9748 97.2898C55.0453 97.2898 45.4878 95.0729 39.6881 93.403L37.5757 92.7188L89.679 39.4561C93.6785 35.4593 99.1076 30.8679 105.647 30.8679C113.194 30.8679 119.334 37.0097 119.334 44.5579C119.334 52.1062 113.194 58.2466 105.768 58.2507ZM83.7382 111.846H81.5606L78.1123 100.649C78.6757 100.52 79.2364 100.38 79.7957 100.23L83.7382 111.846ZM22.1289 112.16C21.7135 111.812 21.2953 111.463 20.8745 111.113C20.269 110.609 19.654 110.097 19.0268 109.565L33.7187 96.5119C34.0921 96.6409 34.5414 96.7943 35.0519 96.9613L22.1289 112.16ZM132.753 46.2549H124.007C124.059 45.6956 124.086 45.1295 124.086 44.5579C124.086 34.3895 115.814 26.1163 105.647 26.1163C97.3617 26.1163 90.9674 31.4516 86.3013 36.115L31.5574 92.0739L13.8557 107.803C13.3506 108.252 13.0601 108.895 13.0574 109.571C13.0547 110.245 13.3384 110.889 13.8394 111.342C15.2499 112.617 16.5654 113.71 17.8348 114.766C18.8462 115.607 19.8318 116.427 20.8147 117.297C21.2505 117.684 21.8112 117.896 22.3909 117.896C22.4466 117.896 22.5022 117.894 22.5579 117.89C23.196 117.844 23.7865 117.545 24.2006 117.058L40.0248 98.4479C46.1679 100.122 55.3127 102.041 64.9748 102.041C67.7239 102.041 70.5586 101.88 73.4028 101.5L76.589 111.846H71.9515H66.0622C64.7494 111.846 63.6864 112.91 63.6864 114.222C63.6864 115.533 64.7494 116.598 66.0622 116.598H71.9515H92.2395H98.1301C99.4415 116.598 100.506 115.533 100.506 114.222C100.506 112.91 99.4415 111.846 98.1301 111.846H92.2395H88.7572L84.3138 98.7588C96.0421 94.1769 105.984 83.9351 107.768 62.8774C114.795 62.0696 120.62 57.2868 122.967 50.8463C123.228 50.9454 123.508 51.0065 123.805 51.0065H132.753C134.064 51.0065 135.129 49.9422 135.129 48.6307C135.129 47.3179 134.064 46.2549 132.753 46.2549Z" fill="white"/>
<path d="M106.392 46.0284C105.361 46.0284 104.523 45.1908 104.523 44.159C104.523 43.1286 105.361 42.291 106.392 42.291C107.424 42.291 108.262 43.1286 108.262 44.159C108.262 45.1908 107.424 46.0284 106.392 46.0284ZM106.392 37.5393C102.742 37.5393 99.7713 40.5098 99.7713 44.159C99.7713 47.8096 102.742 50.78 106.392 50.78C110.043 50.78 113.013 47.8096 113.013 44.159C113.013 40.5098 110.043 37.5393 106.392 37.5393Z" fill="white"/>
</svg>
