<svg width="150" height="151" viewBox="0 0 150 151" fill="none" xmlns="http://www.w3.org/2000/svg">
<path d="M112.418 106.115C119.092 87.22 117.898 65.5201 102.56 52.927C102.129 52.5727 101.594 52.3867 101.053 52.3867C100.796 52.3867 100.538 52.4288 100.288 52.5143C99.5104 52.7777 98.9252 53.4252 98.7392 54.2262C96.4788 63.9643 88.2843 67.4194 81.9539 67.4194C76.0184 67.4194 68.629 64.4272 65.6925 56.0305C63.2936 49.1664 65.5445 41.7987 71.4257 37.2576C74.7301 34.7053 79.0771 33.0558 84.3459 32.3539C86.009 32.1326 87.6626 32.02 89.2591 32.02C111.22 32.02 121.829 52.1966 124.443 71.1107C125.166 82.4575 120.322 95.8693 112.418 106.115ZM67.2619 114.957C66.7094 114.434 65.8378 113.553 64.806 112.327C62.9298 109.348 61.917 105.982 61.917 102.542C61.917 91.4408 72.0773 82.41 84.5659 82.41C97.0544 82.41 107.215 91.4408 107.215 102.542C107.215 107.04 105.499 111.411 102.363 114.957H99.5809H67.2619ZM56.5817 65.4359C59.1787 70.7156 63.667 77.9571 70.55 81.199C63.4525 85.0587 58.4307 91.7354 57.3881 99.5266C54.286 91.3132 52.646 79.9528 56.5817 65.4359ZM42.8577 67.1357C40.581 67.9502 38.2486 68.3806 36.1145 68.3806C32.3688 68.3806 29.6618 67.1058 29.0495 65.0531C28.1168 61.936 32.0688 56.6753 39.2288 54.1108C41.5041 53.2963 43.8351 52.8645 45.9706 52.8645C49.7163 52.8645 52.4233 54.1393 53.0383 56.1934C53.1768 56.6618 53.2121 57.1776 53.1401 57.7248C52.7505 60.7115 49.0918 64.9024 42.8577 67.1357ZM48.6831 48.3302C47.8156 48.2025 46.921 48.1129 45.9706 48.1129C45.0828 48.1129 44.1678 48.1917 43.2432 48.3057L45.9584 42.6825L48.6831 48.3302ZM129.179 70.7143C129.177 70.6586 129.17 70.6043 129.162 70.5487C125.56 44.2574 109.897 27.2683 89.2591 27.2683C87.4535 27.2683 85.5895 27.3946 83.7174 27.643C77.6095 28.4576 72.4968 30.4275 68.5218 33.497C60.9925 39.3089 58.1212 48.7687 61.207 57.5985C64.3023 66.4501 72.4466 72.171 81.9539 72.171C89.6718 72.171 98.4025 68.0738 102.173 59.0308C110.818 68.0466 112.807 81.4556 110.492 94.551C106.814 84.7424 96.5956 77.6584 84.5659 77.6584C82.7046 77.6584 80.8881 77.8308 79.13 78.1526C78.9889 78.1336 78.8463 78.1227 78.6983 78.1281C67.2891 78.7173 61.0224 64.005 58.9615 59.1774C58.6384 58.4212 58.318 57.6895 57.9175 57.1125C57.9121 56.3305 57.8089 55.5648 57.589 54.8317C57.1247 53.2786 56.2083 51.9455 54.9322 50.8852C54.9295 50.5444 54.8616 50.2009 54.7027 49.8738L48.5949 37.2155L51.716 30.7479C52.2862 29.5668 51.7893 28.1454 50.6082 27.5752C49.4257 27.0063 48.0057 27.5019 47.4355 28.683L45.9584 31.7471L44.48 28.683C43.9098 27.5019 42.4884 27.0063 41.3073 27.5752C40.1262 28.1454 39.6293 29.5668 40.1995 30.7479L43.3206 37.2155L37.2562 49.7828C28.2865 53.1401 22.6946 60.3816 24.4961 66.4134C25.7342 70.5582 30.1858 73.1322 36.1145 73.1322C38.7889 73.1322 41.6738 72.6054 44.4583 71.6089C46.9183 70.7279 49.1515 69.5359 51.0698 68.1457C46.0942 91.6336 54.9525 107.349 60.6314 114.578C60.7074 114.705 60.7766 114.832 60.8567 114.957H47.5305C46.2191 114.957 45.1547 116.02 45.1547 117.333C45.1547 118.644 46.2191 119.709 47.5305 119.709H65.1481C65.2472 119.709 65.3436 119.691 65.44 119.679C65.5391 119.691 65.6341 119.709 65.7332 119.709H66.3496H99.5809H103.4C103.633 119.709 103.86 119.663 104.08 119.596C104.259 119.638 104.436 119.692 104.619 119.692C105.125 119.692 105.632 119.532 106.059 119.206C118.513 109.714 130.454 90.0085 129.179 70.7143Z" fill="white"/>
</svg>
