<svg width="150" height="151" viewBox="0 0 150 151" fill="none" xmlns="http://www.w3.org/2000/svg">
<path d="M66.846 33.9797C69.4798 40.6985 72.4651 48.3133 80.6936 51.3747C80.9664 51.4779 81.2461 51.5267 81.5217 51.5267C82.4856 51.5267 83.3925 50.9348 83.7495 49.9777C84.207 48.7477 83.5812 47.3793 82.3512 46.9218C76.113 44.6003 73.7617 38.5997 71.2705 32.2474C69.4499 27.6017 67.5669 22.7999 64.0467 19.2172C63.1289 18.2818 61.6233 18.2682 60.688 19.1873C59.7512 20.1078 59.739 21.612 60.6595 22.5474C63.4968 25.4377 65.1246 29.5879 66.846 33.9797Z" fill="white"/>
<path d="M136.092 88.4362C136.093 88.4294 136.094 88.4227 136.094 88.4172C136.09 68.0668 121.837 61.3915 120.848 60.9557C115.694 57.7544 108.963 58.0898 101.937 58.4495C95.8387 58.7604 88.9272 59.1107 82.1432 57.2277C68.9718 53.569 65.1271 43.2743 61.7344 34.1933C61 32.2248 60.3062 30.3676 59.5433 28.6679C58.2373 25.7517 56.6597 23.5375 55.0618 21.8296C55.0523 21.8201 55.0469 21.8065 55.0469 21.7916V13.4139C55.0469 12.2029 54.2228 11.0611 53.0227 10.8901C51.5538 10.6796 50.2953 11.8132 50.2953 13.2401V17.9306C50.2953 17.9768 50.2451 18.0025 50.2057 17.9808C48.1937 16.854 46.7085 16.5173 46.5673 16.4875C45.8559 16.3354 45.1079 16.5228 44.5486 16.9952L18.2057 39.1621C17.2689 39.9509 17.0626 41.3112 17.7237 42.3416L23.2016 50.8701C23.5587 51.424 24.1262 51.8068 24.7751 51.9236C25.4254 52.0444 26.092 51.8869 26.6201 51.4932L38.4109 42.7244C38.4217 42.7163 38.4339 42.7122 38.4489 42.7136C39.8852 42.8276 42.6303 42.9281 45.4595 42.4122C45.4812 42.4081 45.5002 42.4136 45.5138 42.4299C46.9583 44.3061 54.4509 54.7189 55.0021 69.3022C55.4895 82.2469 63.8048 89.2046 68.9569 92.2905C68.9935 92.3122 68.9922 92.3651 68.9555 92.3882L55.1256 101.475C54.44 101.925 54.0273 102.69 54.0273 103.51V116.919C54.0273 118.131 54.8514 119.273 56.0502 119.445C57.5204 119.656 58.7789 118.522 58.7789 117.094V104.791C58.7789 104.771 58.7898 104.753 58.8061 104.742L75.0892 94.0431C75.8385 93.5503 76.2472 92.6774 76.1454 91.7854C76.0435 90.8948 75.4476 90.1373 74.6058 89.8264C74.4619 89.7748 60.328 84.4082 59.7496 69.123C59.2229 55.1492 53.0132 44.8002 50.2328 40.8347C50.2138 40.8062 50.2233 40.7709 50.2532 40.7532C51.9339 39.788 53.3363 38.3937 54.0884 36.3777C54.5201 35.2237 54.0626 33.8349 52.9548 33.2973C51.6515 32.6633 50.1269 33.3163 49.6626 34.644C48.3526 38.3883 40.636 38.243 38.0592 37.8995C37.4388 37.8181 36.8143 37.9919 36.312 38.3638L25.8761 46.1239C25.849 46.1456 25.8096 46.1375 25.7906 46.109L22.85 41.5298C22.8351 41.5067 22.8392 41.4727 22.8622 41.4537L46.57 21.5038C46.5863 21.4889 46.608 21.4848 46.6298 21.4929C48.5168 22.2749 52.496 24.5611 55.2084 30.6106C55.9076 32.1718 56.5755 33.9598 57.2842 35.8563C60.6945 44.9903 65.3674 57.4992 80.8725 61.8055C88.3977 63.8976 95.7206 63.5243 102.179 63.1957C110.722 62.7586 117.482 62.4165 121.29 67.8156C121.292 67.817 121.294 67.8197 121.296 67.8238C121.823 68.8813 125.669 76.9876 123.048 83.8041C122.043 86.4134 120.635 87.7887 119.006 89.3811C117.372 90.9777 115.624 92.6991 114.366 95.6247C114.352 95.6532 114.318 95.6682 114.289 95.6573C98.2023 89.6024 100.722 79.024 100.851 78.5257C101.196 77.2672 100.459 75.9653 99.2001 75.6123C97.9389 75.258 96.6261 75.9952 96.2718 77.2591C96.2284 77.4139 92.2384 92.6421 113.004 100.246C113.03 100.257 113.046 100.283 113.042 100.308C112.76 101.988 112.593 103.924 112.593 106.214V125.664C112.593 126.875 113.416 128.017 114.614 128.191C116.083 128.404 117.344 127.269 117.344 125.841V106.214C117.344 97.6476 119.654 95.3926 122.326 92.7792C124.099 91.0483 126.108 89.0865 127.482 85.5106C128.771 82.1587 128.891 78.671 128.508 75.5621C128.499 75.4942 128.589 75.4644 128.618 75.5254C130.202 78.8231 131.341 83.0493 131.343 88.4172C131.343 88.424 131.344 88.4294 131.345 88.4349H131.359C131.358 88.477 131.347 88.5177 131.347 88.5598C131.347 89.8712 132.41 90.9342 133.72 90.9342C135.031 90.9342 136.094 89.8712 136.094 88.5598C136.094 88.5177 136.085 88.4783 136.082 88.4362H136.092Z" fill="white"/>
</svg>
