<svg width="150" height="150" viewBox="0 0 150 150" fill="none" xmlns="http://www.w3.org/2000/svg">
<path d="M105.819 81.726C105.073 82.3017 104.739 83.2642 104.965 84.1765C110.87 108.04 109.393 116.358 107.786 117.424C107.641 117.523 107.176 117.751 106.058 117.751C101.075 117.751 90.8118 113.498 77.8997 106.08C77.5317 105.872 77.1231 105.765 76.7158 105.765C76.3072 105.765 75.8985 105.872 75.532 106.08C62.6199 113.498 52.355 117.751 47.374 117.751C46.2553 117.751 45.7924 117.523 45.6444 117.424C44.0384 116.358 42.5599 108.04 48.4655 84.1765C48.6909 83.2642 48.3569 82.3017 47.6116 81.726C28.0336 66.6159 23.8251 59.8483 23.8305 58.6333C24.7822 55.7375 34.0885 52.0027 57.1908 51.0117C58.1411 50.9696 58.9747 50.3668 59.31 49.4776C68.6856 24.6362 74.6618 18.6913 76.0072 18.5691H77.415C78.7699 18.6913 84.7447 24.6335 94.1203 49.4776C94.4556 50.3668 95.2892 50.9696 96.2395 51.0117C119.343 52.0027 128.649 55.7375 129.574 58.5151C129.605 59.8456 125.398 66.6173 105.819 81.726ZM134.115 57.1507C133.363 54.8618 131.099 47.9679 98.0084 46.3375C89.7447 24.7557 82.8223 13.8175 77.4245 13.8175H76.0072C70.608 13.8175 63.6856 24.7557 55.4219 46.3375C22.333 47.9679 20.0672 54.8618 19.3165 57.1507C18.7001 59.031 17.0791 63.9741 43.4858 84.539C35.7543 116.566 41.2078 120.186 43.0161 121.383C44.1348 122.126 45.601 122.503 47.374 122.503C54.6005 122.503 67.0836 116.334 76.7158 110.878C86.348 116.334 98.8298 122.503 106.058 122.503C107.831 122.503 109.296 122.126 110.414 121.383C112.225 120.181 117.677 116.566 109.944 84.539C136.351 63.9768 134.732 59.031 134.115 57.1507Z" fill="white"/>
<path d="M76.7151 51.3069C75.5381 51.3069 74.581 50.3457 74.581 49.1687C74.581 47.9916 75.5381 47.0345 76.7151 47.0345C77.8922 47.0345 78.8506 47.9916 78.8506 49.1687C78.8506 50.3457 77.8922 51.3069 76.7151 51.3069ZM76.7151 42.2829C72.9179 42.2829 69.8294 45.3728 69.8294 49.1687C69.8294 52.9659 72.9179 56.0571 76.7151 56.0571C80.5137 56.0571 83.6022 52.9659 83.6022 49.1687C83.6022 45.3728 80.5137 42.2829 76.7151 42.2829Z" fill="white"/>
<path d="M76.7151 38.0112C79.0923 38.0112 81.0255 36.0794 81.0255 33.7036C81.0255 31.3278 79.0923 29.3932 76.7151 29.3932C74.3393 29.3932 72.4061 31.3278 72.4061 33.7036C72.4061 36.0794 74.3393 38.0112 76.7151 38.0112Z" fill="white"/>
<path d="M62.6406 97.0364C62.0405 97.9989 60.6761 98.3247 59.6987 97.7152C58.7008 97.0934 58.3954 95.7751 59.0171 94.7746C59.4109 94.1447 60.0897 93.7686 60.835 93.7686C61.2314 93.7686 61.6197 93.8813 61.9604 94.0931C62.9583 94.7176 63.2637 96.0372 62.6406 97.0364ZM64.4761 90.0596C63.3805 89.3795 62.1206 89.017 60.835 89.017C58.4388 89.017 56.2531 90.2307 54.9851 92.2576C52.9772 95.4819 53.9614 99.7393 57.183 101.749C58.2786 102.433 59.5385 102.794 60.8255 102.794C63.2216 102.794 65.406 101.582 66.674 99.5506C68.6833 96.3291 67.6976 92.0716 64.4761 90.0596Z" fill="white"/>
<path d="M54.9246 105.37C54.239 104.944 53.4516 104.719 52.6452 104.719C51.1464 104.719 49.7779 105.476 48.9851 106.75C47.7293 108.764 48.347 111.427 50.3617 112.684C51.0459 113.112 51.8347 113.34 52.6411 113.34C54.1399 113.34 55.5083 112.578 56.2985 111.31C56.908 110.334 57.1022 109.179 56.8415 108.057C56.5822 106.936 55.9007 105.98 54.9246 105.37Z" fill="white"/>
<path d="M94.6822 96.3867C94.5532 96.9406 94.2152 97.4158 93.7318 97.7158C92.7544 98.3253 91.3913 97.9995 90.7899 97.037C90.1668 96.0364 90.4709 94.7168 91.4714 94.0937C91.8108 93.8819 92.2005 93.7692 92.5982 93.7692C93.3422 93.7692 94.021 94.1439 94.4134 94.7752C94.7147 95.2572 94.8111 95.8301 94.6822 96.3867ZM99.3116 97.4578C99.7257 95.6658 99.4175 93.8195 98.4441 92.2582C97.1774 90.23 94.9917 89.0176 92.5982 89.0176C91.3099 89.0176 90.0514 89.3788 88.9558 90.0603C85.7356 92.0709 84.75 96.3256 86.7578 99.5513C88.0245 101.581 90.2116 102.793 92.6064 102.793C93.892 102.793 95.1519 102.433 96.2461 101.748C97.8087 100.776 98.8948 99.2499 99.3116 97.4578Z" fill="white"/>
<path d="M100.786 104.719C99.9796 104.719 99.1922 104.944 98.508 105.37C97.5305 105.98 96.8504 106.936 96.5911 108.056C96.3318 109.179 96.5232 110.334 97.1327 111.307C97.9256 112.578 99.2913 113.336 100.791 113.34C101.598 113.34 102.387 113.112 103.07 112.684C105.084 111.427 105.702 108.764 104.445 106.747C103.652 105.476 102.283 104.719 100.786 104.719Z" fill="white"/>
<path d="M100.921 65.6259C99.7347 65.7603 98.688 64.9104 98.5549 63.7483C98.4205 62.5794 99.2609 61.5178 100.433 61.3834C100.515 61.3725 100.601 61.3698 100.682 61.3698C101.764 61.3698 102.674 62.1817 102.799 63.261C102.933 64.4299 102.09 65.4901 100.921 65.6259ZM99.8881 56.663C96.1167 57.0988 93.4015 60.52 93.8332 64.2927C94.2351 67.7709 97.1743 70.3938 100.671 70.3938C100.933 70.3938 101.197 70.3775 101.464 70.3463C105.238 69.9119 107.954 66.488 107.518 62.7166C107.086 58.9791 103.714 56.2123 99.8881 56.663Z" fill="white"/>
<path d="M115.55 57.4565C114.407 57.5868 113.383 58.157 112.668 59.0585C111.952 59.9599 111.629 61.0867 111.761 62.2271C112.011 64.4033 113.85 66.0447 116.04 66.0447C116.203 66.0447 116.369 66.0365 116.534 66.0189C117.677 65.8858 118.702 65.317 119.419 64.4142C120.135 63.5128 120.455 62.3859 120.323 61.2442C120.052 58.9037 117.929 57.1836 115.55 57.4565Z" fill="white"/>
<path d="M50.6316 63.2607C50.7565 62.1828 51.6661 61.3696 52.7495 61.3696C52.8309 61.3696 52.9151 61.3723 52.9993 61.3832C53.5654 61.451 54.0731 61.7307 54.4275 62.176C54.7818 62.6254 54.9406 63.1806 54.8768 63.7481C54.7411 64.9102 53.6699 65.7533 52.5105 65.6257C51.3403 65.4913 50.4972 64.4296 50.6316 63.2607ZM52.7576 70.3936C56.2562 70.3936 59.1967 67.7693 59.5972 64.2925C59.8063 62.4665 59.2931 60.665 58.1486 59.2246C57.0055 57.7828 55.3696 56.8732 53.5437 56.6641C49.7179 56.2188 46.3443 58.9788 45.9112 62.7177C45.4768 66.4877 48.1934 69.9116 51.9661 70.3488C52.2336 70.3773 52.497 70.3936 52.7576 70.3936Z" fill="white"/>
<path d="M37.883 57.4565C35.4854 57.1836 33.3771 58.9064 33.1069 61.2442C32.9752 62.3859 33.297 63.5128 34.0125 64.4142C34.7293 65.317 35.7543 65.8858 36.896 66.0189C37.063 66.0365 37.2286 66.0447 37.3902 66.0447H37.3915C39.5786 66.0447 41.4182 64.4061 41.6693 62.2271C41.9395 59.8662 40.2398 57.7267 37.883 57.4565Z" fill="white"/>
</svg>
