<svg width="150" height="151" viewBox="0 0 150 151" fill="none" xmlns="http://www.w3.org/2000/svg">
<path d="M73.7438 83.3972C67.287 79.9041 62.5612 73.56 59.6573 64.513C63.2251 63.5735 73.0813 61.6959 81.9953 66.5195C88.452 70.0126 93.1792 76.3553 96.0831 85.4037C92.514 86.3418 82.6564 88.2194 73.7438 83.3972ZM74.6561 109.615V90.9685L84.8924 107.125L74.6561 109.615ZM64.0301 25.7535C63.2903 26.7051 62.0345 27.5794 60.5846 28.1537C59.4713 28.5935 58.3364 28.8271 57.3073 28.8271C55.9755 28.8271 55.1949 28.4198 55.0863 28.1442C55.0157 27.9691 55.1066 27.46 55.6415 26.773C56.3814 25.8213 57.6386 24.9457 59.0871 24.3728C60.199 23.9315 61.3326 23.698 62.3644 23.698C63.6948 23.698 64.4754 24.1067 64.5854 24.3823C64.6546 24.5574 64.5637 25.0679 64.0301 25.7535ZM101.846 88.3782C98.7983 75.7661 92.8805 67.0055 84.2557 62.3408C73.9678 56.7746 62.9427 58.7404 58.5862 59.8754C57.3535 52.6638 62.435 45.8229 62.5341 45.6912C62.5626 45.6559 62.5789 45.6152 62.6047 45.5785C62.64 45.5432 62.6793 45.516 62.7146 45.478C69.7497 37.5564 72.6889 30.93 71.4467 25.7792C70.5914 22.2305 67.898 20.3231 66.4412 19.7556C66.2648 19.6863 66.0828 19.647 65.9036 19.6225C64.8854 19.1894 63.6948 18.9464 62.3644 18.9464C60.7393 18.9464 59.0016 19.2953 57.3372 19.9551C55.0903 20.8444 53.1558 22.2291 51.8918 23.8542C50.8628 25.1765 50.3401 26.606 50.3279 27.9772C47.7512 29.6362 44.6789 33.7266 47.2298 40.4508C47.5882 41.3998 48.4924 41.9849 49.4509 41.9849C49.7319 41.9849 50.0156 41.9347 50.2939 41.8288C51.5199 41.3645 52.1376 39.992 51.6719 38.7661C50.2098 34.9105 51.5755 33.0261 52.553 32.2306C53.768 33.0913 55.3999 33.5787 57.3073 33.5787C58.931 33.5787 60.6701 33.2298 62.3345 32.5713C64.0654 31.8857 65.6009 30.9028 66.7983 29.7475C66.2824 32.3663 64.4157 36.4065 59.1618 42.323C59.0953 42.3976 59.045 42.4791 58.9907 42.5592C58.9106 42.6379 58.8305 42.714 58.7613 42.8036C58.4803 43.1701 52.3914 51.2709 53.8834 60.4972C53.8128 60.8325 53.8074 61.1855 53.8929 61.5398C56.7507 73.3645 62.1336 81.8047 69.9045 86.6581V110.77L62.3481 112.609C61.6571 112.777 61.076 113.247 60.7678 113.889C60.461 114.532 60.4569 115.279 60.7583 115.924L63.3106 121.377C63.7152 122.239 64.5705 122.746 65.4638 122.746C65.8018 122.746 66.1439 122.674 66.4711 122.522C67.659 121.965 68.1722 120.551 67.6142 119.363L66.2933 116.539L69.9045 115.661V132.465H66.9992C65.6878 132.465 64.6234 133.529 64.6234 134.841C64.6234 136.154 65.6878 137.217 66.9992 137.217H72.1432C73.456 137.217 74.519 136.154 74.519 134.841C74.519 134.686 74.5013 134.537 74.4742 134.39C74.5896 134.109 74.6561 133.804 74.6561 133.483V114.505L89.2327 110.959C89.9766 110.779 90.5875 110.251 90.874 109.541C91.1604 108.83 91.0871 108.025 90.6785 107.381L80.0729 90.6386C82.5139 91.1274 84.8802 91.3242 87.0632 91.3242C91.6207 91.3242 95.388 90.5178 97.4312 89.968C97.8303 90.7785 98.634 91.3134 99.5355 91.3134C99.7201 91.3134 99.9075 91.2916 100.095 91.2455C101.371 90.9373 102.156 89.653 101.846 88.3782Z" fill="white"/>
</svg>
