<svg width="150" height="150" viewBox="0 0 150 150" fill="none" xmlns="http://www.w3.org/2000/svg">
<path d="M110.49 58.9031C109.291 58.9031 108.106 58.7253 106.964 58.3696C105.962 58.0587 104.868 58.4443 104.287 59.3199C103.702 60.1915 103.762 61.3468 104.431 62.1559C107.836 66.2667 109.636 71.0577 109.636 76.0048C109.636 82.6055 106.458 88.8396 100.688 93.56C100.624 93.6143 100.561 93.6713 100.501 93.7324C97.6634 96.6146 93.0761 98.9347 86.8678 100.63C83.5186 101.544 80.164 102.007 76.8976 102.007C49.1279 102.007 30.7812 68.7267 23.8751 53.5908C32.2787 58.4945 41.7384 60.9748 52.1024 60.9721L52.6115 60.9707C53.2332 60.9667 53.8279 60.7182 54.2691 60.2811C60.2276 54.3552 69.0574 50.9557 78.4941 50.9557C85.0676 50.9557 91.3628 52.5957 96.6995 55.7019C97.6132 56.2314 98.7726 56.0956 99.5356 55.3652C100.301 54.6321 100.49 53.4836 99.9999 52.5468C99.1011 50.8295 98.6436 48.9818 98.6436 47.0594C98.6436 40.528 103.959 35.2143 110.49 35.2143C117.021 35.2143 122.335 40.528 122.335 47.0594C122.335 53.5895 117.021 58.9031 110.49 58.9031ZM137.242 45.0257C137.242 43.7129 136.179 42.6499 134.866 42.6499H126.742C126.651 42.6499 126.567 42.6689 126.48 42.6771C124.551 35.6488 118.121 30.4627 110.49 30.4627C101.338 30.4627 93.892 37.9078 93.892 47.0594C93.892 47.7559 93.9355 48.4469 94.021 49.1284C89.2029 47.2047 83.9272 46.2041 78.4941 46.2041C68.1777 46.2041 58.4519 49.8438 51.6353 56.2191C39.6735 56.1255 29.0503 52.4206 20.0521 45.2036C19.2253 44.5383 18.0524 44.5044 17.1876 45.1208C16.3228 45.7371 15.9712 46.8531 16.3282 47.8536C17.1862 50.2593 37.7892 106.759 76.8976 106.759C80.5875 106.759 84.3617 106.239 88.1195 105.214C95.0854 103.312 100.358 100.602 103.796 97.159C110.627 91.5263 114.388 84.0187 114.388 76.0048C114.388 71.6904 113.288 67.494 111.173 63.6411C119.381 63.3085 126.064 56.9794 126.973 48.9275H134.866C136.179 48.9275 137.242 47.8645 137.242 46.5517C137.242 46.2829 137.189 46.0304 137.104 45.7887C137.189 45.5484 137.242 45.2959 137.242 45.0257Z" fill="white"/>
<path d="M90.1188 73.1485C83.1149 80.857 71.8767 85.0058 62.7794 83.23C58.4528 82.3856 54.289 79.7478 53.6903 77.4738C53.3971 76.3619 54.0406 75.1211 55.5977 73.7893C56.5969 72.9367 56.7123 71.4366 55.8611 70.4401C55.0085 69.4423 53.507 69.3241 52.5119 70.1781C48.6957 73.439 48.5477 76.6022 49.0948 78.6807C50.4633 83.8776 57.4848 87.0368 61.8698 87.8934C63.5383 88.2192 65.2666 88.3767 67.026 88.3767C76.4831 88.3767 86.8361 83.826 93.6336 76.3443C94.5174 75.3736 94.4468 73.8694 93.4734 72.9883C92.5014 72.1059 90.9985 72.1778 90.1188 73.1485Z" fill="white"/>
<path d="M114.422 50.7954C113.814 50.7954 113.206 50.5633 112.743 50.099L108.298 45.6515C107.37 44.7242 107.37 43.2186 108.298 42.2928C109.225 41.3642 110.728 41.3642 111.657 42.2928L116.102 46.7389C117.03 47.6675 117.03 49.1717 116.102 50.099C115.637 50.5633 115.031 50.7954 114.422 50.7954Z" fill="white"/>
<path d="M109.978 50.7954C109.368 50.7954 108.761 50.5633 108.298 50.099C107.37 49.1717 107.37 47.6675 108.298 46.7389L112.743 42.2928C113.67 41.3642 115.175 41.3642 116.102 42.2928C117.03 43.2186 117.03 44.7242 116.102 45.6515L111.657 50.099C111.193 50.5633 110.586 50.7954 109.978 50.7954Z" fill="white"/>
</svg>
