<svg width="150" height="150" viewBox="0 0 150 150" fill="none" xmlns="http://www.w3.org/2000/svg">
<path d="M101.836 109.265H48.1579C45.7645 106.593 37.7057 96.233 37.4967 78.0697C44.5657 79.7029 51.3822 81.7216 57.7534 84.0988C58.0277 84.202 58.3073 84.2495 58.5843 84.2495C59.5482 84.2495 60.4537 83.6603 60.8108 82.7045C61.2696 81.4746 60.6438 80.1061 59.4151 79.6472C52.566 77.0909 45.2364 74.9282 37.627 73.2136C37.7777 70.8486 38.0587 68.3724 38.4986 65.7766C46.184 67.6637 73.879 75.1223 84.6679 86.9878C85.1349 87.5037 85.7797 87.7657 86.4246 87.7657C86.9948 87.7657 87.5677 87.562 88.0225 87.148C88.9945 86.2655 89.0651 84.7627 88.1827 83.792C76.2765 70.6952 47.2836 62.9976 39.438 61.1078C39.9268 58.9913 40.5092 56.8137 41.2165 54.5588L43.0465 55.11C64.6867 61.6088 85.2897 67.8035 95.9645 79.2372C95.9672 79.2399 95.9685 79.2427 95.9713 79.2454C96.0975 79.43 96.2496 79.5848 96.4138 79.7219C98.0117 81.5017 99.3775 83.4037 100.466 85.455C104 92.1046 104.451 99.9081 101.836 109.265ZM18.6912 87.4982H33.5406C35.0747 96.9213 38.504 103.779 41.3061 108.055C34.6824 105.643 22.7993 99.7397 18.6912 87.4982ZM129.342 40.8823C125.517 36.4701 119.387 33.6178 113.346 33.4359C105.897 33.2105 97.3329 37.2589 92.5447 43.2825C89.1452 47.5576 87.6342 53.3071 88.29 59.4706C88.609 62.4654 89.3665 65.5513 90.4798 68.6099C78.4813 60.7942 61.7679 55.7711 44.4137 50.5593L40.3639 49.3402C39.1353 48.9709 37.8374 49.6388 37.4274 50.8512C33.1849 63.3587 32.2292 73.986 32.9582 82.7466H15.5782C14.86 82.7466 14.1812 83.0711 13.7305 83.6304C13.2771 84.1898 13.1047 84.9229 13.2567 85.6247C18.1427 108.198 43.8312 113.876 44.9228 114.107C45.0884 114.143 45.254 114.16 45.4169 114.16C45.7808 114.16 46.1174 114.052 46.4324 113.899C46.6591 113.969 46.894 114.016 47.1356 114.016H103.61C104.649 114.016 105.568 113.339 105.879 112.348C109.428 100.971 109.03 91.4448 104.663 83.2259C103.329 80.7143 101.66 78.4172 99.7155 76.2899C96.0025 70.8147 93.6213 64.6783 93.0158 58.9683C92.6465 55.4914 92.9085 50.4602 96.2645 46.2394C100.116 41.3928 107.231 38.0232 113.202 38.1847C117.887 38.3259 122.814 40.6067 125.752 43.9953C127.278 45.7561 129.007 48.6804 128.563 52.6038C128.441 53.6953 128.004 54.6321 127.396 55.11C126.982 55.4344 126.474 55.5525 125.847 55.4697C120.37 54.7638 116.843 48.9641 115.485 44.2138C115.123 42.9513 113.805 42.2222 112.549 42.582C111.286 42.9418 110.556 44.2573 110.917 45.5185C112.491 51.0276 116.527 57.6364 122.95 59.662C122.917 59.8168 122.901 59.9756 122.901 60.1385V68.6642C122.901 69.9757 123.965 71.04 125.276 71.04C126.588 71.04 127.652 69.9757 127.652 68.6642V60.1385C127.652 60.1181 127.647 60.0978 127.647 60.0774C128.62 59.8711 129.528 59.4746 130.327 58.8488C131.964 57.5645 133.016 55.5349 133.285 53.1346C133.789 48.6749 132.424 44.4392 129.342 40.8823Z" fill="white"/>
</svg>
