<svg width="150" height="150" viewBox="0 0 150 150" fill="none" xmlns="http://www.w3.org/2000/svg">
<path d="M65.2556 56.0951C63.9441 56.0951 62.8798 57.1595 62.8798 58.4709C62.8798 59.7837 63.9441 60.8467 65.2556 60.8467C69.3012 60.8467 72.5907 64.1375 72.5907 68.1818C72.5907 72.2275 69.3012 75.5183 65.2556 75.5183C63.9441 75.5183 62.8798 76.5827 62.8798 77.8941C62.8798 79.2055 63.9441 80.2699 65.2556 80.2699C71.92 80.2699 77.3423 74.8476 77.3423 68.1818C77.3423 61.5174 71.92 56.0951 65.2556 56.0951Z" fill="white"/>
<path d="M44.9154 62.4127C43.7927 62.4127 42.879 61.499 42.879 60.3763C42.879 59.2536 43.7927 58.3399 44.9154 58.3399C46.0382 58.3399 46.9518 59.2536 46.9518 60.3763C46.9518 61.499 46.0382 62.4127 44.9154 62.4127ZM44.9154 53.5883C41.1725 53.5883 38.1274 56.6334 38.1274 60.3763C38.1274 64.1192 41.1725 67.1643 44.9154 67.1643C48.6584 67.1643 51.7034 64.1192 51.7034 60.3763C51.7034 56.6334 48.6584 53.5883 44.9154 53.5883Z" fill="white"/>
<path d="M116.529 69.4087C107.733 69.4087 100.577 62.2527 100.577 53.4569C100.577 50.0099 101.698 46.6892 103.727 43.9618C106.553 49.5782 111.308 53.036 116.529 53.036C121.752 53.036 126.506 49.5782 129.331 43.9618C131.359 46.6892 132.481 50.0099 132.481 53.4569C132.481 62.2527 125.325 69.4087 116.529 69.4087ZM68.4508 103.48H68.1318C52.5248 103.48 37.7378 97.6888 30.3945 88.2657C28.8849 86.3271 27.6087 84.3083 26.5417 82.2407C27.1377 82.3249 27.7526 82.3778 28.4002 82.3778C31.9802 82.3778 36.3286 80.9781 41.2363 76.68C42.2233 75.8165 42.3238 74.315 41.459 73.3294C40.5955 72.3424 39.094 72.242 38.1071 73.1068C33.1315 77.4633 28.5346 78.6716 24.436 76.7003C24.3681 76.6678 24.2976 76.6501 24.2283 76.6229C21.6625 68.4135 22.4118 59.7901 26.6774 52.2255C32.5898 41.7408 43.7655 36.3891 56.5759 37.9096C69.0875 39.3935 79.7189 48.2179 83.0301 59.8674C84.0768 63.552 88.1618 75.7364 96.7663 77.8692C101.064 78.9322 105.436 77.2773 109.779 73.0077C111.898 73.7421 114.163 74.1603 116.529 74.1603C116.841 74.1603 117.145 74.1277 117.455 74.1141C106.836 93.1354 89.5941 103.48 68.4508 103.48ZM137.232 53.4569C137.232 47.463 134.624 41.7652 130.076 37.8214C129.471 37.2973 128.64 37.1127 127.868 37.3326C127.096 37.5526 126.488 38.1485 126.251 38.9156C124.49 44.6067 120.674 48.2844 116.529 48.2844C112.384 48.2844 108.568 44.6067 106.806 38.9142C106.568 38.1485 105.96 37.5526 105.187 37.3326C104.416 37.11 103.586 37.2973 102.98 37.8214C98.4321 41.7652 95.8255 47.4644 95.8255 53.4569C95.8255 60.6929 99.5643 67.0641 105.204 70.7676C102.592 72.9601 100.144 73.8168 97.9094 73.2629C93.9004 72.2678 89.8547 66.5061 87.5998 58.5764C83.7713 45.1049 71.5285 34.9161 57.1352 33.2082C42.3536 31.4569 29.4252 37.7155 22.5395 49.9257C15.2152 62.9125 16.79 78.8739 26.6462 91.5253C34.8583 102.064 51.1142 108.911 68.1358 108.911H68.4766C92.46 108.911 112.51 95.5791 123.592 72.8923C131.534 69.9979 137.232 62.3899 137.232 53.4569Z" fill="white"/>
</svg>
