<svg width="150" height="150" viewBox="0 0 150 150" fill="none" xmlns="http://www.w3.org/2000/svg">
<path d="M122.389 69.5332C116.081 78.6006 115.4 85.3845 115.796 90.1986C115.795 90.1972 115.792 90.1972 115.791 90.1959C115.715 90.1592 108.628 86.662 104.745 80.4415C104.684 80.1564 104.574 79.8768 104.402 79.6202C99.4098 72.1303 100.702 59.6716 100.716 59.5467C100.86 58.2434 99.9175 57.0691 98.6142 56.9252C97.3137 56.7799 96.138 57.7207 95.9941 59.024C95.9384 59.5277 94.851 69.9255 98.4649 78.5096C95.8841 79.0296 91.256 79.9351 83.2883 81.4203C82.4181 81.5819 81.4935 81.6647 80.5405 81.6661H80.5378C67.3786 81.6661 51.4729 66.5546 51.3127 66.4012C50.5782 65.698 49.4799 65.5378 48.5744 66.0061C33.2498 73.9522 34.1662 77.3122 34.5097 78.5789C35.8768 83.5884 35.5415 87.0965 33.539 88.7229C29.1472 92.2907 24.4376 100.408 23.8484 105.424C23.7873 105.94 22.3619 106.209 20.9866 106.209C20.1259 106.209 19.3032 106.123 18.7208 106.042C17.5478 104.322 14.6344 99.3054 14.3995 91.7734C17.0767 91.6784 21.4156 90.8258 24.9549 86.848C25.8278 85.8678 25.7409 84.3663 24.7607 83.4948C23.7819 82.6232 22.2804 82.7101 21.4061 83.6903C19.1389 86.2371 16.3925 86.8901 14.6059 87.015C15.0702 83.0685 16.3015 78.6101 18.7479 73.7187C19.2041 72.8064 19.686 71.9199 20.1816 71.0456L21.0314 72.247C21.4957 72.9014 22.2288 73.2503 22.9728 73.2503C23.4479 73.2503 23.9272 73.1091 24.3426 72.8145C25.4137 72.0556 25.669 70.5745 24.9101 69.5033L22.9008 66.6619C33.8485 50.539 50.0624 42.0703 50.247 41.9766C50.3814 41.9074 50.5239 41.8151 50.642 41.7214C50.7018 41.6739 56.8707 36.9548 70.0598 37.1924C84.354 37.4436 106.589 36.4417 106.788 36.4335C106.859 36.4295 106.935 36.4227 107.007 36.4132C107.018 36.4118 108.173 36.2557 109.907 36.2557C114.489 36.2557 122.633 37.3065 125.692 44.3402C130.393 55.1576 129.931 58.69 122.389 69.5332ZM127.423 38.2446C122.513 32.4951 114.665 31.5041 109.907 31.5041C108.146 31.5041 106.87 31.6425 106.475 31.6901C104.866 31.762 83.8259 32.6798 70.144 32.4422C56.3236 32.172 49.222 36.8734 47.8929 37.8454C45.9135 38.8894 30.9731 47.0948 19.9738 62.5253L15.282 55.8961C14.5448 54.8535 13.118 54.5806 12.0495 55.2757L10.1122 56.5328C9.14019 57.1627 8.76549 58.4022 9.223 59.4652L14.4403 71.5777C14.4498 71.5995 14.4647 71.6185 14.4756 71.6402C3.10294 94.4384 15.043 109.134 15.5562 109.749C15.8983 110.158 16.3653 110.438 16.8853 110.549C16.9654 110.565 18.8511 110.96 20.9866 110.96C27.2995 110.96 28.3923 107.478 28.5675 105.981C28.9734 102.522 32.8072 95.4403 36.5352 92.4101C40.0677 89.5388 40.9759 84.646 39.2368 77.8621C40.2252 76.5316 44.5573 73.5843 49.3007 71.0021C51.4376 72.9055 56.0249 76.757 61.6875 80.1333L57.2332 94.847C57.1056 95.2692 57.0974 95.7186 57.2101 96.1449L64.5262 123.718C64.8086 124.782 65.7698 125.485 66.8206 125.485C67.0229 125.485 67.2279 125.46 67.4315 125.405C68.6995 125.069 69.4557 123.768 69.119 122.5L62.2075 96.4476L69.2222 83.921C72.9148 85.4185 76.7759 86.4177 80.5378 86.4177H80.5405C81.7854 86.4163 83.0032 86.3063 84.1599 86.0905C93.6698 84.3188 98.4486 83.3685 100.683 82.9083C104.231 88.617 109.84 92.292 112.387 93.7555L112.627 123.129C112.638 124.405 113.656 125.445 114.933 125.483C114.956 125.484 114.981 125.484 115.005 125.484C116.248 125.484 117.288 124.521 117.375 123.272C117.388 123.055 118.893 101.552 121.042 95.1009C121.165 94.7343 121.195 94.342 121.131 93.9605L121.015 93.2776C120.275 88.9849 119.157 82.4969 126.289 72.247C129.524 67.5959 131.611 63.9521 132.664 60.5309C132.751 61.3659 132.809 62.2103 132.809 63.0697V88.8003C132.809 90.1131 133.874 91.1761 135.185 91.1761C136.498 91.1761 137.561 90.1131 137.561 88.8003V63.0697C137.561 49.8914 127.694 38.3817 127.423 38.2446Z" fill="white"/>
</svg>
