<svg width="150" height="151" viewBox="0 0 150 151" fill="none" xmlns="http://www.w3.org/2000/svg">
<path d="M129.141 93.3363C128.705 93.3879 128.191 93.4259 127.613 93.4259C123.996 93.4259 118.751 92.0167 113.768 85.5382C118.751 79.0584 123.995 77.6492 127.611 77.6492C128.188 77.6492 128.704 77.6872 129.141 77.7402V93.3363ZM83.7864 104.541C82.7954 104.849 82.1207 105.768 82.1207 106.806V116.511C74.6349 115.612 69.8995 110.548 67.1748 106.235C66.9848 105.936 66.7336 105.686 66.439 105.499C66.1458 105.147 65.748 104.88 65.2851 104.744C55.9461 102.014 47.5534 95.5546 40.3229 85.5369C47.5534 75.5191 55.9461 69.061 65.2837 66.3309C65.748 66.1965 66.1458 65.9277 66.439 65.5774C66.7336 65.3887 66.9848 65.1375 67.1748 64.8402C69.8995 60.5271 74.6349 55.4633 82.1207 54.5632V64.2687C82.1207 65.3072 82.7954 66.225 83.7864 66.5359C92.8593 69.3773 101.027 75.7676 108.079 85.5369C101.025 95.3061 92.8593 101.696 83.7864 104.541ZM132.311 73.5723C132.116 73.5044 130.329 72.8976 127.611 72.8976C123.939 72.8976 117.213 74.1031 110.97 81.4668C103.948 72.1468 95.8609 65.7946 86.8723 62.5622V52.0476C86.8723 50.7361 85.8079 49.6718 84.4965 49.6718C73.4497 49.6718 66.8164 56.8222 63.6274 61.5793C63.3559 61.7055 63.1143 61.8793 62.912 62.0884C52.5345 65.4145 43.3204 72.8202 35.5115 84.1127C35.2373 84.5091 35.0907 84.9816 35.0907 85.4635V85.6102C35.0907 86.0948 35.2373 86.5659 35.5115 86.9623C43.3204 98.2535 52.5331 105.658 62.912 108.987C63.1143 109.196 63.3559 109.368 63.6274 109.494C66.8164 114.253 73.4497 121.405 84.4965 121.405C85.8079 121.405 86.8723 120.34 86.8723 119.029V108.514C95.8609 105.28 103.948 98.9282 110.971 89.6083C117.213 96.9733 123.939 98.1775 127.611 98.1775C130.329 98.1775 132.117 97.572 132.311 97.5014C133.26 97.1647 133.893 96.2687 133.893 95.2641V75.8124C133.893 74.805 133.259 73.909 132.311 73.5723Z" fill="white"/>
<path d="M26.2784 43.2228C25.1828 43.2228 24.2908 42.3308 24.2908 41.2339C24.2908 40.1397 25.1828 39.2463 26.2784 39.2463C27.3753 39.2463 28.2659 40.1397 28.2659 41.2339C28.2659 42.3308 27.3753 43.2228 26.2784 43.2228ZM26.2784 34.4947C22.5626 34.4947 19.5392 37.5181 19.5392 41.2339C19.5392 44.9496 22.5626 47.9744 26.2784 47.9744C29.9941 47.9744 33.0175 44.9496 33.0175 41.2339C33.0175 37.5181 29.9941 34.4947 26.2784 34.4947Z" fill="white"/>
<path d="M47.3027 25.7677C48.3996 25.7677 49.2902 26.6597 49.2902 27.7552C49.2902 28.8508 48.3996 29.7441 47.3027 29.7441C46.2071 29.7441 45.3152 28.8508 45.3152 27.7552C45.3152 26.6597 46.2071 25.7677 47.3027 25.7677ZM47.3027 34.4957C51.0185 34.4957 54.0418 31.4723 54.0418 27.7552C54.0418 24.0408 51.0185 21.0161 47.3027 21.0161C43.5869 21.0161 40.5636 24.0408 40.5636 27.7552C40.5636 31.4723 43.5869 34.4957 47.3027 34.4957Z" fill="white"/>
<path d="M45.9451 50.0585C47.0421 50.0585 47.9327 50.9504 47.9327 52.0474C47.9327 53.1443 47.0421 54.0349 45.9451 54.0349C44.8495 54.0349 43.9576 53.1443 43.9576 52.0474C43.9576 50.9504 44.8495 50.0585 45.9451 50.0585ZM45.9451 58.7865C49.6609 58.7865 52.6843 55.7631 52.6843 52.0474C52.6843 48.3316 49.6609 45.3069 45.9451 45.3069C42.2294 45.3069 39.206 48.3316 39.206 52.0474C39.206 55.7631 42.2294 58.7865 45.9451 58.7865Z" fill="white"/>
<path d="M65.6959 77.3274C64.7673 76.3988 63.2658 76.3988 62.3372 77.3274L61.5756 78.089L60.8126 77.3274C59.8854 76.3988 58.3811 76.3988 57.4539 77.3274C56.5253 78.256 56.5253 79.7589 57.4539 80.6875L58.2155 81.4477L57.4539 82.2107C56.5253 83.138 56.5253 84.6422 57.4539 85.5694C57.9168 86.0337 58.525 86.2659 59.1332 86.2659C59.7415 86.2659 60.3483 86.0337 60.8126 85.5694L61.5756 84.8078L62.3372 85.5694C62.8015 86.0337 63.407 86.2659 64.0165 86.2659C64.6247 86.2659 65.2316 86.0337 65.6959 85.5694C66.6245 84.6422 66.6245 83.138 65.6959 82.2107L64.9343 81.4477L65.6959 80.6875C66.6245 79.7589 66.6245 78.256 65.6959 77.3274Z" fill="white"/>
</svg>
