<svg width="150" height="151" viewBox="0 0 150 151" fill="none" xmlns="http://www.w3.org/2000/svg">
<path d="M119.661 96.0327C116.719 96.7997 113.678 97.5926 110.618 98.5293C109.496 98.8714 108.793 99.982 108.962 101.141C109.084 101.987 109.146 102.825 109.146 103.628C109.146 105.399 108.89 107.092 108.397 108.607H99.4923C99.0511 107.241 98.7985 105.716 98.7551 104.121C98.7347 103.447 98.4293 102.813 97.9147 102.375C97.4002 101.941 96.7282 101.745 96.0562 101.834C94.1162 102.101 92.206 102.283 90.2619 102.392C84.7582 102.969 79.4772 102.99 74.5654 102.451C73.9151 102.382 73.2702 102.576 72.7733 102.997C72.2764 103.418 71.9737 104.024 71.9357 104.674C71.8529 106.064 71.6085 107.4 71.2189 108.607H62.3144C61.8216 107.092 61.565 105.399 61.565 103.628C61.565 102.866 61.6166 102.089 61.7211 101.323C61.8636 100.27 61.2894 99.2489 60.3133 98.8266C55.3309 96.6613 51.1128 93.608 47.7636 89.7429C44.8733 86.4399 43.5184 82.3386 42.0848 77.9956C40.814 74.1482 39.4999 70.169 37.0304 66.4642C33.5875 61.3012 27.7227 61.6257 22.553 61.9135C21.418 61.9759 20.3414 62.0357 19.2961 62.0438C15.7446 61.3446 13.2819 57.709 13.8535 53.9783C15.3835 48.0578 20.6958 44.7439 25.3048 44.0841C30.5194 43.3415 34.846 44.5579 37.4811 47.5148C38.7369 48.9253 38.8903 49.8648 39.1686 51.5726C39.2487 52.0641 39.3343 52.58 39.4469 53.1339C41.4385 62.8244 45.605 69.9016 52.875 75.9022C51.9192 77.682 50.7924 79.4564 49.5068 81.1982C48.9759 81.9191 48.8945 82.8803 49.2991 83.6799C49.7023 84.4809 50.5223 84.9845 51.4183 84.9845H116.715C118.606 89.2664 123.639 91.9205 128.637 93.5429C125.728 94.4511 122.741 95.2304 119.661 96.0327ZM88.1821 35.0343C88.2038 35.0357 88.3151 35.037 88.3382 35.037L88.5188 35.0343C98.5596 35.0343 107.463 39.9814 112.935 47.5596H63.7399C69.2151 39.9814 78.1236 35.0343 88.1821 35.0343ZM58.3515 75.5424C58.547 75.108 58.6081 74.622 58.5253 74.1522C58.3556 73.1965 58.2144 70.8261 58.1316 68.6363H118.542C118.458 70.8288 118.318 73.2019 118.15 74.1495C118.066 74.622 118.125 75.1066 118.324 75.5424C119.031 77.1132 119.859 78.6812 120.801 80.2329H55.8726C56.8134 78.6812 57.6415 77.1118 58.3515 75.5424ZM60.9255 52.3112H115.747C117.421 55.8477 118.423 59.7617 118.592 63.8847H58.0814C58.2511 59.7617 59.253 55.8477 60.9255 52.3112ZM137.178 90.7109C130.215 89.5461 125.007 87.4839 122.453 84.9845H125.253C126.149 84.9845 126.97 84.4809 127.375 83.6799C127.778 82.8803 127.698 81.9204 127.166 81.1996C125.473 78.9038 124.053 76.5538 122.939 74.2052C123.241 71.6773 123.375 66.8076 123.375 65.1391C123.375 45.9196 107.74 30.2827 88.5188 30.2827L88.3111 30.2854C88.2907 30.2841 88.1767 30.2827 88.1549 30.2827C68.934 30.2827 53.2972 45.9196 53.2972 65.1391C53.2972 65.9673 53.3393 67.948 53.4329 69.9776C48.5714 65.1799 45.6145 59.5431 44.1022 52.1781C44.0031 51.6921 43.9284 51.2387 43.8578 50.8069C43.536 48.8343 43.2034 46.7952 41.0285 44.3543C37.3006 40.1715 31.4738 38.4053 24.6342 39.3814C18.4258 40.2692 11.2509 44.7996 9.21996 52.9194C9.20503 52.9818 9.19145 53.0443 9.18195 53.1067C8.12166 59.4725 12.4796 65.727 18.6974 66.7628C18.8263 66.7845 18.9567 66.7954 19.0884 66.7954C20.3306 66.7954 21.5945 66.7248 22.815 66.6569C27.9997 66.3705 31.2715 66.3908 33.0771 69.0993C35.1895 72.2693 36.3475 75.7759 37.5721 79.4863C39.0913 84.0872 40.6634 88.8442 44.1795 92.8641C47.6292 96.8473 51.8839 100.069 56.8446 102.461C56.8242 102.851 56.8134 103.242 56.8134 103.628C56.8134 106.641 57.4094 109.529 58.5375 111.976C58.9258 112.818 59.7675 113.358 60.6948 113.358H72.8399C73.7657 113.358 74.6088 112.819 74.9971 111.976C75.6379 110.589 76.1103 109.032 76.3968 107.39C80.9597 107.73 85.7629 107.642 90.6353 107.126C91.8055 107.065 93.007 106.968 94.2275 106.841C94.4977 108.683 95 110.427 95.7114 111.975C96.101 112.818 96.9441 113.358 97.8699 113.358H110.016C110.944 113.358 111.785 112.818 112.174 111.976C113.302 109.529 113.898 106.641 113.898 103.628C113.898 103.262 113.888 102.893 113.868 102.519C116.219 101.841 118.569 101.227 120.86 100.631C126.722 99.1022 132.258 97.6577 137.747 95.2276C138.707 94.8027 139.274 93.7981 139.144 92.7568C139.012 91.7155 138.212 90.8847 137.178 90.7109Z" fill="white"/>
<path d="M25.7044 49.6513H25.1125C23.4956 49.6513 22.1855 50.9613 22.1855 52.5796C22.1855 54.1951 23.4956 55.5066 25.1125 55.5066H25.7044C27.3226 55.5066 28.6327 54.1951 28.6327 52.5796C28.6327 50.9613 27.3226 49.6513 25.7044 49.6513Z" fill="white"/>
</svg>
