<svg width="150" height="150" viewBox="0 0 150 150" fill="none" xmlns="http://www.w3.org/2000/svg">
<path d="M62.5285 58.9952C63.8141 58.7372 64.6477 57.4842 64.387 56.1972C64.1277 54.9101 62.8692 54.0766 61.589 54.3372C51.5428 56.3655 33.6849 63.3666 26.9403 87.4912C22.4955 103.387 24.3867 117.751 24.4708 118.356C24.6337 119.547 25.6519 120.408 26.8208 120.408C26.9281 120.408 27.0367 120.401 27.1467 120.387C28.4472 120.208 29.3555 119.011 29.179 117.71C29.1586 117.572 27.334 103.728 31.5168 88.7714C37.5798 67.0838 53.5493 60.8076 62.5285 58.9952Z" fill="white"/>
<path d="M54.1534 80.4225C55.1268 79.5455 55.2056 78.0454 54.3299 77.0693C53.4516 76.0945 51.9514 76.013 50.9739 76.8901C50.4961 77.3204 39.2728 87.5744 40.462 101.448C40.5679 102.687 41.6065 103.621 42.827 103.621C42.8949 103.621 42.9627 103.619 43.032 103.612C43.3768 103.583 77.5259 100.364 77.5259 73.883C77.5259 72.5715 76.4615 71.5072 75.1501 71.5072C73.8373 71.5072 72.7743 72.5715 72.7743 73.883C72.7743 92.4305 52.4361 97.3722 45.1471 98.5479C45.6073 88.2735 54.0611 80.5067 54.1534 80.4225Z" fill="white"/>
<path d="M96.206 52.1198C90.9358 50.3563 85.3004 46.1287 81.1244 42.322C82.7888 42.0885 84.4098 41.4803 85.8841 40.4865C88.8573 38.4813 90.9453 35.1416 91.4693 31.5535C91.5589 30.9344 91.5956 30.3235 91.6051 29.7194L118.828 52.9547C115.459 54.4725 108.293 56.1668 96.206 52.1198ZM63.9399 120.685H59.4951L59.3919 112.838C60.9477 112.503 62.4302 112.062 63.8557 111.542L63.9399 120.685ZM124.376 51.4437L87.1399 19.6609C86.5331 19.1138 85.8868 18.5965 85.1673 18.1377C79.688 14.6473 72.5416 14.5821 67.3855 17.9693C62.551 21.1475 59.1788 26.7788 58.5855 32.664C58.0587 37.884 59.7014 42.679 63.2108 46.1667C65.531 48.4719 68.1864 50.4011 70.755 52.2664C74.0404 54.6517 77.1439 56.9067 79.4925 59.8242C83.0209 64.2092 83.7907 70.7135 81.848 79.7049C81.8385 79.7483 81.8398 79.7904 81.833 79.8325C81.833 79.8352 81.8303 79.8379 81.8303 79.842C80.2976 87.006 76.8873 96.8541 69.339 103.079C62.7072 108.547 53.0777 110.239 40.7127 108.099C39.4162 107.876 38.1916 108.744 37.9676 110.036C37.7436 111.329 38.6111 112.557 39.9035 112.783C43.6329 113.426 47.1504 113.748 50.4548 113.748C51.8979 113.748 53.2868 113.664 54.6484 113.54L54.7733 123.092C54.791 124.392 55.8499 125.437 57.1491 125.437H64.3091H66.3374H70.5473C71.8574 125.437 72.9231 124.374 72.9231 123.061C72.9231 121.75 71.8574 120.685 70.5473 120.685H68.6915L68.5869 109.333C69.9133 108.563 71.1827 107.716 72.3611 106.744C80.9642 99.6507 84.7872 88.7397 86.4774 80.8358C86.4869 80.7937 86.4842 80.7529 86.491 80.7109C86.491 80.7109 86.4923 80.7109 86.4923 80.7095C88.7582 70.2261 87.6789 62.4199 83.1934 56.8442C80.4496 53.4339 76.9416 50.8857 73.5476 48.4217C71.013 46.5821 68.6209 44.8444 66.5614 42.7971C64.0878 40.3372 62.9325 36.9079 63.3127 33.1405C63.7661 28.6428 66.3265 24.3514 69.9961 21.9403C73.5571 19.5985 78.7472 19.6813 82.615 22.1453C82.9938 22.387 83.4187 22.6938 83.8504 23.0671C83.9102 23.1282 83.9631 23.1961 84.031 23.2545L84.3378 23.5165C85.861 25.0139 87.2743 27.3856 86.7666 30.8679C86.434 33.1541 85.1103 35.2774 83.2273 36.5467C82.1358 37.2812 80.3723 38.0482 78.1757 37.5106C76.0497 36.9907 74.316 35.2312 73.8626 33.1269C73.606 31.9363 73.6766 30.219 75.4795 28.8071C76.5126 27.9966 76.6932 26.5046 75.884 25.4714C75.0749 24.4383 73.5802 24.2591 72.5484 25.0669C69.7165 27.2852 68.4715 30.6738 69.2169 34.1288C69.4612 35.2543 69.9215 36.3146 70.5215 37.2907C70.5717 37.4943 70.641 37.698 70.7496 37.8921C72.6095 41.1816 84.0649 53.0674 94.6977 56.6257C100.81 58.6716 105.871 59.4006 109.982 59.4006C119.87 59.4006 124.258 55.1852 124.512 54.9327C124.98 54.4644 125.233 53.8209 125.207 53.1583C125.183 52.4958 124.88 51.8741 124.376 51.4437Z" fill="white"/>
</svg>
