<svg width="150" height="150" viewBox="0 0 150 150" fill="none" xmlns="http://www.w3.org/2000/svg">
<path d="M105.95 109H87.1807L91.5033 88.3236C106.6 73.9167 115.01 71.4554 116.977 73.3275C119.342 75.5771 118.294 86.9171 105.95 109ZM70.7049 109H65.8596L57.9244 71.0522C62.5783 72.7248 68.1051 73.6873 74.0921 73.6873C80.0805 73.6873 85.6073 72.7248 90.2611 71.0522L82.3259 109H77.4807H70.7049ZM31.2068 73.3275C33.1821 71.4486 41.5965 73.9317 56.6822 88.3277L61.0048 109H42.2346C29.8913 86.9171 28.8419 75.5771 31.2068 73.3275ZM48.504 56.0548C48.504 52.4721 51.6876 48.9776 57.2388 46.4661C58.09 46.0819 58.6358 45.2347 58.6358 44.302V34.8328C58.6385 34.7595 58.6385 34.6862 58.6358 34.6128C58.6358 33.1181 59.8509 31.9031 61.3442 31.9031C62.8376 31.9031 64.054 33.1181 64.0526 34.587C64.0513 34.6074 64.0458 34.7079 64.0445 34.7269C64.0391 34.8396 64.0431 34.9495 64.054 35.0595V41.3818C64.054 42.0756 64.3554 42.734 64.8835 43.1861C65.4102 43.6368 66.1094 43.8364 66.7923 43.7305C71.5561 42.992 76.6281 42.992 81.3919 43.7305C82.0761 43.8337 82.7753 43.6368 83.3021 43.1861C83.8288 42.734 84.1329 42.0756 84.1329 41.3818V35.0568C84.1424 34.9563 84.1438 34.8531 84.1424 34.7486L84.1315 34.6128C84.1315 33.1181 85.3452 31.9031 86.84 31.9031C88.3333 31.9031 89.5497 33.1181 89.5484 34.5884C89.547 34.6128 89.5416 34.7255 89.5402 34.7486C89.5362 34.8518 89.5389 34.9536 89.5497 35.0541V44.302C89.5497 45.2347 90.0955 46.0819 90.9453 46.4661C96.4979 48.9776 99.6829 52.4721 99.6829 56.0548C99.6829 63.0383 87.9641 68.9357 74.0921 68.9357C60.2215 68.9357 48.504 63.0383 48.504 56.0548ZM120.251 69.8833C114.483 64.4 103.157 71.6333 93.1705 80.3558L95.6169 68.6588C95.6209 68.637 95.6196 68.614 95.6236 68.5909C101.093 65.4168 104.434 61.0046 104.434 56.0548C104.434 50.885 100.764 46.1171 94.3013 42.8087V34.8328C94.3013 34.7948 94.3 34.7567 94.2986 34.7187C94.3 34.6739 94.3013 34.6346 94.3013 34.6128C94.3013 30.4993 90.9535 27.1515 86.84 27.1515C82.7264 27.1515 79.3799 30.4993 79.3799 34.6128C79.3799 34.6576 79.3813 34.7024 79.3827 34.7486C79.3813 34.7758 79.3813 34.8056 79.3813 34.8328V38.6856C75.8882 38.334 72.2987 38.334 68.8056 38.6856V34.8328C68.8056 34.8002 68.8042 34.7649 68.8029 34.7323C68.8042 34.6929 68.8056 34.6536 68.8056 34.6128C68.8056 30.4993 65.4591 27.1515 61.3442 27.1515C57.2307 27.1515 53.8842 30.4993 53.8842 34.6128C53.8842 34.6522 53.8842 34.6916 53.8856 34.7323C53.8842 34.7649 53.8842 34.8002 53.8842 34.8328V42.8087C47.4234 46.1171 43.7524 50.885 43.7524 56.0548C43.7524 61.0046 47.0921 65.4168 52.5619 68.5909C52.566 68.614 52.5646 68.637 52.57 68.6588L55.0151 80.3558C45.0028 71.6061 33.6967 64.4027 27.9337 69.8847C20.38 77.0677 31.4865 99.6976 38.7795 112.549C39.2031 113.293 39.9919 113.751 40.8472 113.751H63.9291H64.2155H70.7049H77.4807H83.6387H84.2564H107.338C108.194 113.751 108.982 113.293 109.405 112.549C116.698 99.6976 127.807 77.0677 120.251 69.8833Z" fill="white"/>
<path d="M89.3164 55.1319C89.6802 53.872 88.9553 52.5551 87.6954 52.1886C86.4355 51.8234 85.1173 52.5511 84.7521 53.8096C83.2669 58.944 78.1827 61.2411 73.8031 61.2411C69.8307 61.2411 65.0207 59.2902 63.4337 53.8096C63.0672 52.5511 61.7489 51.822 60.4904 52.1899C59.2306 52.5551 58.5043 53.872 58.8695 55.1319C60.7796 61.7298 66.6417 65.9927 73.8017 65.9927H73.8044C81.202 65.9927 87.4361 61.628 89.3164 55.1319Z" fill="white"/>
</svg>
