<svg width="150" height="151" viewBox="0 0 150 151" fill="none" xmlns="http://www.w3.org/2000/svg">
<path d="M90.1648 106.099C87.4048 109.098 83.7502 110.834 79.2809 111.279V84.5293H96.7152C96.7329 89.0746 96.0867 99.6679 90.1648 106.099ZM74.5293 111.36C69.5877 111.096 65.5827 109.334 62.6096 106.111C56.6972 99.7019 56.0388 89.0841 56.051 84.5293H74.5293V111.36ZM105.34 96.2631H100.159C101.913 88.9782 101.417 82.3979 101.381 81.9594C101.278 80.7253 100.249 79.7777 99.0137 79.7777H53.7499C52.5145 79.7777 51.4841 80.7253 51.3822 81.9594C51.3456 82.3979 50.8487 88.9782 52.6027 96.2631H47.4235C46.112 96.2631 45.0477 97.3274 45.0477 98.6389C45.0477 99.9517 46.112 101.015 47.4235 101.015H53.6698C53.8042 101.015 53.9332 100.996 54.0608 100.975C54.7097 102.649 55.5121 104.297 56.4882 105.859C56.4637 105.882 56.4339 105.898 56.4108 105.922L52.4344 109.899C51.5071 110.825 51.5071 112.33 52.4344 113.258C52.8987 113.722 53.5069 113.954 54.1151 113.954C54.7219 113.954 55.3301 113.722 55.7944 113.258L59.4219 109.63C61.2696 111.555 63.3984 113.05 65.7877 114.122V120.018C65.7877 121.33 66.8521 122.394 68.1635 122.394C69.475 122.394 70.5393 121.33 70.5393 120.018V115.633C72.2173 115.965 73.9849 116.146 75.8571 116.146C76.0376 116.146 76.2128 116.127 76.3811 116.088C76.5508 116.127 76.7259 116.146 76.9051 116.146C78.7773 116.146 80.5449 115.965 82.2229 115.633V120.018C82.2229 121.33 83.2886 122.394 84.5987 122.394C85.9115 122.394 86.9745 121.33 86.9745 120.018V114.122C89.3638 113.05 91.4926 111.555 93.3402 109.63L96.9691 113.258C97.4334 113.722 98.0403 113.954 98.6485 113.954C99.2553 113.954 99.8649 113.722 100.328 113.258C101.256 112.33 101.256 110.825 100.328 109.899L96.3528 105.922C96.3283 105.898 96.2985 105.882 96.274 105.859C97.2501 104.297 98.0538 102.649 98.7014 100.975C98.829 100.996 98.958 101.015 99.0924 101.015H105.34C106.65 101.015 107.716 99.9517 107.716 98.6389C107.716 97.3274 106.65 96.2631 105.34 96.2631Z" fill="white"/>
<path d="M54.6603 55.9578C54.6833 56.1058 54.7173 56.2537 54.7689 56.4003C54.7919 56.4642 54.8367 56.513 54.8652 56.5741C56.5745 61.7059 58.3692 65.9389 59.1295 67.7268C56.6586 71.8865 56.474 75.9688 56.4713 76.0543C56.4319 77.3603 57.4542 78.4478 58.7616 78.4953C58.7901 78.4953 58.8186 78.4967 58.8471 78.4967C60.1164 78.4967 61.1686 77.4866 61.2202 76.2105C61.2704 74.9411 62.1433 63.954 76.3819 63.6649C90.6136 63.954 91.4906 74.9316 91.5422 76.2077C91.587 77.4893 92.6405 78.5007 93.9153 78.5007C93.9397 78.5007 93.9655 78.5007 93.9899 78.4994C95.3014 78.46 96.3318 77.3644 96.2911 76.0543C96.2884 75.9688 96.1037 71.8865 93.6329 67.7268C94.3945 65.9389 96.1879 61.7059 97.8971 56.5741C97.9256 56.513 97.9704 56.4642 97.9935 56.4003C98.0451 56.2537 98.079 56.1058 98.1021 55.9578C98.6832 54.1807 99.2493 52.3072 99.7543 50.3984C103.632 35.7309 98.523 25.0669 85.3692 20.3751C84.1365 19.9352 82.7748 20.5773 82.3336 21.8155C81.8937 23.0509 82.5372 24.4098 83.7726 24.8511C94.5778 28.7053 98.4103 36.8916 95.1602 49.1847C94.8615 50.3156 94.5384 51.4315 94.2044 52.5258L86.3711 49.7318C85.1384 49.2892 83.7781 49.9341 83.3355 51.1722C82.8956 52.4076 83.5405 53.7666 84.7759 54.2078L92.7165 57.0411C91.8042 59.6301 90.9095 61.8946 90.2145 63.5888C87.4164 61.1357 83.326 59.2255 77.3634 58.9418C77.2276 58.9187 77.0892 58.8997 76.9466 58.8997C76.7525 58.8997 76.5719 58.9119 76.3819 58.916C76.1904 58.9119 76.0099 58.8997 75.8157 58.8997C75.6732 58.8997 75.5347 58.9187 75.399 58.9418C69.4364 59.2255 65.3473 61.1357 62.5479 63.5888C61.8528 61.8946 60.9582 59.6301 60.0459 57.0411L67.9865 54.2078C69.2232 53.7666 69.8681 52.4076 69.4269 51.1722C68.9843 49.9341 67.6253 49.2892 66.3899 49.7318L58.5593 52.5258C58.2253 51.4315 57.9008 50.3156 57.6022 49.1847C54.3521 36.8916 58.1846 28.7053 68.9897 24.8511C70.2251 24.4098 70.87 23.0509 70.4288 21.8155C69.9862 20.5773 68.6272 19.9352 67.3932 20.3751C54.2408 25.0669 49.1321 35.7309 53.0081 50.3984C53.5131 52.3072 54.0792 54.1807 54.6603 55.9578Z" fill="white"/>
</svg>
