<svg width="150" height="150" viewBox="0 0 150 150" fill="none" xmlns="http://www.w3.org/2000/svg">
<path d="M122.1 77.5901C121.169 78.0748 116.94 78.0055 113.052 77.4408C112.935 77.4231 112.822 77.4245 112.708 77.4245L110.647 64.5572C110.44 63.262 109.225 62.3755 107.926 62.5873C106.63 62.795 105.748 64.0128 105.954 65.3093L111.554 100.274H105.582L94.9509 77.0064C94.4065 75.8144 92.9987 75.2917 91.8026 75.8334C90.6093 76.3791 90.0839 77.7883 90.6283 78.9817L95.1722 88.9247C70.0308 103.143 45.1609 81.2706 44.0911 80.3094C43.229 79.5383 41.9352 79.4962 41.027 80.2144L22.2921 95.0597L36.46 61.212L53.5468 64.0114C53.9812 64.082 54.4265 64.0331 54.8325 63.8661L95.8822 47.0278L133.117 57.2383C130.268 64.8911 125.428 75.5673 122.1 77.5901ZM138.324 54.5177C138.017 53.9366 137.485 53.509 136.851 53.3352L125.331 50.1761L133.177 44.671C134.252 43.9176 134.511 42.4364 133.758 41.3626C133.003 40.2873 131.523 40.0294 130.448 40.7815L119.51 48.456C119.469 48.4845 119.439 48.5198 119.401 48.5497L96.3574 42.2314C95.851 42.0916 95.3134 42.1255 94.8274 42.3237L53.6513 59.2136L36.3962 56.3858C36.3772 56.383 36.3609 56.3749 36.3433 56.3722C36.3161 56.3681 36.2917 56.3695 36.2632 56.364L35.3753 56.2188C35.1825 56.1875 34.9938 56.2079 34.8038 56.2242C26.0567 55.7925 20.5137 63.7752 18.7366 68.3123C18.2587 69.5314 18.8601 70.9053 20.0792 71.3859C20.3643 71.4986 20.6576 71.5515 20.9481 71.5515C21.8943 71.5515 22.789 70.9827 23.1596 70.05C23.2927 69.712 25.9196 63.2946 31.2088 61.4483L14.3502 101.732C13.932 102.733 14.2429 103.888 15.1063 104.544C15.5313 104.866 16.0363 105.026 16.5413 105.026C17.064 105.026 17.5853 104.853 18.017 104.511L42.4783 85.1275C48.7585 90.042 72.9198 106.681 97.1597 93.2758L101.895 103.638C102.281 104.484 103.125 105.026 104.056 105.026H114.343C115.038 105.026 115.699 104.72 116.15 104.191C116.601 103.661 116.799 102.961 116.689 102.274L113.488 82.2942C116.649 82.6893 122.168 83.1101 124.557 81.6575C130.793 77.8644 137.237 59.9549 138.467 56.4034C138.682 55.7816 138.63 55.1001 138.324 54.5177Z" fill="white"/>
<path d="M119.406 66.4164C121.306 66.4164 122.85 64.8714 122.85 62.9735C122.85 61.0742 121.306 59.5306 119.406 59.5306C117.508 59.5306 115.963 61.0742 115.963 62.9735C115.963 64.8714 117.508 66.4164 119.406 66.4164Z" fill="white"/>
</svg>
