<svg width="150" height="151" viewBox="0 0 150 151" fill="none" xmlns="http://www.w3.org/2000/svg">
<path d="M97.8106 41.583C96.8833 40.6544 95.3791 40.6544 94.4505 41.583L93.9944 42.0391L93.5369 41.583C92.6083 40.6544 91.104 40.6544 90.1768 41.583C89.2482 42.5116 89.2482 44.0158 90.1768 44.9417L90.6343 45.3992L90.1768 45.8554C89.2482 46.7826 89.2482 48.2868 90.1768 49.2154C90.6411 49.6784 91.2493 49.9119 91.8561 49.9119C92.4644 49.9119 93.0726 49.6784 93.5369 49.2154L93.9944 48.7579L94.4505 49.2154C94.9148 49.6784 95.5217 49.9119 96.1312 49.9119C96.7381 49.9119 97.3463 49.6784 97.8106 49.2154C98.7392 48.2868 98.7392 46.7826 97.8106 45.8554L97.3531 45.3992L97.8106 44.9417C98.7392 44.0158 98.7392 42.5116 97.8106 41.583Z" fill="white"/>
<path d="M76.0108 58.8923C77.3318 58.9099 78.4206 57.9135 78.4708 56.6034C78.5183 55.2946 77.496 54.1923 76.1859 54.1434C75.7081 54.123 64.4074 53.7687 58.6512 59.3131C56.6378 61.2504 55.5205 63.6398 55.321 66.4243C55.2993 66.5546 55.2884 66.6849 55.2884 66.818V67.3447C55.2884 67.4791 55.2993 67.6094 55.321 67.7384C55.5205 70.5242 56.6378 72.9163 58.6512 74.8536C63.6526 79.6717 72.8435 80.0315 75.4773 80.0315C75.8737 80.0315 76.1235 80.0247 76.1859 80.022C77.496 79.9718 78.5183 78.8721 78.4708 77.5607C78.4206 76.2519 77.3263 75.2256 76.0095 75.2731C73.3146 75.3763 65.5043 74.8658 61.942 71.4257C60.7229 70.25 60.0997 68.8259 60.0441 67.0827C60.0997 65.3382 60.7229 63.9154 61.942 62.7397C65.503 59.3009 73.3038 58.7932 76.0108 58.8923Z" fill="white"/>
<path d="M104.894 73.8584C98.3195 82.3326 85.0774 86.628 65.5389 86.628C55.2157 86.628 42.9579 85.4266 29.0506 83.0508C39.534 70.9722 78.0831 28.1657 97.7995 28.1657C100.923 28.1657 105.319 29.1268 107.452 37.4408C111.807 54.4244 110.994 65.9966 104.894 73.8584ZM123.644 45.1601H113.974C113.44 41.9969 112.753 38.983 112.054 36.261C109.331 25.6433 102.801 23.4141 97.7995 23.4141C72.7504 23.4141 24.747 80.7062 22.7161 83.1458C22.1757 83.7947 22.0196 84.6826 22.3088 85.4768C22.5966 86.2696 23.2835 86.852 24.1144 87.0041C39.9942 89.908 53.9314 91.3796 65.5389 91.3796C86.9197 91.3796 101.02 86.6022 108.648 76.7719C114.706 68.9643 115.571 59.0796 114.62 49.9117H123.644C124.957 49.9117 126.02 48.8487 126.02 47.5359C126.02 46.2245 124.957 45.1601 123.644 45.1601Z" fill="white"/>
<path d="M67.7909 95.1125C66.4781 95.1125 65.4151 96.1769 65.4151 97.4883V115.653C65.4151 116.964 66.4781 118.029 67.7909 118.029C69.1023 118.029 70.1667 116.964 70.1667 115.653V97.4883C70.1667 96.1769 69.1023 95.1125 67.7909 95.1125Z" fill="white"/>
<path d="M80.3952 95.1125C79.0824 95.1125 78.0194 96.1769 78.0194 97.4883V115.653C78.0194 116.964 79.0824 118.029 80.3952 118.029C81.7067 118.029 82.771 116.964 82.771 115.653V97.4883C82.771 96.1769 81.7067 95.1125 80.3952 95.1125Z" fill="white"/>
</svg>
